<?xml version="1.0" encoding="utf-8"?>
<!-- Generator: Adobe Illustrator 24.3.0, SVG Export Plug-In . SVG Version: 6.00 Build 0)  -->
<svg version="1.1" xmlns="http://www.w3.org/2000/svg" xmlns:xlink="http://www.w3.org/1999/xlink" x="0px" y="0px"
	 viewBox="0 0 435 390" style="enable-background:new 0 0 435 390;" xml:space="preserve">
<style type="text/css">
	.st0{fill:none;stroke:#0F546B;stroke-miterlimit:10;}
	.st1{fill:none;stroke:#0F546B;stroke-width:0.7164;stroke-miterlimit:10;}
	.st2{fill:#FFAC5A;}
	.st3{fill:#47B5C3;}
</style>
<g id="Camada_3">
	<line class="st0" x1="56.3" y1="107.4" x2="56.3" y2="279.5"/>
	<line class="st0" x1="411.7" y1="272.6" x2="52.5" y2="272.6"/>
	<g>
		<line class="st1" x1="51.1" y1="107.5" x2="56.6" y2="107.5"/>
		<line class="st1" x1="51.1" y1="125.8" x2="56.6" y2="125.8"/>
		<line class="st1" x1="51.1" y1="144.2" x2="56.6" y2="144.2"/>
		<line class="st1" x1="51.1" y1="162.5" x2="56.6" y2="162.5"/>
		<line class="st1" x1="51.1" y1="180.9" x2="56.6" y2="180.9"/>
		<line class="st1" x1="51.1" y1="199.2" x2="56.6" y2="199.2"/>
		<line class="st1" x1="51.1" y1="217.6" x2="56.6" y2="217.6"/>
		<line class="st1" x1="51.1" y1="235.9" x2="56.6" y2="235.9"/>
		<line class="st1" x1="51.1" y1="254.3" x2="56.6" y2="254.3"/>
	</g>
	<g>
		<line class="st1" x1="56.8" y1="107.5" x2="411.7" y2="107.5"/>
		<line class="st1" x1="56.8" y1="125.8" x2="411.7" y2="125.8"/>
		<line class="st1" x1="56.8" y1="144.2" x2="411.7" y2="144.2"/>
		<line class="st1" x1="56.8" y1="162.5" x2="411.7" y2="162.5"/>
		<line class="st1" x1="56.8" y1="180.9" x2="411.7" y2="180.9"/>
		<line class="st1" x1="56.8" y1="199.2" x2="411.7" y2="199.2"/>
		<line class="st1" x1="56.8" y1="217.6" x2="411.7" y2="217.6"/>
		<line class="st1" x1="56.8" y1="235.9" x2="411.7" y2="235.9"/>
		<line class="st1" x1="56.8" y1="254.3" x2="411.7" y2="254.3"/>
	</g>
	<line class="st1" x1="100.6" y1="278.2" x2="100.6" y2="272.6"/>
	<line class="st1" x1="144.9" y1="278.2" x2="144.9" y2="272.6"/>
	<line class="st1" x1="189.3" y1="278.2" x2="189.3" y2="272.6"/>
	<line class="st1" x1="233.6" y1="278.2" x2="233.6" y2="272.6"/>
	<line class="st1" x1="277.9" y1="278.2" x2="277.9" y2="272.6"/>
	<line class="st1" x1="322.3" y1="278.2" x2="322.3" y2="272.6"/>
	<line class="st1" x1="366.6" y1="278.2" x2="366.6" y2="272.6"/>
	<line class="st1" x1="410.9" y1="278.2" x2="410.9" y2="272.6"/>
</g>
<g id="Camada_5">
	<g>
		<rect x="67.2" y="259.8" class="st2" width="10.5" height="12.8"/>
		<rect x="81.3" y="248.5" class="st3" width="10.5" height="24.2"/>
	</g>
	<g>
		<rect x="111.4" y="254.5" class="st2" width="10.5" height="18.1"/>
		<rect x="125.5" y="238.5" class="st3" width="10.5" height="34.1"/>
	</g>
	<g>
		<rect x="155.6" y="242.5" class="st2" width="10.5" height="30.1"/>
		<rect x="169.7" y="235.9" class="st3" width="10.5" height="36.7"/>
	</g>
	<g>
		<rect x="199.8" y="225.9" class="st2" width="10.5" height="46.7"/>
		<rect x="213.9" y="235.9" class="st3" width="10.5" height="36.7"/>
	</g>
	<g>
		<rect x="244" y="199.2" class="st2" width="10.5" height="73.4"/>
		<rect x="258.1" y="235.9" class="st3" width="10.5" height="36.7"/>
	</g>
	<g>
		<rect x="288.2" y="174.7" class="st2" width="10.5" height="97.9"/>
		<rect x="302.2" y="239.4" class="st3" width="10.5" height="33.2"/>
	</g>
	<g>
		<rect x="332.4" y="144.2" class="st2" width="10.5" height="128.5"/>
		<rect x="346.4" y="235.9" class="st3" width="10.5" height="36.7"/>
	</g>
	<g>
		<rect x="376.6" y="125.8" class="st2" width="10.5" height="146.8"/>
		<rect x="390.6" y="248.5" class="st3" width="10.5" height="24.2"/>
	</g>
</g>
<g id="Camada_4">
	<g>
		<path d="M99,48c0,0.9-0.3,1.6-0.9,2.1s-1.4,0.7-2.5,0.7h-0.8v3H93v-8.6h2.7c1,0,1.8,0.2,2.4,0.7S99,47.1,99,48z M94.9,49.3h0.6
			c0.6,0,1-0.1,1.3-0.3s0.4-0.5,0.4-1c0-0.4-0.1-0.7-0.3-0.9s-0.6-0.3-1.1-0.3h-0.8V49.3z"/>
		<path d="M106.4,50.6c0,1.1-0.3,1.9-0.8,2.5s-1.3,0.9-2.3,0.9c-0.6,0-1.2-0.1-1.7-0.4s-0.8-0.7-1.1-1.2s-0.4-1.1-0.4-1.8
			c0-1.1,0.3-1.9,0.8-2.5s1.3-0.9,2.4-0.9c0.6,0,1.2,0.1,1.7,0.4s0.8,0.7,1.1,1.2S106.4,49.9,106.4,50.6z M101.9,50.6
			c0,0.6,0.1,1.1,0.3,1.5s0.6,0.5,1,0.5c0.5,0,0.8-0.2,1-0.5s0.3-0.8,0.3-1.5c0-0.6-0.1-1.1-0.3-1.5s-0.6-0.5-1-0.5
			c-0.5,0-0.8,0.2-1,0.5S101.9,49.9,101.9,50.6z"/>
		<path d="M111.5,54c-0.8,0-1.4-0.3-1.8-0.8h-0.1c0.1,0.5,0.1,0.9,0.1,0.9v2.7h-1.8v-9.4h1.5l0.3,0.8h0.1c0.4-0.6,1-1,1.9-1
			c0.8,0,1.4,0.3,1.8,0.9s0.7,1.4,0.7,2.5c0,0.7-0.1,1.3-0.3,1.8s-0.5,0.9-0.9,1.2S112,54,111.5,54z M110.9,48.6
			c-0.4,0-0.8,0.1-1,0.4s-0.3,0.7-0.3,1.3v0.2c0,0.7,0.1,1.2,0.3,1.5s0.5,0.5,1,0.5c0.8,0,1.2-0.7,1.2-2c0-0.6-0.1-1.1-0.3-1.5
			S111.4,48.6,110.9,48.6z"/>
		<path d="M120.1,53.9l-0.2-0.8h-0.1c-0.2,0.3-0.5,0.5-0.8,0.7s-0.8,0.2-1.2,0.2c-0.8,0-1.3-0.2-1.7-0.6s-0.6-1-0.6-1.8v-4.3h1.8
			v3.8c0,0.5,0.1,0.8,0.3,1.1s0.4,0.4,0.8,0.4c0.5,0,0.9-0.2,1.1-0.5s0.3-0.9,0.3-1.7v-3.1h1.8v6.6H120.1z"/>
		<path d="M125.1,53.9h-1.8v-9.1h1.8V53.9z"/>
		<path d="M131.2,53.9l-0.3-0.9h0c-0.3,0.4-0.6,0.6-0.9,0.8s-0.7,0.2-1.2,0.2c-0.6,0-1.1-0.2-1.5-0.5s-0.5-0.9-0.5-1.5
			c0-0.7,0.2-1.2,0.7-1.5s1.2-0.5,2.2-0.5l1.1,0v-0.3c0-0.7-0.3-1-1-1c-0.5,0-1.1,0.2-1.8,0.5l-0.6-1.2c0.8-0.4,1.6-0.6,2.5-0.6
			c0.9,0,1.6,0.2,2,0.6s0.7,1,0.7,1.7v4.4H131.2z M130.6,50.8l-0.7,0c-0.5,0-0.9,0.1-1.2,0.3s-0.4,0.4-0.4,0.8
			c0,0.5,0.3,0.8,0.9,0.8c0.4,0,0.7-0.1,1-0.4s0.4-0.6,0.4-0.9V50.8z"/>
		<path d="M136.9,54c-2,0-3.1-1.1-3.1-3.4c0-1.1,0.3-2,0.8-2.6s1.3-0.9,2.4-0.9c0.8,0,1.4,0.1,2,0.4l-0.5,1.4
			c-0.3-0.1-0.5-0.2-0.8-0.3s-0.5-0.1-0.7-0.1c-0.9,0-1.4,0.7-1.4,2c0,1.3,0.5,1.9,1.4,1.9c0.3,0,0.7,0,1-0.1s0.6-0.2,0.9-0.4v1.5
			c-0.3,0.2-0.6,0.3-0.9,0.4S137.4,54,136.9,54z M138,55.3c0,0.5-0.1,0.9-0.4,1.1s-0.8,0.3-1.4,0.3c-0.3,0-0.6,0-0.9-0.1v-1
			c0.1,0,0.2,0.1,0.4,0.1s0.3,0,0.4,0c0.3,0,0.4-0.1,0.4-0.4c0-0.3-0.3-0.5-1-0.6l0.5-0.9h1.1l-0.2,0.4c0.3,0.1,0.5,0.2,0.7,0.4
			S138,55.1,138,55.3z"/>
		<path d="M144.6,53.9l-0.3-0.9h0c-0.3,0.4-0.6,0.6-0.9,0.8S142.5,54,142,54c-0.6,0-1.1-0.2-1.5-0.5s-0.5-0.9-0.5-1.5
			c0-0.7,0.2-1.2,0.7-1.5s1.2-0.5,2.2-0.5l1.1,0v-0.3c0-0.7-0.3-1-1-1c-0.5,0-1.1,0.2-1.8,0.5l-0.6-1.2c0.8-0.4,1.6-0.6,2.5-0.6
			c0.9,0,1.6,0.2,2,0.6s0.7,1,0.7,1.7v4.4H144.6z M142.2,46c-0.1,0-0.2,0.1-0.3,0.2s-0.2,0.3-0.2,0.5h-0.9c0-0.6,0.2-1,0.5-1.3
			s0.6-0.5,1.1-0.5c0.2,0,0.3,0,0.5,0.1s0.3,0.1,0.5,0.2s0.3,0.1,0.4,0.2s0.3,0.1,0.4,0.1c0.1,0,0.2-0.1,0.3-0.2s0.2-0.3,0.2-0.5
			h0.9c0,0.6-0.2,1-0.5,1.3s-0.7,0.5-1.1,0.5c-0.2,0-0.3,0-0.5-0.1s-0.3-0.1-0.5-0.2s-0.3-0.1-0.4-0.2S142.4,46,142.2,46z
			 M144.1,50.8l-0.7,0c-0.5,0-0.9,0.1-1.2,0.3s-0.4,0.4-0.4,0.8c0,0.5,0.3,0.8,0.9,0.8c0.4,0,0.7-0.1,1-0.4s0.4-0.6,0.4-0.9V50.8z"
			/>
		<path d="M153.6,50.6c0,1.1-0.3,1.9-0.8,2.5s-1.3,0.9-2.3,0.9c-0.6,0-1.2-0.1-1.7-0.4s-0.8-0.7-1.1-1.2s-0.4-1.1-0.4-1.8
			c0-1.1,0.3-1.9,0.8-2.5s1.3-0.9,2.4-0.9c0.6,0,1.2,0.1,1.7,0.4s0.8,0.7,1.1,1.2S153.6,49.9,153.6,50.6z M149.1,50.6
			c0,0.6,0.1,1.1,0.3,1.5s0.6,0.5,1,0.5c0.5,0,0.8-0.2,1-0.5s0.3-0.8,0.3-1.5c0-0.6-0.1-1.1-0.3-1.5s-0.6-0.5-1-0.5
			c-0.5,0-0.8,0.2-1,0.5S149.1,49.9,149.1,50.6z"/>
		<path d="M157.8,51.3V50h5v1.3H157.8z"/>
		<path d="M172.5,51.5c0,0.8-0.3,1.4-0.8,1.8s-1.3,0.7-2.3,0.7c-0.9,0-1.7-0.2-2.4-0.5v-1.7c0.6,0.3,1.1,0.4,1.5,0.5
			s0.8,0.2,1.1,0.2c0.4,0,0.7-0.1,0.9-0.2s0.3-0.4,0.3-0.7c0-0.2,0-0.3-0.1-0.4s-0.2-0.3-0.4-0.4s-0.6-0.3-1.1-0.6
			c-0.5-0.2-0.9-0.5-1.2-0.7s-0.5-0.5-0.6-0.8s-0.2-0.7-0.2-1.1c0-0.8,0.3-1.4,0.8-1.8s1.2-0.7,2.1-0.7c0.4,0,0.9,0.1,1.3,0.2
			s0.8,0.3,1.3,0.4l-0.6,1.4c-0.5-0.2-0.8-0.3-1.1-0.4s-0.6-0.1-0.9-0.1c-0.3,0-0.6,0.1-0.8,0.2s-0.3,0.4-0.3,0.6
			c0,0.2,0,0.3,0.1,0.4s0.2,0.2,0.4,0.3s0.5,0.3,1.2,0.6c0.8,0.4,1.3,0.8,1.6,1.2S172.5,50.9,172.5,51.5z"/>
		<path d="M173.9,45.6c0-0.6,0.3-0.9,1-0.9s1,0.3,1,0.9c0,0.3-0.1,0.5-0.2,0.6s-0.4,0.2-0.7,0.2C174.2,46.5,173.9,46.2,173.9,45.6z
			 M175.7,53.9H174v-6.6h1.8V53.9z"/>
		<path d="M180.4,52.5c0.3,0,0.7-0.1,1.1-0.2v1.3c-0.4,0.2-1,0.3-1.6,0.3c-0.7,0-1.2-0.2-1.6-0.5s-0.5-0.9-0.5-1.6v-3.2H177v-0.8
			l1-0.6l0.5-1.4h1.1v1.4h1.8v1.3h-1.8v3.2c0,0.3,0.1,0.4,0.2,0.6S180.1,52.5,180.4,52.5z"/>
		<path d="M187.5,53.9l-0.2-0.8h-0.1c-0.2,0.3-0.5,0.5-0.8,0.7s-0.8,0.2-1.2,0.2c-0.8,0-1.3-0.2-1.7-0.6s-0.6-1-0.6-1.8v-4.3h1.8
			v3.8c0,0.5,0.1,0.8,0.3,1.1s0.4,0.4,0.8,0.4c0.5,0,0.9-0.2,1.1-0.5s0.3-0.9,0.3-1.7v-3.1h1.8v6.6H187.5z"/>
		<path d="M194.9,53.9l-0.3-0.9h0c-0.3,0.4-0.6,0.6-0.9,0.8s-0.7,0.2-1.2,0.2c-0.6,0-1.1-0.2-1.5-0.5s-0.5-0.9-0.5-1.5
			c0-0.7,0.2-1.2,0.7-1.5s1.2-0.5,2.2-0.5l1.1,0v-0.3c0-0.7-0.3-1-1-1c-0.5,0-1.1,0.2-1.8,0.5l-0.6-1.2c0.8-0.4,1.6-0.6,2.5-0.6
			c0.9,0,1.6,0.2,2,0.6s0.7,1,0.7,1.7v4.4H194.9z M194.3,50.8l-0.7,0c-0.5,0-0.9,0.1-1.2,0.3s-0.4,0.4-0.4,0.8
			c0,0.5,0.3,0.8,0.9,0.8c0.4,0,0.7-0.1,1-0.4s0.4-0.6,0.4-0.9V50.8z"/>
		<path d="M200.6,54c-2,0-3.1-1.1-3.1-3.4c0-1.1,0.3-2,0.8-2.6s1.3-0.9,2.4-0.9c0.8,0,1.4,0.1,2,0.4l-0.5,1.4
			c-0.3-0.1-0.5-0.2-0.8-0.3s-0.5-0.1-0.7-0.1c-0.9,0-1.4,0.7-1.4,2c0,1.3,0.5,1.9,1.4,1.9c0.3,0,0.7,0,1-0.1s0.6-0.2,0.9-0.4v1.5
			c-0.3,0.2-0.6,0.3-0.9,0.4S201.1,54,200.6,54z M201.7,55.3c0,0.5-0.1,0.9-0.4,1.1s-0.8,0.3-1.4,0.3c-0.3,0-0.6,0-0.9-0.1v-1
			c0.1,0,0.2,0.1,0.4,0.1s0.3,0,0.4,0c0.3,0,0.4-0.1,0.4-0.4c0-0.3-0.3-0.5-1-0.6l0.5-0.9h1.1l-0.2,0.4c0.3,0.1,0.5,0.2,0.7,0.4
			S201.7,55.1,201.7,55.3z"/>
		<path d="M208.3,53.9l-0.3-0.9h0c-0.3,0.4-0.6,0.6-0.9,0.8s-0.7,0.2-1.2,0.2c-0.6,0-1.1-0.2-1.5-0.5s-0.5-0.9-0.5-1.5
			c0-0.7,0.2-1.2,0.7-1.5s1.2-0.5,2.2-0.5l1.1,0v-0.3c0-0.7-0.3-1-1-1c-0.5,0-1.1,0.2-1.8,0.5l-0.6-1.2c0.8-0.4,1.6-0.6,2.5-0.6
			c0.9,0,1.6,0.2,2,0.6s0.7,1,0.7,1.7v4.4H208.3z M205.9,46c-0.1,0-0.2,0.1-0.3,0.2s-0.2,0.3-0.2,0.5h-0.9c0-0.6,0.2-1,0.5-1.3
			s0.6-0.5,1.1-0.5c0.2,0,0.3,0,0.5,0.1s0.3,0.1,0.5,0.2s0.3,0.1,0.4,0.2s0.3,0.1,0.4,0.1c0.1,0,0.2-0.1,0.3-0.2s0.2-0.3,0.2-0.5
			h0.9c0,0.6-0.2,1-0.5,1.3s-0.7,0.5-1.1,0.5c-0.2,0-0.3,0-0.5-0.1s-0.3-0.1-0.5-0.2s-0.3-0.1-0.4-0.2S206.1,46,205.9,46z
			 M207.8,50.8l-0.7,0c-0.5,0-0.9,0.1-1.2,0.3s-0.4,0.4-0.4,0.8c0,0.5,0.3,0.8,0.9,0.8c0.4,0,0.7-0.1,1-0.4s0.4-0.6,0.4-0.9V50.8z"
			/>
		<path d="M217.3,50.6c0,1.1-0.3,1.9-0.8,2.5s-1.3,0.9-2.3,0.9c-0.6,0-1.2-0.1-1.7-0.4s-0.8-0.7-1.1-1.2s-0.4-1.1-0.4-1.8
			c0-1.1,0.3-1.9,0.8-2.5s1.3-0.9,2.4-0.9c0.6,0,1.2,0.1,1.7,0.4s0.8,0.7,1.1,1.2S217.3,49.9,217.3,50.6z M212.8,50.6
			c0,0.6,0.1,1.1,0.3,1.5s0.6,0.5,1,0.5c0.5,0,0.8-0.2,1-0.5s0.3-0.8,0.3-1.5c0-0.6-0.1-1.1-0.3-1.5s-0.6-0.5-1-0.5
			c-0.5,0-0.8,0.2-1,0.5S212.8,49.9,212.8,50.6z"/>
		<path d="M224,54c-0.8,0-1.4-0.3-1.8-0.9s-0.7-1.4-0.7-2.5c0-1.1,0.2-1.9,0.7-2.5s1.1-0.9,1.8-0.9c0.8,0,1.5,0.3,1.9,1h0.1
			c-0.1-0.5-0.1-0.9-0.1-1.3v-2.1h1.8v9.1h-1.4l-0.3-0.8h-0.1C225.4,53.6,224.8,54,224,54z M224.6,52.5c0.5,0,0.8-0.1,1-0.4
			s0.3-0.7,0.3-1.4v-0.2c0-0.7-0.1-1.2-0.3-1.5s-0.6-0.5-1.1-0.5c-0.4,0-0.7,0.2-0.9,0.5s-0.3,0.8-0.3,1.5s0.1,1.1,0.3,1.5
			S224.2,52.5,224.6,52.5z"/>
		<path d="M232.5,54c-1.1,0-1.9-0.3-2.5-0.9s-0.9-1.4-0.9-2.5c0-1.1,0.3-1.9,0.8-2.5s1.3-0.9,2.3-0.9c0.9,0,1.6,0.3,2.2,0.8
			s0.8,1.3,0.8,2.2V51h-4.2c0,0.5,0.2,0.9,0.5,1.2s0.7,0.4,1.2,0.4c0.4,0,0.8,0,1.1-0.1s0.7-0.2,1.1-0.4v1.4c-0.3,0.2-0.6,0.3-1,0.3
			S233,54,232.5,54z M232.2,48.5c-0.4,0-0.7,0.1-0.9,0.4s-0.3,0.6-0.4,1h2.5c0-0.4-0.1-0.8-0.3-1S232.6,48.5,232.2,48.5z"/>
		<path d="M241.8,54c-0.8,0-1.4-0.3-1.8-0.9s-0.7-1.4-0.7-2.5c0-1.1,0.2-1.9,0.7-2.5s1.1-0.9,1.8-0.9c0.8,0,1.5,0.3,1.9,1h0.1
			c-0.1-0.5-0.1-0.9-0.1-1.3v-2.1h1.8v9.1h-1.4l-0.3-0.8h-0.1C243.2,53.6,242.6,54,241.8,54z M242.4,52.5c0.5,0,0.8-0.1,1-0.4
			s0.3-0.7,0.3-1.4v-0.2c0-0.7-0.1-1.2-0.3-1.5s-0.6-0.5-1.1-0.5c-0.4,0-0.7,0.2-0.9,0.5s-0.3,0.8-0.3,1.5s0.1,1.1,0.3,1.5
			S242,52.5,242.4,52.5z"/>
		<path d="M253.3,50.6c0,1.1-0.3,1.9-0.8,2.5s-1.3,0.9-2.3,0.9c-0.6,0-1.2-0.1-1.7-0.4s-0.8-0.7-1.1-1.2s-0.4-1.1-0.4-1.8
			c0-1.1,0.3-1.9,0.8-2.5s1.3-0.9,2.4-0.9c0.6,0,1.2,0.1,1.7,0.4s0.8,0.7,1.1,1.2S253.3,49.9,253.3,50.6z M248.7,50.6
			c0,0.6,0.1,1.1,0.3,1.5s0.6,0.5,1,0.5c0.5,0,0.8-0.2,1-0.5s0.3-0.8,0.3-1.5c0-0.6-0.1-1.1-0.3-1.5s-0.6-0.5-1-0.5
			c-0.5,0-0.8,0.2-1,0.5S248.7,49.9,248.7,50.6z"/>
		<path d="M260.6,53.9h-1.8V50c0-0.5-0.1-0.8-0.2-1.1s-0.4-0.4-0.7-0.4c-0.5,0-0.8,0.2-1,0.5s-0.3,0.9-0.3,1.7v3.1h-1.8v-6.6h1.4
			l0.2,0.8h0.1c0.2-0.3,0.4-0.5,0.8-0.7s0.7-0.3,1.1-0.3c1,0,1.6,0.3,2,1h0.2c0.2-0.3,0.4-0.5,0.8-0.7s0.7-0.3,1.2-0.3
			c0.7,0,1.3,0.2,1.7,0.6s0.6,1,0.6,1.8v4.3h-1.8V50c0-0.5-0.1-0.8-0.2-1.1s-0.4-0.4-0.7-0.4c-0.4,0-0.8,0.2-1,0.5s-0.3,0.8-0.3,1.5
			V53.9z"/>
		<path d="M266.5,45.6c0-0.6,0.3-0.9,1-0.9s1,0.3,1,0.9c0,0.3-0.1,0.5-0.2,0.6s-0.4,0.2-0.7,0.2C266.8,46.5,266.5,46.2,266.5,45.6z
			 M268.3,53.9h-1.8v-6.6h1.8V53.9z"/>
		<path d="M272.9,54c-2,0-3.1-1.1-3.1-3.4c0-1.1,0.3-2,0.8-2.6s1.3-0.9,2.4-0.9c0.8,0,1.4,0.1,2,0.4l-0.5,1.4
			c-0.3-0.1-0.5-0.2-0.8-0.3s-0.5-0.1-0.7-0.1c-0.9,0-1.4,0.7-1.4,2c0,1.3,0.5,1.9,1.4,1.9c0.3,0,0.7,0,1-0.1s0.6-0.2,0.9-0.4v1.5
			c-0.3,0.2-0.6,0.3-0.9,0.4S273.3,54,272.9,54z"/>
		<path d="M276.3,46.6v-0.2c0.7-0.8,1.1-1.4,1.4-1.8h2v0.1c-0.2,0.2-0.5,0.5-1,0.9s-0.9,0.7-1.2,0.9H276.3z M278.2,53.9h-1.8v-6.6
			h1.8V53.9z"/>
		<path d="M281.8,53.9H280v-9.1h1.8V53.9z"/>
		<path d="M283.6,45.6c0-0.6,0.3-0.9,1-0.9s1,0.3,1,0.9c0,0.3-0.1,0.5-0.2,0.6s-0.4,0.2-0.7,0.2C283.9,46.5,283.6,46.2,283.6,45.6z
			 M285.5,53.9h-1.8v-6.6h1.8V53.9z"/>
		<path d="M293.3,50.6c0,1.1-0.3,1.9-0.8,2.5s-1.3,0.9-2.3,0.9c-0.6,0-1.2-0.1-1.7-0.4s-0.8-0.7-1.1-1.2s-0.4-1.1-0.4-1.8
			c0-1.1,0.3-1.9,0.8-2.5s1.3-0.9,2.4-0.9c0.6,0,1.2,0.1,1.7,0.4s0.8,0.7,1.1,1.2S293.3,49.9,293.3,50.6z M288.8,50.6
			c0,0.6,0.1,1.1,0.3,1.5s0.6,0.5,1,0.5c0.5,0,0.8-0.2,1-0.5s0.3-0.8,0.3-1.5c0-0.6-0.1-1.1-0.3-1.5s-0.6-0.5-1-0.5
			c-0.5,0-0.8,0.2-1,0.5S288.8,49.9,288.8,50.6z"/>
		<path d="M303.9,53.9h-1.8V50c0-0.5-0.1-0.8-0.3-1.1s-0.4-0.4-0.8-0.4c-0.5,0-0.9,0.2-1.1,0.5s-0.3,0.9-0.3,1.7v3.1h-1.8v-6.6h1.4
			l0.2,0.8h0.1c0.2-0.3,0.5-0.6,0.8-0.7s0.7-0.2,1.2-0.2c0.8,0,1.3,0.2,1.7,0.6s0.6,1,0.6,1.8V53.9z"/>
		<path d="M311.7,50.6c0,1.1-0.3,1.9-0.8,2.5s-1.3,0.9-2.3,0.9c-0.6,0-1.2-0.1-1.7-0.4s-0.8-0.7-1.1-1.2s-0.4-1.1-0.4-1.8
			c0-1.1,0.3-1.9,0.8-2.5s1.3-0.9,2.4-0.9c0.6,0,1.2,0.1,1.7,0.4s0.8,0.7,1.1,1.2S311.7,49.9,311.7,50.6z M307.2,50.6
			c0,0.6,0.1,1.1,0.3,1.5s0.6,0.5,1,0.5c0.5,0,0.8-0.2,1-0.5s0.3-0.8,0.3-1.5c0-0.6-0.1-1.1-0.3-1.5s-0.6-0.5-1-0.5
			c-0.5,0-0.8,0.2-1,0.5S307.2,49.9,307.2,50.6z"/>
		<path d="M316.5,45.3h2.7c1.2,0,2.1,0.2,2.6,0.5s0.8,0.9,0.8,1.6c0,0.5-0.1,0.9-0.4,1.3s-0.6,0.5-1,0.6v0.1
			c0.5,0.1,0.9,0.3,1.2,0.7s0.4,0.8,0.4,1.3c0,0.8-0.3,1.4-0.8,1.8s-1.3,0.7-2.3,0.7h-3.2V45.3z M318.3,48.7h1.1
			c0.5,0,0.8-0.1,1.1-0.2s0.3-0.4,0.3-0.8c0-0.3-0.1-0.6-0.4-0.7s-0.6-0.2-1.1-0.2h-1V48.7z M318.3,50.1v2.2h1.2
			c0.5,0,0.9-0.1,1.1-0.3s0.4-0.5,0.4-0.9c0-0.7-0.5-1.1-1.5-1.1H318.3z"/>
		<path d="M328,47.2c0.2,0,0.4,0,0.6,0.1l-0.1,1.7c-0.1,0-0.3-0.1-0.5-0.1c-0.6,0-1,0.1-1.3,0.4s-0.5,0.7-0.5,1.2v3.3h-1.8v-6.6h1.4
			l0.3,1.1h0.1c0.2-0.4,0.5-0.7,0.8-0.9S327.6,47.2,328,47.2z"/>
		<path d="M334,53.9l-0.3-0.9h0c-0.3,0.4-0.6,0.6-0.9,0.8s-0.7,0.2-1.2,0.2c-0.6,0-1.1-0.2-1.5-0.5s-0.5-0.9-0.5-1.5
			c0-0.7,0.2-1.2,0.7-1.5s1.2-0.5,2.2-0.5l1.1,0v-0.3c0-0.7-0.3-1-1-1c-0.5,0-1.1,0.2-1.8,0.5l-0.6-1.2c0.8-0.4,1.6-0.6,2.5-0.6
			c0.9,0,1.6,0.2,2,0.6s0.7,1,0.7,1.7v4.4H334z M333.5,50.8l-0.7,0c-0.5,0-0.9,0.1-1.2,0.3s-0.4,0.4-0.4,0.8c0,0.5,0.3,0.8,0.9,0.8
			c0.4,0,0.7-0.1,1-0.4s0.4-0.6,0.4-0.9V50.8z"/>
		<path d="M341.7,51.9c0,0.7-0.2,1.2-0.7,1.5s-1.2,0.5-2.1,0.5c-0.5,0-0.9,0-1.2-0.1s-0.7-0.2-0.9-0.3v-1.5c0.3,0.2,0.7,0.3,1.1,0.4
			s0.8,0.2,1.1,0.2c0.6,0,1-0.2,1-0.6c0-0.1,0-0.3-0.1-0.3s-0.2-0.2-0.4-0.3s-0.5-0.2-0.8-0.4c-0.5-0.2-0.9-0.4-1.1-0.6
			s-0.4-0.4-0.5-0.6s-0.2-0.5-0.2-0.9c0-0.6,0.2-1,0.7-1.4s1.1-0.5,1.9-0.5c0.8,0,1.6,0.2,2.3,0.5l-0.5,1.3
			c-0.3-0.1-0.6-0.3-0.9-0.3s-0.6-0.1-0.9-0.1c-0.5,0-0.8,0.1-0.8,0.4c0,0.2,0.1,0.3,0.3,0.4s0.5,0.3,1.1,0.5
			c0.5,0.2,0.9,0.4,1.1,0.6s0.4,0.4,0.5,0.6S341.7,51.6,341.7,51.9z"/>
		<path d="M343,45.6c0-0.6,0.3-0.9,1-0.9s1,0.3,1,0.9c0,0.3-0.1,0.5-0.2,0.6s-0.4,0.2-0.7,0.2C343.3,46.5,343,46.2,343,45.6z
			 M344.8,53.9h-1.8v-6.6h1.8V53.9z"/>
		<path d="M348.5,53.9h-1.8v-9.1h1.8V53.9z"/>
	</g>
	<g>
		<path d="M19.4,247c-0.9,0-1.7-0.1-2.4-0.4s-1.4-0.6-2-1.1v-1c0.6,0.5,1.3,0.8,2.1,1s1.5,0.4,2.3,0.4s1.6-0.1,2.3-0.4s1.4-0.6,2-1
			v1c-0.6,0.5-1.2,0.8-1.9,1.1S20.2,247,19.4,247z"/>
		<path d="M22.1,238.9v1.2h-3.3c-0.4,0-0.7,0.1-0.9,0.2s-0.3,0.4-0.3,0.7c0,0.4,0.1,0.8,0.4,1s0.8,0.3,1.4,0.3h2.7v1.1h-5.4v-0.9
			l0.7-0.2v-0.1c-0.3-0.1-0.5-0.4-0.6-0.7s-0.2-0.6-0.2-0.9c0-0.8,0.3-1.4,0.8-1.7V239c-0.3-0.2-0.5-0.4-0.6-0.7s-0.2-0.6-0.2-1
			c0-0.6,0.2-1.1,0.5-1.4s0.8-0.4,1.5-0.4h3.5v1.1h-3.3c-0.4,0-0.7,0.1-0.9,0.2s-0.3,0.4-0.3,0.7c0,0.4,0.1,0.8,0.4,1
			s0.7,0.3,1.3,0.3H22.1z"/>
		<path d="M15.3,233.9c-0.2,0-0.4-0.1-0.5-0.2s-0.2-0.3-0.2-0.5c0-0.2,0.1-0.4,0.2-0.5s0.3-0.2,0.5-0.2c0.2,0,0.3,0.1,0.5,0.2
			s0.2,0.3,0.2,0.5c0,0.2-0.1,0.4-0.2,0.5S15.5,233.9,15.3,233.9z M22.1,232.7v1.1h-5.4v-1.1H22.1z"/>
		<path d="M22.1,229.9v1.1h-7.6v-1.1H22.1z"/>
		<path d="M22.1,223.5v1.2h-3.3c-0.4,0-0.7,0.1-0.9,0.3s-0.3,0.4-0.3,0.8c0,0.5,0.1,0.8,0.4,1.1s0.8,0.3,1.4,0.3h2.7v1.1h-7.6v-1.1
			h1.9c0.3,0,0.6,0,1,0.1v-0.1c-0.3-0.2-0.5-0.4-0.6-0.7s-0.2-0.6-0.2-1c0-1.3,0.7-2,2-2H22.1z"/>
		<path d="M19.4,217.2c0.9,0,1.6,0.2,2.1,0.7s0.7,1.1,0.7,1.9c0,0.5-0.1,1-0.3,1.3s-0.6,0.7-1,0.9s-0.9,0.3-1.5,0.3
			c-0.9,0-1.6-0.2-2.1-0.7s-0.7-1.1-0.7-1.9c0-0.8,0.3-1.4,0.8-1.9S18.5,217.2,19.4,217.2z M16,219c0,0.1,0,0.3-0.1,0.4
			s-0.1,0.3-0.2,0.4s-0.1,0.3-0.2,0.4s-0.1,0.2-0.1,0.3c0,0.3,0.2,0.4,0.6,0.5v0.6c-0.5,0-0.8-0.2-1-0.4s-0.4-0.5-0.4-0.8
			c0-0.1,0-0.3,0.1-0.4s0.1-0.3,0.2-0.4s0.1-0.2,0.2-0.4s0.1-0.2,0.1-0.3c0-0.3-0.2-0.4-0.6-0.5v-0.6c0.4,0,0.8,0.2,1,0.4
			S16,218.6,16,219z M19.4,221.1c1.2,0,1.9-0.5,1.9-1.4c0-0.9-0.6-1.4-1.9-1.4c-1.2,0-1.9,0.5-1.9,1.4c0,0.5,0.2,0.8,0.5,1
			S18.8,221.1,19.4,221.1z"/>
		<path d="M22.2,213.5c0,0.8-0.2,1.5-0.7,2s-1.2,0.7-2,0.7c-0.9,0-1.6-0.2-2.1-0.7s-0.8-1-0.8-1.8c0-0.7,0.2-1.3,0.6-1.7
			s1-0.6,1.8-0.6h0.6v3.6c0.5,0,0.9-0.2,1.2-0.4s0.4-0.6,0.4-1.1c0-0.3,0-0.6-0.1-0.9s-0.2-0.6-0.3-0.9h0.9c0.1,0.3,0.2,0.6,0.3,0.8
			S22.2,213.1,22.2,213.5z M17.5,213.7c0,0.4,0.1,0.7,0.3,0.9s0.6,0.4,1,0.4v-2.5c-0.4,0-0.8,0.1-1,0.3S17.5,213.3,17.5,213.7z"/>
		<path d="M20.6,206.4c0.5,0,0.9,0.2,1.2,0.6s0.4,0.9,0.4,1.7c0,0.7-0.1,1.3-0.3,1.7h-1c0.3-0.6,0.4-1.2,0.4-1.8
			c0-0.7-0.2-1.1-0.6-1.1c-0.1,0-0.3,0-0.3,0.1s-0.2,0.2-0.3,0.4s-0.2,0.4-0.3,0.7c-0.2,0.6-0.5,1-0.7,1.3s-0.6,0.3-0.9,0.3
			c-0.5,0-0.8-0.2-1.1-0.6s-0.4-0.9-0.4-1.5c0-0.6,0.1-1.2,0.4-1.8l0.9,0.4c-0.2,0.6-0.4,1.1-0.4,1.5c0,0.6,0.2,0.9,0.5,0.9
			c0.2,0,0.3-0.1,0.4-0.2s0.3-0.5,0.5-1c0.2-0.4,0.3-0.8,0.5-1s0.3-0.4,0.5-0.4S20.3,206.4,20.6,206.4z"/>
		<path d="M22.2,200.8c0,0.7-0.2,1.2-0.7,1.6s-1.2,0.6-2.1,0.6c-0.9,0-1.6-0.2-2.1-0.6s-0.7-0.9-0.7-1.6c0-0.7,0.3-1.2,0.8-1.6v-0.1
			c-0.4,0.1-0.7,0.1-0.9,0.1h-2V198h7.6v0.9l-0.7,0.2v0.1C21.9,199.5,22.2,200.1,22.2,200.8z M21.3,200.5c0-0.5-0.1-0.8-0.4-1
			s-0.7-0.3-1.3-0.3h-0.2c-0.7,0-1.2,0.1-1.5,0.3s-0.4,0.6-0.4,1c0,0.4,0.2,0.7,0.5,0.9s0.8,0.3,1.4,0.3c0.6,0,1.1-0.1,1.4-0.3
			S21.3,200.9,21.3,200.5z"/>
		<path d="M22.2,194c0,0.8-0.2,1.5-0.7,2s-1.2,0.7-2,0.7c-0.9,0-1.6-0.2-2.1-0.7s-0.8-1-0.8-1.8c0-0.7,0.2-1.3,0.6-1.7
			s1-0.6,1.8-0.6h0.6v3.6c0.5,0,0.9-0.2,1.2-0.4s0.4-0.6,0.4-1.1c0-0.3,0-0.6-0.1-0.9s-0.2-0.6-0.3-0.9h0.9c0.1,0.3,0.2,0.6,0.3,0.8
			S22.2,193.7,22.2,194z M17.5,194.2c0,0.4,0.1,0.7,0.3,0.9s0.6,0.4,1,0.4V193c-0.4,0-0.8,0.1-1,0.3S17.5,193.9,17.5,194.2z"/>
		<path d="M22.1,183.3v1.2h-3.3c-0.4,0-0.7,0.1-0.9,0.3s-0.3,0.4-0.3,0.8c0,0.5,0.1,0.8,0.4,1.1s0.8,0.3,1.4,0.3h2.7v1.1h-7.6v-1.1
			h1.9c0.3,0,0.6,0,1,0.1v-0.1c-0.3-0.2-0.5-0.4-0.6-0.7s-0.2-0.6-0.2-1c0-1.3,0.7-2,2-2H22.1z"/>
		<path d="M22.1,178.3l-0.8,0.2v0c0.3,0.3,0.6,0.5,0.7,0.8s0.2,0.6,0.2,1c0,0.5-0.1,0.9-0.4,1.2s-0.7,0.4-1.2,0.4
			c-0.6,0-1-0.2-1.3-0.6s-0.4-1-0.5-1.9l0-0.9h-0.3c-0.3,0-0.6,0.1-0.8,0.2s-0.3,0.4-0.3,0.7c0,0.3,0,0.5,0.1,0.8s0.2,0.5,0.3,0.7
			l-0.8,0.4c-0.2-0.3-0.3-0.6-0.3-1s-0.1-0.7-0.1-1c0-0.7,0.1-1.2,0.4-1.6s0.8-0.5,1.4-0.5h3.6V178.3z M21.3,180
			c0-0.4-0.1-0.8-0.3-1s-0.6-0.4-1-0.4h-0.5l0,0.7c0,0.5,0.1,0.9,0.3,1.2s0.4,0.4,0.7,0.4c0.2,0,0.4-0.1,0.6-0.2
			S21.3,180.3,21.3,180z"/>
		<path d="M16.6,173.1c0-0.7,0.2-1.2,0.7-1.6s1.2-0.6,2.1-0.6c0.9,0,1.6,0.2,2.1,0.6s0.7,0.9,0.7,1.6c0,0.7-0.2,1.2-0.7,1.6v0.1
			l0.6,0.2v0.9h-7.6v-1.1h1.8c0.1,0,0.3,0,0.6,0s0.4,0,0.5,0v0C16.9,174.4,16.6,173.8,16.6,173.1z M17.5,173.4c0,0.5,0.1,0.8,0.4,1
			s0.7,0.3,1.4,0.3h0.1c0.7,0,1.1-0.1,1.4-0.3s0.4-0.5,0.4-1c0-0.4-0.2-0.7-0.5-0.9s-0.8-0.3-1.4-0.3
			C18.2,172.1,17.5,172.6,17.5,173.4z"/>
		<path d="M15.3,169.7c-0.2,0-0.4-0.1-0.5-0.2s-0.2-0.3-0.2-0.5c0-0.2,0.1-0.4,0.2-0.5s0.3-0.2,0.5-0.2c0.2,0,0.3,0.1,0.5,0.2
			s0.2,0.3,0.2,0.5c0,0.2-0.1,0.4-0.2,0.5S15.5,169.7,15.3,169.7z M22.1,168.5v1.1h-5.4v-1.1H22.1z"/>
		<path d="M21.3,164.8c0-0.3,0-0.6-0.1-0.8H22c0.1,0.1,0.1,0.3,0.1,0.5s0.1,0.4,0.1,0.6c0,1.1-0.6,1.6-1.7,1.6h-2.9v0.7h-0.5
			l-0.4-0.8l-1.1-0.4v-0.7h1.2v-1.5h0.9v1.5h2.9c0.3,0,0.5-0.1,0.6-0.2S21.3,165.1,21.3,164.8z"/>
		<path d="M22.1,159.5l-0.8,0.2v0c0.3,0.3,0.6,0.5,0.7,0.8s0.2,0.6,0.2,1c0,0.5-0.1,0.9-0.4,1.2s-0.7,0.4-1.2,0.4
			c-0.6,0-1-0.2-1.3-0.6s-0.4-1-0.5-1.9l0-0.9h-0.3c-0.3,0-0.6,0.1-0.8,0.2s-0.3,0.4-0.3,0.7c0,0.3,0,0.5,0.1,0.8s0.2,0.5,0.3,0.7
			l-0.8,0.4c-0.2-0.3-0.3-0.6-0.3-1s-0.1-0.7-0.1-1c0-0.7,0.1-1.2,0.4-1.6s0.8-0.5,1.4-0.5h3.6V159.5z M21.3,161.3
			c0-0.4-0.1-0.8-0.3-1s-0.6-0.4-1-0.4h-0.5l0,0.7c0,0.5,0.1,0.9,0.3,1.2s0.4,0.4,0.7,0.4c0.2,0,0.4-0.1,0.6-0.2
			S21.3,161.5,21.3,161.3z"/>
		<path d="M22.1,152.4v1.2h-3.3c-0.4,0-0.7,0.1-0.9,0.3s-0.3,0.4-0.3,0.8c0,0.5,0.1,0.8,0.4,1.1s0.8,0.3,1.4,0.3h2.7v1.1h-5.4v-0.9
			l0.7-0.2V156c-0.3-0.2-0.5-0.4-0.6-0.7s-0.2-0.6-0.2-1c0-1.3,0.7-1.9,2-1.9H22.1z"/>
		<path d="M21.3,148.8c0-0.3,0-0.6-0.1-0.8H22c0.1,0.1,0.1,0.3,0.1,0.5s0.1,0.4,0.1,0.6c0,1.1-0.6,1.6-1.7,1.6h-2.9v0.7h-0.5
			l-0.4-0.8l-1.1-0.4v-0.7h1.2V148h0.9v1.5h2.9c0.3,0,0.5-0.1,0.6-0.2S21.3,149,21.3,148.8z"/>
		<path d="M22.2,144.5c0,0.8-0.2,1.5-0.7,2s-1.2,0.7-2,0.7c-0.9,0-1.6-0.2-2.1-0.7s-0.8-1-0.8-1.8c0-0.7,0.2-1.3,0.6-1.7
			s1-0.6,1.8-0.6h0.6v3.6c0.5,0,0.9-0.2,1.2-0.4s0.4-0.6,0.4-1.1c0-0.3,0-0.6-0.1-0.9s-0.2-0.6-0.3-0.9h0.9c0.1,0.3,0.2,0.6,0.3,0.8
			S22.2,144.1,22.2,144.5z M17.5,144.7c0,0.4,0.1,0.7,0.3,0.9s0.6,0.4,1,0.4v-2.5c-0.4,0-0.8,0.1-1,0.3S17.5,144.3,17.5,144.7z"/>
		<path d="M20.6,137.5c0.5,0,0.9,0.2,1.2,0.6s0.4,0.9,0.4,1.7c0,0.7-0.1,1.3-0.3,1.7h-1c0.3-0.6,0.4-1.2,0.4-1.8
			c0-0.7-0.2-1.1-0.6-1.1c-0.1,0-0.3,0-0.3,0.1s-0.2,0.2-0.3,0.4s-0.2,0.4-0.3,0.7c-0.2,0.6-0.5,1-0.7,1.3s-0.6,0.3-0.9,0.3
			c-0.5,0-0.8-0.2-1.1-0.6s-0.4-0.9-0.4-1.5c0-0.6,0.1-1.2,0.4-1.8l0.9,0.4c-0.2,0.6-0.4,1.1-0.4,1.5c0,0.6,0.2,0.9,0.5,0.9
			c0.2,0,0.3-0.1,0.4-0.2s0.3-0.5,0.5-1c0.2-0.4,0.3-0.8,0.5-1s0.3-0.4,0.5-0.4S20.3,137.5,20.6,137.5z"/>
		<path d="M19.4,134.3c0.9,0,1.7,0.1,2.4,0.4s1.4,0.6,1.9,1.1v1c-0.6-0.4-1.3-0.8-2-1s-1.5-0.4-2.3-0.4c-0.8,0-1.6,0.1-2.3,0.4
			s-1.4,0.6-2.1,1v-1c0.6-0.5,1.2-0.8,2-1.1S18.5,134.3,19.4,134.3z"/>
	</g>
	<g>
		<path d="M70.8,287.2H70v-5.1c0-0.4,0-0.8,0-1.2c-0.1,0.1-0.1,0.1-0.2,0.2c-0.1,0.1-0.5,0.4-1.2,1l-0.4-0.6l1.9-1.5h0.7V287.2z"/>
		<path d="M78.2,283.1c0,2.8-1.1,4.2-3.2,4.2c-0.4,0-0.7,0-0.9-0.1v-0.7c0.3,0.1,0.6,0.1,0.9,0.1c0.8,0,1.4-0.2,1.8-0.7
			s0.6-1.2,0.7-2.2h-0.1c-0.2,0.3-0.4,0.5-0.7,0.6s-0.6,0.2-1,0.2c-0.6,0-1.1-0.2-1.5-0.6c-0.4-0.4-0.6-0.9-0.6-1.6
			c0-0.7,0.2-1.3,0.6-1.8s1-0.6,1.6-0.6c0.5,0,0.9,0.1,1.3,0.4s0.6,0.6,0.8,1.1C78.1,281.9,78.2,282.5,78.2,283.1z M75.8,280.7
			c-0.5,0-0.8,0.1-1.1,0.4c-0.3,0.3-0.4,0.7-0.4,1.2c0,0.5,0.1,0.8,0.4,1.1s0.6,0.4,1.1,0.4c0.3,0,0.6-0.1,0.8-0.2
			c0.2-0.1,0.4-0.3,0.6-0.5c0.1-0.2,0.2-0.4,0.2-0.7c0-0.3-0.1-0.7-0.2-0.9c-0.1-0.3-0.3-0.5-0.6-0.7S76.1,280.7,75.8,280.7z"/>
		<path d="M84.3,285.6h-1.1v1.6h-0.8v-1.6H79v-0.7l3.4-4.8h0.9v4.8h1.1V285.6z M82.4,284.8v-2.4c0-0.5,0-1,0-1.6h0
			c-0.2,0.3-0.3,0.6-0.4,0.8l-2.2,3.2H82.4z"/>
		<path d="M89.7,283.6c0,1.2-0.2,2.2-0.6,2.8c-0.4,0.6-1,0.9-1.8,0.9c-0.8,0-1.4-0.3-1.8-0.9c-0.4-0.6-0.6-1.5-0.6-2.7
			c0-1.2,0.2-2.2,0.6-2.8c0.4-0.6,1-0.9,1.8-0.9c0.8,0,1.4,0.3,1.8,0.9C89.5,281.5,89.7,282.4,89.7,283.6z M85.8,283.6
			c0,1,0.1,1.8,0.4,2.3s0.6,0.7,1.2,0.7c0.5,0,0.9-0.2,1.2-0.7c0.2-0.5,0.4-1.2,0.4-2.3s-0.1-1.8-0.4-2.3c-0.2-0.5-0.6-0.7-1.2-0.7
			c-0.5,0-0.9,0.2-1.2,0.7C85.9,281.8,85.8,282.6,85.8,283.6z"/>
	</g>
	<g>
		<rect x="158.6" y="305.4" class="st2" width="20.5" height="6"/>
		<rect x="226.8" y="305.4" class="st3" width="20.5" height="6"/>
		<g>
			<path d="M190.3,304v4.6c0,0.8-0.2,1.5-0.7,1.9c-0.5,0.5-1.2,0.7-2,0.7s-1.5-0.2-2-0.7s-0.7-1.1-0.7-1.9V304h0.8v4.7
				c0,0.6,0.2,1.1,0.5,1.4c0.3,0.3,0.8,0.5,1.4,0.5c0.6,0,1.1-0.2,1.4-0.5c0.3-0.3,0.5-0.8,0.5-1.4V304H190.3z"/>
			<path d="M194.5,305.7c0.2,0,0.5,0,0.6,0.1l-0.1,0.8c-0.2,0-0.4-0.1-0.6-0.1c-0.4,0-0.8,0.2-1.1,0.5s-0.5,0.8-0.5,1.3v2.9H192
				v-5.4h0.7l0.1,1h0c0.2-0.3,0.4-0.6,0.7-0.8C193.8,305.7,194.1,305.7,194.5,305.7z"/>
			<path d="M198.6,305.7c0.7,0,1.2,0.2,1.6,0.7c0.4,0.5,0.6,1.2,0.6,2s-0.2,1.6-0.6,2c-0.4,0.5-0.9,0.7-1.6,0.7
				c-0.3,0-0.7-0.1-1-0.2c-0.3-0.1-0.5-0.3-0.7-0.6h-0.1l-0.2,0.7h-0.6v-7.6h0.8v1.8c0,0.4,0,0.8,0,1.1h0
				C197.3,305.9,197.9,305.7,198.6,305.7z M198.5,306.3c-0.6,0-1,0.2-1.2,0.5s-0.4,0.9-0.4,1.6s0.1,1.3,0.4,1.6
				c0.3,0.3,0.7,0.5,1.2,0.5c0.5,0,0.9-0.2,1.1-0.5c0.2-0.4,0.4-0.9,0.4-1.6c0-0.7-0.1-1.2-0.4-1.6S199,306.3,198.5,306.3z"/>
			<path d="M205.5,311.1l-0.2-0.8h0c-0.3,0.3-0.5,0.6-0.8,0.7c-0.3,0.1-0.6,0.2-1,0.2c-0.5,0-0.9-0.1-1.2-0.4s-0.5-0.7-0.5-1.2
				c0-1.1,0.9-1.6,2.6-1.7l0.9,0v-0.3c0-0.4-0.1-0.7-0.3-0.9s-0.5-0.3-0.9-0.3c-0.4,0-1,0.1-1.5,0.4l-0.2-0.6
				c0.3-0.1,0.6-0.3,0.9-0.3c0.3-0.1,0.6-0.1,0.9-0.1c0.6,0,1.1,0.1,1.4,0.4s0.5,0.7,0.5,1.4v3.7H205.5z M203.7,310.5
				c0.5,0,0.9-0.1,1.2-0.4c0.3-0.3,0.4-0.7,0.4-1.2v-0.5l-0.8,0c-0.6,0-1.1,0.1-1.4,0.3c-0.3,0.2-0.4,0.5-0.4,0.8
				c0,0.3,0.1,0.5,0.3,0.7C203.1,310.5,203.4,310.5,203.7,310.5z"/>
			<path d="M211.5,311.1v-3.5c0-0.4-0.1-0.8-0.3-1s-0.5-0.3-0.9-0.3c-0.6,0-1,0.2-1.2,0.5s-0.4,0.8-0.4,1.5v2.8h-0.8v-5.4h0.7
				l0.1,0.7h0c0.2-0.3,0.4-0.5,0.7-0.6c0.3-0.1,0.6-0.2,1-0.2c0.6,0,1.1,0.2,1.5,0.5c0.3,0.3,0.5,0.8,0.5,1.5v3.5H211.5z"/>
			<path d="M217.2,311.1l-0.2-0.8h0c-0.3,0.3-0.5,0.6-0.8,0.7c-0.3,0.1-0.6,0.2-1,0.2c-0.5,0-0.9-0.1-1.2-0.4s-0.5-0.7-0.5-1.2
				c0-1.1,0.9-1.6,2.6-1.7l0.9,0v-0.3c0-0.4-0.1-0.7-0.3-0.9s-0.5-0.3-0.9-0.3c-0.4,0-1,0.1-1.5,0.4l-0.2-0.6
				c0.3-0.1,0.6-0.3,0.9-0.3c0.3-0.1,0.6-0.1,0.9-0.1c0.6,0,1.1,0.1,1.4,0.4s0.5,0.7,0.5,1.4v3.7H217.2z M215.4,310.5
				c0.5,0,0.9-0.1,1.2-0.4c0.3-0.3,0.4-0.7,0.4-1.2v-0.5l-0.8,0c-0.6,0-1.1,0.1-1.4,0.3c-0.3,0.2-0.4,0.5-0.4,0.8
				c0,0.3,0.1,0.5,0.3,0.7C214.8,310.5,215.1,310.5,215.4,310.5z"/>
		</g>
		<g>
			<path d="M252,308.1v3h-0.8V304h2c0.9,0,1.5,0.2,1.9,0.5c0.4,0.3,0.6,0.8,0.6,1.5c0,0.9-0.5,1.6-1.4,1.9l1.9,3.2h-1l-1.7-3H252z
				 M252,307.4h1.1c0.6,0,1-0.1,1.3-0.3c0.3-0.2,0.4-0.6,0.4-1c0-0.5-0.1-0.8-0.4-1c-0.3-0.2-0.7-0.3-1.3-0.3H252V307.4z"/>
			<path d="M258,305.8v3.5c0,0.4,0.1,0.8,0.3,1c0.2,0.2,0.5,0.3,0.9,0.3c0.6,0,1-0.2,1.2-0.5c0.3-0.3,0.4-0.8,0.4-1.5v-2.8h0.8v5.4
				h-0.7l-0.1-0.7h0c-0.2,0.3-0.4,0.5-0.7,0.6c-0.3,0.1-0.6,0.2-1,0.2c-0.7,0-1.1-0.2-1.5-0.5c-0.3-0.3-0.5-0.8-0.5-1.5v-3.5H258z"
				/>
			<path d="M265.8,305.7c0.2,0,0.5,0,0.6,0.1l-0.1,0.8c-0.2,0-0.4-0.1-0.6-0.1c-0.4,0-0.8,0.2-1.1,0.5s-0.5,0.8-0.5,1.3v2.9h-0.8
				v-5.4h0.7l0.1,1h0c0.2-0.3,0.4-0.6,0.7-0.8C265.1,305.7,265.4,305.7,265.8,305.7z"/>
			<path d="M270.7,311.1l-0.2-0.8h0c-0.3,0.3-0.5,0.6-0.8,0.7c-0.3,0.1-0.6,0.2-1,0.2c-0.5,0-0.9-0.1-1.2-0.4
				c-0.3-0.3-0.5-0.7-0.5-1.2c0-1.1,0.9-1.6,2.6-1.7l0.9,0v-0.3c0-0.4-0.1-0.7-0.3-0.9s-0.5-0.3-0.9-0.3c-0.4,0-1,0.1-1.5,0.4
				l-0.2-0.6c0.3-0.1,0.6-0.3,0.9-0.3c0.3-0.1,0.6-0.1,0.9-0.1c0.6,0,1.1,0.1,1.4,0.4s0.5,0.7,0.5,1.4v3.7H270.7z M268.9,310.5
				c0.5,0,0.9-0.1,1.2-0.4c0.3-0.3,0.4-0.7,0.4-1.2v-0.5l-0.8,0c-0.6,0-1.1,0.1-1.4,0.3c-0.3,0.2-0.4,0.5-0.4,0.8
				c0,0.3,0.1,0.5,0.3,0.7C268.3,310.5,268.6,310.5,268.9,310.5z"/>
			<path d="M273.8,311.1H273v-7.6h0.8V311.1z"/>
		</g>
	</g>
	<g>
		<path d="M114.9,287.2h-0.8v-5.1c0-0.4,0-0.8,0-1.2c-0.1,0.1-0.1,0.1-0.2,0.2c-0.1,0.1-0.5,0.4-1.2,1l-0.4-0.6l1.9-1.5h0.7V287.2z"
			/>
		<path d="M122.3,283.1c0,2.8-1.1,4.2-3.2,4.2c-0.4,0-0.7,0-0.9-0.1v-0.7c0.3,0.1,0.6,0.1,0.9,0.1c0.8,0,1.4-0.2,1.8-0.7
			s0.6-1.2,0.7-2.2h-0.1c-0.2,0.3-0.4,0.5-0.7,0.6s-0.6,0.2-1,0.2c-0.6,0-1.1-0.2-1.5-0.6c-0.4-0.4-0.6-0.9-0.6-1.6
			c0-0.7,0.2-1.3,0.6-1.8s1-0.6,1.6-0.6c0.5,0,0.9,0.1,1.3,0.4s0.6,0.6,0.8,1.1C122.2,281.9,122.3,282.5,122.3,283.1z M119.9,280.7
			c-0.5,0-0.8,0.1-1.1,0.4c-0.3,0.3-0.4,0.7-0.4,1.2c0,0.5,0.1,0.8,0.4,1.1s0.6,0.4,1.1,0.4c0.3,0,0.6-0.1,0.8-0.2
			c0.2-0.1,0.4-0.3,0.6-0.5c0.1-0.2,0.2-0.4,0.2-0.7c0-0.3-0.1-0.7-0.2-0.9c-0.1-0.3-0.3-0.5-0.6-0.7S120.2,280.7,119.9,280.7z"/>
		<path d="M125.5,282.9c0.8,0,1.3,0.2,1.8,0.6c0.4,0.4,0.6,0.9,0.6,1.5c0,0.7-0.2,1.3-0.7,1.7s-1.1,0.6-1.9,0.6
			c-0.8,0-1.4-0.1-1.8-0.4v-0.8c0.2,0.1,0.5,0.3,0.8,0.3s0.7,0.1,1,0.1c0.6,0,1-0.1,1.3-0.4c0.3-0.3,0.5-0.7,0.5-1.2
			c0-1-0.6-1.5-1.8-1.5c-0.3,0-0.7,0-1.2,0.1l-0.4-0.3l0.3-3.3h3.5v0.7h-2.9l-0.2,2.1C124.8,282.9,125.2,282.9,125.5,282.9z"/>
		<path d="M133.8,283.6c0,1.2-0.2,2.2-0.6,2.8c-0.4,0.6-1,0.9-1.8,0.9c-0.8,0-1.4-0.3-1.8-0.9c-0.4-0.6-0.6-1.5-0.6-2.7
			c0-1.2,0.2-2.2,0.6-2.8c0.4-0.6,1-0.9,1.8-0.9c0.8,0,1.4,0.3,1.8,0.9C133.6,281.5,133.8,282.4,133.8,283.6z M129.9,283.6
			c0,1,0.1,1.8,0.4,2.3s0.6,0.7,1.2,0.7c0.5,0,0.9-0.2,1.2-0.7c0.2-0.5,0.4-1.2,0.4-2.3s-0.1-1.8-0.4-2.3c-0.2-0.5-0.6-0.7-1.2-0.7
			c-0.5,0-0.9,0.2-1.2,0.7C130,281.8,129.9,282.6,129.9,283.6z"/>
	</g>
	<g>
		<path d="M158.9,287.2h-0.8v-5.1c0-0.4,0-0.8,0-1.2c-0.1,0.1-0.1,0.1-0.2,0.2c-0.1,0.1-0.5,0.4-1.2,1l-0.4-0.6l1.9-1.5h0.7V287.2z"
			/>
		<path d="M166.4,283.1c0,2.8-1.1,4.2-3.2,4.2c-0.4,0-0.7,0-0.9-0.1v-0.7c0.3,0.1,0.6,0.1,0.9,0.1c0.8,0,1.4-0.2,1.8-0.7
			s0.6-1.2,0.7-2.2h-0.1c-0.2,0.3-0.4,0.5-0.7,0.6s-0.6,0.2-1,0.2c-0.6,0-1.1-0.2-1.5-0.6c-0.4-0.4-0.6-0.9-0.6-1.6
			c0-0.7,0.2-1.3,0.6-1.8s1-0.6,1.6-0.6c0.5,0,0.9,0.1,1.3,0.4s0.6,0.6,0.8,1.1C166.3,281.9,166.4,282.5,166.4,283.1z M164,280.7
			c-0.5,0-0.8,0.1-1.1,0.4c-0.3,0.3-0.4,0.7-0.4,1.2c0,0.5,0.1,0.8,0.4,1.1s0.6,0.4,1.1,0.4c0.3,0,0.6-0.1,0.8-0.2
			c0.2-0.1,0.4-0.3,0.6-0.5c0.1-0.2,0.2-0.4,0.2-0.7c0-0.3-0.1-0.7-0.2-0.9c-0.1-0.3-0.3-0.5-0.6-0.7S164.3,280.7,164,280.7z"/>
		<path d="M167.5,284.2c0-1.4,0.3-2.5,0.8-3.1c0.5-0.7,1.4-1,2.4-1c0.4,0,0.7,0,0.9,0.1v0.7c-0.3-0.1-0.5-0.1-0.9-0.1
			c-0.8,0-1.3,0.2-1.8,0.7c-0.4,0.5-0.6,1.2-0.7,2.2h0.1c0.4-0.6,0.9-0.8,1.7-0.8c0.6,0,1.1,0.2,1.5,0.6c0.4,0.4,0.6,0.9,0.6,1.6
			c0,0.7-0.2,1.3-0.6,1.8s-1,0.6-1.6,0.6c-0.7,0-1.3-0.3-1.8-0.8C167.7,285.9,167.5,285.2,167.5,284.2z M169.9,286.6
			c0.5,0,0.8-0.1,1.1-0.4c0.3-0.3,0.4-0.7,0.4-1.3c0-0.5-0.1-0.8-0.4-1.1c-0.2-0.3-0.6-0.4-1.1-0.4c-0.3,0-0.6,0.1-0.8,0.2
			c-0.2,0.1-0.4,0.3-0.6,0.5c-0.1,0.2-0.2,0.4-0.2,0.7c0,0.3,0.1,0.6,0.2,0.9c0.1,0.3,0.3,0.5,0.6,0.7
			C169.3,286.5,169.6,286.6,169.9,286.6z"/>
		<path d="M177.8,283.6c0,1.2-0.2,2.2-0.6,2.8c-0.4,0.6-1,0.9-1.8,0.9c-0.8,0-1.4-0.3-1.8-0.9c-0.4-0.6-0.6-1.5-0.6-2.7
			c0-1.2,0.2-2.2,0.6-2.8c0.4-0.6,1-0.9,1.8-0.9c0.8,0,1.4,0.3,1.8,0.9C177.6,281.5,177.8,282.4,177.8,283.6z M173.9,283.6
			c0,1,0.1,1.8,0.4,2.3s0.6,0.7,1.2,0.7c0.5,0,0.9-0.2,1.2-0.7c0.2-0.5,0.4-1.2,0.4-2.3s-0.1-1.8-0.4-2.3c-0.2-0.5-0.6-0.7-1.2-0.7
			c-0.5,0-0.9,0.2-1.2,0.7C174.1,281.8,173.9,282.6,173.9,283.6z"/>
	</g>
	<g>
		<path d="M203,287.2h-0.8v-5.1c0-0.4,0-0.8,0-1.2c-0.1,0.1-0.1,0.1-0.2,0.2c-0.1,0.1-0.5,0.4-1.2,1l-0.4-0.6l1.9-1.5h0.7V287.2z"/>
		<path d="M210.4,283.1c0,2.8-1.1,4.2-3.2,4.2c-0.4,0-0.7,0-0.9-0.1v-0.7c0.3,0.1,0.6,0.1,0.9,0.1c0.8,0,1.4-0.2,1.8-0.7
			s0.6-1.2,0.7-2.2h-0.1c-0.2,0.3-0.4,0.5-0.7,0.6s-0.6,0.2-1,0.2c-0.6,0-1.1-0.2-1.5-0.6c-0.4-0.4-0.6-0.9-0.6-1.6
			c0-0.7,0.2-1.3,0.6-1.8s1-0.6,1.6-0.6c0.5,0,0.9,0.1,1.3,0.4s0.6,0.6,0.8,1.1C210.3,281.9,210.4,282.5,210.4,283.1z M208,280.7
			c-0.5,0-0.8,0.1-1.1,0.4c-0.3,0.3-0.4,0.7-0.4,1.2c0,0.5,0.1,0.8,0.4,1.1s0.6,0.4,1.1,0.4c0.3,0,0.6-0.1,0.8-0.2
			c0.2-0.1,0.4-0.3,0.6-0.5c0.1-0.2,0.2-0.4,0.2-0.7c0-0.3-0.1-0.7-0.2-0.9c-0.1-0.3-0.3-0.5-0.6-0.7S208.3,280.7,208,280.7z"/>
		<path d="M212.3,287.2l3-6.4h-3.9v-0.7h4.8v0.6l-2.9,6.5H212.3z"/>
		<path d="M221.9,283.6c0,1.2-0.2,2.2-0.6,2.8c-0.4,0.6-1,0.9-1.8,0.9c-0.8,0-1.4-0.3-1.8-0.9c-0.4-0.6-0.6-1.5-0.6-2.7
			c0-1.2,0.2-2.2,0.6-2.8c0.4-0.6,1-0.9,1.8-0.9c0.8,0,1.4,0.3,1.8,0.9C221.7,281.5,221.9,282.4,221.9,283.6z M218,283.6
			c0,1,0.1,1.8,0.4,2.3s0.6,0.7,1.2,0.7c0.5,0,0.9-0.2,1.2-0.7c0.2-0.5,0.4-1.2,0.4-2.3s-0.1-1.8-0.4-2.3c-0.2-0.5-0.6-0.7-1.2-0.7
			c-0.5,0-0.9,0.2-1.2,0.7C218.1,281.8,218,282.6,218,283.6z"/>
	</g>
	<g>
		<path d="M247.1,287.2h-0.8v-5.1c0-0.4,0-0.8,0-1.2c-0.1,0.1-0.1,0.1-0.2,0.2c-0.1,0.1-0.5,0.4-1.2,1l-0.4-0.6l1.9-1.5h0.7V287.2z"
			/>
		<path d="M254.5,283.1c0,2.8-1.1,4.2-3.2,4.2c-0.4,0-0.7,0-0.9-0.1v-0.7c0.3,0.1,0.6,0.1,0.9,0.1c0.8,0,1.4-0.2,1.8-0.7
			c0.4-0.5,0.6-1.2,0.7-2.2h-0.1c-0.2,0.3-0.4,0.5-0.7,0.6c-0.3,0.1-0.6,0.2-1,0.2c-0.6,0-1.1-0.2-1.5-0.6c-0.4-0.4-0.6-0.9-0.6-1.6
			c0-0.7,0.2-1.3,0.6-1.8s1-0.6,1.6-0.6c0.5,0,0.9,0.1,1.3,0.4c0.4,0.2,0.6,0.6,0.8,1.1C254.4,281.9,254.5,282.5,254.5,283.1z
			 M252.1,280.7c-0.5,0-0.8,0.1-1.1,0.4c-0.3,0.3-0.4,0.7-0.4,1.2c0,0.5,0.1,0.8,0.4,1.1s0.6,0.4,1.1,0.4c0.3,0,0.6-0.1,0.8-0.2
			c0.2-0.1,0.4-0.3,0.6-0.5c0.1-0.2,0.2-0.4,0.2-0.7c0-0.3-0.1-0.7-0.2-0.9c-0.1-0.3-0.3-0.5-0.6-0.7S252.4,280.7,252.1,280.7z"/>
		<path d="M257.9,280c0.7,0,1.2,0.2,1.5,0.5s0.6,0.7,0.6,1.3c0,0.4-0.1,0.7-0.3,1c-0.2,0.3-0.6,0.6-1,0.8c0.6,0.3,1,0.6,1.2,0.9
			c0.2,0.3,0.4,0.7,0.4,1.1c0,0.6-0.2,1.1-0.6,1.4c-0.4,0.4-1,0.5-1.7,0.5c-0.8,0-1.3-0.2-1.8-0.5c-0.4-0.3-0.6-0.8-0.6-1.4
			c0-0.8,0.5-1.5,1.5-1.9c-0.4-0.3-0.8-0.5-1-0.8c-0.2-0.3-0.3-0.6-0.3-1c0-0.5,0.2-0.9,0.6-1.2C256.7,280.1,257.2,280,257.9,280z
			 M256.3,285.4c0,0.4,0.1,0.7,0.4,0.9c0.3,0.2,0.7,0.3,1.1,0.3c0.5,0,0.9-0.1,1.1-0.3c0.3-0.2,0.4-0.5,0.4-0.9
			c0-0.3-0.1-0.6-0.4-0.8c-0.3-0.2-0.7-0.5-1.3-0.7c-0.5,0.2-0.8,0.4-1.1,0.7C256.4,284.8,256.3,285.1,256.3,285.4z M257.9,280.6
			c-0.4,0-0.7,0.1-1,0.3c-0.2,0.2-0.3,0.5-0.3,0.8c0,0.3,0.1,0.6,0.3,0.8c0.2,0.2,0.5,0.4,1.1,0.6c0.5-0.2,0.8-0.4,1-0.6
			c0.2-0.2,0.3-0.5,0.3-0.8c0-0.3-0.1-0.6-0.4-0.8C258.6,280.7,258.3,280.6,257.9,280.6z"/>
		<path d="M266,283.6c0,1.2-0.2,2.2-0.6,2.8c-0.4,0.6-1,0.9-1.8,0.9c-0.8,0-1.4-0.3-1.8-0.9c-0.4-0.6-0.6-1.5-0.6-2.7
			c0-1.2,0.2-2.2,0.6-2.8c0.4-0.6,1-0.9,1.8-0.9c0.8,0,1.4,0.3,1.8,0.9C265.8,281.5,266,282.4,266,283.6z M262.1,283.6
			c0,1,0.1,1.8,0.4,2.3s0.6,0.7,1.2,0.7c0.5,0,0.9-0.2,1.2-0.7c0.2-0.5,0.4-1.2,0.4-2.3s-0.1-1.8-0.4-2.3c-0.2-0.5-0.6-0.7-1.2-0.7
			c-0.5,0-0.9,0.2-1.2,0.7C262.2,281.8,262.1,282.6,262.1,283.6z"/>
	</g>
	<g>
		<path d="M291.1,287.2h-0.8v-5.1c0-0.4,0-0.8,0-1.2c-0.1,0.1-0.1,0.1-0.2,0.2c-0.1,0.1-0.5,0.4-1.2,1l-0.4-0.6l1.9-1.5h0.7V287.2z"
			/>
		<path d="M298.5,283.1c0,2.8-1.1,4.2-3.2,4.2c-0.4,0-0.7,0-0.9-0.1v-0.7c0.3,0.1,0.6,0.1,0.9,0.1c0.8,0,1.4-0.2,1.8-0.7
			c0.4-0.5,0.6-1.2,0.7-2.2h-0.1c-0.2,0.3-0.4,0.5-0.7,0.6s-0.6,0.2-1,0.2c-0.6,0-1.1-0.2-1.5-0.6c-0.4-0.4-0.6-0.9-0.6-1.6
			c0-0.7,0.2-1.3,0.6-1.8c0.4-0.4,1-0.6,1.6-0.6c0.5,0,0.9,0.1,1.3,0.4c0.4,0.2,0.6,0.6,0.8,1.1
			C298.4,281.9,298.5,282.5,298.5,283.1z M296.1,280.7c-0.5,0-0.8,0.1-1.1,0.4c-0.3,0.3-0.4,0.7-0.4,1.2c0,0.5,0.1,0.8,0.4,1.1
			s0.6,0.4,1.1,0.4c0.3,0,0.6-0.1,0.8-0.2c0.2-0.1,0.4-0.3,0.6-0.5c0.1-0.2,0.2-0.4,0.2-0.7c0-0.3-0.1-0.7-0.2-0.9
			c-0.1-0.3-0.3-0.5-0.6-0.7C296.7,280.8,296.5,280.7,296.1,280.7z"/>
		<path d="M304.3,283.1c0,2.8-1.1,4.2-3.2,4.2c-0.4,0-0.7,0-0.9-0.1v-0.7c0.3,0.1,0.6,0.1,0.9,0.1c0.8,0,1.4-0.2,1.8-0.7
			c0.4-0.5,0.6-1.2,0.7-2.2h-0.1c-0.2,0.3-0.4,0.5-0.7,0.6s-0.6,0.2-1,0.2c-0.6,0-1.1-0.2-1.5-0.6c-0.4-0.4-0.6-0.9-0.6-1.6
			c0-0.7,0.2-1.3,0.6-1.8c0.4-0.4,1-0.6,1.6-0.6c0.5,0,0.9,0.1,1.3,0.4c0.4,0.2,0.6,0.6,0.8,1.1
			C304.2,281.9,304.3,282.5,304.3,283.1z M301.9,280.7c-0.5,0-0.8,0.1-1.1,0.4c-0.3,0.3-0.4,0.7-0.4,1.2c0,0.5,0.1,0.8,0.4,1.1
			s0.6,0.4,1.1,0.4c0.3,0,0.6-0.1,0.8-0.2c0.2-0.1,0.4-0.3,0.6-0.5c0.1-0.2,0.2-0.4,0.2-0.7c0-0.3-0.1-0.7-0.2-0.9
			c-0.1-0.3-0.3-0.5-0.6-0.7C302.4,280.8,302.2,280.7,301.9,280.7z"/>
		<path d="M308.3,287.2h-0.8v-5.1c0-0.4,0-0.8,0-1.2c-0.1,0.1-0.1,0.1-0.2,0.2c-0.1,0.1-0.5,0.4-1.2,1l-0.4-0.6l1.9-1.5h0.7V287.2z"
			/>
	</g>
	<g>
		<path d="M336.9,287.2h-4.7v-0.7l1.9-1.9c0.6-0.6,1-1,1.1-1.2c0.2-0.2,0.3-0.5,0.4-0.7c0.1-0.2,0.1-0.5,0.1-0.8
			c0-0.4-0.1-0.7-0.3-0.9c-0.2-0.2-0.6-0.3-1-0.3c-0.3,0-0.6,0-0.8,0.1c-0.3,0.1-0.6,0.3-0.9,0.5l-0.4-0.6c0.7-0.5,1.4-0.8,2.1-0.8
			c0.7,0,1.2,0.2,1.6,0.5c0.4,0.3,0.6,0.8,0.6,1.4c0,0.5-0.1,0.9-0.4,1.3c-0.3,0.4-0.7,1-1.4,1.7l-1.6,1.5v0h3.7V287.2z"/>
		<path d="M342.6,283.6c0,1.2-0.2,2.2-0.6,2.8c-0.4,0.6-1,0.9-1.8,0.9c-0.8,0-1.4-0.3-1.8-0.9c-0.4-0.6-0.6-1.5-0.6-2.7
			c0-1.2,0.2-2.2,0.6-2.8c0.4-0.6,1-0.9,1.8-0.9c0.8,0,1.4,0.3,1.8,0.9C342.4,281.5,342.6,282.4,342.6,283.6z M338.7,283.6
			c0,1,0.1,1.8,0.4,2.3s0.6,0.7,1.2,0.7c0.5,0,0.9-0.2,1.2-0.7c0.2-0.5,0.4-1.2,0.4-2.3s-0.1-1.8-0.4-2.3c-0.2-0.5-0.6-0.7-1.2-0.7
			c-0.5,0-0.9,0.2-1.2,0.7C338.9,281.8,338.7,282.6,338.7,283.6z"/>
		<path d="M348.4,283.6c0,1.2-0.2,2.2-0.6,2.8c-0.4,0.6-1,0.9-1.8,0.9c-0.8,0-1.4-0.3-1.8-0.9c-0.4-0.6-0.6-1.5-0.6-2.7
			c0-1.2,0.2-2.2,0.6-2.8c0.4-0.6,1-0.9,1.8-0.9c0.8,0,1.4,0.3,1.8,0.9C348.2,281.5,348.4,282.4,348.4,283.6z M344.5,283.6
			c0,1,0.1,1.8,0.4,2.3s0.6,0.7,1.2,0.7c0.5,0,0.9-0.2,1.2-0.7c0.2-0.5,0.4-1.2,0.4-2.3s-0.1-1.8-0.4-2.3c-0.2-0.5-0.6-0.7-1.2-0.7
			c-0.5,0-0.9,0.2-1.2,0.7C344.6,281.8,344.5,282.6,344.5,283.6z"/>
		<path d="M354.1,283.6c0,1.2-0.2,2.2-0.6,2.8c-0.4,0.6-1,0.9-1.8,0.9c-0.8,0-1.4-0.3-1.8-0.9c-0.4-0.6-0.6-1.5-0.6-2.7
			c0-1.2,0.2-2.2,0.6-2.8c0.4-0.6,1-0.9,1.8-0.9c0.8,0,1.4,0.3,1.8,0.9C353.9,281.5,354.1,282.4,354.1,283.6z M350.2,283.6
			c0,1,0.1,1.8,0.4,2.3s0.6,0.7,1.2,0.7c0.5,0,0.9-0.2,1.2-0.7c0.2-0.5,0.4-1.2,0.4-2.3s-0.1-1.8-0.4-2.3c-0.2-0.5-0.6-0.7-1.2-0.7
			c-0.5,0-0.9,0.2-1.2,0.7C350.3,281.8,350.2,282.6,350.2,283.6z"/>
	</g>
	<g>
		<path d="M381,287.2h-4.7v-0.7l1.9-1.9c0.6-0.6,1-1,1.1-1.2c0.2-0.2,0.3-0.5,0.4-0.7c0.1-0.2,0.1-0.5,0.1-0.8
			c0-0.4-0.1-0.7-0.3-0.9c-0.2-0.2-0.6-0.3-1-0.3c-0.3,0-0.6,0-0.8,0.1c-0.3,0.1-0.6,0.3-0.9,0.5l-0.4-0.6c0.7-0.5,1.4-0.8,2.1-0.8
			c0.7,0,1.2,0.2,1.6,0.5c0.4,0.3,0.6,0.8,0.6,1.4c0,0.5-0.1,0.9-0.4,1.3c-0.3,0.4-0.7,1-1.4,1.7l-1.6,1.5v0h3.7V287.2z"/>
		<path d="M386.7,283.6c0,1.2-0.2,2.2-0.6,2.8c-0.4,0.6-1,0.9-1.8,0.9c-0.8,0-1.4-0.3-1.8-0.9c-0.4-0.6-0.6-1.5-0.6-2.7
			c0-1.2,0.2-2.2,0.6-2.8c0.4-0.6,1-0.9,1.8-0.9c0.8,0,1.4,0.3,1.8,0.9C386.5,281.5,386.7,282.4,386.7,283.6z M382.8,283.6
			c0,1,0.1,1.8,0.4,2.3s0.6,0.7,1.2,0.7c0.5,0,0.9-0.2,1.2-0.7c0.2-0.5,0.4-1.2,0.4-2.3s-0.1-1.8-0.4-2.3c-0.2-0.5-0.6-0.7-1.2-0.7
			c-0.5,0-0.9,0.2-1.2,0.7C382.9,281.8,382.8,282.6,382.8,283.6z"/>
		<path d="M390.7,287.2h-0.8v-5.1c0-0.4,0-0.8,0-1.2c-0.1,0.1-0.1,0.1-0.2,0.2c-0.1,0.1-0.5,0.4-1.2,1l-0.4-0.6l1.9-1.5h0.7V287.2z"
			/>
		<path d="M398.1,283.6c0,1.2-0.2,2.2-0.6,2.8c-0.4,0.6-1,0.9-1.8,0.9c-0.8,0-1.4-0.3-1.8-0.9c-0.4-0.6-0.6-1.5-0.6-2.7
			c0-1.2,0.2-2.2,0.6-2.8c0.4-0.6,1-0.9,1.8-0.9c0.8,0,1.4,0.3,1.8,0.9C397.9,281.5,398.1,282.4,398.1,283.6z M394.2,283.6
			c0,1,0.1,1.8,0.4,2.3s0.6,0.7,1.2,0.7c0.5,0,0.9-0.2,1.2-0.7c0.2-0.5,0.4-1.2,0.4-2.3s-0.1-1.8-0.4-2.3c-0.2-0.5-0.6-0.7-1.2-0.7
			c-0.5,0-0.9,0.2-1.2,0.7C394.4,281.8,394.2,282.6,394.2,283.6z"/>
	</g>
	<g>
		<path d="M35,110.5h-0.8v-5.1c0-0.4,0-0.8,0-1.2c-0.1,0.1-0.1,0.1-0.2,0.2s-0.5,0.4-1.2,1l-0.4-0.6l1.9-1.5H35V110.5z"/>
		<path d="M40.1,103.3c0.7,0,1.2,0.2,1.5,0.5s0.6,0.7,0.6,1.3c0,0.4-0.1,0.7-0.3,1s-0.6,0.6-1,0.8c0.6,0.3,1,0.6,1.2,0.9
			s0.4,0.7,0.4,1.1c0,0.6-0.2,1.1-0.6,1.4s-1,0.5-1.7,0.5c-0.8,0-1.3-0.2-1.8-0.5s-0.6-0.8-0.6-1.4c0-0.8,0.5-1.5,1.5-1.9
			c-0.4-0.3-0.8-0.5-1-0.8s-0.3-0.6-0.3-1c0-0.5,0.2-0.9,0.6-1.2S39.4,103.3,40.1,103.3z M38.5,108.7c0,0.4,0.1,0.7,0.4,0.9
			s0.7,0.3,1.1,0.3c0.5,0,0.9-0.1,1.1-0.3s0.4-0.5,0.4-0.9c0-0.3-0.1-0.6-0.4-0.8s-0.7-0.5-1.3-0.7c-0.5,0.2-0.8,0.4-1.1,0.7
			S38.5,108.3,38.5,108.7z M40.1,103.9c-0.4,0-0.7,0.1-1,0.3s-0.3,0.5-0.3,0.8c0,0.3,0.1,0.6,0.3,0.8s0.5,0.4,1.1,0.6
			c0.5-0.2,0.8-0.4,1-0.6s0.3-0.5,0.3-0.8c0-0.3-0.1-0.6-0.4-0.8S40.5,103.9,40.1,103.9z"/>
		<path d="M48.2,106.9c0,1.2-0.2,2.2-0.6,2.8s-1,0.9-1.8,0.9c-0.8,0-1.4-0.3-1.8-0.9s-0.6-1.5-0.6-2.7c0-1.2,0.2-2.2,0.6-2.8
			s1-0.9,1.8-0.9c0.8,0,1.4,0.3,1.8,0.9S48.2,105.7,48.2,106.9z M44.2,106.9c0,1,0.1,1.8,0.4,2.3s0.6,0.7,1.2,0.7
			c0.5,0,0.9-0.2,1.2-0.7s0.4-1.2,0.4-2.3s-0.1-1.8-0.4-2.3s-0.6-0.7-1.2-0.7c-0.5,0-0.9,0.2-1.2,0.7S44.2,105.9,44.2,106.9z"/>
		<path d="M35,129h-0.8v-5.1c0-0.4,0-0.8,0-1.2c-0.1,0.1-0.1,0.1-0.2,0.2s-0.5,0.4-1.2,1l-0.4-0.6l1.9-1.5H35V129z"/>
		<path d="M37.8,125.9c0-1.4,0.3-2.5,0.8-3.1s1.4-1,2.4-1c0.4,0,0.7,0,0.9,0.1v0.7c-0.3-0.1-0.5-0.1-0.9-0.1c-0.8,0-1.3,0.2-1.8,0.7
			s-0.6,1.2-0.7,2.2h0.1c0.4-0.6,0.9-0.8,1.7-0.8c0.6,0,1.1,0.2,1.5,0.6s0.6,0.9,0.6,1.6c0,0.7-0.2,1.3-0.6,1.8s-1,0.6-1.6,0.6
			c-0.7,0-1.3-0.3-1.8-0.8S37.8,126.9,37.8,125.9z M40.2,128.4c0.5,0,0.8-0.1,1.1-0.4s0.4-0.7,0.4-1.3c0-0.5-0.1-0.8-0.4-1.1
			s-0.6-0.4-1.1-0.4c-0.3,0-0.6,0.1-0.8,0.2s-0.4,0.3-0.6,0.5s-0.2,0.4-0.2,0.7c0,0.3,0.1,0.6,0.2,0.9s0.3,0.5,0.6,0.7
			S39.9,128.4,40.2,128.4z"/>
		<path d="M48.2,125.4c0,1.2-0.2,2.2-0.6,2.8s-1,0.9-1.8,0.9c-0.8,0-1.4-0.3-1.8-0.9s-0.6-1.5-0.6-2.7c0-1.2,0.2-2.2,0.6-2.8
			s1-0.9,1.8-0.9c0.8,0,1.4,0.3,1.8,0.9S48.2,124.2,48.2,125.4z M44.2,125.4c0,1,0.1,1.8,0.4,2.3s0.6,0.7,1.2,0.7
			c0.5,0,0.9-0.2,1.2-0.7s0.4-1.2,0.4-2.3s-0.1-1.8-0.4-2.3s-0.6-0.7-1.2-0.7c-0.5,0-0.9,0.2-1.2,0.7S44.2,124.4,44.2,125.4z"/>
		<path d="M35,147.5h-0.8v-5.1c0-0.4,0-0.8,0-1.2c-0.1,0.1-0.1,0.1-0.2,0.2s-0.5,0.4-1.2,1l-0.4-0.6l1.9-1.5H35V147.5z"/>
		<path d="M42.7,145.9h-1.1v1.6h-0.8v-1.6h-3.5v-0.7l3.4-4.8h0.9v4.8h1.1V145.9z M40.9,145.1v-2.4c0-0.5,0-1,0-1.6h0
			c-0.2,0.3-0.3,0.6-0.4,0.8l-2.2,3.2H40.9z"/>
		<path d="M48.2,143.9c0,1.2-0.2,2.2-0.6,2.8s-1,0.9-1.8,0.9c-0.8,0-1.4-0.3-1.8-0.9s-0.6-1.5-0.6-2.7c0-1.2,0.2-2.2,0.6-2.8
			s1-0.9,1.8-0.9c0.8,0,1.4,0.3,1.8,0.9S48.2,142.7,48.2,143.9z M44.2,143.9c0,1,0.1,1.8,0.4,2.3s0.6,0.7,1.2,0.7
			c0.5,0,0.9-0.2,1.2-0.7s0.4-1.2,0.4-2.3s-0.1-1.8-0.4-2.3s-0.6-0.7-1.2-0.7c-0.5,0-0.9,0.2-1.2,0.7S44.2,142.9,44.2,143.9z"/>
		<path d="M35,166h-0.8v-5.1c0-0.4,0-0.8,0-1.2c-0.1,0.1-0.1,0.1-0.2,0.2s-0.5,0.4-1.2,1l-0.4-0.6l1.9-1.5H35V166z"/>
		<path d="M42.4,166h-4.7v-0.7l1.9-1.9c0.6-0.6,1-1,1.1-1.2s0.3-0.5,0.4-0.7s0.1-0.5,0.1-0.8c0-0.4-0.1-0.7-0.3-0.9s-0.6-0.3-1-0.3
			c-0.3,0-0.6,0-0.8,0.1s-0.6,0.3-0.9,0.5l-0.4-0.6c0.7-0.5,1.4-0.8,2.1-0.8c0.7,0,1.2,0.2,1.6,0.5s0.6,0.8,0.6,1.4
			c0,0.5-0.1,0.9-0.4,1.3s-0.7,1-1.4,1.7l-1.6,1.5v0h3.7V166z"/>
		<path d="M48.2,162.4c0,1.2-0.2,2.2-0.6,2.8s-1,0.9-1.8,0.9c-0.8,0-1.4-0.3-1.8-0.9s-0.6-1.5-0.6-2.7c0-1.2,0.2-2.2,0.6-2.8
			s1-0.9,1.8-0.9c0.8,0,1.4,0.3,1.8,0.9S48.2,161.2,48.2,162.4z M44.2,162.4c0,1,0.1,1.8,0.4,2.3s0.6,0.7,1.2,0.7
			c0.5,0,0.9-0.2,1.2-0.7s0.4-1.2,0.4-2.3s-0.1-1.8-0.4-2.3s-0.6-0.7-1.2-0.7c-0.5,0-0.9,0.2-1.2,0.7S44.2,161.4,44.2,162.4z"/>
		<path d="M35,184.5h-0.8v-5.1c0-0.4,0-0.8,0-1.2c-0.1,0.1-0.1,0.1-0.2,0.2s-0.5,0.4-1.2,1l-0.4-0.6l1.9-1.5H35V184.5z"/>
		<path d="M42.4,180.9c0,1.2-0.2,2.2-0.6,2.8s-1,0.9-1.8,0.9c-0.8,0-1.4-0.3-1.8-0.9s-0.6-1.5-0.6-2.7c0-1.2,0.2-2.2,0.6-2.8
			s1-0.9,1.8-0.9c0.8,0,1.4,0.3,1.8,0.9S42.4,179.7,42.4,180.9z M38.5,180.9c0,1,0.1,1.8,0.4,2.3s0.6,0.7,1.2,0.7
			c0.5,0,0.9-0.2,1.2-0.7s0.4-1.2,0.4-2.3s-0.1-1.8-0.4-2.3s-0.6-0.7-1.2-0.7c-0.5,0-0.9,0.2-1.2,0.7S38.5,179.9,38.5,180.9z"/>
		<path d="M48.2,180.9c0,1.2-0.2,2.2-0.6,2.8s-1,0.9-1.8,0.9c-0.8,0-1.4-0.3-1.8-0.9s-0.6-1.5-0.6-2.7c0-1.2,0.2-2.2,0.6-2.8
			s1-0.9,1.8-0.9c0.8,0,1.4,0.3,1.8,0.9S48.2,179.7,48.2,180.9z M44.2,180.9c0,1,0.1,1.8,0.4,2.3s0.6,0.7,1.2,0.7
			c0.5,0,0.9-0.2,1.2-0.7s0.4-1.2,0.4-2.3s-0.1-1.8-0.4-2.3s-0.6-0.7-1.2-0.7c-0.5,0-0.9,0.2-1.2,0.7S44.2,179.9,44.2,180.9z"/>
		<path d="M40.1,195.8c0.7,0,1.2,0.2,1.5,0.5s0.6,0.7,0.6,1.3c0,0.4-0.1,0.7-0.3,1s-0.6,0.6-1,0.8c0.6,0.3,1,0.6,1.2,0.9
			c0.2,0.3,0.4,0.7,0.4,1.1c0,0.6-0.2,1.1-0.6,1.4c-0.4,0.4-1,0.5-1.7,0.5c-0.8,0-1.3-0.2-1.8-0.5c-0.4-0.3-0.6-0.8-0.6-1.4
			c0-0.8,0.5-1.5,1.5-1.9c-0.4-0.3-0.8-0.5-1-0.8c-0.2-0.3-0.3-0.6-0.3-1c0-0.5,0.2-0.9,0.6-1.2C38.9,195.9,39.4,195.8,40.1,195.8z
			 M38.5,201.2c0,0.4,0.1,0.7,0.4,0.9s0.7,0.3,1.1,0.3c0.5,0,0.9-0.1,1.1-0.3s0.4-0.5,0.4-0.9c0-0.3-0.1-0.6-0.4-0.8
			c-0.3-0.2-0.7-0.5-1.3-0.7c-0.5,0.2-0.8,0.4-1.1,0.7C38.6,200.5,38.5,200.8,38.5,201.2z M40.1,196.4c-0.4,0-0.7,0.1-1,0.3
			s-0.3,0.5-0.3,0.8c0,0.3,0.1,0.6,0.3,0.8s0.5,0.4,1.1,0.6c0.5-0.2,0.8-0.4,1-0.6s0.3-0.5,0.3-0.8c0-0.3-0.1-0.6-0.4-0.8
			C40.8,196.5,40.5,196.4,40.1,196.4z"/>
		<path d="M48.2,199.4c0,1.2-0.2,2.2-0.6,2.8s-1,0.9-1.8,0.9c-0.8,0-1.4-0.3-1.8-0.9c-0.4-0.6-0.6-1.5-0.6-2.7
			c0-1.2,0.2-2.2,0.6-2.8s1-0.9,1.8-0.9c0.8,0,1.4,0.3,1.8,0.9S48.2,198.2,48.2,199.4z M44.2,199.4c0,1,0.1,1.8,0.4,2.3
			c0.2,0.5,0.6,0.7,1.2,0.7c0.5,0,0.9-0.2,1.2-0.7c0.2-0.5,0.4-1.2,0.4-2.3s-0.1-1.8-0.4-2.3c-0.2-0.5-0.6-0.7-1.2-0.7
			c-0.5,0-0.9,0.2-1.2,0.7C44.4,197.6,44.2,198.4,44.2,199.4z"/>
		<path d="M37.8,218.4c0-1.4,0.3-2.5,0.8-3.1c0.5-0.7,1.4-1,2.4-1c0.4,0,0.7,0,0.9,0.1v0.7c-0.3-0.1-0.5-0.1-0.9-0.1
			c-0.8,0-1.3,0.2-1.8,0.7c-0.4,0.5-0.6,1.2-0.7,2.2h0.1c0.4-0.6,0.9-0.8,1.7-0.8c0.6,0,1.1,0.2,1.5,0.6s0.6,0.9,0.6,1.6
			c0,0.7-0.2,1.3-0.6,1.8c-0.4,0.4-1,0.6-1.6,0.6c-0.7,0-1.3-0.3-1.8-0.8C38,220.2,37.8,219.4,37.8,218.4z M40.2,220.9
			c0.5,0,0.8-0.1,1.1-0.4c0.3-0.3,0.4-0.7,0.4-1.3c0-0.5-0.1-0.8-0.4-1.1s-0.6-0.4-1.1-0.4c-0.3,0-0.6,0.1-0.8,0.2s-0.4,0.3-0.6,0.5
			s-0.2,0.4-0.2,0.7c0,0.3,0.1,0.6,0.2,0.9s0.3,0.5,0.6,0.7S39.9,220.9,40.2,220.9z"/>
		<path d="M48.2,217.9c0,1.2-0.2,2.2-0.6,2.8s-1,0.9-1.8,0.9c-0.8,0-1.4-0.3-1.8-0.9c-0.4-0.6-0.6-1.5-0.6-2.7
			c0-1.2,0.2-2.2,0.6-2.8s1-0.9,1.8-0.9c0.8,0,1.4,0.3,1.8,0.9S48.2,216.7,48.2,217.9z M44.2,217.9c0,1,0.1,1.8,0.4,2.3
			c0.2,0.5,0.6,0.7,1.2,0.7c0.5,0,0.9-0.2,1.2-0.7c0.2-0.5,0.4-1.2,0.4-2.3s-0.1-1.8-0.4-2.3c-0.2-0.5-0.6-0.7-1.2-0.7
			c-0.5,0-0.9,0.2-1.2,0.7C44.4,216.1,44.2,216.9,44.2,217.9z"/>
		<path d="M42.7,238.4h-1.1v1.6h-0.8v-1.6h-3.5v-0.7l3.4-4.8h0.9v4.8h1.1V238.4z M40.9,237.6v-2.4c0-0.5,0-1,0-1.6h0
			c-0.2,0.3-0.3,0.6-0.4,0.8l-2.2,3.2H40.9z"/>
		<path d="M48.2,236.4c0,1.2-0.2,2.2-0.6,2.8s-1,0.9-1.8,0.9c-0.8,0-1.4-0.3-1.8-0.9c-0.4-0.6-0.6-1.5-0.6-2.7
			c0-1.2,0.2-2.2,0.6-2.8s1-0.9,1.8-0.9c0.8,0,1.4,0.3,1.8,0.9S48.2,235.2,48.2,236.4z M44.2,236.4c0,1,0.1,1.8,0.4,2.3
			c0.2,0.5,0.6,0.7,1.2,0.7c0.5,0,0.9-0.2,1.2-0.7c0.2-0.5,0.4-1.2,0.4-2.3s-0.1-1.8-0.4-2.3c-0.2-0.5-0.6-0.7-1.2-0.7
			c-0.5,0-0.9,0.2-1.2,0.7C44.4,234.6,44.2,235.4,44.2,236.4z"/>
		<path d="M42.4,258.5h-4.7v-0.7l1.9-1.9c0.6-0.6,1-1,1.1-1.2s0.3-0.5,0.4-0.7s0.1-0.5,0.1-0.8c0-0.4-0.1-0.7-0.3-0.9
			c-0.2-0.2-0.6-0.3-1-0.3c-0.3,0-0.6,0-0.8,0.1s-0.6,0.3-0.9,0.5l-0.4-0.6c0.7-0.5,1.4-0.8,2.1-0.8c0.7,0,1.2,0.2,1.6,0.5
			c0.4,0.3,0.6,0.8,0.6,1.4c0,0.5-0.1,0.9-0.4,1.3s-0.7,1-1.4,1.7l-1.6,1.5v0h3.7V258.5z"/>
		<path d="M48.2,254.9c0,1.2-0.2,2.2-0.6,2.8s-1,0.9-1.8,0.9c-0.8,0-1.4-0.3-1.8-0.9c-0.4-0.6-0.6-1.5-0.6-2.7
			c0-1.2,0.2-2.2,0.6-2.8s1-0.9,1.8-0.9c0.8,0,1.4,0.3,1.8,0.9S48.2,253.7,48.2,254.9z M44.2,254.9c0,1,0.1,1.8,0.4,2.3
			c0.2,0.5,0.6,0.7,1.2,0.7c0.5,0,0.9-0.2,1.2-0.7c0.2-0.5,0.4-1.2,0.4-2.3s-0.1-1.8-0.4-2.3c-0.2-0.5-0.6-0.7-1.2-0.7
			c-0.5,0-0.9,0.2-1.2,0.7C44.4,253.1,44.2,253.9,44.2,254.9z"/>
		<path d="M48.2,273.4c0,1.2-0.2,2.2-0.6,2.8s-1,0.9-1.8,0.9c-0.8,0-1.4-0.3-1.8-0.9c-0.4-0.6-0.6-1.5-0.6-2.7
			c0-1.2,0.2-2.2,0.6-2.8s1-0.9,1.8-0.9c0.8,0,1.4,0.3,1.8,0.9S48.2,272.2,48.2,273.4z M44.2,273.4c0,1,0.1,1.8,0.4,2.3
			c0.2,0.5,0.6,0.7,1.2,0.7c0.5,0,0.9-0.2,1.2-0.7c0.2-0.5,0.4-1.2,0.4-2.3s-0.1-1.8-0.4-2.3c-0.2-0.5-0.6-0.7-1.2-0.7
			c-0.5,0-0.9,0.2-1.2,0.7C44.4,271.6,44.2,272.4,44.2,273.4z"/>
	</g>
</g>
</svg>
