<?xml version="1.0" encoding="utf-8"?>
<!-- Generator: Adobe Illustrator 24.3.0, SVG Export Plug-In . SVG Version: 6.00 Build 0)  -->
<svg version="1.1" xmlns="http://www.w3.org/2000/svg" xmlns:xlink="http://www.w3.org/1999/xlink" x="0px" y="0px"
	 viewBox="0 0 435 390" style="enable-background:new 0 0 435 390;" xml:space="preserve">
<style type="text/css">
	.st0{fill:none;stroke:#053336;stroke-width:2;stroke-miterlimit:10;}
	.st1{fill:#FFAC5A;}
	.st2{fill:#47B5C3;}
</style>
<g id="Camada_5">
	<g>
		<line class="st0" x1="23.7" y1="307.8" x2="411.3" y2="307.8"/>
		<line class="st0" x1="23.7" y1="311.7" x2="23.7" y2="123.2"/>
		<line class="st0" x1="61.9" y1="311.7" x2="61.9" y2="307.8"/>
		<line class="st0" x1="100.1" y1="311.7" x2="100.1" y2="307.8"/>
		<line class="st0" x1="138.3" y1="311.7" x2="138.3" y2="307.8"/>
		<line class="st0" x1="176.6" y1="311.7" x2="176.6" y2="307.8"/>
		<line class="st0" x1="214.8" y1="311.7" x2="214.8" y2="307.8"/>
		<line class="st0" x1="253" y1="311.7" x2="253" y2="307.8"/>
		<line class="st0" x1="291.3" y1="311.7" x2="291.3" y2="307.8"/>
		<line class="st0" x1="367.7" y1="311.7" x2="367.7" y2="307.8"/>
		<line class="st0" x1="329.5" y1="311.7" x2="329.5" y2="307.8"/>
		<line class="st0" x1="405.9" y1="311.7" x2="405.9" y2="307.8"/>
	</g>
</g>
<g id="Camada_3">
	<g>
		<g>
			<path d="M180.3,100.7c0,0.7-0.2,1.3-0.7,1.7s-1.2,0.6-2.1,0.6h-0.8v2.8h-0.8v-7.1h1.9C179.4,98.7,180.3,99.4,180.3,100.7z
				 M176.6,102.3h0.7c0.7,0,1.3-0.1,1.6-0.4s0.5-0.6,0.5-1.1c0-0.5-0.2-0.8-0.5-1.1s-0.8-0.3-1.4-0.3h-0.9V102.3z"/>
			<path d="M183.9,105.9c-0.8,0-1.4-0.2-1.9-0.7s-0.7-1.2-0.7-2c0-0.9,0.2-1.5,0.6-2.1s1-0.8,1.7-0.8c0.7,0,1.2,0.2,1.6,0.7
				s0.6,1,0.6,1.7v0.5h-3.7c0,0.6,0.2,1.1,0.5,1.4s0.7,0.5,1.3,0.5c0.6,0,1.1-0.1,1.7-0.4v0.7c-0.3,0.1-0.6,0.2-0.8,0.3
				S184.2,105.9,183.9,105.9z M183.7,101c-0.4,0-0.8,0.1-1,0.4s-0.4,0.7-0.5,1.2h2.8c0-0.5-0.1-0.9-0.3-1.2S184.1,101,183.7,101z"/>
			<path d="M190.7,104.3c0,0.5-0.2,0.9-0.6,1.2s-0.9,0.4-1.6,0.4c-0.7,0-1.3-0.1-1.7-0.3v-0.8c0.3,0.1,0.5,0.2,0.8,0.3
				s0.6,0.1,0.9,0.1c0.4,0,0.7-0.1,1-0.2s0.3-0.3,0.3-0.6c0-0.2-0.1-0.4-0.3-0.5s-0.5-0.3-1.1-0.5c-0.5-0.2-0.9-0.3-1.1-0.5
				s-0.4-0.3-0.5-0.5s-0.2-0.4-0.2-0.6c0-0.4,0.2-0.8,0.5-1s0.8-0.4,1.5-0.4c0.6,0,1.1,0.1,1.7,0.4l-0.3,0.7c-0.5-0.2-1-0.3-1.5-0.3
				c-0.4,0-0.7,0.1-0.9,0.2s-0.3,0.3-0.3,0.5c0,0.1,0,0.3,0.1,0.4s0.2,0.2,0.4,0.3s0.5,0.2,0.9,0.4c0.6,0.2,1.1,0.5,1.3,0.7
				S190.7,104,190.7,104.3z"/>
			<path d="M195.5,104.3c0,0.5-0.2,0.9-0.6,1.2s-0.9,0.4-1.6,0.4c-0.7,0-1.3-0.1-1.7-0.3v-0.8c0.3,0.1,0.5,0.2,0.8,0.3
				s0.6,0.1,0.9,0.1c0.4,0,0.7-0.1,1-0.2s0.3-0.3,0.3-0.6c0-0.2-0.1-0.4-0.3-0.5s-0.5-0.3-1.1-0.5c-0.5-0.2-0.9-0.3-1.1-0.5
				s-0.4-0.3-0.5-0.5s-0.2-0.4-0.2-0.6c0-0.4,0.2-0.8,0.5-1s0.8-0.4,1.5-0.4c0.6,0,1.1,0.1,1.7,0.4l-0.3,0.7c-0.5-0.2-1-0.3-1.5-0.3
				c-0.4,0-0.7,0.1-0.9,0.2s-0.3,0.3-0.3,0.5c0,0.1,0,0.3,0.1,0.4s0.2,0.2,0.4,0.3s0.5,0.2,0.9,0.4c0.6,0.2,1.1,0.5,1.3,0.7
				S195.5,104,195.5,104.3z"/>
			<path d="M201.4,103.1c0,0.9-0.2,1.6-0.7,2s-1,0.7-1.8,0.7c-0.5,0-0.9-0.1-1.3-0.3s-0.7-0.5-0.9-1s-0.3-0.9-0.3-1.5
				c0-0.9,0.2-1.6,0.7-2s1-0.7,1.8-0.7c0.7,0,1.3,0.2,1.8,0.7S201.4,102.3,201.4,103.1z M197.3,103.1c0,0.7,0.1,1.2,0.4,1.6
				s0.7,0.5,1.2,0.5s0.9-0.2,1.2-0.5s0.4-0.9,0.4-1.6c0-0.7-0.1-1.2-0.4-1.6s-0.7-0.5-1.2-0.5c-0.5,0-0.9,0.2-1.2,0.5
				S197.3,102.4,197.3,103.1z"/>
			<path d="M206.1,105.8l-0.2-0.8h0c-0.3,0.3-0.5,0.6-0.8,0.7s-0.6,0.2-1,0.2c-0.5,0-0.9-0.1-1.2-0.4s-0.5-0.7-0.5-1.2
				c0-1.1,0.9-1.6,2.6-1.7l0.9,0v-0.3c0-0.4-0.1-0.7-0.3-0.9s-0.5-0.3-0.9-0.3c-0.4,0-1,0.1-1.5,0.4l-0.2-0.6
				c0.3-0.1,0.6-0.3,0.9-0.3s0.6-0.1,0.9-0.1c0.6,0,1.1,0.1,1.4,0.4s0.5,0.7,0.5,1.4v3.7H206.1z M204.3,105.2c0.5,0,0.9-0.1,1.2-0.4
				s0.4-0.7,0.4-1.2v-0.5l-0.8,0c-0.6,0-1.1,0.1-1.4,0.3s-0.4,0.5-0.4,0.8c0,0.3,0.1,0.5,0.3,0.7S204,105.2,204.3,105.2z"/>
			<path d="M211.8,104.3c0,0.5-0.2,0.9-0.6,1.2s-0.9,0.4-1.6,0.4c-0.7,0-1.3-0.1-1.7-0.3v-0.8c0.3,0.1,0.5,0.2,0.8,0.3
				s0.6,0.1,0.9,0.1c0.4,0,0.7-0.1,1-0.2s0.3-0.3,0.3-0.6c0-0.2-0.1-0.4-0.3-0.5s-0.5-0.3-1.1-0.5c-0.5-0.2-0.9-0.3-1.1-0.5
				s-0.4-0.3-0.5-0.5s-0.2-0.4-0.2-0.6c0-0.4,0.2-0.8,0.5-1s0.8-0.4,1.5-0.4c0.6,0,1.1,0.1,1.7,0.4l-0.3,0.7c-0.5-0.2-1-0.3-1.5-0.3
				c-0.4,0-0.7,0.1-0.9,0.2s-0.3,0.3-0.3,0.5c0,0.1,0,0.3,0.1,0.4s0.2,0.2,0.4,0.3s0.5,0.2,0.9,0.4c0.6,0.2,1.1,0.5,1.3,0.7
				S211.8,104,211.8,104.3z"/>
		</g>
		<rect x="158" y="97.6" class="st1" width="11.1" height="11.1"/>
		<g>
			<path d="M241.4,102.8v3h-0.8v-7.1h2c0.9,0,1.5,0.2,1.9,0.5c0.4,0.3,0.6,0.8,0.6,1.5c0,0.9-0.5,1.6-1.4,1.9l1.9,3.2h-1l-1.7-3
				H241.4z M241.4,102.1h1.1c0.6,0,1-0.1,1.3-0.3s0.4-0.6,0.4-1c0-0.5-0.1-0.8-0.4-1s-0.7-0.3-1.3-0.3h-1.1V102.1z"/>
			<path d="M246.6,99c0-0.2,0-0.3,0.1-0.4c0.1-0.1,0.2-0.1,0.3-0.1c0.1,0,0.2,0,0.3,0.1c0.1,0.1,0.1,0.2,0.1,0.4s0,0.3-0.1,0.4
				c-0.1,0.1-0.2,0.1-0.3,0.1c-0.1,0-0.3,0-0.3-0.1C246.6,99.3,246.6,99.2,246.6,99z M247.4,105.8h-0.8v-5.4h0.8V105.8z"/>
			<path d="M251.1,105.9c-0.7,0-1.2-0.2-1.6-0.7c-0.4-0.5-0.6-1.2-0.6-2c0-0.9,0.2-1.6,0.6-2.1s0.9-0.7,1.6-0.7
				c0.7,0,1.3,0.3,1.7,0.8h0l0.1-0.7h0.6v7.8h-0.8v-2.3c0-0.3,0-0.6,0.1-0.8h-0.1C252.4,105.6,251.8,105.9,251.1,105.9z
				 M251.2,105.2c0.5,0,0.9-0.1,1.2-0.4c0.2-0.3,0.4-0.8,0.4-1.5v-0.2c0-0.7-0.1-1.3-0.4-1.6s-0.7-0.5-1.2-0.5
				c-0.5,0-0.8,0.2-1.1,0.6c-0.3,0.4-0.4,0.9-0.4,1.6s0.1,1.2,0.4,1.5S250.7,105.2,251.2,105.2z"/>
			<path d="M256,100.5v3.5c0,0.4,0.1,0.8,0.3,1c0.2,0.2,0.5,0.3,0.9,0.3c0.6,0,1-0.2,1.2-0.5s0.4-0.8,0.4-1.5v-2.8h0.8v5.4H259
				l-0.1-0.7h0c-0.2,0.3-0.4,0.5-0.7,0.6c-0.3,0.1-0.6,0.2-1,0.2c-0.7,0-1.1-0.2-1.5-0.5c-0.3-0.3-0.5-0.8-0.5-1.5v-3.5H256z"/>
			<path d="M263.7,105.9c-0.8,0-1.4-0.2-1.9-0.7c-0.5-0.5-0.7-1.2-0.7-2c0-0.9,0.2-1.5,0.6-2.1s1-0.8,1.7-0.8c0.7,0,1.2,0.2,1.6,0.7
				s0.6,1,0.6,1.7v0.5H262c0,0.6,0.2,1.1,0.5,1.4c0.3,0.3,0.7,0.5,1.3,0.5c0.6,0,1.1-0.1,1.7-0.4v0.7c-0.3,0.1-0.6,0.2-0.8,0.3
				C264.3,105.9,264,105.9,263.7,105.9z M263.5,101c-0.4,0-0.8,0.1-1,0.4c-0.3,0.3-0.4,0.7-0.5,1.2h2.8c0-0.5-0.1-0.9-0.3-1.2
				C264.2,101.2,263.9,101,263.5,101z"/>
			<path d="M270.5,105.8h-3.9v-0.6l2.9-4.2h-2.7v-0.6h3.6v0.6l-2.9,4.1h3V105.8z"/>
			<path d="M275,105.8l-0.2-0.8h0c-0.3,0.3-0.5,0.6-0.8,0.7c-0.3,0.1-0.6,0.2-1,0.2c-0.5,0-0.9-0.1-1.2-0.4
				c-0.3-0.3-0.5-0.7-0.5-1.2c0-1.1,0.9-1.6,2.6-1.7l0.9,0v-0.3c0-0.4-0.1-0.7-0.3-0.9s-0.5-0.3-0.9-0.3c-0.4,0-1,0.1-1.5,0.4
				l-0.2-0.6c0.3-0.1,0.6-0.3,0.9-0.3c0.3-0.1,0.6-0.1,0.9-0.1c0.6,0,1.1,0.1,1.4,0.4s0.5,0.7,0.5,1.4v3.7H275z M273.2,105.2
				c0.5,0,0.9-0.1,1.2-0.4s0.4-0.7,0.4-1.2v-0.5l-0.8,0c-0.6,0-1.1,0.1-1.4,0.3c-0.3,0.2-0.4,0.5-0.4,0.8c0,0.3,0.1,0.5,0.3,0.7
				C272.6,105.2,272.8,105.2,273.2,105.2z"/>
		</g>
		<rect x="222.5" y="97.6" class="st2" width="11.1" height="11.1"/>
	</g>
	<rect x="24.7" y="140.6" class="st1" width="4.6" height="28.5"/>
	<rect x="24.7" y="174.7" class="st2" width="96.8" height="28.5"/>
	<rect x="24.7" y="233" class="st1" width="151.9" height="28.5"/>
	<rect x="24.7" y="267.1" class="st2" width="41.5" height="28.5"/>
</g>
<g id="Camada_4">
	<g>
		<path d="M91.2,39.7c0,2.1-0.6,3.7-1.8,4.9s-2.9,1.7-5.2,1.7h-3.6V33.4h4c2.1,0,3.7,0.6,4.9,1.7S91.2,37.7,91.2,39.7z M88.4,39.7
			c0-2.8-1.2-4.1-3.7-4.1h-1.5V44h1.2C87.1,44,88.4,42.5,88.4,39.7z"/>
		<path d="M93.5,33.8c0-0.9,0.5-1.3,1.5-1.3s1.5,0.4,1.5,1.3c0,0.4-0.1,0.7-0.4,1s-0.6,0.3-1.1,0.3C94,35.2,93.5,34.7,93.5,33.8z
			 M96.3,46.2h-2.7v-9.8h2.7V46.2z"/>
		<path d="M106,43.3c0,1-0.4,1.8-1.1,2.3s-1.7,0.8-3.1,0.8c-0.7,0-1.3,0-1.8-0.1s-1-0.2-1.4-0.4v-2.2c0.5,0.2,1.1,0.4,1.7,0.6
			s1.2,0.2,1.6,0.2c1,0,1.5-0.3,1.5-0.8c0-0.2-0.1-0.4-0.2-0.5s-0.4-0.3-0.7-0.4s-0.7-0.4-1.3-0.6c-0.8-0.3-1.3-0.6-1.7-0.9
			s-0.6-0.6-0.8-0.9s-0.2-0.8-0.2-1.3c0-0.9,0.3-1.5,1-2s1.6-0.7,2.9-0.7c1.2,0,2.3,0.3,3.5,0.8l-0.8,1.9c-0.5-0.2-1-0.4-1.4-0.5
			s-0.9-0.2-1.3-0.2c-0.8,0-1.2,0.2-1.2,0.6c0,0.2,0.1,0.4,0.4,0.6s0.8,0.4,1.7,0.8c0.8,0.3,1.3,0.6,1.7,0.9s0.6,0.6,0.8,0.9
			S106,42.8,106,43.3z"/>
		<path d="M112.2,44.2c0.5,0,1-0.1,1.7-0.3v2c-0.7,0.3-1.5,0.4-2.5,0.4c-1.1,0-1.9-0.3-2.3-0.8s-0.7-1.4-0.7-2.4v-4.7h-1.3v-1.1
			l1.5-0.9l0.8-2.1h1.7v2.1h2.8v2h-2.8v4.7c0,0.4,0.1,0.7,0.3,0.8S111.9,44.2,112.2,44.2z"/>
		<path d="M121.4,36.2c0.4,0,0.7,0,0.9,0.1l-0.2,2.5c-0.2-0.1-0.5-0.1-0.8-0.1c-0.9,0-1.5,0.2-2,0.7s-0.7,1.1-0.7,1.8v5h-2.7v-9.8h2
			l0.4,1.7h0.1c0.3-0.6,0.7-1,1.2-1.3S120.8,36.2,121.4,36.2z"/>
		<path d="M124,33.8c0-0.9,0.5-1.3,1.5-1.3s1.5,0.4,1.5,1.3c0,0.4-0.1,0.7-0.4,1s-0.6,0.3-1.1,0.3C124.5,35.2,124,34.7,124,33.8z
			 M126.8,46.2h-2.7v-9.8h2.7V46.2z"/>
		<path d="M135,36.2c1.2,0,2.1,0.5,2.7,1.4s1,2.1,1,3.7c0,1.6-0.3,2.9-1,3.8s-1.6,1.3-2.8,1.3c-1.2,0-2.1-0.4-2.7-1.3h-0.2l-0.4,1.1
			h-2V32.5h2.7v3.2c0,0.4,0,1.1-0.1,1.9h0.1C132.9,36.7,133.8,36.2,135,36.2z M134.2,38.3c-0.7,0-1.1,0.2-1.5,0.6s-0.5,1.1-0.5,2
			v0.3c0,1.1,0.2,1.8,0.5,2.3s0.8,0.7,1.5,0.7c0.6,0,1-0.3,1.3-0.8s0.5-1.2,0.5-2.2s-0.2-1.7-0.5-2.2S134.8,38.3,134.2,38.3z"/>
		<path d="M147.9,46.2l-0.4-1.3h-0.1c-0.3,0.5-0.7,0.8-1.2,1.1s-1.1,0.4-1.8,0.4c-1.2,0-2-0.3-2.6-0.9s-0.9-1.5-0.9-2.7v-6.4h2.7
			v5.7c0,0.7,0.1,1.2,0.4,1.6s0.7,0.5,1.2,0.5c0.8,0,1.3-0.3,1.6-0.8s0.5-1.3,0.5-2.5v-4.6h2.7v9.8H147.9z"/>
		<path d="M152.7,33.8c0-0.9,0.5-1.3,1.5-1.3s1.5,0.4,1.5,1.3c0,0.4-0.1,0.7-0.4,1s-0.6,0.3-1.1,0.3
			C153.2,35.2,152.7,34.7,152.7,33.8z M155.5,46.2h-2.7v-9.8h2.7V46.2z"/>
		<path d="M162.3,46.4c-3.1,0-4.6-1.7-4.6-5c0-1.7,0.4-2.9,1.2-3.8s2-1.3,3.6-1.3c1.1,0,2.2,0.2,3.1,0.7l-0.8,2.1
			c-0.4-0.2-0.8-0.3-1.2-0.4s-0.7-0.2-1.1-0.2c-1.4,0-2.1,1-2.1,3c0,1.9,0.7,2.9,2.1,2.9c0.5,0,1-0.1,1.4-0.2s0.9-0.4,1.3-0.6v2.3
			c-0.4,0.3-0.9,0.5-1.3,0.6S163,46.4,162.3,46.4z M164,48.4c0,0.8-0.2,1.3-0.7,1.6s-1.1,0.5-2.1,0.5c-0.5,0-0.9-0.1-1.3-0.2v-1.5
			c0.2,0,0.4,0.1,0.6,0.1s0.5,0.1,0.6,0.1c0.4,0,0.6-0.2,0.6-0.5c0-0.5-0.5-0.8-1.5-0.9l0.7-1.4h1.7l-0.2,0.5c0.4,0.1,0.8,0.4,1,0.7
			S164,48,164,48.4z"/>
		<path d="M173.8,46.2l-0.5-1.3h-0.1c-0.5,0.6-0.9,1-1.4,1.2s-1.1,0.3-1.9,0.3c-0.9,0-1.7-0.3-2.2-0.8s-0.8-1.3-0.8-2.3
			c0-1,0.4-1.8,1.1-2.3s1.8-0.8,3.3-0.8l1.7-0.1v-0.4c0-1-0.5-1.5-1.5-1.5c-0.8,0-1.7,0.2-2.8,0.7l-0.9-1.8c1.1-0.6,2.4-0.9,3.8-0.9
			c1.3,0,2.3,0.3,3,0.9s1.1,1.4,1.1,2.6v6.5H173.8z M170.2,34.4c-0.2,0-0.4,0.1-0.5,0.2s-0.3,0.4-0.4,0.7H168c0.1-0.8,0.3-1.5,0.7-2
			s1-0.7,1.7-0.7c0.2,0,0.5,0,0.7,0.1s0.5,0.2,0.7,0.3s0.4,0.2,0.7,0.3s0.4,0.1,0.6,0.1c0.2,0,0.4-0.1,0.5-0.2s0.3-0.4,0.4-0.7h1.3
			c-0.1,0.8-0.3,1.5-0.7,2s-1,0.7-1.7,0.7c-0.2,0-0.5,0-0.7-0.1s-0.5-0.2-0.7-0.3s-0.4-0.2-0.7-0.3S170.5,34.4,170.2,34.4z
			 M173,41.7l-1,0c-0.8,0-1.4,0.2-1.7,0.4s-0.6,0.7-0.6,1.2c0,0.8,0.4,1.1,1.3,1.1c0.6,0,1.1-0.2,1.5-0.5s0.6-0.8,0.6-1.4V41.7z"/>
		<path d="M187.3,41.3c0,1.6-0.4,2.9-1.3,3.8s-2,1.4-3.5,1.4c-0.9,0-1.8-0.2-2.5-0.6s-1.3-1-1.7-1.8s-0.6-1.7-0.6-2.7
			c0-1.6,0.4-2.9,1.3-3.7s2-1.3,3.5-1.3c0.9,0,1.8,0.2,2.5,0.6s1.3,1,1.7,1.8S187.3,40.2,187.3,41.3z M180.6,41.3
			c0,1,0.2,1.7,0.5,2.2s0.8,0.7,1.6,0.7c0.7,0,1.2-0.2,1.5-0.7s0.5-1.2,0.5-2.2c0-1-0.2-1.7-0.5-2.2s-0.8-0.7-1.6-0.7
			c-0.7,0-1.2,0.2-1.5,0.7S180.6,40.3,180.6,41.3z"/>
		<path d="M197.4,46.4c-1.2,0-2.1-0.4-2.7-1.3s-1-2.1-1-3.7c0-1.6,0.3-2.9,1-3.8s1.6-1.3,2.8-1.3c1.2,0,2.2,0.5,2.8,1.4h0.1
			c-0.1-0.7-0.2-1.4-0.2-2v-3.1h2.7v13.7h-2.1l-0.5-1.3h-0.1C199.5,45.9,198.6,46.4,197.4,46.4z M198.3,44.2c0.7,0,1.2-0.2,1.5-0.6
			s0.5-1.1,0.5-2v-0.3c0-1.1-0.2-1.8-0.5-2.3s-0.9-0.7-1.6-0.7c-0.6,0-1.1,0.3-1.4,0.8s-0.5,1.2-0.5,2.2s0.2,1.7,0.5,2.2
			S197.7,44.2,198.3,44.2z"/>
		<path d="M211.9,46.2l-0.5-1.3h-0.1c-0.5,0.6-0.9,1-1.4,1.2s-1.1,0.3-1.9,0.3c-0.9,0-1.7-0.3-2.2-0.8s-0.8-1.3-0.8-2.3
			c0-1,0.4-1.8,1.1-2.3s1.8-0.8,3.3-0.8l1.7-0.1v-0.4c0-1-0.5-1.5-1.5-1.5c-0.8,0-1.7,0.2-2.8,0.7l-0.9-1.8c1.1-0.6,2.4-0.9,3.8-0.9
			c1.3,0,2.3,0.3,3,0.9s1.1,1.4,1.1,2.6v6.5H211.9z M211.1,41.7l-1,0c-0.8,0-1.4,0.2-1.7,0.4s-0.6,0.7-0.6,1.2
			c0,0.8,0.4,1.1,1.3,1.1c0.6,0,1.1-0.2,1.5-0.5s0.6-0.8,0.6-1.4V41.7z"/>
		<path d="M226.7,36.2c0.4,0,0.7,0,0.9,0.1l-0.2,2.5c-0.2-0.1-0.5-0.1-0.8-0.1c-0.9,0-1.5,0.2-2,0.7s-0.7,1.1-0.7,1.8v5h-2.7v-9.8h2
			l0.4,1.7h0.1c0.3-0.6,0.7-1,1.2-1.3C225.5,36.4,226.1,36.2,226.7,36.2z"/>
		<path d="M233.8,46.4c-1.6,0-2.8-0.4-3.7-1.3s-1.3-2.1-1.3-3.7c0-1.6,0.4-2.9,1.2-3.8s2-1.3,3.4-1.3c1.4,0,2.5,0.4,3.2,1.2
			s1.2,1.9,1.2,3.3V42h-6.3c0,0.8,0.3,1.4,0.7,1.8s1,0.6,1.8,0.6c0.6,0,1.2-0.1,1.7-0.2s1.1-0.3,1.7-0.6v2.1c-0.5,0.2-1,0.4-1.5,0.5
			S234.6,46.4,233.8,46.4z M233.4,38.1c-0.6,0-1,0.2-1.3,0.5s-0.5,0.9-0.6,1.5h3.8c0-0.7-0.2-1.2-0.5-1.5S234,38.1,233.4,38.1z"/>
		<path d="M249.1,46.2h-2.7v-5.7c0-0.7-0.1-1.2-0.4-1.6s-0.7-0.5-1.2-0.5c-0.8,0-1.3,0.3-1.6,0.8s-0.5,1.3-0.5,2.5v4.6H240v-9.8h2
			l0.4,1.3h0.1c0.3-0.5,0.7-0.8,1.2-1.1c0.5-0.2,1.1-0.4,1.8-0.4c1.1,0,2,0.3,2.6,0.9s0.9,1.5,0.9,2.7V46.2z"/>
		<path d="M254.9,46.4c-1.2,0-2.1-0.4-2.7-1.3c-0.7-0.9-1-2.1-1-3.7c0-1.6,0.3-2.9,1-3.8s1.6-1.3,2.8-1.3c1.2,0,2.2,0.5,2.8,1.4h0.1
			c-0.1-0.7-0.2-1.4-0.2-2v-3.1h2.7v13.7h-2.1l-0.5-1.3h-0.1C257.1,45.9,256.2,46.4,254.9,46.4z M255.9,44.2c0.7,0,1.2-0.2,1.5-0.6
			s0.5-1.1,0.5-2v-0.3c0-1.1-0.2-1.8-0.5-2.3c-0.3-0.5-0.9-0.7-1.6-0.7c-0.6,0-1.1,0.3-1.4,0.8c-0.3,0.5-0.5,1.2-0.5,2.2
			s0.2,1.7,0.5,2.2S255.2,44.2,255.9,44.2z"/>
		<path d="M269.4,46.2l-0.5-1.3h-0.1c-0.5,0.6-0.9,1-1.4,1.2s-1.1,0.3-1.9,0.3c-0.9,0-1.7-0.3-2.2-0.8s-0.8-1.3-0.8-2.3
			c0-1,0.4-1.8,1.1-2.3c0.7-0.5,1.8-0.8,3.3-0.8l1.7-0.1v-0.4c0-1-0.5-1.5-1.5-1.5c-0.8,0-1.7,0.2-2.8,0.7l-0.9-1.8
			c1.1-0.6,2.4-0.9,3.8-0.9c1.3,0,2.3,0.3,3,0.9s1.1,1.4,1.1,2.6v6.5H269.4z M268.7,41.7l-1,0c-0.8,0-1.4,0.2-1.7,0.4
			s-0.6,0.7-0.6,1.2c0,0.8,0.4,1.1,1.3,1.1c0.6,0,1.1-0.2,1.5-0.5s0.6-0.8,0.6-1.4V41.7z"/>
		<path d="M287.8,46.2h-2.7v-5.7c0-0.7-0.1-1.2-0.4-1.6s-0.7-0.5-1.2-0.5c-0.8,0-1.3,0.3-1.6,0.8s-0.5,1.3-0.5,2.5v4.6h-2.7v-9.8h2
			l0.4,1.3h0.1c0.3-0.5,0.7-0.8,1.2-1.1c0.5-0.2,1.1-0.4,1.8-0.4c1.1,0,2,0.3,2.6,0.9s0.9,1.5,0.9,2.7V46.2z"/>
		<path d="M299.5,41.3c0,1.6-0.4,2.9-1.3,3.8s-2,1.4-3.5,1.4c-0.9,0-1.8-0.2-2.5-0.6s-1.3-1-1.7-1.8s-0.6-1.7-0.6-2.7
			c0-1.6,0.4-2.9,1.3-3.7s2-1.3,3.5-1.3c0.9,0,1.8,0.2,2.5,0.6s1.3,1,1.7,1.8S299.5,40.2,299.5,41.3z M292.7,41.3
			c0,1,0.2,1.7,0.5,2.2c0.3,0.5,0.8,0.7,1.6,0.7c0.7,0,1.2-0.2,1.5-0.7s0.5-1.2,0.5-2.2c0-1-0.2-1.7-0.5-2.2s-0.8-0.7-1.6-0.7
			c-0.7,0-1.2,0.2-1.5,0.7S292.7,40.3,292.7,41.3z"/>
		<path d="M306.6,33.4h4c1.8,0,3.1,0.3,4,0.8s1.2,1.3,1.2,2.5c0,0.8-0.2,1.4-0.5,1.9c-0.4,0.5-0.8,0.8-1.4,0.9v0.1
			c0.8,0.2,1.4,0.5,1.8,1c0.4,0.5,0.5,1.2,0.5,2c0,1.2-0.4,2.1-1.3,2.7c-0.8,0.7-2,1-3.5,1h-4.8V33.4z M309.3,38.4h1.6
			c0.7,0,1.3-0.1,1.6-0.3s0.5-0.6,0.5-1.1c0-0.5-0.2-0.8-0.5-1.1c-0.4-0.2-0.9-0.3-1.7-0.3h-1.4V38.4z M309.3,40.6V44h1.8
			c0.8,0,1.3-0.1,1.7-0.4s0.5-0.7,0.5-1.3c0-1.1-0.8-1.6-2.3-1.6H309.3z"/>
		<path d="M324,36.2c0.4,0,0.7,0,0.9,0.1l-0.2,2.5c-0.2-0.1-0.5-0.1-0.8-0.1c-0.9,0-1.5,0.2-2,0.7s-0.7,1.1-0.7,1.8v5h-2.7v-9.8h2
			l0.4,1.7h0.1c0.3-0.6,0.7-1,1.2-1.3C322.8,36.4,323.4,36.2,324,36.2z"/>
		<path d="M332.9,46.2l-0.5-1.3h-0.1c-0.5,0.6-0.9,1-1.4,1.2s-1.1,0.3-1.9,0.3c-0.9,0-1.7-0.3-2.2-0.8s-0.8-1.3-0.8-2.3
			c0-1,0.4-1.8,1.1-2.3c0.7-0.5,1.8-0.8,3.3-0.8l1.7-0.1v-0.4c0-1-0.5-1.5-1.5-1.5c-0.8,0-1.7,0.2-2.8,0.7l-0.9-1.8
			c1.1-0.6,2.4-0.9,3.8-0.9c1.3,0,2.3,0.3,3,0.9s1.1,1.4,1.1,2.6v6.5H332.9z M332.1,41.7l-1,0c-0.8,0-1.4,0.2-1.7,0.4
			s-0.6,0.7-0.6,1.2c0,0.8,0.4,1.1,1.3,1.1c0.6,0,1.1-0.2,1.5-0.5s0.6-0.8,0.6-1.4V41.7z"/>
		<path d="M344.4,43.3c0,1-0.4,1.8-1.1,2.3s-1.7,0.8-3.1,0.8c-0.7,0-1.3,0-1.8-0.1s-1-0.2-1.4-0.4v-2.2c0.5,0.2,1.1,0.4,1.7,0.6
			c0.6,0.2,1.2,0.2,1.6,0.2c1,0,1.5-0.3,1.5-0.8c0-0.2-0.1-0.4-0.2-0.5s-0.4-0.3-0.7-0.4s-0.7-0.4-1.3-0.6c-0.8-0.3-1.3-0.6-1.7-0.9
			c-0.4-0.3-0.6-0.6-0.8-0.9c-0.2-0.3-0.2-0.8-0.2-1.3c0-0.9,0.3-1.5,1-2c0.7-0.5,1.6-0.7,2.9-0.7c1.2,0,2.3,0.3,3.5,0.8l-0.8,1.9
			c-0.5-0.2-1-0.4-1.4-0.5s-0.9-0.2-1.3-0.2c-0.8,0-1.2,0.2-1.2,0.6c0,0.2,0.1,0.4,0.4,0.6c0.3,0.2,0.8,0.4,1.7,0.8
			c0.8,0.3,1.3,0.6,1.7,0.9s0.6,0.6,0.8,0.9S344.4,42.8,344.4,43.3z"/>
		<path d="M346.4,33.8c0-0.9,0.5-1.3,1.5-1.3s1.5,0.4,1.5,1.3c0,0.4-0.1,0.7-0.4,1c-0.2,0.2-0.6,0.3-1.1,0.3
			C346.9,35.2,346.4,34.7,346.4,33.8z M349.2,46.2h-2.7v-9.8h2.7V46.2z"/>
		<path d="M354.7,46.2H352V32.5h2.7V46.2z"/>
	</g>
	<g>
		<path d="M95.5,67h-1.4v-5.5c0-0.7,0-1.2,0-1.6c-0.1,0.1-0.2,0.2-0.3,0.3s-0.6,0.5-1.3,1.1l-0.7-0.9l2.5-2h1.1V67z"/>
		<path d="M102,61c0,0.9-0.2,1.6-0.5,2s-0.8,0.7-1.4,0.7c-0.6,0-1.1-0.2-1.4-0.7s-0.5-1.1-0.5-2c0-1.8,0.6-2.7,1.9-2.7
			c0.6,0,1.1,0.2,1.4,0.7S102,60.1,102,61z M99.4,61c0,0.6,0.1,1,0.2,1.3s0.3,0.4,0.6,0.4c0.5,0,0.8-0.6,0.8-1.7s-0.3-1.7-0.8-1.7
			c-0.3,0-0.4,0.1-0.6,0.4S99.4,60.4,99.4,61z M105.9,58.4l-4.8,8.6H100l4.8-8.6H105.9z M107.6,64.4c0,0.9-0.2,1.6-0.5,2
			s-0.8,0.7-1.4,0.7c-0.6,0-1.1-0.2-1.4-0.7s-0.5-1.1-0.5-2c0-1.8,0.6-2.7,1.9-2.7c0.6,0,1.1,0.2,1.4,0.7S107.6,63.5,107.6,64.4z
			 M105,64.4c0,0.6,0.1,1,0.2,1.3s0.3,0.4,0.6,0.4c0.5,0,0.8-0.6,0.8-1.7c0-1.1-0.3-1.7-0.8-1.7c-0.3,0-0.4,0.1-0.6,0.4
			S105,63.8,105,64.4z"/>
		<path d="M117.7,67h-1.4v-4c0-0.5-0.1-0.9-0.3-1.1s-0.5-0.4-0.9-0.4c-0.5,0-0.9,0.2-1.2,0.5s-0.4,0.9-0.4,1.7V67h-1.4v-6.5h1.1
			l0.2,0.8h0.1c0.2-0.3,0.4-0.5,0.8-0.7s0.7-0.3,1.1-0.3c1,0,1.7,0.3,2,1h0.1c0.2-0.3,0.5-0.6,0.8-0.8s0.7-0.3,1.2-0.3
			c0.8,0,1.3,0.2,1.7,0.6s0.5,1,0.5,1.8V67h-1.4v-4c0-0.5-0.1-0.9-0.3-1.1s-0.5-0.4-0.9-0.4c-0.5,0-0.9,0.2-1.2,0.5
			s-0.4,0.8-0.4,1.5V67z"/>
		<path d="M127.7,67l-0.3-0.9h0c-0.3,0.4-0.6,0.7-0.9,0.8s-0.7,0.2-1.2,0.2c-0.6,0-1.1-0.2-1.5-0.5s-0.5-0.8-0.5-1.5
			c0-0.7,0.2-1.2,0.7-1.5s1.3-0.5,2.3-0.6l1.1,0v-0.3c0-0.4-0.1-0.7-0.3-0.9s-0.5-0.3-0.9-0.3c-0.3,0-0.7,0-1,0.1s-0.6,0.2-0.9,0.3
			l-0.4-1c0.4-0.2,0.7-0.3,1.2-0.4s0.8-0.1,1.2-0.1c0.8,0,1.4,0.2,1.9,0.5s0.6,0.9,0.6,1.7V67H127.7z M125.7,66
			c0.5,0,0.9-0.1,1.2-0.4s0.5-0.7,0.5-1.2v-0.6l-0.8,0c-0.6,0-1.1,0.1-1.4,0.3s-0.4,0.5-0.4,0.9c0,0.3,0.1,0.5,0.3,0.7
			S125.4,66,125.7,66z"/>
		<path d="M130.6,58.8c0-0.2,0.1-0.4,0.2-0.6s0.3-0.2,0.6-0.2c0.2,0,0.4,0.1,0.6,0.2s0.2,0.3,0.2,0.6c0,0.2-0.1,0.4-0.2,0.6
			s-0.3,0.2-0.6,0.2c-0.2,0-0.4-0.1-0.6-0.2S130.6,59,130.6,58.8z M132,67h-1.4v-6.5h1.4V67z"/>
		<path d="M138.4,65.1c0,0.6-0.2,1.1-0.7,1.5s-1.1,0.5-2,0.5c-0.9,0-1.6-0.1-2.1-0.4v-1.2c0.8,0.4,1.5,0.5,2.1,0.5
			c0.8,0,1.3-0.3,1.3-0.8c0-0.2,0-0.3-0.1-0.4s-0.2-0.2-0.5-0.3s-0.5-0.2-0.9-0.4c-0.7-0.3-1.3-0.6-1.5-0.9s-0.4-0.7-0.4-1.1
			c0-0.6,0.2-1,0.7-1.3s1.1-0.5,1.8-0.5c0.8,0,1.5,0.2,2.2,0.5l-0.4,1c-0.7-0.3-1.3-0.4-1.8-0.4c-0.7,0-1.1,0.2-1.1,0.6
			c0,0.2,0.1,0.4,0.3,0.5s0.6,0.3,1.2,0.6c0.5,0.2,0.9,0.4,1.2,0.6s0.4,0.4,0.5,0.6S138.4,64.8,138.4,65.1z"/>
		<path d="M146.2,60.4c0.3,0,0.5,0,0.7,0.1l-0.1,1.3c-0.2,0-0.4-0.1-0.6-0.1c-0.6,0-1,0.2-1.3,0.5s-0.5,0.8-0.5,1.4V67H143v-6.5h1.1
			l0.2,1.1h0.1c0.2-0.4,0.5-0.7,0.8-0.9S145.8,60.4,146.2,60.4z"/>
		<path d="M148.1,58.8c0-0.2,0.1-0.4,0.2-0.6s0.3-0.2,0.6-0.2c0.2,0,0.4,0.1,0.6,0.2s0.2,0.3,0.2,0.6c0,0.2-0.1,0.4-0.2,0.6
			s-0.3,0.2-0.6,0.2c-0.2,0-0.4-0.1-0.6-0.2S148.1,59,148.1,58.8z M149.5,67h-1.4v-6.5h1.4V67z"/>
		<path d="M154.1,67.1c-1,0-1.7-0.3-2.2-0.9s-0.8-1.4-0.8-2.5c0-1.1,0.3-1.9,0.8-2.5s1.3-0.9,2.3-0.9c0.7,0,1.3,0.1,1.8,0.4
			l-0.4,1.1c-0.6-0.2-1.1-0.3-1.4-0.3c-1.1,0-1.7,0.7-1.7,2.2c0,0.7,0.1,1.3,0.4,1.6s0.7,0.5,1.2,0.5c0.6,0,1.2-0.2,1.7-0.5v1.2
			c-0.2,0.1-0.5,0.2-0.8,0.3S154.5,67.1,154.1,67.1z"/>
		<path d="M163.2,63.7c0,1.1-0.3,1.9-0.8,2.5s-1.3,0.9-2.3,0.9c-0.6,0-1.1-0.1-1.6-0.4s-0.8-0.7-1.1-1.2s-0.4-1.1-0.4-1.8
			c0-1.1,0.3-1.9,0.8-2.5s1.3-0.9,2.3-0.9c0.9,0,1.7,0.3,2.2,0.9S163.2,62.7,163.2,63.7z M158.5,63.7c0,1.5,0.6,2.2,1.7,2.2
			c1.1,0,1.6-0.7,1.6-2.2c0-1.5-0.6-2.2-1.7-2.2c-0.6,0-1,0.2-1.3,0.6S158.5,63,158.5,63.7z"/>
		<path d="M170.1,67.1c-0.8,0-1.4-0.3-1.9-0.9s-0.7-1.4-0.7-2.5c0-1.1,0.2-1.9,0.7-2.5s1.1-0.9,1.9-0.9c0.9,0,1.5,0.3,1.9,0.9h0.1
			c-0.1-0.5-0.1-0.8-0.1-1.1v-2.4h1.4V67h-1.1l-0.2-0.8H172C171.6,66.8,170.9,67.1,170.1,67.1z M170.4,66c0.6,0,1-0.2,1.2-0.5
			s0.4-0.8,0.4-1.5v-0.2c0-0.8-0.1-1.4-0.4-1.7s-0.7-0.5-1.2-0.5c-0.5,0-0.9,0.2-1.1,0.6s-0.4,1-0.4,1.7c0,0.7,0.1,1.3,0.4,1.6
			S169.9,66,170.4,66z"/>
		<path d="M178.2,67.1c-1,0-1.8-0.3-2.4-0.9s-0.9-1.4-0.9-2.4c0-1.1,0.3-1.9,0.8-2.5s1.3-0.9,2.2-0.9c0.9,0,1.5,0.3,2,0.8
			s0.7,1.2,0.7,2.1V64h-4.3c0,0.6,0.2,1.1,0.5,1.5s0.8,0.5,1.4,0.5c0.4,0,0.7,0,1.1-0.1s0.7-0.2,1.1-0.4v1.1c-0.3,0.2-0.7,0.3-1,0.3
			S178.6,67.1,178.2,67.1z M177.9,61.4c-0.4,0-0.8,0.1-1.1,0.4s-0.4,0.7-0.5,1.2h2.9c0-0.5-0.1-0.9-0.4-1.2S178.4,61.4,177.9,61.4z"
			/>
		<path d="M184.7,66c0.3,0,0.7-0.1,1-0.2v1c-0.2,0.1-0.3,0.1-0.6,0.2s-0.5,0.1-0.7,0.1c-1.3,0-2-0.7-2-2.1v-3.5h-0.9v-0.6l0.9-0.5
			l0.5-1.4h0.8v1.4h1.8v1h-1.8V65c0,0.3,0.1,0.6,0.2,0.7S184.4,66,184.7,66z"/>
		<path d="M189.8,67.1c-1,0-1.8-0.3-2.4-0.9s-0.9-1.4-0.9-2.4c0-1.1,0.3-1.9,0.8-2.5s1.3-0.9,2.2-0.9c0.9,0,1.5,0.3,2,0.8
			s0.7,1.2,0.7,2.1V64H188c0,0.6,0.2,1.1,0.5,1.5s0.8,0.5,1.4,0.5c0.4,0,0.7,0,1.1-0.1s0.7-0.2,1.1-0.4v1.1c-0.3,0.2-0.7,0.3-1,0.3
			S190.2,67.1,189.8,67.1z M189.6,61.4c-0.4,0-0.8,0.1-1.1,0.4s-0.4,0.7-0.5,1.2h2.9c0-0.5-0.1-0.9-0.4-1.2S190,61.4,189.6,61.4z
			 M188.7,59.7v-0.1c0.2-0.3,0.5-0.6,0.7-0.9s0.4-0.6,0.6-0.9h1.6v0.1c-0.2,0.2-0.5,0.5-0.9,0.9s-0.7,0.7-1,0.9H188.7z"/>
		<path d="M199.4,67H198v-4c0-0.5-0.1-0.9-0.3-1.1s-0.5-0.4-0.9-0.4c-0.5,0-0.9,0.2-1.2,0.5s-0.4,0.9-0.4,1.7V67h-1.4v-6.5h1.1
			l0.2,0.8h0.1c0.2-0.3,0.4-0.5,0.8-0.7s0.7-0.3,1.1-0.3c1,0,1.7,0.3,2,1h0.1c0.2-0.3,0.5-0.6,0.8-0.8s0.7-0.3,1.2-0.3
			c0.8,0,1.3,0.2,1.7,0.6s0.5,1,0.5,1.8V67h-1.4v-4c0-0.5-0.1-0.9-0.3-1.1s-0.5-0.4-0.9-0.4c-0.5,0-0.9,0.2-1.2,0.5
			s-0.4,0.8-0.4,1.5V67z"/>
		<path d="M213.9,67h-1.4v-4c0-0.5-0.1-0.9-0.3-1.1s-0.5-0.4-0.9-0.4c-0.5,0-0.9,0.2-1.2,0.5s-0.4,0.9-0.4,1.7V67h-1.4v-6.5h1.1
			l0.2,0.8h0.1c0.2-0.3,0.4-0.5,0.8-0.7s0.7-0.3,1.1-0.3c1,0,1.7,0.3,2,1h0.1c0.2-0.3,0.5-0.6,0.8-0.8s0.7-0.3,1.2-0.3
			c0.8,0,1.3,0.2,1.7,0.6s0.5,1,0.5,1.8V67h-1.4v-4c0-0.5-0.1-0.9-0.3-1.1s-0.5-0.4-0.9-0.4c-0.5,0-0.9,0.2-1.2,0.5
			s-0.4,0.8-0.4,1.5V67z"/>
		<path d="M224,67l-0.3-0.9h0c-0.3,0.4-0.6,0.7-0.9,0.8s-0.7,0.2-1.2,0.2c-0.6,0-1.1-0.2-1.5-0.5s-0.5-0.8-0.5-1.5
			c0-0.7,0.2-1.2,0.7-1.5s1.3-0.5,2.3-0.6l1.1,0v-0.3c0-0.4-0.1-0.7-0.3-0.9s-0.5-0.3-0.9-0.3c-0.3,0-0.7,0-1,0.1s-0.6,0.2-0.9,0.3
			l-0.4-1c0.4-0.2,0.7-0.3,1.2-0.4s0.8-0.1,1.2-0.1c0.8,0,1.4,0.2,1.9,0.5s0.6,0.9,0.6,1.7V67H224z M222,66c0.5,0,0.9-0.1,1.2-0.4
			s0.5-0.7,0.5-1.2v-0.6l-0.8,0c-0.6,0-1.1,0.1-1.4,0.3s-0.4,0.5-0.4,0.9c0,0.3,0.1,0.5,0.3,0.7S221.6,66,222,66z"/>
		<path d="M226.8,58.8c0-0.2,0.1-0.4,0.2-0.6s0.3-0.2,0.6-0.2c0.2,0,0.4,0.1,0.6,0.2s0.2,0.3,0.2,0.6c0,0.2-0.1,0.4-0.2,0.6
			s-0.3,0.2-0.6,0.2c-0.2,0-0.4-0.1-0.6-0.2S226.8,59,226.8,58.8z M228.3,67h-1.4v-6.5h1.4V67z"/>
		<path d="M234.6,65.1c0,0.6-0.2,1.1-0.7,1.5s-1.1,0.5-2,0.5c-0.9,0-1.6-0.1-2.1-0.4v-1.2c0.8,0.4,1.5,0.5,2.1,0.5
			c0.8,0,1.3-0.3,1.3-0.8c0-0.2,0-0.3-0.1-0.4s-0.2-0.2-0.5-0.3s-0.5-0.2-0.9-0.4c-0.7-0.3-1.3-0.6-1.5-0.9s-0.4-0.7-0.4-1.1
			c0-0.6,0.2-1,0.7-1.3s1.1-0.5,1.8-0.5c0.8,0,1.5,0.2,2.2,0.5l-0.4,1c-0.7-0.3-1.3-0.4-1.8-0.4c-0.7,0-1.1,0.2-1.1,0.6
			c0,0.2,0.1,0.4,0.3,0.5s0.6,0.3,1.2,0.6c0.5,0.2,0.9,0.4,1.2,0.6s0.4,0.4,0.5,0.6S234.6,64.8,234.6,65.1z"/>
		<path d="M241.4,67.1c-0.8,0-1.4-0.3-1.9-0.9s-0.7-1.4-0.7-2.5c0-1.1,0.2-1.9,0.7-2.5s1.1-0.9,1.9-0.9c0.9,0,1.5,0.3,1.9,0.9h0.1
			c-0.1-0.5-0.1-0.8-0.1-1.1v-2.4h1.4V67h-1.1l-0.2-0.8h-0.1C242.9,66.8,242.3,67.1,241.4,67.1z M241.8,66c0.6,0,1-0.2,1.2-0.5
			s0.4-0.8,0.4-1.5v-0.2c0-0.8-0.1-1.4-0.4-1.7s-0.7-0.5-1.2-0.5c-0.5,0-0.9,0.2-1.1,0.6s-0.4,1-0.4,1.7c0,0.7,0.1,1.3,0.4,1.6
			S241.3,66,241.8,66z"/>
		<path d="M252.4,63.7c0,1.1-0.3,1.9-0.8,2.5s-1.3,0.9-2.3,0.9c-0.6,0-1.1-0.1-1.6-0.4s-0.8-0.7-1.1-1.2s-0.4-1.1-0.4-1.8
			c0-1.1,0.3-1.9,0.8-2.5s1.3-0.9,2.3-0.9c0.9,0,1.7,0.3,2.2,0.9S252.4,62.7,252.4,63.7z M247.7,63.7c0,1.5,0.6,2.2,1.7,2.2
			c1.1,0,1.6-0.7,1.6-2.2c0-1.5-0.6-2.2-1.7-2.2c-0.6,0-1,0.2-1.3,0.6S247.7,63,247.7,63.7z"/>
		<path d="M259.3,67.1c-0.8,0-1.4-0.3-1.9-0.9s-0.7-1.4-0.7-2.5s0.2-1.9,0.7-2.5s1.1-0.9,1.9-0.9c0.4,0,0.8,0.1,1.1,0.2
			s0.6,0.4,0.9,0.7h0l0.2-0.8h1.1v9.4h-1.4v-2.7c0-0.2,0-0.4,0-0.5s0-0.3,0-0.4h-0.1C260.8,66.8,260.2,67.1,259.3,67.1z M259.7,66
			c0.6,0,1-0.2,1.2-0.5s0.4-0.8,0.4-1.5v-0.2c0-0.8-0.1-1.4-0.4-1.7s-0.7-0.5-1.3-0.5c-0.5,0-0.9,0.2-1.1,0.6s-0.4,1-0.4,1.7
			C258.2,65.2,258.7,66,259.7,66z"/>
		<path d="M269.2,67l-0.2-0.8h-0.1c-0.2,0.3-0.5,0.5-0.8,0.7s-0.8,0.3-1.2,0.3c-0.8,0-1.4-0.2-1.8-0.6s-0.6-1-0.6-1.8v-4.2h1.4v4
			c0,0.5,0.1,0.9,0.3,1.1s0.5,0.4,1,0.4c0.6,0,1-0.2,1.3-0.5s0.4-0.9,0.4-1.7v-3.2h1.4V67H269.2z"/>
		<path d="M275.1,67.1c-1,0-1.8-0.3-2.4-0.9s-0.9-1.4-0.9-2.4c0-1.1,0.3-1.9,0.8-2.5s1.3-0.9,2.2-0.9c0.9,0,1.5,0.3,2,0.8
			s0.7,1.2,0.7,2.1V64h-4.3c0,0.6,0.2,1.1,0.5,1.5s0.8,0.5,1.4,0.5c0.4,0,0.7,0,1.1-0.1s0.7-0.2,1.1-0.4v1.1c-0.3,0.2-0.7,0.3-1,0.3
			S275.5,67.1,275.1,67.1z M274.8,61.4c-0.4,0-0.8,0.1-1.1,0.4s-0.4,0.7-0.5,1.2h2.9c0-0.5-0.1-0.9-0.4-1.2S275.3,61.4,274.8,61.4z"
			/>
		<path d="M288,63.7c0,1.1-0.3,1.9-0.8,2.5s-1.3,0.9-2.3,0.9c-0.6,0-1.1-0.1-1.6-0.4s-0.8-0.7-1.1-1.2s-0.4-1.1-0.4-1.8
			c0-1.1,0.3-1.9,0.8-2.5s1.3-0.9,2.3-0.9c0.9,0,1.7,0.3,2.2,0.9S288,62.7,288,63.7z M283.3,63.7c0,1.5,0.6,2.2,1.7,2.2
			c1.1,0,1.6-0.7,1.6-2.2c0-1.5-0.6-2.2-1.7-2.2c-0.6,0-1,0.2-1.3,0.6S283.3,63,283.3,63.7z"/>
		<path d="M294.9,67.1c-0.8,0-1.4-0.3-1.9-0.9s-0.7-1.4-0.7-2.5c0-1.1,0.2-1.9,0.7-2.5s1.1-0.9,1.9-0.9c0.9,0,1.5,0.3,1.9,0.9h0.1
			c-0.1-0.5-0.1-0.8-0.1-1.1v-2.4h1.4V67h-1.1l-0.2-0.8h-0.1C296.4,66.8,295.8,67.1,294.9,67.1z M295.3,66c0.6,0,1-0.2,1.2-0.5
			s0.4-0.8,0.4-1.5v-0.2c0-0.8-0.1-1.4-0.4-1.7s-0.7-0.5-1.2-0.5c-0.5,0-0.9,0.2-1.1,0.6s-0.4,1-0.4,1.7c0,0.7,0.1,1.3,0.4,1.6
			S294.8,66,295.3,66z"/>
		<path d="M305.9,63.7c0,1.1-0.3,1.9-0.8,2.5s-1.3,0.9-2.3,0.9c-0.6,0-1.1-0.1-1.6-0.4s-0.8-0.7-1.1-1.2s-0.4-1.1-0.4-1.8
			c0-1.1,0.3-1.9,0.8-2.5s1.3-0.9,2.3-0.9c0.9,0,1.7,0.3,2.2,0.9S305.9,62.7,305.9,63.7z M301.2,63.7c0,1.5,0.6,2.2,1.7,2.2
			c1.1,0,1.6-0.7,1.6-2.2c0-1.5-0.6-2.2-1.7-2.2c-0.6,0-1,0.2-1.3,0.6S301.2,63,301.2,63.7z"/>
		<path d="M310.8,60.4c0.8,0,1.4,0.3,1.9,0.9s0.7,1.4,0.7,2.5c0,1.1-0.2,1.9-0.7,2.5s-1.1,0.9-1.9,0.9c-0.8,0-1.5-0.3-1.9-0.9h-0.1
			l-0.3,0.8h-1v-9.1h1.4V60c0,0.2,0,0.4,0,0.7s0,0.5,0,0.6h0.1C309.3,60.7,310,60.4,310.8,60.4z M310.5,61.5c-0.6,0-1,0.2-1.2,0.5
			s-0.4,0.9-0.4,1.6v0.1c0,0.8,0.1,1.4,0.4,1.7s0.7,0.5,1.2,0.5c0.5,0,0.9-0.2,1.1-0.6s0.4-0.9,0.4-1.7
			C312,62.2,311.5,61.5,310.5,61.5z"/>
		<path d="M318.3,60.4c0.3,0,0.5,0,0.7,0.1l-0.1,1.3c-0.2,0-0.4-0.1-0.6-0.1c-0.6,0-1,0.2-1.3,0.5s-0.5,0.8-0.5,1.4V67H315v-6.5h1.1
			l0.2,1.1h0.1c0.2-0.4,0.5-0.7,0.8-0.9S317.9,60.4,318.3,60.4z"/>
		<path d="M325.9,63.7c0,1.1-0.3,1.9-0.8,2.5s-1.3,0.9-2.3,0.9c-0.6,0-1.1-0.1-1.6-0.4s-0.8-0.7-1.1-1.2s-0.4-1.1-0.4-1.8
			c0-1.1,0.3-1.9,0.8-2.5s1.3-0.9,2.3-0.9c0.9,0,1.7,0.3,2.2,0.9S325.9,62.7,325.9,63.7z M321.2,63.7c0,1.5,0.6,2.2,1.7,2.2
			c1.1,0,1.6-0.7,1.6-2.2c0-1.5-0.6-2.2-1.7-2.2c-0.6,0-1,0.2-1.3,0.6S321.2,63,321.2,63.7z"/>
		<path d="M332.8,67.1c-0.8,0-1.4-0.3-1.9-0.9s-0.7-1.4-0.7-2.5c0-1.1,0.2-1.9,0.7-2.5s1.1-0.9,1.9-0.9c0.9,0,1.5,0.3,1.9,0.9h0.1
			c-0.1-0.5-0.1-0.8-0.1-1.1v-2.4h1.4V67H335l-0.2-0.8h-0.1C334.3,66.8,333.7,67.1,332.8,67.1z M333.2,66c0.6,0,1-0.2,1.2-0.5
			s0.4-0.8,0.4-1.5v-0.2c0-0.8-0.1-1.4-0.4-1.7s-0.7-0.5-1.2-0.5c-0.5,0-0.9,0.2-1.1,0.6s-0.4,1-0.4,1.7c0,0.7,0.1,1.3,0.4,1.6
			S332.7,66,333.2,66z"/>
		<path d="M342.1,67l-0.3-0.9h0c-0.3,0.4-0.6,0.7-0.9,0.8s-0.7,0.2-1.2,0.2c-0.6,0-1.1-0.2-1.5-0.5s-0.5-0.8-0.5-1.5
			c0-0.7,0.2-1.2,0.7-1.5s1.3-0.5,2.3-0.6l1.1,0v-0.3c0-0.4-0.1-0.7-0.3-0.9s-0.5-0.3-0.9-0.3c-0.3,0-0.7,0-1,0.1s-0.6,0.2-0.9,0.3
			l-0.4-1c0.4-0.2,0.7-0.3,1.2-0.4s0.8-0.1,1.2-0.1c0.8,0,1.4,0.2,1.9,0.5s0.6,0.9,0.6,1.7V67H342.1z M340.1,66
			c0.5,0,0.9-0.1,1.2-0.4s0.5-0.7,0.5-1.2v-0.6l-0.8,0c-0.6,0-1.1,0.1-1.4,0.3s-0.4,0.5-0.4,0.9c0,0.3,0.1,0.5,0.3,0.7
			S339.8,66,340.1,66z"/>
		<path d="M142.2,74.8c0.3,0,0.5,0,0.7,0.1l-0.1,1.3c-0.2,0-0.4-0.1-0.6-0.1c-0.6,0-1,0.2-1.3,0.5s-0.5,0.8-0.5,1.4v3.4h-1.4v-6.5
			h1.1l0.2,1.1h0.1c0.2-0.4,0.5-0.7,0.8-0.9S141.8,74.8,142.2,74.8z"/>
		<path d="M146.9,81.5c-1,0-1.8-0.3-2.4-0.9s-0.9-1.4-0.9-2.4c0-1.1,0.3-1.9,0.8-2.5s1.3-0.9,2.2-0.9c0.9,0,1.5,0.3,2,0.8
			s0.7,1.2,0.7,2.1v0.7h-4.3c0,0.6,0.2,1.1,0.5,1.5s0.8,0.5,1.4,0.5c0.4,0,0.7,0,1.1-0.1s0.7-0.2,1.1-0.4V81c-0.3,0.2-0.7,0.3-1,0.3
			S147.4,81.5,146.9,81.5z M146.7,75.8c-0.4,0-0.8,0.1-1.1,0.4s-0.4,0.7-0.5,1.2h2.9c0-0.5-0.1-0.9-0.4-1.2S147.1,75.8,146.7,75.8z"
			/>
		<path d="M156.7,81.4h-1.4v-4c0-0.5-0.1-0.9-0.3-1.1s-0.5-0.4-1-0.4c-0.6,0-1,0.2-1.3,0.5s-0.4,0.9-0.4,1.7v3.2H151v-6.5h1.1
			l0.2,0.8h0.1c0.2-0.3,0.5-0.5,0.8-0.7s0.8-0.3,1.2-0.3c1.6,0,2.3,0.8,2.3,2.4V81.4z"/>
		<path d="M160.8,81.5c-0.8,0-1.4-0.3-1.9-0.9s-0.7-1.4-0.7-2.5c0-1.1,0.2-1.9,0.7-2.5s1.1-0.9,1.9-0.9c0.9,0,1.5,0.3,1.9,0.9h0.1
			c-0.1-0.5-0.1-0.8-0.1-1.1v-2.4h1.4v9.1h-1.1l-0.2-0.8h-0.1C162.3,81.2,161.7,81.5,160.8,81.5z M161.2,80.4c0.6,0,1-0.2,1.2-0.5
			s0.4-0.8,0.4-1.5v-0.2c0-0.8-0.1-1.4-0.4-1.7s-0.7-0.5-1.2-0.5c-0.5,0-0.9,0.2-1.1,0.6s-0.4,1-0.4,1.7c0,0.7,0.1,1.3,0.4,1.6
			S160.7,80.4,161.2,80.4z"/>
		<path d="M170.2,81.4l-0.3-0.9h0c-0.3,0.4-0.6,0.7-0.9,0.8s-0.7,0.2-1.2,0.2c-0.6,0-1.1-0.2-1.5-0.5s-0.5-0.8-0.5-1.5
			c0-0.7,0.2-1.2,0.7-1.5s1.3-0.5,2.3-0.6l1.1,0v-0.3c0-0.4-0.1-0.7-0.3-0.9s-0.5-0.3-0.9-0.3c-0.3,0-0.7,0-1,0.1s-0.6,0.2-0.9,0.3
			l-0.4-1c0.4-0.2,0.7-0.3,1.2-0.4s0.8-0.1,1.2-0.1c0.8,0,1.4,0.2,1.9,0.5s0.6,0.9,0.6,1.7v4.4H170.2z M168.1,80.4
			c0.5,0,0.9-0.1,1.2-0.4s0.5-0.7,0.5-1.2v-0.6l-0.8,0c-0.6,0-1.1,0.1-1.4,0.3s-0.4,0.5-0.4,0.9c0,0.3,0.1,0.5,0.3,0.7
			S167.8,80.4,168.1,80.4z"/>
		<path d="M178.4,81.5c-0.8,0-1.4-0.3-1.9-0.9s-0.7-1.4-0.7-2.5c0-1.1,0.2-1.9,0.7-2.5s1.1-0.9,1.9-0.9c0.9,0,1.5,0.3,1.9,0.9h0.1
			c-0.1-0.5-0.1-0.8-0.1-1.1v-2.4h1.4v9.1h-1.1l-0.2-0.8h-0.1C179.9,81.2,179.2,81.5,178.4,81.5z M178.7,80.4c0.6,0,1-0.2,1.2-0.5
			s0.4-0.8,0.4-1.5v-0.2c0-0.8-0.1-1.4-0.4-1.7s-0.7-0.5-1.2-0.5c-0.5,0-0.9,0.2-1.1,0.6s-0.4,1-0.4,1.7c0,0.7,0.1,1.3,0.4,1.6
			S178.2,80.4,178.7,80.4z"/>
		<path d="M189.4,78.1c0,1.1-0.3,1.9-0.8,2.5s-1.3,0.9-2.3,0.9c-0.6,0-1.1-0.1-1.6-0.4s-0.8-0.7-1.1-1.2s-0.4-1.1-0.4-1.8
			c0-1.1,0.3-1.9,0.8-2.5s1.3-0.9,2.3-0.9c0.9,0,1.7,0.3,2.2,0.9S189.4,77.1,189.4,78.1z M184.7,78.1c0,1.5,0.6,2.2,1.7,2.2
			c1.1,0,1.6-0.7,1.6-2.2c0-1.5-0.6-2.2-1.7-2.2c-0.6,0-1,0.2-1.3,0.6S184.7,77.4,184.7,78.1z"/>
		<path d="M195.3,79.5c0,0.6-0.2,1.1-0.7,1.5s-1.1,0.5-2,0.5c-0.9,0-1.6-0.1-2.1-0.4v-1.2c0.8,0.4,1.5,0.5,2.1,0.5
			c0.8,0,1.3-0.3,1.3-0.8c0-0.2,0-0.3-0.1-0.4s-0.2-0.2-0.5-0.3s-0.5-0.2-0.9-0.4c-0.7-0.3-1.3-0.6-1.5-0.9s-0.4-0.7-0.4-1.1
			c0-0.6,0.2-1,0.7-1.3s1.1-0.5,1.8-0.5c0.8,0,1.5,0.2,2.2,0.5l-0.4,1c-0.7-0.3-1.3-0.4-1.8-0.4c-0.7,0-1.1,0.2-1.1,0.6
			c0,0.2,0.1,0.4,0.3,0.5s0.6,0.3,1.2,0.6c0.5,0.2,0.9,0.4,1.2,0.6s0.4,0.4,0.5,0.6S195.3,79.2,195.3,79.5z"/>
		<path d="M205.6,79.5h-1.2v1.9h-1.3v-1.9h-3.9v-1.1l3.9-5.7h1.3v5.6h1.2V79.5z M203.1,78.4v-2.2c0-0.8,0-1.4,0.1-1.9h0
			c-0.1,0.3-0.3,0.6-0.5,0.9l-2.1,3.1H203.1z"/>
		<path d="M212.1,77.1c0,1.5-0.2,2.6-0.7,3.3s-1.2,1.1-2.2,1.1c-1,0-1.7-0.4-2.2-1.1s-0.7-1.8-0.7-3.3c0-1.5,0.2-2.6,0.7-3.3
			s1.2-1.1,2.2-1.1c1,0,1.7,0.4,2.2,1.1S212.1,75.6,212.1,77.1z M207.7,77.1c0,1.2,0.1,2,0.4,2.5s0.6,0.8,1.2,0.8s0.9-0.3,1.2-0.8
			s0.4-1.3,0.4-2.5c0-1.1-0.1-2-0.4-2.5s-0.6-0.8-1.2-0.8s-0.9,0.3-1.2,0.8S207.7,75.9,207.7,77.1z"/>
		<path d="M216.9,75.4c0,0.9-0.2,1.6-0.5,2s-0.8,0.7-1.4,0.7c-0.6,0-1.1-0.2-1.4-0.7s-0.5-1.1-0.5-2c0-1.8,0.6-2.7,1.9-2.7
			c0.6,0,1.1,0.2,1.4,0.7S216.9,74.5,216.9,75.4z M214.3,75.4c0,0.6,0.1,1,0.2,1.3s0.3,0.4,0.6,0.4c0.5,0,0.8-0.6,0.8-1.7
			s-0.3-1.7-0.8-1.7c-0.3,0-0.4,0.1-0.6,0.4S214.3,74.8,214.3,75.4z M220.8,72.8l-4.8,8.6h-1.1l4.8-8.6H220.8z M222.5,78.8
			c0,0.9-0.2,1.6-0.5,2s-0.8,0.7-1.4,0.7c-0.6,0-1.1-0.2-1.4-0.7s-0.5-1.1-0.5-2c0-1.8,0.6-2.7,1.9-2.7c0.6,0,1.1,0.2,1.4,0.7
			S222.5,77.9,222.5,78.8z M219.9,78.8c0,0.6,0.1,1,0.2,1.3s0.3,0.4,0.6,0.4c0.5,0,0.8-0.6,0.8-1.7c0-1.1-0.3-1.7-0.8-1.7
			c-0.3,0-0.4,0.1-0.6,0.4S219.9,78.2,219.9,78.8z"/>
		<path d="M232.6,81.4h-1.4v-4c0-0.5-0.1-0.9-0.3-1.1s-0.5-0.4-0.9-0.4c-0.5,0-0.9,0.2-1.2,0.5s-0.4,0.9-0.4,1.7v3.2h-1.4v-6.5h1.1
			l0.2,0.8h0.1c0.2-0.3,0.4-0.5,0.8-0.7s0.7-0.3,1.1-0.3c1,0,1.7,0.3,2,1h0.1c0.2-0.3,0.5-0.6,0.8-0.8s0.7-0.3,1.2-0.3
			c0.8,0,1.3,0.2,1.7,0.6s0.5,1,0.5,1.8v4.2h-1.4v-4c0-0.5-0.1-0.9-0.3-1.1s-0.5-0.4-0.9-0.4c-0.5,0-0.9,0.2-1.2,0.5
			s-0.4,0.8-0.4,1.5V81.4z"/>
		<path d="M242.6,81.4l-0.3-0.9h0c-0.3,0.4-0.6,0.7-0.9,0.8s-0.7,0.2-1.2,0.2c-0.6,0-1.1-0.2-1.5-0.5s-0.5-0.8-0.5-1.5
			c0-0.7,0.2-1.2,0.7-1.5s1.3-0.5,2.3-0.6l1.1,0v-0.3c0-0.4-0.1-0.7-0.3-0.9s-0.5-0.3-0.9-0.3c-0.3,0-0.7,0-1,0.1s-0.6,0.2-0.9,0.3
			l-0.4-1c0.4-0.2,0.7-0.3,1.2-0.4s0.8-0.1,1.2-0.1c0.8,0,1.4,0.2,1.9,0.5s0.6,0.9,0.6,1.7v4.4H242.6z M240.6,80.4
			c0.5,0,0.9-0.1,1.2-0.4s0.5-0.7,0.5-1.2v-0.6l-0.8,0c-0.6,0-1.1,0.1-1.4,0.3s-0.4,0.5-0.4,0.9c0,0.3,0.1,0.5,0.3,0.7
			S240.2,80.4,240.6,80.4z"/>
		<path d="M245.5,73.2c0-0.2,0.1-0.4,0.2-0.6s0.3-0.2,0.6-0.2c0.2,0,0.4,0.1,0.6,0.2s0.2,0.3,0.2,0.6c0,0.2-0.1,0.4-0.2,0.6
			s-0.3,0.2-0.6,0.2c-0.2,0-0.4-0.1-0.6-0.2S245.5,73.4,245.5,73.2z M246.9,81.4h-1.4v-6.5h1.4V81.4z"/>
		<path d="M253.2,79.5c0,0.6-0.2,1.1-0.7,1.5s-1.1,0.5-2,0.5c-0.9,0-1.6-0.1-2.1-0.4v-1.2c0.8,0.4,1.5,0.5,2.1,0.5
			c0.8,0,1.3-0.3,1.3-0.8c0-0.2,0-0.3-0.1-0.4s-0.2-0.2-0.5-0.3s-0.5-0.2-0.9-0.4c-0.7-0.3-1.3-0.6-1.5-0.9s-0.4-0.7-0.4-1.1
			c0-0.6,0.2-1,0.7-1.3s1.1-0.5,1.8-0.5c0.8,0,1.5,0.2,2.2,0.5l-0.4,1c-0.7-0.3-1.3-0.4-1.8-0.4c-0.7,0-1.1,0.2-1.1,0.6
			c0,0.2,0.1,0.4,0.3,0.5s0.6,0.3,1.2,0.6c0.5,0.2,0.9,0.4,1.2,0.6s0.4,0.4,0.5,0.6S253.2,79.2,253.2,79.5z"/>
		<path d="M261.1,81.5c-0.8,0-1.5-0.3-1.9-0.9h-0.1c0.1,0.5,0.1,0.9,0.1,1v2.7h-1.4v-9.4h1.1c0,0.1,0.1,0.4,0.2,0.9h0.1
			c0.4-0.7,1.1-1,1.9-1c0.8,0,1.4,0.3,1.9,0.9s0.7,1.4,0.7,2.5s-0.2,1.9-0.7,2.5S261.9,81.5,261.1,81.5z M260.8,75.9
			c-0.5,0-0.9,0.2-1.2,0.5s-0.4,0.8-0.4,1.5v0.2c0,0.8,0.1,1.4,0.4,1.7s0.7,0.5,1.2,0.5c0.5,0,0.8-0.2,1.1-0.6s0.4-0.9,0.4-1.7
			c0-0.7-0.1-1.3-0.4-1.6S261.3,75.9,260.8,75.9z"/>
		<path d="M271.1,78.1c0,1.1-0.3,1.9-0.8,2.5s-1.3,0.9-2.3,0.9c-0.6,0-1.1-0.1-1.6-0.4s-0.8-0.7-1.1-1.2s-0.4-1.1-0.4-1.8
			c0-1.1,0.3-1.9,0.8-2.5s1.3-0.9,2.3-0.9c0.9,0,1.7,0.3,2.2,0.9S271.1,77.1,271.1,78.1z M266.3,78.1c0,1.5,0.6,2.2,1.7,2.2
			c1.1,0,1.6-0.7,1.6-2.2c0-1.5-0.6-2.2-1.7-2.2c-0.6,0-1,0.2-1.3,0.6S266.3,77.4,266.3,78.1z"/>
		<path d="M276,74.8c0.8,0,1.4,0.3,1.9,0.9s0.7,1.4,0.7,2.5c0,1.1-0.2,1.9-0.7,2.5s-1.1,0.9-1.9,0.9c-0.8,0-1.5-0.3-1.9-0.9h-0.1
			l-0.3,0.8h-1v-9.1h1.4v2.2c0,0.2,0,0.4,0,0.7s0,0.5,0,0.6h0.1C274.5,75.1,275.1,74.8,276,74.8z M275.6,75.9c-0.6,0-1,0.2-1.2,0.5
			S274,77.3,274,78v0.1c0,0.8,0.1,1.4,0.4,1.7s0.7,0.5,1.2,0.5c0.5,0,0.9-0.2,1.1-0.6s0.4-0.9,0.4-1.7
			C277.1,76.6,276.6,75.9,275.6,75.9z"/>
		<path d="M283.4,74.8c0.3,0,0.5,0,0.7,0.1l-0.1,1.3c-0.2,0-0.4-0.1-0.6-0.1c-0.6,0-1,0.2-1.3,0.5s-0.5,0.8-0.5,1.4v3.4h-1.4v-6.5
			h1.1l0.2,1.1h0.1c0.2-0.4,0.5-0.7,0.8-0.9S283,74.8,283.4,74.8z"/>
		<path d="M288.1,81.5c-1,0-1.8-0.3-2.4-0.9s-0.9-1.4-0.9-2.4c0-1.1,0.3-1.9,0.8-2.5s1.3-0.9,2.2-0.9c0.9,0,1.5,0.3,2,0.8
			s0.7,1.2,0.7,2.1v0.7h-4.3c0,0.6,0.2,1.1,0.5,1.5s0.8,0.5,1.4,0.5c0.4,0,0.7,0,1.1-0.1s0.7-0.2,1.1-0.4V81c-0.3,0.2-0.7,0.3-1,0.3
			S288.6,81.5,288.1,81.5z M287.9,75.8c-0.4,0-0.8,0.1-1.1,0.4c-0.3,0.3-0.4,0.7-0.5,1.2h2.9c0-0.5-0.1-0.9-0.4-1.2
			S288.3,75.8,287.9,75.8z"/>
		<path d="M296.6,79.5c0,0.6-0.2,1.1-0.7,1.5s-1.1,0.5-2,0.5c-0.9,0-1.6-0.1-2.1-0.4v-1.2c0.8,0.4,1.5,0.5,2.1,0.5
			c0.8,0,1.3-0.3,1.3-0.8c0-0.2,0-0.3-0.1-0.4s-0.2-0.2-0.5-0.3s-0.5-0.2-0.9-0.4c-0.7-0.3-1.3-0.6-1.5-0.9s-0.4-0.7-0.4-1.1
			c0-0.6,0.2-1,0.7-1.3s1.1-0.5,1.8-0.5c0.8,0,1.5,0.2,2.2,0.5l-0.4,1c-0.7-0.3-1.3-0.4-1.8-0.4c-0.7,0-1.1,0.2-1.1,0.6
			c0,0.2,0.1,0.4,0.3,0.5s0.6,0.3,1.2,0.6c0.5,0.2,0.9,0.4,1.2,0.6s0.4,0.4,0.5,0.6S296.6,79.2,296.6,79.5z"/>
	</g>
	<g>
		<path d="M197.4,351.1h-0.7v-5.7h3.2v0.6h-2.5v2.1h2.4v0.6h-2.4V351.1z"/>
		<path d="M204.5,349c0,0.7-0.2,1.2-0.5,1.6c-0.4,0.4-0.8,0.6-1.5,0.6c-0.4,0-0.7-0.1-1-0.3s-0.5-0.4-0.7-0.8s-0.2-0.7-0.2-1.2
			c0-0.7,0.2-1.2,0.5-1.6c0.3-0.4,0.8-0.6,1.5-0.6c0.6,0,1.1,0.2,1.4,0.6S204.5,348.3,204.5,349z M201.2,349c0,0.5,0.1,1,0.3,1.2
			c0.2,0.3,0.5,0.4,1,0.4s0.7-0.1,1-0.4s0.3-0.7,0.3-1.3c0-0.5-0.1-1-0.3-1.2c-0.2-0.3-0.5-0.4-1-0.4c-0.4,0-0.7,0.1-1,0.4
			C201.3,348,201.2,348.4,201.2,349z"/>
		<path d="M208.5,351.1v-2.8c0-0.3-0.1-0.6-0.2-0.8s-0.4-0.3-0.7-0.3c-0.4,0-0.8,0.1-1,0.4s-0.3,0.6-0.3,1.2v2.2h-0.6v-4.3h0.5
			l0.1,0.6h0c0.1-0.2,0.3-0.4,0.6-0.5c0.2-0.1,0.5-0.2,0.8-0.2c0.5,0,0.9,0.1,1.2,0.4c0.3,0.2,0.4,0.6,0.4,1.2v2.8H208.5z"/>
		<path d="M211.9,350.7c0.1,0,0.2,0,0.3,0c0.1,0,0.2,0,0.3-0.1v0.5c-0.1,0-0.2,0.1-0.3,0.1c-0.1,0-0.3,0-0.4,0
			c-0.8,0-1.2-0.4-1.2-1.3v-2.5H210V347l0.6-0.3l0.3-0.9h0.4v1h1.2v0.5h-1.2v2.5c0,0.3,0.1,0.5,0.2,0.6
			C211.5,350.6,211.7,350.7,211.9,350.7z"/>
		<path d="M215.2,351.2c-0.6,0-1.1-0.2-1.5-0.6c-0.4-0.4-0.5-0.9-0.5-1.6c0-0.7,0.2-1.2,0.5-1.6s0.8-0.6,1.4-0.6
			c0.5,0,1,0.2,1.3,0.5c0.3,0.4,0.5,0.8,0.5,1.4v0.4h-2.9c0,0.5,0.1,0.9,0.4,1.1c0.2,0.3,0.6,0.4,1,0.4c0.5,0,0.9-0.1,1.4-0.3v0.6
			c-0.2,0.1-0.4,0.2-0.7,0.2S215.4,351.2,215.2,351.2z M215,347.3c-0.3,0-0.6,0.1-0.8,0.3c-0.2,0.2-0.3,0.5-0.4,0.9h2.2
			c0-0.4-0.1-0.7-0.3-0.9C215.6,347.4,215.3,347.3,215,347.3z"/>
		<path d="M217.7,347.2c0-0.4,0.2-0.5,0.5-0.5c0.3,0,0.5,0.2,0.5,0.5c0,0.2,0,0.3-0.1,0.4c-0.1,0.1-0.2,0.1-0.4,0.1
			c-0.1,0-0.2,0-0.3-0.1S217.7,347.4,217.7,347.2z M217.7,350.7c0-0.2,0-0.3,0.1-0.4s0.2-0.1,0.3-0.1c0.2,0,0.3,0,0.4,0.1
			c0.1,0.1,0.1,0.2,0.1,0.4c0,0.2,0,0.3-0.1,0.4c-0.1,0.1-0.2,0.1-0.4,0.1c-0.1,0-0.2,0-0.3-0.1S217.7,350.9,217.7,350.7z"/>
		<path d="M222.1,351.1v-5.7h0.7v5.7H222.1z"/>
		<path d="M224.4,345.4h1.6c0.8,0,1.3,0.1,1.6,0.3c0.3,0.2,0.5,0.6,0.5,1.1c0,0.3-0.1,0.6-0.3,0.8c-0.2,0.2-0.5,0.4-0.8,0.4v0
			c0.9,0.1,1.3,0.6,1.3,1.4c0,0.5-0.2,0.9-0.5,1.2c-0.3,0.3-0.8,0.4-1.4,0.4h-2V345.4z M225,347.8h1.1c0.5,0,0.8-0.1,1-0.2
			c0.2-0.1,0.3-0.4,0.3-0.7c0-0.3-0.1-0.6-0.3-0.7c-0.2-0.1-0.6-0.2-1.1-0.2h-1V347.8z M225,348.4v2.1h1.2c0.5,0,0.8-0.1,1-0.3
			c0.2-0.2,0.3-0.5,0.3-0.8c0-0.4-0.1-0.6-0.4-0.8c-0.2-0.2-0.6-0.2-1.1-0.2H225z"/>
		<path d="M232.1,348.1h1.9v2.8c-0.3,0.1-0.6,0.2-0.9,0.2c-0.3,0-0.7,0.1-1.1,0.1c-0.9,0-1.5-0.3-2-0.8c-0.5-0.5-0.7-1.2-0.7-2.2
			c0-0.6,0.1-1.1,0.4-1.6c0.2-0.4,0.6-0.8,1-1c0.4-0.2,1-0.4,1.6-0.4c0.6,0,1.2,0.1,1.7,0.3l-0.3,0.6c-0.5-0.2-1-0.3-1.5-0.3
			c-0.7,0-1.2,0.2-1.6,0.6s-0.6,1-0.6,1.7c0,0.8,0.2,1.4,0.6,1.8c0.4,0.4,0.9,0.6,1.7,0.6c0.4,0,0.8,0,1.2-0.1v-1.8h-1.3V348.1z"/>
		<path d="M238.6,351.1h-3.2v-5.7h3.2v0.6H236v1.8h2.4v0.6H236v2.1h2.5V351.1z"/>
	</g>
	<g>
		<path d="M35.8,132.6L34,127h0c0.1,1.1,0.1,1.9,0.1,2.3v3.3h-1.4v-7.1h2.1l1.7,5.5h0l1.8-5.5h2.1v7.1H39v-3.4c0-0.2,0-0.3,0-0.6
			s0-0.8,0.1-1.7h0l-1.8,5.6H35.8z"/>
		<path d="M45.5,132.6l-0.3-0.7h0c-0.3,0.3-0.5,0.5-0.8,0.7s-0.6,0.2-1,0.2c-0.5,0-0.9-0.1-1.2-0.4s-0.5-0.7-0.5-1.3
			c0-0.6,0.2-1,0.6-1.3s1-0.4,1.8-0.5l0.9,0V129c0-0.6-0.3-0.8-0.8-0.8c-0.4,0-0.9,0.1-1.5,0.4l-0.5-1c0.6-0.3,1.3-0.5,2.1-0.5
			c0.7,0,1.3,0.2,1.7,0.5s0.6,0.8,0.6,1.5v3.6H45.5z M45.1,130.1l-0.6,0c-0.4,0-0.8,0.1-1,0.2s-0.3,0.4-0.3,0.7
			c0,0.4,0.2,0.6,0.7,0.6c0.3,0,0.6-0.1,0.8-0.3s0.3-0.5,0.3-0.8V130.1z"/>
		<path d="M48,125.7c0-0.5,0.3-0.7,0.8-0.7s0.8,0.2,0.8,0.7c0,0.2-0.1,0.4-0.2,0.5s-0.3,0.2-0.6,0.2C48.3,126.5,48,126.2,48,125.7z
			 M49.6,132.6h-1.5v-5.5h1.5V132.6z"/>
		<path d="M55,131c0,0.6-0.2,1-0.6,1.3s-1,0.4-1.7,0.4c-0.4,0-0.7,0-1-0.1s-0.5-0.1-0.8-0.2v-1.2c0.3,0.1,0.6,0.2,0.9,0.3
			s0.7,0.1,0.9,0.1c0.5,0,0.8-0.2,0.8-0.5c0-0.1,0-0.2-0.1-0.3s-0.2-0.2-0.4-0.2s-0.4-0.2-0.7-0.3c-0.4-0.2-0.7-0.3-0.9-0.5
			s-0.3-0.3-0.4-0.5s-0.1-0.4-0.1-0.7c0-0.5,0.2-0.9,0.6-1.1s0.9-0.4,1.6-0.4c0.7,0,1.3,0.1,1.9,0.4l-0.4,1.1
			c-0.3-0.1-0.5-0.2-0.8-0.3s-0.5-0.1-0.7-0.1c-0.4,0-0.7,0.1-0.7,0.4c0,0.1,0.1,0.2,0.2,0.3s0.5,0.2,0.9,0.4
			c0.4,0.2,0.7,0.3,0.9,0.5s0.3,0.3,0.4,0.5S55,130.7,55,131z"/>
		<path d="M61.8,127.1c0.2,0,0.4,0,0.5,0l-0.1,1.4c-0.1,0-0.3,0-0.4,0c-0.5,0-0.8,0.1-1.1,0.4s-0.4,0.6-0.4,1v2.8h-1.5v-5.5h1.1
			l0.2,0.9h0.1c0.2-0.3,0.4-0.6,0.7-0.7S61.4,127.1,61.8,127.1z"/>
		<path d="M63.2,125.7c0-0.5,0.3-0.7,0.8-0.7s0.8,0.2,0.8,0.7c0,0.2-0.1,0.4-0.2,0.5s-0.3,0.2-0.6,0.2
			C63.5,126.5,63.2,126.2,63.2,125.7z M64.7,132.6h-1.5v-5.5h1.5V132.6z"/>
		<path d="M68.5,132.7c-1.7,0-2.5-0.9-2.5-2.8c0-0.9,0.2-1.6,0.7-2.1s1.1-0.7,2-0.7c0.6,0,1.2,0.1,1.7,0.4l-0.4,1.2
			c-0.2-0.1-0.5-0.2-0.7-0.2s-0.4-0.1-0.6-0.1c-0.8,0-1.2,0.6-1.2,1.7c0,1.1,0.4,1.6,1.2,1.6c0.3,0,0.6,0,0.8-0.1s0.5-0.2,0.7-0.4
			v1.3c-0.2,0.2-0.5,0.3-0.7,0.3S68.9,132.7,68.5,132.7z"/>
		<path d="M76.4,129.9c0,0.9-0.2,1.6-0.7,2.1s-1.1,0.8-2,0.8c-0.5,0-1-0.1-1.4-0.3s-0.7-0.6-0.9-1s-0.3-0.9-0.3-1.5
			c0-0.9,0.2-1.6,0.7-2.1s1.1-0.7,2-0.7c0.5,0,1,0.1,1.4,0.3s0.7,0.6,0.9,1S76.4,129.3,76.4,129.9z M72.6,129.9
			c0,0.5,0.1,0.9,0.3,1.2s0.5,0.4,0.9,0.4c0.4,0,0.7-0.1,0.9-0.4s0.3-0.7,0.3-1.2c0-0.5-0.1-0.9-0.3-1.2s-0.5-0.4-0.9-0.4
			c-0.4,0-0.7,0.1-0.9,0.4S72.6,129.3,72.6,129.9z"/>
		<path d="M81.4,131c0,0.6-0.2,1-0.6,1.3s-1,0.4-1.7,0.4c-0.4,0-0.7,0-1-0.1s-0.5-0.1-0.8-0.2v-1.2c0.3,0.1,0.6,0.2,0.9,0.3
			s0.7,0.1,0.9,0.1c0.5,0,0.8-0.2,0.8-0.5c0-0.1,0-0.2-0.1-0.3s-0.2-0.2-0.4-0.2s-0.4-0.2-0.7-0.3c-0.4-0.2-0.7-0.3-0.9-0.5
			s-0.3-0.3-0.4-0.5s-0.1-0.4-0.1-0.7c0-0.5,0.2-0.9,0.6-1.1s0.9-0.4,1.6-0.4c0.7,0,1.3,0.1,1.9,0.4l-0.4,1.1
			c-0.3-0.1-0.5-0.2-0.8-0.3s-0.5-0.1-0.7-0.1c-0.4,0-0.7,0.1-0.7,0.4c0,0.1,0.1,0.2,0.2,0.3s0.5,0.2,0.9,0.4
			c0.4,0.2,0.7,0.3,0.9,0.5s0.3,0.3,0.4,0.5S81.4,130.7,81.4,131z"/>
	</g>
	<g>
		<path d="M40.6,157.4h-1.1v-4.6c0-0.6,0-1,0-1.3c-0.1,0.1-0.2,0.2-0.3,0.3s-0.5,0.4-1.1,0.9l-0.6-0.7l2.1-1.7h1V157.4z"/>
		<path d="M46.1,152.4c0,0.7-0.1,1.3-0.4,1.7s-0.7,0.6-1.2,0.6c-0.5,0-0.9-0.2-1.1-0.6s-0.4-0.9-0.4-1.7c0-1.5,0.5-2.2,1.6-2.2
			c0.5,0,0.9,0.2,1.2,0.6S46.1,151.7,46.1,152.4z M43.9,152.4c0,0.5,0,0.8,0.1,1.1s0.2,0.4,0.5,0.4c0.4,0,0.6-0.5,0.6-1.4
			s-0.2-1.4-0.6-1.4c-0.2,0-0.4,0.1-0.5,0.4S43.9,152,43.9,152.4z M49.3,150.3l-4,7.1h-0.9l4-7.1H49.3z M50.7,155.3
			c0,0.7-0.1,1.3-0.4,1.7s-0.7,0.6-1.2,0.6c-0.5,0-0.9-0.2-1.2-0.6s-0.4-0.9-0.4-1.7c0-1.5,0.5-2.2,1.6-2.2c0.5,0,0.9,0.2,1.2,0.6
			S50.7,154.6,50.7,155.3z M48.5,155.3c0,0.5,0,0.8,0.1,1.1s0.3,0.4,0.5,0.4c0.4,0,0.6-0.5,0.6-1.5c0-1-0.2-1.4-0.6-1.4
			c-0.2,0-0.4,0.1-0.5,0.4S48.5,154.8,48.5,155.3z"/>
	</g>
	<g>
		<path d="M134,191.6h-4.8v-0.9l1.8-1.9c0.5-0.6,0.9-1,1.1-1.2s0.3-0.5,0.4-0.7s0.1-0.4,0.1-0.7c0-0.3-0.1-0.6-0.3-0.8
			s-0.5-0.3-0.8-0.3c-0.3,0-0.5,0.1-0.8,0.2s-0.6,0.3-0.9,0.5l-0.6-0.8c0.4-0.3,0.8-0.6,1.2-0.7s0.8-0.2,1.2-0.2
			c0.7,0,1.2,0.2,1.6,0.5s0.6,0.8,0.6,1.4c0,0.3-0.1,0.6-0.2,0.9s-0.3,0.6-0.5,0.9s-0.6,0.7-1.2,1.2l-1.2,1.2v0h3.4V191.6z"/>
		<path d="M137.3,184.3c0.7,0,1.2,0.2,1.6,0.5s0.6,0.7,0.6,1.2c0,0.7-0.4,1.3-1.3,1.7c0.6,0.3,1,0.6,1.2,0.9s0.4,0.7,0.4,1
			c0,0.6-0.2,1.1-0.6,1.4s-1,0.5-1.8,0.5c-0.8,0-1.4-0.2-1.8-0.5s-0.6-0.8-0.6-1.4c0-0.4,0.1-0.8,0.3-1.1s0.6-0.6,1.1-0.8
			c-0.4-0.3-0.7-0.5-0.9-0.8s-0.3-0.6-0.3-1c0-0.5,0.2-0.9,0.6-1.2S136.7,184.3,137.3,184.3z M136,189.7c0,0.3,0.1,0.6,0.4,0.8
			s0.6,0.3,1,0.3c0.4,0,0.7-0.1,1-0.3s0.3-0.5,0.3-0.8c0-0.3-0.1-0.5-0.3-0.7s-0.5-0.4-1-0.6l-0.1-0.1c-0.4,0.2-0.7,0.4-0.9,0.6
			S136,189.4,136,189.7z M137.3,185.2c-0.3,0-0.6,0.1-0.8,0.2s-0.3,0.4-0.3,0.7c0,0.2,0,0.3,0.1,0.5s0.2,0.3,0.3,0.4
			s0.4,0.2,0.7,0.4c0.4-0.2,0.7-0.4,0.8-0.5s0.2-0.4,0.2-0.7c0-0.3-0.1-0.5-0.3-0.7S137.6,185.2,137.3,185.2z"/>
		<path d="M142.2,190.5c-0.2,0.6-0.4,1.4-0.9,2.3h-0.8c0.2-0.9,0.4-1.7,0.5-2.5h1.1L142.2,190.5z"/>
		<path d="M147.9,186.1c0,0.5-0.1,0.8-0.4,1.1s-0.6,0.5-1.1,0.6v0c0.6,0.1,1,0.2,1.3,0.5s0.4,0.7,0.4,1.1c0,0.7-0.2,1.2-0.7,1.6
			s-1.2,0.6-2.1,0.6c-0.8,0-1.5-0.1-2-0.4v-1c0.3,0.1,0.6,0.3,1,0.3s0.7,0.1,1,0.1c0.6,0,1-0.1,1.2-0.3s0.4-0.5,0.4-1
			c0-0.4-0.2-0.7-0.5-0.8s-0.8-0.3-1.4-0.3h-0.6v-0.9h0.6c1.1,0,1.7-0.4,1.7-1.2c0-0.3-0.1-0.5-0.3-0.7s-0.5-0.2-0.9-0.2
			c-0.3,0-0.5,0-0.8,0.1s-0.5,0.2-0.9,0.4l-0.6-0.8c0.7-0.5,1.4-0.7,2.3-0.7c0.7,0,1.3,0.2,1.7,0.5S147.9,185.5,147.9,186.1z"/>
		<path d="M152.1,186.5c0,0.7-0.1,1.3-0.4,1.7s-0.7,0.6-1.2,0.6c-0.5,0-0.9-0.2-1.1-0.6s-0.4-0.9-0.4-1.7c0-1.5,0.5-2.2,1.6-2.2
			c0.5,0,0.9,0.2,1.2,0.6S152.1,185.8,152.1,186.5z M149.9,186.6c0,0.5,0,0.8,0.1,1.1s0.2,0.4,0.5,0.4c0.4,0,0.6-0.5,0.6-1.4
			s-0.2-1.4-0.6-1.4c-0.2,0-0.4,0.1-0.5,0.4S149.9,186.1,149.9,186.6z M155.3,184.4l-4,7.1h-0.9l4-7.1H155.3z M156.8,189.4
			c0,0.7-0.1,1.3-0.4,1.7s-0.7,0.6-1.2,0.6c-0.5,0-0.9-0.2-1.2-0.6s-0.4-0.9-0.4-1.7c0-1.5,0.5-2.2,1.6-2.2c0.5,0,0.9,0.2,1.2,0.6
			S156.8,188.7,156.8,189.4z M154.6,189.4c0,0.5,0,0.8,0.1,1.1s0.3,0.4,0.5,0.4c0.4,0,0.6-0.5,0.6-1.5c0-1-0.2-1.4-0.6-1.4
			c-0.2,0-0.4,0.1-0.5,0.4S154.6,188.9,154.6,189.4z"/>
	</g>
	<g>
		<g>
			<path d="M397.5,327.6h-0.8v-5.1c0-0.4,0-0.8,0-1.2c-0.1,0.1-0.1,0.1-0.2,0.2c-0.1,0.1-0.5,0.4-1.2,1l-0.4-0.6l1.9-1.5h0.7V327.6z
				"/>
			<path d="M404.9,324c0,1.2-0.2,2.2-0.6,2.8c-0.4,0.6-1,0.9-1.8,0.9c-0.8,0-1.4-0.3-1.8-0.9c-0.4-0.6-0.6-1.5-0.6-2.7
				c0-1.2,0.2-2.2,0.6-2.8c0.4-0.6,1-0.9,1.8-0.9c0.8,0,1.4,0.3,1.8,0.9C404.7,321.9,404.9,322.8,404.9,324z M401,324
				c0,1,0.1,1.8,0.4,2.3s0.6,0.7,1.2,0.7c0.5,0,0.9-0.2,1.2-0.7c0.2-0.5,0.4-1.2,0.4-2.3s-0.1-1.8-0.4-2.3c-0.2-0.5-0.6-0.7-1.2-0.7
				c-0.5,0-0.9,0.2-1.2,0.7C401.2,322.2,401,323,401,324z"/>
			<path d="M410.7,324c0,1.2-0.2,2.2-0.6,2.8c-0.4,0.6-1,0.9-1.8,0.9c-0.8,0-1.4-0.3-1.8-0.9c-0.4-0.6-0.6-1.5-0.6-2.7
				c0-1.2,0.2-2.2,0.6-2.8c0.4-0.6,1-0.9,1.8-0.9c0.8,0,1.4,0.3,1.8,0.9C410.5,321.9,410.7,322.8,410.7,324z M406.8,324
				c0,1,0.1,1.8,0.4,2.3s0.6,0.7,1.2,0.7c0.5,0,0.9-0.2,1.2-0.7c0.2-0.5,0.4-1.2,0.4-2.3s-0.1-1.8-0.4-2.3c-0.2-0.5-0.6-0.7-1.2-0.7
				c-0.5,0-0.9,0.2-1.2,0.7C406.9,322.2,406.8,323,406.8,324z"/>
			<path d="M414.6,322.6c0,0.7-0.1,1.3-0.4,1.7c-0.2,0.4-0.6,0.6-1.1,0.6c-0.5,0-0.8-0.2-1.1-0.6c-0.3-0.4-0.4-0.9-0.4-1.7
				c0-0.7,0.1-1.3,0.4-1.7c0.2-0.4,0.6-0.6,1.1-0.6c0.5,0,0.8,0.2,1.1,0.6C414.4,321.3,414.6,321.9,414.6,322.6z M412.3,322.6
				c0,0.6,0.1,1,0.2,1.2c0.1,0.3,0.3,0.4,0.6,0.4c0.5,0,0.8-0.6,0.8-1.7c0-1.1-0.3-1.7-0.8-1.7c-0.3,0-0.5,0.1-0.6,0.4
				C412.4,321.6,412.3,322,412.3,322.6z M417.6,320.5l-4,7.1h-0.7l4-7.1H417.6z M418.9,325.5c0,0.7-0.1,1.3-0.4,1.7
				c-0.2,0.4-0.6,0.6-1.1,0.6c-0.5,0-0.8-0.2-1.1-0.6c-0.2-0.4-0.4-0.9-0.4-1.7c0-0.7,0.1-1.3,0.4-1.7c0.2-0.4,0.6-0.6,1.1-0.6
				c0.5,0,0.8,0.2,1.1,0.6C418.7,324.2,418.9,324.7,418.9,325.5z M416.6,325.5c0,0.6,0.1,1,0.2,1.2c0.1,0.3,0.3,0.4,0.6,0.4
				s0.5-0.1,0.6-0.4c0.1-0.3,0.2-0.7,0.2-1.3c0-0.6-0.1-1-0.2-1.2c-0.1-0.3-0.3-0.4-0.6-0.4s-0.5,0.1-0.6,0.4
				C416.7,324.5,416.6,324.9,416.6,325.5z"/>
		</g>
		<g>
			<path d="M364.2,323.5c0,2.8-1.1,4.2-3.2,4.2c-0.4,0-0.7,0-0.9-0.1v-0.7c0.3,0.1,0.6,0.1,0.9,0.1c0.8,0,1.4-0.2,1.8-0.7
				c0.4-0.5,0.6-1.2,0.7-2.2h-0.1c-0.2,0.3-0.4,0.5-0.7,0.6c-0.3,0.1-0.6,0.2-1,0.2c-0.6,0-1.1-0.2-1.5-0.6
				c-0.4-0.4-0.6-0.9-0.6-1.6c0-0.7,0.2-1.3,0.6-1.8s1-0.6,1.6-0.6c0.5,0,0.9,0.1,1.3,0.4c0.4,0.2,0.6,0.6,0.8,1.1
				C364.1,322.3,364.2,322.9,364.2,323.5z M361.8,321.1c-0.5,0-0.8,0.2-1.1,0.4c-0.3,0.3-0.4,0.7-0.4,1.2c0,0.5,0.1,0.8,0.4,1.1
				s0.6,0.4,1.1,0.4c0.3,0,0.6-0.1,0.8-0.2c0.2-0.1,0.4-0.3,0.6-0.5c0.1-0.2,0.2-0.4,0.2-0.7c0-0.3-0.1-0.7-0.2-0.9
				c-0.1-0.3-0.3-0.5-0.6-0.7S362.1,321.1,361.8,321.1z"/>
			<path d="M370,324c0,1.2-0.2,2.2-0.6,2.8c-0.4,0.6-1,0.9-1.8,0.9c-0.8,0-1.4-0.3-1.8-0.9c-0.4-0.6-0.6-1.5-0.6-2.7
				c0-1.2,0.2-2.2,0.6-2.8c0.4-0.6,1-0.9,1.8-0.9c0.8,0,1.4,0.3,1.8,0.9C369.8,321.9,370,322.8,370,324z M366.1,324
				c0,1,0.1,1.8,0.4,2.3s0.6,0.7,1.2,0.7c0.5,0,0.9-0.2,1.2-0.7c0.2-0.5,0.4-1.2,0.4-2.3s-0.1-1.8-0.4-2.3c-0.2-0.5-0.6-0.7-1.2-0.7
				c-0.5,0-0.9,0.2-1.2,0.7C366.2,322.2,366.1,323,366.1,324z"/>
			<path d="M373.9,322.6c0,0.7-0.1,1.3-0.4,1.7c-0.2,0.4-0.6,0.6-1.1,0.6c-0.5,0-0.8-0.2-1.1-0.6c-0.3-0.4-0.4-0.9-0.4-1.7
				c0-0.7,0.1-1.3,0.4-1.7c0.2-0.4,0.6-0.6,1.1-0.6c0.5,0,0.8,0.2,1.1,0.6C373.7,321.3,373.9,321.9,373.9,322.6z M371.6,322.6
				c0,0.6,0.1,1,0.2,1.2c0.1,0.3,0.3,0.4,0.6,0.4c0.5,0,0.8-0.6,0.8-1.7c0-1.1-0.3-1.7-0.8-1.7c-0.3,0-0.5,0.1-0.6,0.4
				C371.7,321.6,371.6,322,371.6,322.6z M376.9,320.5l-4,7.1h-0.7l4-7.1H376.9z M378.2,325.5c0,0.7-0.1,1.3-0.4,1.7
				c-0.2,0.4-0.6,0.6-1.1,0.6c-0.5,0-0.8-0.2-1.1-0.6c-0.2-0.4-0.4-0.9-0.4-1.7c0-0.7,0.1-1.3,0.4-1.7c0.2-0.4,0.6-0.6,1.1-0.6
				c0.5,0,0.8,0.2,1.1,0.6C378,324.2,378.2,324.7,378.2,325.5z M375.9,325.5c0,0.6,0.1,1,0.2,1.2c0.1,0.3,0.3,0.4,0.6,0.4
				s0.5-0.1,0.6-0.4c0.1-0.3,0.2-0.7,0.2-1.3c0-0.6-0.1-1-0.2-1.2c-0.1-0.3-0.3-0.4-0.6-0.4s-0.5,0.1-0.6,0.4
				C376,324.5,375.9,324.9,375.9,325.5z"/>
		</g>
		<g>
			<path d="M324,320.4c0.7,0,1.2,0.2,1.5,0.5s0.6,0.7,0.6,1.3c0,0.4-0.1,0.7-0.3,1c-0.2,0.3-0.6,0.6-1,0.8c0.6,0.3,1,0.6,1.2,0.9
				c0.2,0.3,0.4,0.7,0.4,1.1c0,0.6-0.2,1.1-0.6,1.4c-0.4,0.4-1,0.5-1.7,0.5c-0.8,0-1.3-0.2-1.8-0.5c-0.4-0.3-0.6-0.8-0.6-1.4
				c0-0.8,0.5-1.5,1.5-1.9c-0.4-0.3-0.8-0.5-1-0.8c-0.2-0.3-0.3-0.6-0.3-1c0-0.5,0.2-0.9,0.6-1.2C322.9,320.5,323.4,320.4,324,320.4
				z M322.5,325.8c0,0.4,0.1,0.7,0.4,0.9c0.3,0.2,0.7,0.3,1.1,0.3c0.5,0,0.9-0.1,1.1-0.3c0.3-0.2,0.4-0.5,0.4-0.9
				c0-0.3-0.1-0.6-0.4-0.8c-0.3-0.2-0.7-0.5-1.3-0.7c-0.5,0.2-0.8,0.4-1.1,0.7C322.6,325.2,322.5,325.5,322.5,325.8z M324,321
				c-0.4,0-0.7,0.1-1,0.3c-0.2,0.2-0.3,0.5-0.3,0.8c0,0.3,0.1,0.6,0.3,0.8c0.2,0.2,0.5,0.4,1.1,0.6c0.5-0.2,0.8-0.4,1-0.6
				c0.2-0.2,0.3-0.5,0.3-0.8c0-0.3-0.1-0.6-0.4-0.8C324.8,321.1,324.4,321,324,321z"/>
			<path d="M332.1,324c0,1.2-0.2,2.2-0.6,2.8c-0.4,0.6-1,0.9-1.8,0.9c-0.8,0-1.4-0.3-1.8-0.9c-0.4-0.6-0.6-1.5-0.6-2.7
				c0-1.2,0.2-2.2,0.6-2.8c0.4-0.6,1-0.9,1.8-0.9c0.8,0,1.4,0.3,1.8,0.9C331.9,321.9,332.1,322.8,332.1,324z M328.2,324
				c0,1,0.1,1.8,0.4,2.3s0.6,0.7,1.2,0.7c0.5,0,0.9-0.2,1.2-0.7c0.2-0.5,0.4-1.2,0.4-2.3s-0.1-1.8-0.4-2.3c-0.2-0.5-0.6-0.7-1.2-0.7
				c-0.5,0-0.9,0.2-1.2,0.7C328.3,322.2,328.2,323,328.2,324z"/>
			<path d="M336,322.6c0,0.7-0.1,1.3-0.4,1.7c-0.2,0.4-0.6,0.6-1.1,0.6c-0.5,0-0.8-0.2-1.1-0.6c-0.3-0.4-0.4-0.9-0.4-1.7
				c0-0.7,0.1-1.3,0.4-1.7c0.2-0.4,0.6-0.6,1.1-0.6c0.5,0,0.8,0.2,1.1,0.6C335.9,321.3,336,321.9,336,322.6z M333.8,322.6
				c0,0.6,0.1,1,0.2,1.2c0.1,0.3,0.3,0.4,0.6,0.4c0.5,0,0.8-0.6,0.8-1.7c0-1.1-0.3-1.7-0.8-1.7c-0.3,0-0.5,0.1-0.6,0.4
				C333.9,321.6,333.8,322,333.8,322.6z M339.1,320.5l-4,7.1h-0.7l4-7.1H339.1z M340.3,325.5c0,0.7-0.1,1.3-0.4,1.7
				c-0.2,0.4-0.6,0.6-1.1,0.6c-0.5,0-0.8-0.2-1.1-0.6c-0.2-0.4-0.4-0.9-0.4-1.7c0-0.7,0.1-1.3,0.4-1.7c0.2-0.4,0.6-0.6,1.1-0.6
				c0.5,0,0.8,0.2,1.1,0.6C340.2,324.2,340.3,324.7,340.3,325.5z M338.1,325.5c0,0.6,0.1,1,0.2,1.2c0.1,0.3,0.3,0.4,0.6,0.4
				s0.5-0.1,0.6-0.4c0.1-0.3,0.2-0.7,0.2-1.3c0-0.6-0.1-1-0.2-1.2c-0.1-0.3-0.3-0.4-0.6-0.4s-0.5,0.1-0.6,0.4
				C338.2,324.5,338.1,324.9,338.1,325.5z"/>
		</g>
		<g>
			<path d="M284.7,327.6l3-6.4h-3.9v-0.7h4.8v0.6l-2.9,6.5H284.7z"/>
			<path d="M294.3,324c0,1.2-0.2,2.2-0.6,2.8c-0.4,0.6-1,0.9-1.8,0.9c-0.8,0-1.4-0.3-1.8-0.9c-0.4-0.6-0.6-1.5-0.6-2.7
				c0-1.2,0.2-2.2,0.6-2.8c0.4-0.6,1-0.9,1.8-0.9c0.8,0,1.4,0.3,1.8,0.9C294.1,321.9,294.3,322.8,294.3,324z M290.4,324
				c0,1,0.1,1.8,0.4,2.3s0.6,0.7,1.2,0.7c0.5,0,0.9-0.2,1.2-0.7c0.2-0.5,0.4-1.2,0.4-2.3s-0.1-1.8-0.4-2.3c-0.2-0.5-0.6-0.7-1.2-0.7
				c-0.5,0-0.9,0.2-1.2,0.7C290.5,322.2,290.4,323,290.4,324z"/>
			<path d="M298.2,322.6c0,0.7-0.1,1.3-0.4,1.7c-0.2,0.4-0.6,0.6-1.1,0.6c-0.5,0-0.8-0.2-1.1-0.6c-0.3-0.4-0.4-0.9-0.4-1.7
				c0-0.7,0.1-1.3,0.4-1.7c0.2-0.4,0.6-0.6,1.1-0.6c0.5,0,0.8,0.2,1.1,0.6C298.1,321.3,298.2,321.9,298.2,322.6z M296,322.6
				c0,0.6,0.1,1,0.2,1.2c0.1,0.3,0.3,0.4,0.6,0.4c0.5,0,0.8-0.6,0.8-1.7c0-1.1-0.3-1.7-0.8-1.7c-0.3,0-0.5,0.1-0.6,0.4
				C296,321.6,296,322,296,322.6z M301.2,320.5l-4,7.1h-0.7l4-7.1H301.2z M302.5,325.5c0,0.7-0.1,1.3-0.4,1.7
				c-0.2,0.4-0.6,0.6-1.1,0.6c-0.5,0-0.8-0.2-1.1-0.6c-0.2-0.4-0.4-0.9-0.4-1.7c0-0.7,0.1-1.3,0.4-1.7c0.2-0.4,0.6-0.6,1.1-0.6
				c0.5,0,0.8,0.2,1.1,0.6C302.4,324.2,302.5,324.7,302.5,325.5z M300.3,325.5c0,0.6,0.1,1,0.2,1.2c0.1,0.3,0.3,0.4,0.6,0.4
				s0.5-0.1,0.6-0.4c0.1-0.3,0.2-0.7,0.2-1.3c0-0.6-0.1-1-0.2-1.2c-0.1-0.3-0.3-0.4-0.6-0.4s-0.5,0.1-0.6,0.4
				C300.3,324.5,300.3,324.9,300.3,325.5z"/>
		</g>
		<g>
			<path d="M246.1,324.6c0-1.4,0.3-2.5,0.8-3.1c0.5-0.7,1.4-1,2.4-1c0.4,0,0.7,0,0.9,0.1v0.7c-0.2-0.1-0.5-0.1-0.9-0.1
				c-0.8,0-1.3,0.2-1.8,0.7c-0.4,0.5-0.6,1.2-0.7,2.2h0.1c0.4-0.6,0.9-0.8,1.7-0.8c0.6,0,1.1,0.2,1.5,0.6c0.4,0.4,0.6,0.9,0.6,1.6
				c0,0.7-0.2,1.3-0.6,1.8s-1,0.6-1.6,0.6c-0.7,0-1.3-0.3-1.8-0.8C246.3,326.3,246.1,325.5,246.1,324.6z M248.5,327
				c0.5,0,0.8-0.1,1.1-0.4c0.3-0.3,0.4-0.7,0.4-1.3c0-0.5-0.1-0.8-0.4-1.1c-0.2-0.3-0.6-0.4-1.1-0.4c-0.3,0-0.6,0.1-0.8,0.2
				c-0.2,0.1-0.4,0.3-0.6,0.5c-0.1,0.2-0.2,0.4-0.2,0.7c0,0.3,0.1,0.6,0.2,0.9c0.1,0.3,0.3,0.5,0.6,0.7
				C247.9,326.9,248.2,327,248.5,327z"/>
			<path d="M256.4,324c0,1.2-0.2,2.2-0.6,2.8c-0.4,0.6-1,0.9-1.8,0.9c-0.8,0-1.4-0.3-1.8-0.9c-0.4-0.6-0.6-1.5-0.6-2.7
				c0-1.2,0.2-2.2,0.6-2.8c0.4-0.6,1-0.9,1.8-0.9c0.8,0,1.4,0.3,1.8,0.9C256.2,321.9,256.4,322.8,256.4,324z M252.5,324
				c0,1,0.1,1.8,0.4,2.3s0.6,0.7,1.2,0.7c0.5,0,0.9-0.2,1.2-0.7c0.2-0.5,0.4-1.2,0.4-2.3s-0.1-1.8-0.4-2.3c-0.2-0.5-0.6-0.7-1.2-0.7
				c-0.5,0-0.9,0.2-1.2,0.7C252.7,322.2,252.5,323,252.5,324z"/>
			<path d="M260.4,322.6c0,0.7-0.1,1.3-0.4,1.7c-0.2,0.4-0.6,0.6-1.1,0.6c-0.5,0-0.8-0.2-1.1-0.6c-0.3-0.4-0.4-0.9-0.4-1.7
				c0-0.7,0.1-1.3,0.4-1.7c0.2-0.4,0.6-0.6,1.1-0.6c0.5,0,0.8,0.2,1.1,0.6C260.2,321.3,260.4,321.9,260.4,322.6z M258.1,322.6
				c0,0.6,0.1,1,0.2,1.2c0.1,0.3,0.3,0.4,0.6,0.4c0.5,0,0.8-0.6,0.8-1.7c0-1.1-0.3-1.7-0.8-1.7c-0.3,0-0.5,0.1-0.6,0.4
				C258.2,321.6,258.1,322,258.1,322.6z M263.4,320.5l-4,7.1h-0.7l4-7.1H263.4z M264.7,325.5c0,0.7-0.1,1.3-0.4,1.7
				c-0.2,0.4-0.6,0.6-1.1,0.6c-0.5,0-0.8-0.2-1.1-0.6c-0.2-0.4-0.4-0.9-0.4-1.7c0-0.7,0.1-1.3,0.4-1.7c0.2-0.4,0.6-0.6,1.1-0.6
				c0.5,0,0.8,0.2,1.1,0.6C264.5,324.2,264.7,324.7,264.7,325.5z M262.4,325.5c0,0.6,0.1,1,0.2,1.2c0.1,0.3,0.3,0.4,0.6,0.4
				s0.5-0.1,0.6-0.4c0.1-0.3,0.2-0.7,0.2-1.3c0-0.6-0.1-1-0.2-1.2c-0.1-0.3-0.3-0.4-0.6-0.4s-0.5,0.1-0.6,0.4
				C262.5,324.5,262.4,324.9,262.4,325.5z"/>
		</g>
		<g>
			<path d="M210.4,323.2c0.8,0,1.3,0.2,1.8,0.6c0.4,0.4,0.6,0.9,0.6,1.5c0,0.7-0.2,1.3-0.7,1.7s-1.1,0.6-1.9,0.6
				c-0.8,0-1.4-0.1-1.8-0.4v-0.8c0.2,0.1,0.5,0.3,0.8,0.3s0.7,0.1,1,0.1c0.6,0,1-0.1,1.3-0.4c0.3-0.3,0.5-0.7,0.5-1.2
				c0-1-0.6-1.5-1.8-1.5c-0.3,0-0.7,0-1.2,0.1l-0.4-0.3l0.3-3.3h3.5v0.7h-2.9l-0.2,2.1C209.6,323.3,210,323.2,210.4,323.2z"/>
			<path d="M218.6,324c0,1.2-0.2,2.2-0.6,2.8c-0.4,0.6-1,0.9-1.8,0.9c-0.8,0-1.4-0.3-1.8-0.9c-0.4-0.6-0.6-1.5-0.6-2.7
				c0-1.2,0.2-2.2,0.6-2.8c0.4-0.6,1-0.9,1.8-0.9c0.8,0,1.4,0.3,1.8,0.9C218.4,321.9,218.6,322.8,218.6,324z M214.7,324
				c0,1,0.1,1.8,0.4,2.3s0.6,0.7,1.2,0.7c0.5,0,0.9-0.2,1.2-0.7c0.2-0.5,0.4-1.2,0.4-2.3s-0.1-1.8-0.4-2.3c-0.2-0.5-0.6-0.7-1.2-0.7
				c-0.5,0-0.9,0.2-1.2,0.7C214.8,322.2,214.7,323,214.7,324z"/>
			<path d="M222.5,322.6c0,0.7-0.1,1.3-0.4,1.7c-0.2,0.4-0.6,0.6-1.1,0.6c-0.5,0-0.8-0.2-1.1-0.6c-0.3-0.4-0.4-0.9-0.4-1.7
				c0-0.7,0.1-1.3,0.4-1.7c0.2-0.4,0.6-0.6,1.1-0.6c0.5,0,0.8,0.2,1.1,0.6C222.4,321.3,222.5,321.9,222.5,322.6z M220.3,322.6
				c0,0.6,0.1,1,0.2,1.2c0.1,0.3,0.3,0.4,0.6,0.4c0.5,0,0.8-0.6,0.8-1.7c0-1.1-0.3-1.7-0.8-1.7c-0.3,0-0.5,0.1-0.6,0.4
				C220.3,321.6,220.3,322,220.3,322.6z M225.6,320.5l-4,7.1h-0.7l4-7.1H225.6z M226.8,325.5c0,0.7-0.1,1.3-0.4,1.7
				c-0.2,0.4-0.6,0.6-1.1,0.6c-0.5,0-0.8-0.2-1.1-0.6c-0.2-0.4-0.4-0.9-0.4-1.7c0-0.7,0.1-1.3,0.4-1.7c0.2-0.4,0.6-0.6,1.1-0.6
				c0.5,0,0.8,0.2,1.1,0.6C226.7,324.2,226.8,324.7,226.8,325.5z M224.6,325.5c0,0.6,0.1,1,0.2,1.2c0.1,0.3,0.3,0.4,0.6,0.4
				s0.5-0.1,0.6-0.4c0.1-0.3,0.2-0.7,0.2-1.3c0-0.6-0.1-1-0.2-1.2c-0.1-0.3-0.3-0.4-0.6-0.4s-0.5,0.1-0.6,0.4
				C224.6,324.5,224.6,324.9,224.6,325.5z"/>
		</g>
		<g>
			<path d="M175.3,326h-1.1v1.6h-0.8V326H170v-0.7l3.4-4.8h0.9v4.8h1.1V326z M173.5,325.2v-2.4c0-0.5,0-1,0-1.6h0
				c-0.2,0.3-0.3,0.6-0.4,0.8l-2.2,3.2H173.5z"/>
			<path d="M180.8,324c0,1.2-0.2,2.2-0.6,2.8c-0.4,0.6-1,0.9-1.8,0.9c-0.8,0-1.4-0.3-1.8-0.9c-0.4-0.6-0.6-1.5-0.6-2.7
				c0-1.2,0.2-2.2,0.6-2.8c0.4-0.6,1-0.9,1.8-0.9c0.8,0,1.4,0.3,1.8,0.9C180.6,321.9,180.8,322.8,180.8,324z M176.9,324
				c0,1,0.1,1.8,0.4,2.3s0.6,0.7,1.2,0.7c0.5,0,0.9-0.2,1.2-0.7c0.2-0.5,0.4-1.2,0.4-2.3s-0.1-1.8-0.4-2.3c-0.2-0.5-0.6-0.7-1.2-0.7
				c-0.5,0-0.9,0.2-1.2,0.7C177,322.2,176.9,323,176.9,324z"/>
			<path d="M184.7,322.6c0,0.7-0.1,1.3-0.4,1.7c-0.2,0.4-0.6,0.6-1.1,0.6c-0.5,0-0.8-0.2-1.1-0.6c-0.3-0.4-0.4-0.9-0.4-1.7
				c0-0.7,0.1-1.3,0.4-1.7c0.2-0.4,0.6-0.6,1.1-0.6c0.5,0,0.8,0.2,1.1,0.6C184.6,321.3,184.7,321.9,184.7,322.6z M182.4,322.6
				c0,0.6,0.1,1,0.2,1.2c0.1,0.3,0.3,0.4,0.6,0.4c0.5,0,0.8-0.6,0.8-1.7c0-1.1-0.3-1.7-0.8-1.7c-0.3,0-0.5,0.1-0.6,0.4
				S182.4,322,182.4,322.6z M187.7,320.5l-4,7.1H183l4-7.1H187.7z M189,325.5c0,0.7-0.1,1.3-0.4,1.7c-0.2,0.4-0.6,0.6-1.1,0.6
				c-0.5,0-0.8-0.2-1.1-0.6c-0.2-0.4-0.4-0.9-0.4-1.7c0-0.7,0.1-1.3,0.4-1.7c0.2-0.4,0.6-0.6,1.1-0.6c0.5,0,0.8,0.2,1.1,0.6
				C188.9,324.2,189,324.7,189,325.5z M186.7,325.5c0,0.6,0.1,1,0.2,1.2c0.1,0.3,0.3,0.4,0.6,0.4s0.5-0.1,0.6-0.4
				c0.1-0.3,0.2-0.7,0.2-1.3c0-0.6-0.1-1-0.2-1.2s-0.3-0.4-0.6-0.4s-0.5,0.1-0.6,0.4S186.7,324.9,186.7,325.5z"/>
		</g>
		<g>
			<path d="M136.9,322.1c0,0.5-0.1,0.8-0.4,1.1c-0.3,0.3-0.6,0.5-1.1,0.6v0c0.6,0.1,1,0.3,1.3,0.5s0.4,0.7,0.4,1.2
				c0,0.7-0.2,1.2-0.7,1.6s-1.1,0.5-2,0.5c-0.4,0-0.7,0-1-0.1c-0.3-0.1-0.6-0.2-0.9-0.3v-0.8c0.3,0.2,0.6,0.3,1,0.3
				c0.4,0.1,0.7,0.1,1,0.1c1.2,0,1.9-0.5,1.9-1.5c0-0.9-0.7-1.3-2-1.3h-0.7v-0.7h0.7c0.6,0,1-0.1,1.3-0.4c0.3-0.2,0.5-0.6,0.5-1
				c0-0.3-0.1-0.6-0.4-0.8c-0.2-0.2-0.6-0.3-1-0.3c-0.3,0-0.6,0-0.9,0.1c-0.3,0.1-0.6,0.2-0.9,0.5l-0.4-0.5c0.3-0.2,0.6-0.4,1-0.5
				s0.8-0.2,1.2-0.2c0.7,0,1.2,0.2,1.6,0.5S136.9,321.6,136.9,322.1z"/>
			<path d="M142.9,324c0,1.2-0.2,2.2-0.6,2.8c-0.4,0.6-1,0.9-1.8,0.9c-0.8,0-1.4-0.3-1.8-0.9c-0.4-0.6-0.6-1.5-0.6-2.7
				c0-1.2,0.2-2.2,0.6-2.8c0.4-0.6,1-0.9,1.8-0.9c0.8,0,1.4,0.3,1.8,0.9C142.7,321.9,142.9,322.8,142.9,324z M139,324
				c0,1,0.1,1.8,0.4,2.3s0.6,0.7,1.2,0.7c0.5,0,0.9-0.2,1.2-0.7c0.2-0.5,0.4-1.2,0.4-2.3s-0.1-1.8-0.4-2.3c-0.2-0.5-0.6-0.7-1.2-0.7
				c-0.5,0-0.9,0.2-1.2,0.7C139.1,322.2,139,323,139,324z"/>
			<path d="M146.8,322.6c0,0.7-0.1,1.3-0.4,1.7c-0.2,0.4-0.6,0.6-1.1,0.6c-0.5,0-0.8-0.2-1.1-0.6c-0.3-0.4-0.4-0.9-0.4-1.7
				c0-0.7,0.1-1.3,0.4-1.7c0.2-0.4,0.6-0.6,1.1-0.6c0.5,0,0.8,0.2,1.1,0.6C146.7,321.3,146.8,321.9,146.8,322.6z M144.6,322.6
				c0,0.6,0.1,1,0.2,1.2c0.1,0.3,0.3,0.4,0.6,0.4c0.5,0,0.8-0.6,0.8-1.7c0-1.1-0.3-1.7-0.8-1.7c-0.3,0-0.5,0.1-0.6,0.4
				S144.6,322,144.6,322.6z M149.9,320.5l-4,7.1h-0.7l4-7.1H149.9z M151.1,325.5c0,0.7-0.1,1.3-0.4,1.7c-0.2,0.4-0.6,0.6-1.1,0.6
				c-0.5,0-0.8-0.2-1.1-0.6c-0.2-0.4-0.4-0.9-0.4-1.7c0-0.7,0.1-1.3,0.4-1.7c0.2-0.4,0.6-0.6,1.1-0.6c0.5,0,0.8,0.2,1.1,0.6
				C151,324.2,151.1,324.7,151.1,325.5z M148.9,325.5c0,0.6,0.1,1,0.2,1.2c0.1,0.3,0.3,0.4,0.6,0.4s0.5-0.1,0.6-0.4
				c0.1-0.3,0.2-0.7,0.2-1.3c0-0.6-0.1-1-0.2-1.2s-0.3-0.4-0.6-0.4s-0.5,0.1-0.6,0.4S148.9,324.9,148.9,325.5z"/>
		</g>
		<g>
			<path d="M99.3,327.6h-4.7v-0.7l1.9-1.9c0.6-0.6,1-1,1.1-1.2c0.2-0.2,0.3-0.5,0.4-0.7s0.1-0.5,0.1-0.8c0-0.4-0.1-0.7-0.3-0.9
				c-0.2-0.2-0.6-0.3-1-0.3c-0.3,0-0.6,0-0.8,0.1s-0.6,0.3-0.9,0.5l-0.4-0.6c0.7-0.5,1.4-0.8,2.1-0.8c0.7,0,1.2,0.2,1.6,0.5
				c0.4,0.3,0.6,0.8,0.6,1.4c0,0.5-0.1,0.9-0.4,1.3c-0.3,0.4-0.7,1-1.4,1.7l-1.6,1.5v0h3.7V327.6z"/>
			<path d="M105.1,324c0,1.2-0.2,2.2-0.6,2.8c-0.4,0.6-1,0.9-1.8,0.9c-0.8,0-1.4-0.3-1.8-0.9c-0.4-0.6-0.6-1.5-0.6-2.7
				c0-1.2,0.2-2.2,0.6-2.8c0.4-0.6,1-0.9,1.8-0.9c0.8,0,1.4,0.3,1.8,0.9C104.9,321.9,105.1,322.8,105.1,324z M101.2,324
				c0,1,0.1,1.8,0.4,2.3s0.6,0.7,1.2,0.7c0.5,0,0.9-0.2,1.2-0.7c0.2-0.5,0.4-1.2,0.4-2.3s-0.1-1.8-0.4-2.3c-0.2-0.5-0.6-0.7-1.2-0.7
				c-0.5,0-0.9,0.2-1.2,0.7C101.3,322.2,101.2,323,101.2,324z"/>
			<path d="M109,322.6c0,0.7-0.1,1.3-0.4,1.7c-0.2,0.4-0.6,0.6-1.1,0.6c-0.5,0-0.8-0.2-1.1-0.6c-0.3-0.4-0.4-0.9-0.4-1.7
				c0-0.7,0.1-1.3,0.4-1.7c0.2-0.4,0.6-0.6,1.1-0.6c0.5,0,0.8,0.2,1.1,0.6C108.9,321.3,109,321.9,109,322.6z M106.8,322.6
				c0,0.6,0.1,1,0.2,1.2c0.1,0.3,0.3,0.4,0.6,0.4c0.5,0,0.8-0.6,0.8-1.7c0-1.1-0.3-1.7-0.8-1.7c-0.3,0-0.5,0.1-0.6,0.4
				S106.8,322,106.8,322.6z M112,320.5l-4,7.1h-0.7l4-7.1H112z M113.3,325.5c0,0.7-0.1,1.3-0.4,1.7c-0.2,0.4-0.6,0.6-1.1,0.6
				c-0.5,0-0.8-0.2-1.1-0.6c-0.2-0.4-0.4-0.9-0.4-1.7c0-0.7,0.1-1.3,0.4-1.7c0.2-0.4,0.6-0.6,1.1-0.6c0.5,0,0.8,0.2,1.1,0.6
				C113.2,324.2,113.3,324.7,113.3,325.5z M111.1,325.5c0,0.6,0.1,1,0.2,1.2c0.1,0.3,0.3,0.4,0.6,0.4s0.5-0.1,0.6-0.4
				c0.1-0.3,0.2-0.7,0.2-1.3c0-0.6-0.1-1-0.2-1.2s-0.3-0.4-0.6-0.4s-0.5,0.1-0.6,0.4S111.1,324.9,111.1,325.5z"/>
		</g>
		<g>
			<path d="M59.8,327.6H59v-5.1c0-0.4,0-0.8,0-1.2c-0.1,0.1-0.1,0.1-0.2,0.2c-0.1,0.1-0.5,0.4-1.2,1l-0.4-0.6l1.9-1.5h0.7V327.6z"/>
			<path d="M67.2,324c0,1.2-0.2,2.2-0.6,2.8c-0.4,0.6-1,0.9-1.8,0.9c-0.8,0-1.4-0.3-1.8-0.9c-0.4-0.6-0.6-1.5-0.6-2.7
				c0-1.2,0.2-2.2,0.6-2.8c0.4-0.6,1-0.9,1.8-0.9c0.8,0,1.4,0.3,1.8,0.9C67,321.9,67.2,322.8,67.2,324z M63.3,324
				c0,1,0.1,1.8,0.4,2.3s0.6,0.7,1.2,0.7c0.5,0,0.9-0.2,1.2-0.7c0.2-0.5,0.4-1.2,0.4-2.3s-0.1-1.8-0.4-2.3c-0.2-0.5-0.6-0.7-1.2-0.7
				c-0.5,0-0.9,0.2-1.2,0.7C63.5,322.2,63.3,323,63.3,324z"/>
			<path d="M71.2,322.6c0,0.7-0.1,1.3-0.4,1.7c-0.2,0.4-0.6,0.6-1.1,0.6c-0.5,0-0.8-0.2-1.1-0.6c-0.3-0.4-0.4-0.9-0.4-1.7
				c0-0.7,0.1-1.3,0.4-1.7c0.2-0.4,0.6-0.6,1.1-0.6c0.5,0,0.8,0.2,1.1,0.6C71,321.3,71.2,321.9,71.2,322.6z M68.9,322.6
				c0,0.6,0.1,1,0.2,1.2c0.1,0.3,0.3,0.4,0.6,0.4c0.5,0,0.8-0.6,0.8-1.7c0-1.1-0.3-1.7-0.8-1.7c-0.3,0-0.5,0.1-0.6,0.4
				S68.9,322,68.9,322.6z M74.2,320.5l-4,7.1h-0.7l4-7.1H74.2z M75.5,325.5c0,0.7-0.1,1.3-0.4,1.7c-0.2,0.4-0.6,0.6-1.1,0.6
				c-0.5,0-0.8-0.2-1.1-0.6c-0.2-0.4-0.4-0.9-0.4-1.7c0-0.7,0.1-1.3,0.4-1.7c0.2-0.4,0.6-0.6,1.1-0.6c0.5,0,0.8,0.2,1.1,0.6
				C75.3,324.2,75.5,324.7,75.5,325.5z M73.2,325.5c0,0.6,0.1,1,0.2,1.2c0.1,0.3,0.3,0.4,0.6,0.4s0.5-0.1,0.6-0.4
				c0.1-0.3,0.2-0.7,0.2-1.3c0-0.6-0.1-1-0.2-1.2s-0.3-0.4-0.6-0.4s-0.5,0.1-0.6,0.4S73.2,324.9,73.2,325.5z"/>
		</g>
		<g>
			<path d="M26.5,324c0,1.2-0.2,2.2-0.6,2.8c-0.4,0.6-1,0.9-1.8,0.9c-0.8,0-1.4-0.3-1.8-0.9c-0.4-0.6-0.6-1.5-0.6-2.7
				c0-1.2,0.2-2.2,0.6-2.8c0.4-0.6,1-0.9,1.8-0.9c0.8,0,1.4,0.3,1.8,0.9C26.3,321.9,26.5,322.8,26.5,324z M22.6,324
				c0,1,0.1,1.8,0.4,2.3s0.6,0.7,1.2,0.7c0.5,0,0.9-0.2,1.2-0.7c0.2-0.5,0.4-1.2,0.4-2.3s-0.1-1.8-0.4-2.3c-0.2-0.5-0.6-0.7-1.2-0.7
				c-0.5,0-0.9,0.2-1.2,0.7C22.8,322.2,22.6,323,22.6,324z"/>
			<path d="M30.5,322.6c0,0.7-0.1,1.3-0.4,1.7c-0.2,0.4-0.6,0.6-1.1,0.6c-0.5,0-0.8-0.2-1.1-0.6c-0.3-0.4-0.4-0.9-0.4-1.7
				c0-0.7,0.1-1.3,0.4-1.7c0.2-0.4,0.6-0.6,1.1-0.6c0.5,0,0.8,0.2,1.1,0.6C30.3,321.3,30.5,321.9,30.5,322.6z M28.2,322.6
				c0,0.6,0.1,1,0.2,1.2c0.1,0.3,0.3,0.4,0.6,0.4c0.5,0,0.8-0.6,0.8-1.7c0-1.1-0.3-1.7-0.8-1.7c-0.3,0-0.5,0.1-0.6,0.4
				S28.2,322,28.2,322.6z M33.5,320.5l-4,7.1h-0.7l4-7.1H33.5z M34.8,325.5c0,0.7-0.1,1.3-0.4,1.7c-0.2,0.4-0.6,0.6-1.1,0.6
				c-0.5,0-0.8-0.2-1.1-0.6c-0.2-0.4-0.4-0.9-0.4-1.7c0-0.7,0.1-1.3,0.4-1.7c0.2-0.4,0.6-0.6,1.1-0.6c0.5,0,0.8,0.2,1.1,0.6
				C34.6,324.2,34.8,324.7,34.8,325.5z M32.5,325.5c0,0.6,0.1,1,0.2,1.2c0.1,0.3,0.3,0.4,0.6,0.4s0.5-0.1,0.6-0.4
				c0.1-0.3,0.2-0.7,0.2-1.3c0-0.6-0.1-1-0.2-1.2s-0.3-0.4-0.6-0.4s-0.5,0.1-0.6,0.4S32.5,324.9,32.5,325.5z"/>
		</g>
	</g>
	<g>
		<path d="M35.8,225l-1.7-5.6h0c0.1,1.1,0.1,1.9,0.1,2.3v3.3h-1.4v-7.1h2.1l1.7,5.5h0l1.8-5.5h2.1v7.1H39v-3.4c0-0.2,0-0.3,0-0.6
			c0-0.2,0-0.8,0.1-1.7h0l-1.8,5.6H35.8z"/>
		<path d="M45.5,225l-0.3-0.7h0c-0.3,0.3-0.5,0.5-0.8,0.7s-0.6,0.2-1,0.2c-0.5,0-0.9-0.2-1.2-0.4c-0.3-0.3-0.5-0.7-0.5-1.3
			c0-0.6,0.2-1,0.6-1.3c0.4-0.3,1-0.4,1.8-0.5l0.9,0v-0.2c0-0.6-0.3-0.8-0.8-0.8c-0.4,0-0.9,0.1-1.5,0.4l-0.5-1
			c0.6-0.3,1.3-0.5,2.1-0.5c0.7,0,1.3,0.2,1.7,0.5c0.4,0.3,0.6,0.8,0.6,1.5v3.6H45.5z M45.1,222.5l-0.6,0c-0.4,0-0.8,0.1-1,0.2
			c-0.2,0.1-0.3,0.4-0.3,0.7c0,0.4,0.2,0.6,0.7,0.6c0.3,0,0.6-0.1,0.8-0.3c0.2-0.2,0.3-0.5,0.3-0.8V222.5z"/>
		<path d="M48,218.2c0-0.5,0.3-0.7,0.8-0.7s0.8,0.2,0.8,0.7c0,0.2-0.1,0.4-0.2,0.5c-0.1,0.1-0.3,0.2-0.6,0.2
			C48.3,218.9,48,218.6,48,218.2z M49.6,225h-1.5v-5.5h1.5V225z"/>
		<path d="M55,223.4c0,0.6-0.2,1-0.6,1.3s-1,0.4-1.7,0.4c-0.4,0-0.7,0-1-0.1s-0.5-0.1-0.8-0.2v-1.2c0.3,0.1,0.6,0.2,0.9,0.3
			s0.7,0.1,0.9,0.1c0.5,0,0.8-0.2,0.8-0.5c0-0.1,0-0.2-0.1-0.3s-0.2-0.2-0.4-0.2s-0.4-0.2-0.7-0.3c-0.4-0.2-0.7-0.3-0.9-0.5
			c-0.2-0.2-0.3-0.3-0.4-0.5c-0.1-0.2-0.1-0.4-0.1-0.7c0-0.5,0.2-0.9,0.6-1.1c0.4-0.3,0.9-0.4,1.6-0.4c0.7,0,1.3,0.1,1.9,0.4
			l-0.4,1.1c-0.3-0.1-0.5-0.2-0.8-0.3c-0.2-0.1-0.5-0.1-0.7-0.1c-0.4,0-0.7,0.1-0.7,0.4c0,0.1,0.1,0.2,0.2,0.3s0.5,0.2,0.9,0.4
			c0.4,0.2,0.7,0.3,0.9,0.5c0.2,0.1,0.3,0.3,0.4,0.5S55,223.1,55,223.4z"/>
		<path d="M61.7,225.1c-0.6,0-1.1-0.2-1.5-0.7h-0.1c0.1,0.5,0.1,0.7,0.1,0.8v2.2h-1.5v-7.9h1.2l0.2,0.7h0.1c0.3-0.5,0.9-0.8,1.5-0.8
			c0.6,0,1.1,0.2,1.5,0.7s0.5,1.2,0.5,2.1c0,0.6-0.1,1.1-0.3,1.5s-0.4,0.8-0.7,1S62.1,225.1,61.7,225.1z M61.3,220.7
			c-0.4,0-0.6,0.1-0.8,0.3c-0.2,0.2-0.3,0.6-0.3,1.1v0.2c0,0.6,0.1,1,0.3,1.3s0.5,0.4,0.8,0.4c0.7,0,1-0.6,1-1.7
			c0-0.5-0.1-0.9-0.2-1.2S61.6,220.7,61.3,220.7z"/>
		<path d="M70,222.3c0,0.9-0.2,1.6-0.7,2.1c-0.5,0.5-1.1,0.8-2,0.8c-0.5,0-1-0.1-1.4-0.3s-0.7-0.6-0.9-1s-0.3-0.9-0.3-1.5
			c0-0.9,0.2-1.6,0.7-2.1c0.5-0.5,1.1-0.7,2-0.7c0.5,0,1,0.1,1.4,0.3c0.4,0.2,0.7,0.6,0.9,1C69.9,221.2,70,221.7,70,222.3z
			 M66.2,222.3c0,0.5,0.1,0.9,0.3,1.2c0.2,0.3,0.5,0.4,0.9,0.4c0.4,0,0.7-0.1,0.9-0.4c0.2-0.3,0.3-0.7,0.3-1.2
			c0-0.5-0.1-0.9-0.3-1.2c-0.2-0.3-0.5-0.4-0.9-0.4c-0.4,0-0.7,0.1-0.9,0.4S66.2,221.7,66.2,222.3z"/>
		<path d="M74.3,219.5c0.6,0,1.1,0.3,1.5,0.8s0.5,1.2,0.5,2.1c0,0.9-0.2,1.6-0.6,2.1c-0.4,0.5-0.9,0.7-1.5,0.7
			c-0.6,0-1.1-0.2-1.5-0.7h-0.1l-0.2,0.6h-1.1v-7.6h1.5v1.8c0,0.2,0,0.6-0.1,1.1h0.1C73.1,219.7,73.6,219.5,74.3,219.5z M73.8,220.7
			c-0.4,0-0.6,0.1-0.8,0.3c-0.2,0.2-0.3,0.6-0.3,1.1v0.2c0,0.6,0.1,1,0.3,1.3s0.5,0.4,0.8,0.4c0.3,0,0.5-0.1,0.7-0.4
			c0.2-0.3,0.3-0.7,0.3-1.2s-0.1-0.9-0.3-1.2S74.1,220.7,73.8,220.7z"/>
		<path d="M80.6,219.5c0.2,0,0.4,0,0.5,0l-0.1,1.4c-0.1,0-0.3,0-0.4,0c-0.5,0-0.8,0.1-1.1,0.4s-0.4,0.6-0.4,1v2.8h-1.5v-5.5h1.1
			l0.2,0.9H79c0.2-0.3,0.4-0.6,0.7-0.7C80,219.6,80.3,219.5,80.6,219.5z"/>
		<path d="M84.6,225.1c-0.9,0-1.6-0.2-2.1-0.7c-0.5-0.5-0.7-1.2-0.7-2.1c0-0.9,0.2-1.6,0.7-2.1c0.5-0.5,1.1-0.7,1.9-0.7
			c0.8,0,1.4,0.2,1.8,0.7s0.6,1,0.6,1.8v0.7h-3.5c0,0.4,0.1,0.8,0.4,1c0.2,0.2,0.6,0.4,1,0.4c0.3,0,0.6,0,0.9-0.1s0.6-0.2,0.9-0.3
			v1.2c-0.3,0.1-0.5,0.2-0.8,0.3S85,225.1,84.6,225.1z M84.4,220.5c-0.3,0-0.6,0.1-0.7,0.3s-0.3,0.5-0.3,0.9h2.1
			c0-0.4-0.1-0.7-0.3-0.9S84.7,220.5,84.4,220.5z"/>
		<path d="M91.8,223.4c0,0.6-0.2,1-0.6,1.3s-1,0.4-1.7,0.4c-0.4,0-0.7,0-1-0.1s-0.5-0.1-0.8-0.2v-1.2c0.3,0.1,0.6,0.2,0.9,0.3
			s0.7,0.1,0.9,0.1c0.5,0,0.8-0.2,0.8-0.5c0-0.1,0-0.2-0.1-0.3s-0.2-0.2-0.4-0.2s-0.4-0.2-0.7-0.3c-0.4-0.2-0.7-0.3-0.9-0.5
			c-0.2-0.2-0.3-0.3-0.4-0.5c-0.1-0.2-0.1-0.4-0.1-0.7c0-0.5,0.2-0.9,0.6-1.1c0.4-0.3,0.9-0.4,1.6-0.4c0.7,0,1.3,0.1,1.9,0.4
			l-0.4,1.1c-0.3-0.1-0.5-0.2-0.8-0.3c-0.2-0.1-0.5-0.1-0.7-0.1c-0.4,0-0.7,0.1-0.7,0.4c0,0.1,0.1,0.2,0.2,0.3s0.5,0.2,0.9,0.4
			c0.4,0.2,0.7,0.3,0.9,0.5c0.2,0.1,0.3,0.3,0.4,0.5S91.8,223.1,91.8,223.4z"/>
	</g>
	<g>
		<path d="M185.8,248.3h-1v1.6h-1.1v-1.6h-3.3v-0.9l3.3-4.7h1.1v4.6h1V248.3z M183.7,247.3v-1.8c0-0.6,0-1.2,0-1.6h0
			c-0.1,0.2-0.2,0.5-0.4,0.8l-1.8,2.6H183.7z"/>
		<path d="M191.2,246.3c0,1.2-0.2,2.2-0.6,2.8c-0.4,0.6-1,0.9-1.8,0.9c-0.8,0-1.4-0.3-1.8-0.9c-0.4-0.6-0.6-1.5-0.6-2.7
			c0-1.3,0.2-2.2,0.6-2.8c0.4-0.6,1-0.9,1.8-0.9c0.8,0,1.4,0.3,1.8,0.9S191.2,245.1,191.2,246.3z M187.5,246.3c0,1,0.1,1.7,0.3,2.1
			c0.2,0.4,0.5,0.6,1,0.6s0.8-0.2,1-0.6c0.2-0.4,0.3-1.1,0.3-2.1c0-1-0.1-1.6-0.3-2.1c-0.2-0.4-0.5-0.6-1-0.6s-0.8,0.2-1,0.6
			S187.5,245.3,187.5,246.3z"/>
		<path d="M195.2,244.8c0,0.7-0.1,1.3-0.4,1.7s-0.7,0.6-1.2,0.6c-0.5,0-0.9-0.2-1.1-0.6c-0.3-0.4-0.4-0.9-0.4-1.7
			c0-1.5,0.5-2.2,1.6-2.2c0.5,0,0.9,0.2,1.2,0.6S195.2,244.1,195.2,244.8z M193,244.8c0,0.5,0,0.8,0.1,1.1c0.1,0.2,0.2,0.4,0.5,0.4
			c0.4,0,0.6-0.5,0.6-1.4c0-1-0.2-1.4-0.6-1.4c-0.2,0-0.4,0.1-0.5,0.4C193.1,244,193,244.4,193,244.8z M198.4,242.7l-4,7.1h-0.9
			l4-7.1H198.4z M199.9,247.7c0,0.7-0.1,1.3-0.4,1.7c-0.3,0.4-0.7,0.6-1.2,0.6c-0.5,0-0.9-0.2-1.2-0.6s-0.4-0.9-0.4-1.7
			c0-1.5,0.5-2.2,1.6-2.2c0.5,0,0.9,0.2,1.2,0.6C199.7,246.4,199.9,247,199.9,247.7z M197.7,247.7c0,0.5,0,0.8,0.1,1.1
			c0.1,0.2,0.3,0.4,0.5,0.4c0.4,0,0.6-0.5,0.6-1.5c0-1-0.2-1.4-0.6-1.4c-0.2,0-0.4,0.1-0.5,0.4S197.7,247.2,197.7,247.7z"/>
	</g>
	<g>
		<path d="M74.3,284h-1.1v-4.6c0-0.5,0-1,0-1.3c-0.1,0.1-0.2,0.2-0.3,0.3c-0.1,0.1-0.5,0.4-1.1,0.9l-0.6-0.7l2.1-1.7h1V284z"/>
		<path d="M81.5,280.4c0,1.2-0.2,2.2-0.6,2.8c-0.4,0.6-1,0.9-1.8,0.9c-0.8,0-1.4-0.3-1.8-0.9c-0.4-0.6-0.6-1.5-0.6-2.7
			c0-1.3,0.2-2.2,0.6-2.8c0.4-0.6,1-0.9,1.8-0.9c0.8,0,1.4,0.3,1.8,0.9S81.5,279.2,81.5,280.4z M77.8,280.4c0,1,0.1,1.7,0.3,2.1
			c0.2,0.4,0.5,0.6,1,0.6s0.8-0.2,1-0.6c0.2-0.4,0.3-1.1,0.3-2.1c0-1-0.1-1.6-0.3-2.1c-0.2-0.4-0.5-0.6-1-0.6s-0.8,0.2-1,0.6
			S77.8,279.4,77.8,280.4z"/>
		<path d="M83.9,282.9c-0.2,0.6-0.4,1.4-0.9,2.3h-0.8c0.2-0.9,0.4-1.7,0.5-2.5h1.1L83.9,282.9z"/>
		<path d="M90.1,282.4h-1v1.6H88v-1.6h-3.3v-0.9l3.3-4.7h1.1v4.6h1V282.4z M88,281.5v-1.8c0-0.6,0-1.2,0-1.6h0
			c-0.1,0.2-0.2,0.5-0.4,0.8l-1.8,2.6H88z"/>
		<path d="M93.8,279c0,0.7-0.1,1.3-0.4,1.7s-0.7,0.6-1.2,0.6c-0.5,0-0.9-0.2-1.1-0.6c-0.3-0.4-0.4-0.9-0.4-1.7
			c0-1.5,0.5-2.2,1.6-2.2c0.5,0,0.9,0.2,1.2,0.6S93.8,278.2,93.8,279z M91.6,279c0,0.5,0,0.8,0.1,1.1c0.1,0.2,0.2,0.4,0.5,0.4
			c0.4,0,0.6-0.5,0.6-1.4c0-1-0.2-1.4-0.6-1.4c-0.2,0-0.4,0.1-0.5,0.4C91.7,278.1,91.6,278.5,91.6,279z M97,276.8l-4,7.1h-0.9l4-7.1
			H97z M98.5,281.8c0,0.7-0.1,1.3-0.4,1.7c-0.3,0.4-0.7,0.6-1.2,0.6c-0.5,0-0.9-0.2-1.2-0.6s-0.4-0.9-0.4-1.7c0-1.5,0.5-2.2,1.6-2.2
			c0.5,0,0.9,0.2,1.2,0.6C98.3,280.5,98.5,281.1,98.5,281.8z M96.3,281.8c0,0.5,0,0.8,0.1,1.1c0.1,0.2,0.3,0.4,0.5,0.4
			c0.4,0,0.6-0.5,0.6-1.5c0-1-0.2-1.4-0.6-1.4c-0.2,0-0.4,0.1-0.5,0.4S96.3,281.3,96.3,281.8z"/>
	</g>
</g>
</svg>
