<?xml version="1.0" encoding="utf-8"?>
<!-- Generator: Adobe Illustrator 24.3.0, SVG Export Plug-In . SVG Version: 6.00 Build 0)  -->
<svg version="1.1" xmlns="http://www.w3.org/2000/svg" xmlns:xlink="http://www.w3.org/1999/xlink" x="0px" y="0px"
	 viewBox="0 0 435 390" style="enable-background:new 0 0 435 390;" xml:space="preserve">
<style type="text/css">
	.st0{display:none;}
	.st1{fill:#105DA6;}
	.st2{fill:#FFAC5A;}
	.st3{fill:#47B5C3;}
	.st4{fill:none;stroke:#0F546B;stroke-miterlimit:10;}
	.st5{fill:none;stroke:#0F546B;stroke-width:0.7164;stroke-miterlimit:10;}
	.st6{fill:none;stroke:#D20526;stroke-width:3;stroke-miterlimit:10;}
	.st7{fill:none;stroke:#3BA082;stroke-width:3;stroke-miterlimit:10;}
</style>
<g id="Camada_1" class="st0">
	
		<image style="display:inline;overflow:visible;opacity:0.5;" width="545" height="436" xlink:href="../../../../../../../../../../Users/eduardocalazans/Downloads/Export Fiocruz/images/image1.png"  transform="matrix(0.837 0 0 0.837 -10.5918 12.5266)">
	</image>
</g>
<g id="Camada_3">
	<g>
		<rect x="83.4" y="229.2" class="st1" width="10.4" height="43.4"/>
		<rect x="95.7" y="256.5" class="st2" width="10.4" height="16.2"/>
		<rect x="108.1" y="244.9" class="st3" width="10.4" height="27.7"/>
	</g>
	<g>
		<rect x="127.2" y="214.3" class="st1" width="10.4" height="58.3"/>
		<rect x="139.5" y="246.8" class="st2" width="10.4" height="25.8"/>
		<rect x="151.9" y="240.2" class="st3" width="10.4" height="32.5"/>
	</g>
	<g>
		<rect x="171" y="193.8" class="st1" width="10.4" height="78.8"/>
		<rect x="183.4" y="229.2" class="st2" width="10.4" height="43.4"/>
		<rect x="195.7" y="237.7" class="st3" width="10.4" height="35"/>
	</g>
	<g>
		<rect x="214.8" y="173.5" class="st1" width="10.4" height="99.2"/>
		<rect x="227.2" y="205.7" class="st2" width="10.4" height="67"/>
		<rect x="239.5" y="240.2" class="st3" width="10.4" height="32.5"/>
	</g>
	<g>
		<rect x="258.7" y="153.6" class="st1" width="10.4" height="119.1"/>
		<rect x="271" y="183.6" class="st2" width="10.4" height="89.1"/>
		<rect x="283.4" y="243.5" class="st3" width="10.4" height="29.2"/>
	</g>
	<g>
		<rect x="302.5" y="130.8" class="st1" width="10.4" height="141.8"/>
		<rect x="314.8" y="156.7" class="st2" width="10.4" height="115.9"/>
		<rect x="327.2" y="246.8" class="st3" width="10.4" height="25.8"/>
	</g>
	<g>
		<rect x="346.3" y="115.6" class="st1" width="10.4" height="157.1"/>
		<rect x="358.7" y="138.8" class="st2" width="10.4" height="133.8"/>
		<rect x="371" y="248.5" class="st3" width="10.4" height="24.1"/>
	</g>
	<line class="st4" x1="77.3" y1="107.4" x2="77.3" y2="279.5"/>
	<line class="st4" x1="383.7" y1="107.4" x2="383.7" y2="279.5"/>
	<line class="st4" x1="389.2" y1="272.6" x2="73.5" y2="272.6"/>
	<g>
		<line class="st5" x1="383.7" y1="107.5" x2="389.2" y2="107.5"/>
		<line class="st5" x1="383.7" y1="125.8" x2="389.2" y2="125.8"/>
		<line class="st5" x1="383.7" y1="144.2" x2="389.2" y2="144.2"/>
		<line class="st5" x1="383.7" y1="162.5" x2="389.2" y2="162.5"/>
		<line class="st5" x1="383.7" y1="180.9" x2="389.2" y2="180.9"/>
		<line class="st5" x1="383.7" y1="199.2" x2="389.2" y2="199.2"/>
		<line class="st5" x1="383.7" y1="217.6" x2="389.2" y2="217.6"/>
		<line class="st5" x1="383.7" y1="235.9" x2="389.2" y2="235.9"/>
		<line class="st5" x1="383.7" y1="254.3" x2="389.2" y2="254.3"/>
	</g>
	<line class="st5" x1="71.7" y1="107.5" x2="77.2" y2="107.5"/>
	<line class="st5" x1="71.7" y1="148.8" x2="77.2" y2="148.8"/>
	<line class="st5" x1="71.7" y1="190.1" x2="77.2" y2="190.1"/>
	<line class="st5" x1="71.7" y1="231.3" x2="77.2" y2="231.3"/>
	<line class="st5" x1="121.1" y1="278.2" x2="121.1" y2="272.6"/>
	<line class="st5" x1="164.8" y1="278.2" x2="164.8" y2="272.6"/>
	<line class="st5" x1="208.6" y1="278.2" x2="208.6" y2="272.6"/>
	<line class="st5" x1="252.4" y1="278.2" x2="252.4" y2="272.6"/>
	<line class="st5" x1="296.1" y1="278.2" x2="296.1" y2="272.6"/>
	<line class="st5" x1="339.9" y1="278.2" x2="339.9" y2="272.6"/>
</g>
<g id="Camada_5">
	<polyline class="st6" points="99,207.5 146.9,190.1 229.2,148.8 321.7,121.6 361.7,117.7 	"/>
	<polyline class="st7" points="99,155.5 147.9,172.4 220.7,208.9 296.1,233.2 371,245.9 	"/>
</g>
<g id="Camada_2">
	<rect x="73.3" y="305.4" class="st1" width="20.5" height="6"/>
	<rect x="126.4" y="305.4" class="st2" width="20.5" height="6"/>
	<rect x="194.6" y="305.4" class="st3" width="20.5" height="6"/>
	<line class="st6" x1="248.3" y1="308.4" x2="270.6" y2="308.4"/>
	<line class="st7" x1="323.1" y1="308.4" x2="345.4" y2="308.4"/>
</g>
<g id="Camada_4">
	<g>
		<path d="M32.2,53.9h-2.3l-3.7-6.5h-0.1c0.1,1.1,0.1,2,0.1,2.4v4h-1.6v-8.6h2.3l3.7,6.4h0c-0.1-1.1-0.1-1.9-0.1-2.4v-4.1h1.6V53.9z
			"/>
		<path d="M38.9,53.9L38.6,53h-0.1c-0.2,0.3-0.5,0.5-0.8,0.7S37,54,36.5,54c-0.8,0-1.3-0.2-1.7-0.6s-0.6-1-0.6-1.8v-4.3H36v3.8
			c0,0.5,0.1,0.8,0.3,1.1s0.4,0.4,0.8,0.4c0.5,0,0.9-0.2,1.1-0.5s0.3-0.9,0.3-1.7v-3.1h1.8v6.6H38.9z M36.2,46.6v-0.2
			c0.7-0.8,1.1-1.4,1.4-1.8h2v0.1c-0.2,0.2-0.5,0.5-1,0.9s-0.9,0.7-1.2,0.9H36.2z"/>
		<path d="M48,53.9h-1.8V50c0-0.5-0.1-0.8-0.2-1.1s-0.4-0.4-0.7-0.4c-0.5,0-0.8,0.2-1,0.5s-0.3,0.9-0.3,1.7v3.1h-1.8v-6.6h1.4
			l0.2,0.8h0.1c0.2-0.3,0.4-0.5,0.8-0.7s0.7-0.3,1.1-0.3c1,0,1.6,0.3,2,1h0.2c0.2-0.3,0.4-0.5,0.8-0.7s0.7-0.3,1.2-0.3
			c0.7,0,1.3,0.2,1.7,0.6s0.6,1,0.6,1.8v4.3h-1.8V50c0-0.5-0.1-0.8-0.2-1.1s-0.4-0.4-0.7-0.4c-0.4,0-0.8,0.2-1,0.5S48,49.9,48,50.6
			V53.9z"/>
		<path d="M56.9,54c-1.1,0-1.9-0.3-2.5-0.9s-0.9-1.4-0.9-2.5c0-1.1,0.3-1.9,0.8-2.5s1.3-0.9,2.3-0.9c0.9,0,1.6,0.3,2.2,0.8
			s0.8,1.3,0.8,2.2V51h-4.2c0,0.5,0.2,0.9,0.5,1.2s0.7,0.4,1.2,0.4c0.4,0,0.8,0,1.1-0.1s0.7-0.2,1.1-0.4v1.4c-0.3,0.2-0.6,0.3-1,0.3
			S57.4,54,56.9,54z M56.6,48.5c-0.4,0-0.7,0.1-0.9,0.4s-0.3,0.6-0.4,1h2.5c0-0.4-0.1-0.8-0.3-1S57,48.5,56.6,48.5z"/>
		<path d="M64.6,47.2c0.2,0,0.4,0,0.6,0.1l-0.1,1.7c-0.1,0-0.3-0.1-0.5-0.1c-0.6,0-1,0.1-1.3,0.4s-0.5,0.7-0.5,1.2v3.3H61v-6.6h1.4
			l0.3,1.1h0.1c0.2-0.4,0.5-0.7,0.8-0.9S64.2,47.2,64.6,47.2z"/>
		<path d="M72.4,50.6c0,1.1-0.3,1.9-0.8,2.5S70.2,54,69.2,54c-0.6,0-1.2-0.1-1.7-0.4s-0.8-0.7-1.1-1.2S66,51.3,66,50.6
			c0-1.1,0.3-1.9,0.8-2.5s1.3-0.9,2.4-0.9c0.6,0,1.2,0.1,1.7,0.4s0.8,0.7,1.1,1.2S72.4,49.9,72.4,50.6z M67.9,50.6
			c0,0.6,0.1,1.1,0.3,1.5s0.6,0.5,1,0.5c0.5,0,0.8-0.2,1-0.5s0.3-0.8,0.3-1.5c0-0.6-0.1-1.1-0.3-1.5s-0.6-0.5-1-0.5
			c-0.5,0-0.8,0.2-1,0.5S67.9,49.9,67.9,50.6z"/>
		<path d="M78.4,51.9c0,0.7-0.2,1.2-0.7,1.5S76.6,54,75.6,54c-0.5,0-0.9,0-1.2-0.1s-0.7-0.2-0.9-0.3v-1.5c0.3,0.2,0.7,0.3,1.1,0.4
			s0.8,0.2,1.1,0.2c0.6,0,1-0.2,1-0.6c0-0.1,0-0.3-0.1-0.3s-0.2-0.2-0.4-0.3s-0.5-0.2-0.8-0.4c-0.5-0.2-0.9-0.4-1.1-0.6
			s-0.4-0.4-0.5-0.6s-0.2-0.5-0.2-0.9c0-0.6,0.2-1,0.7-1.4s1.1-0.5,1.9-0.5c0.8,0,1.6,0.2,2.3,0.5L77.8,49c-0.3-0.1-0.6-0.3-0.9-0.3
			s-0.6-0.1-0.9-0.1c-0.5,0-0.8,0.1-0.8,0.4c0,0.2,0.1,0.3,0.3,0.4s0.5,0.3,1.1,0.5c0.5,0.2,0.9,0.4,1.1,0.6s0.4,0.4,0.5,0.6
			S78.4,51.6,78.4,51.9z"/>
		<path d="M87.1,53.9L86.8,53h0c-0.3,0.4-0.6,0.6-0.9,0.8S85,54,84.5,54c-0.6,0-1.1-0.2-1.5-0.5s-0.5-0.9-0.5-1.5
			c0-0.7,0.2-1.2,0.7-1.5s1.2-0.5,2.2-0.5l1.1,0v-0.3c0-0.7-0.3-1-1-1c-0.5,0-1.1,0.2-1.8,0.5l-0.6-1.2c0.8-0.4,1.6-0.6,2.5-0.6
			c0.9,0,1.6,0.2,2,0.6s0.7,1,0.7,1.7v4.4H87.1z M86.6,50.8l-0.7,0c-0.5,0-0.9,0.1-1.2,0.3s-0.4,0.4-0.4,0.8c0,0.5,0.3,0.8,0.9,0.8
			c0.4,0,0.7-0.1,1-0.4s0.4-0.6,0.4-0.9V50.8z"/>
		<path d="M93.8,47.2c0.8,0,1.4,0.3,1.8,0.9s0.7,1.4,0.7,2.5c0,1.1-0.2,1.9-0.7,2.5S94.6,54,93.8,54c-0.8,0-1.4-0.3-1.8-0.8h-0.1
			l-0.3,0.7h-1.4v-9.1H92v2.1c0,0.3,0,0.7-0.1,1.3H92C92.4,47.5,93,47.2,93.8,47.2z M93.3,48.6c-0.4,0-0.8,0.1-1,0.4
			S92,49.7,92,50.4v0.2c0,0.7,0.1,1.2,0.3,1.5s0.5,0.5,1,0.5c0.4,0,0.7-0.2,0.9-0.5s0.3-0.8,0.3-1.5s-0.1-1.1-0.3-1.5
			S93.6,48.6,93.3,48.6z"/>
		<path d="M102.4,51.9c0,0.7-0.2,1.2-0.7,1.5s-1.2,0.5-2.1,0.5c-0.5,0-0.9,0-1.2-0.1s-0.7-0.2-0.9-0.3v-1.5c0.3,0.2,0.7,0.3,1.1,0.4
			s0.8,0.2,1.1,0.2c0.6,0,1-0.2,1-0.6c0-0.1,0-0.3-0.1-0.3s-0.2-0.2-0.4-0.3s-0.5-0.2-0.8-0.4c-0.5-0.2-0.9-0.4-1.1-0.6
			s-0.4-0.4-0.5-0.6s-0.2-0.5-0.2-0.9c0-0.6,0.2-1,0.7-1.4s1.1-0.5,1.9-0.5c0.8,0,1.6,0.2,2.3,0.5l-0.5,1.3
			c-0.3-0.1-0.6-0.3-0.9-0.3s-0.6-0.1-0.9-0.1c-0.5,0-0.8,0.1-0.8,0.4c0,0.2,0.1,0.3,0.3,0.4s0.5,0.3,1.1,0.5
			c0.5,0.2,0.9,0.4,1.1,0.6s0.4,0.4,0.5,0.6S102.4,51.6,102.4,51.9z"/>
		<path d="M109.7,50.6c0,1.1-0.3,1.9-0.8,2.5s-1.3,0.9-2.3,0.9c-0.6,0-1.2-0.1-1.7-0.4s-0.8-0.7-1.1-1.2s-0.4-1.1-0.4-1.8
			c0-1.1,0.3-1.9,0.8-2.5s1.3-0.9,2.4-0.9c0.6,0,1.2,0.1,1.7,0.4s0.8,0.7,1.1,1.2S109.7,49.9,109.7,50.6z M105.2,50.6
			c0,0.6,0.1,1.1,0.3,1.5s0.6,0.5,1,0.5c0.5,0,0.8-0.2,1-0.5s0.3-0.8,0.3-1.5c0-0.6-0.1-1.1-0.3-1.5s-0.6-0.5-1-0.5
			c-0.5,0-0.8,0.2-1,0.5S105.2,49.9,105.2,50.6z"/>
		<path d="M113,53.9h-1.8v-9.1h1.8V53.9z"/>
		<path d="M119.5,53.9l-0.2-0.8h-0.1c-0.2,0.3-0.5,0.5-0.8,0.7s-0.8,0.2-1.2,0.2c-0.8,0-1.3-0.2-1.7-0.6s-0.6-1-0.6-1.8v-4.3h1.8
			v3.8c0,0.5,0.1,0.8,0.3,1.1s0.4,0.4,0.8,0.4c0.5,0,0.9-0.2,1.1-0.5s0.3-0.9,0.3-1.7v-3.1h1.8v6.6H119.5z"/>
		<path d="M125.5,52.5c0.3,0,0.7-0.1,1.1-0.2v1.3c-0.4,0.2-1,0.3-1.6,0.3c-0.7,0-1.2-0.2-1.6-0.5s-0.5-0.9-0.5-1.6v-3.2h-0.9v-0.8
			l1-0.6l0.5-1.4h1.1v1.4h1.8v1.3h-1.8v3.2c0,0.3,0.1,0.4,0.2,0.6S125.3,52.5,125.5,52.5z"/>
		<path d="M133.9,50.6c0,1.1-0.3,1.9-0.8,2.5s-1.3,0.9-2.3,0.9c-0.6,0-1.2-0.1-1.7-0.4s-0.8-0.7-1.1-1.2s-0.4-1.1-0.4-1.8
			c0-1.1,0.3-1.9,0.8-2.5s1.3-0.9,2.4-0.9c0.6,0,1.2,0.1,1.7,0.4s0.8,0.7,1.1,1.2S133.9,49.9,133.9,50.6z M129.4,50.6
			c0,0.6,0.1,1.1,0.3,1.5s0.6,0.5,1,0.5c0.5,0,0.8-0.2,1-0.5s0.3-0.8,0.3-1.5c0-0.6-0.1-1.1-0.3-1.5s-0.6-0.5-1-0.5
			c-0.5,0-0.8,0.2-1,0.5S129.4,49.9,129.4,50.6z"/>
		<path d="M139.9,51.9c0,0.7-0.2,1.2-0.7,1.5s-1.2,0.5-2.1,0.5c-0.5,0-0.9,0-1.2-0.1s-0.7-0.2-0.9-0.3v-1.5c0.3,0.2,0.7,0.3,1.1,0.4
			s0.8,0.2,1.1,0.2c0.6,0,1-0.2,1-0.6c0-0.1,0-0.3-0.1-0.3s-0.2-0.2-0.4-0.3s-0.5-0.2-0.8-0.4c-0.5-0.2-0.9-0.4-1.1-0.6
			s-0.4-0.4-0.5-0.6S135,49.3,135,49c0-0.6,0.2-1,0.7-1.4s1.1-0.5,1.9-0.5c0.8,0,1.6,0.2,2.3,0.5l-0.5,1.3c-0.3-0.1-0.6-0.3-0.9-0.3
			s-0.6-0.1-0.9-0.1c-0.5,0-0.8,0.1-0.8,0.4c0,0.2,0.1,0.3,0.3,0.4s0.5,0.3,1.1,0.5c0.5,0.2,0.9,0.4,1.1,0.6s0.4,0.4,0.5,0.6
			S139.9,51.6,139.9,51.9z"/>
		<path d="M147.4,54c-1.1,0-1.9-0.3-2.5-0.9s-0.9-1.4-0.9-2.5c0-1.1,0.3-1.9,0.8-2.5s1.3-0.9,2.3-0.9c0.9,0,1.6,0.3,2.2,0.8
			s0.8,1.3,0.8,2.2V51h-4.2c0,0.5,0.2,0.9,0.5,1.2s0.7,0.4,1.2,0.4c0.4,0,0.8,0,1.1-0.1s0.7-0.2,1.1-0.4v1.4c-0.3,0.2-0.6,0.3-1,0.3
			S147.9,54,147.4,54z M147.2,48.5c-0.4,0-0.7,0.1-0.9,0.4s-0.3,0.6-0.4,1h2.5c0-0.4-0.1-0.8-0.3-1S147.5,48.5,147.2,48.5z"/>
		<path d="M158.3,47.2c0.2,0,0.4,0,0.6,0.1l-0.1,1.7c-0.1,0-0.3-0.1-0.5-0.1c-0.6,0-1,0.1-1.3,0.4s-0.5,0.7-0.5,1.2v3.3h-1.8v-6.6
			h1.4l0.3,1.1h0.1c0.2-0.4,0.5-0.7,0.8-0.9S157.9,47.2,158.3,47.2z"/>
		<path d="M163.1,54c-1.1,0-1.9-0.3-2.5-0.9s-0.9-1.4-0.9-2.5c0-1.1,0.3-1.9,0.8-2.5s1.3-0.9,2.3-0.9c0.9,0,1.6,0.3,2.2,0.8
			s0.8,1.3,0.8,2.2V51h-4.2c0,0.5,0.2,0.9,0.5,1.2s0.7,0.4,1.2,0.4c0.4,0,0.8,0,1.1-0.1s0.7-0.2,1.1-0.4v1.4c-0.3,0.2-0.6,0.3-1,0.3
			S163.6,54,163.1,54z M162.8,48.5c-0.4,0-0.7,0.1-0.9,0.4s-0.3,0.6-0.4,1h2.5c0-0.4-0.1-0.8-0.3-1S163.2,48.5,162.8,48.5z"/>
		<path d="M169,53.9h-1.8v-9.1h1.8V53.9z"/>
		<path d="M175,53.9l-0.3-0.9h0c-0.3,0.4-0.6,0.6-0.9,0.8S173,54,172.5,54c-0.6,0-1.1-0.2-1.5-0.5s-0.5-0.9-0.5-1.5
			c0-0.7,0.2-1.2,0.7-1.5s1.2-0.5,2.2-0.5l1.1,0v-0.3c0-0.7-0.3-1-1-1c-0.5,0-1.1,0.2-1.8,0.5l-0.6-1.2c0.8-0.4,1.6-0.6,2.5-0.6
			c0.9,0,1.6,0.2,2,0.6s0.7,1,0.7,1.7v4.4H175z M174.5,50.8l-0.7,0c-0.5,0-0.9,0.1-1.2,0.3s-0.4,0.4-0.4,0.8c0,0.5,0.3,0.8,0.9,0.8
			c0.4,0,0.7-0.1,1-0.4s0.4-0.6,0.4-0.9V50.8z"/>
		<path d="M180.9,52.5c0.3,0,0.7-0.1,1.1-0.2v1.3c-0.4,0.2-1,0.3-1.6,0.3c-0.7,0-1.2-0.2-1.6-0.5s-0.5-0.9-0.5-1.6v-3.2h-0.9v-0.8
			l1-0.6l0.5-1.4h1.1v1.4h1.8v1.3h-1.8v3.2c0,0.3,0.1,0.4,0.2,0.6S180.6,52.5,180.9,52.5z"/>
		<path d="M183.2,45.6c0-0.6,0.3-0.9,1-0.9s1,0.3,1,0.9c0,0.3-0.1,0.5-0.2,0.6s-0.4,0.2-0.7,0.2C183.6,46.5,183.2,46.2,183.2,45.6z
			 M185.1,53.9h-1.8v-6.6h1.8V53.9z"/>
		<path d="M188.5,53.9l-2.5-6.6h1.9l1.3,3.7c0.1,0.5,0.2,0.9,0.3,1.3h0c0-0.4,0.1-0.8,0.3-1.3l1.3-3.7h1.9l-2.5,6.6H188.5z"/>
		<path d="M199.8,50.6c0,1.1-0.3,1.9-0.8,2.5s-1.3,0.9-2.3,0.9c-0.6,0-1.2-0.1-1.7-0.4s-0.8-0.7-1.1-1.2s-0.4-1.1-0.4-1.8
			c0-1.1,0.3-1.9,0.8-2.5s1.3-0.9,2.4-0.9c0.6,0,1.2,0.1,1.7,0.4s0.8,0.7,1.1,1.2S199.8,49.9,199.8,50.6z M195.2,50.6
			c0,0.6,0.1,1.1,0.3,1.5s0.6,0.5,1,0.5c0.5,0,0.8-0.2,1-0.5s0.3-0.8,0.3-1.5c0-0.6-0.1-1.1-0.3-1.5s-0.6-0.5-1-0.5
			c-0.5,0-0.8,0.2-1,0.5S195.2,49.9,195.2,50.6z"/>
		<path d="M205.8,51.9c0,0.7-0.2,1.2-0.7,1.5S203.9,54,203,54c-0.5,0-0.9,0-1.2-0.1s-0.7-0.2-0.9-0.3v-1.5c0.3,0.2,0.7,0.3,1.1,0.4
			s0.8,0.2,1.1,0.2c0.6,0,1-0.2,1-0.6c0-0.1,0-0.3-0.1-0.3s-0.2-0.2-0.4-0.3s-0.5-0.2-0.8-0.4c-0.5-0.2-0.9-0.4-1.1-0.6
			s-0.4-0.4-0.5-0.6s-0.2-0.5-0.2-0.9c0-0.6,0.2-1,0.7-1.4s1.1-0.5,1.9-0.5c0.8,0,1.6,0.2,2.3,0.5l-0.5,1.3
			c-0.3-0.1-0.6-0.3-0.9-0.3s-0.6-0.1-0.9-0.1c-0.5,0-0.8,0.1-0.8,0.4c0,0.2,0.1,0.3,0.3,0.4s0.5,0.3,1.1,0.5
			c0.5,0.2,0.9,0.4,1.1,0.6s0.4,0.4,0.5,0.6S205.8,51.6,205.8,51.9z"/>
		<path d="M212.4,54c-0.8,0-1.4-0.3-1.8-0.9s-0.7-1.4-0.7-2.5c0-1.1,0.2-1.9,0.7-2.5s1.1-0.9,1.8-0.9c0.8,0,1.5,0.3,1.9,1h0.1
			c-0.1-0.5-0.1-0.9-0.1-1.3v-2.1h1.8v9.1h-1.4l-0.3-0.8h-0.1C213.8,53.6,213.2,54,212.4,54z M213,52.5c0.5,0,0.8-0.1,1-0.4
			s0.3-0.7,0.3-1.4v-0.2c0-0.7-0.1-1.2-0.3-1.5s-0.6-0.5-1.1-0.5c-0.4,0-0.7,0.2-0.9,0.5s-0.3,0.8-0.3,1.5s0.1,1.1,0.3,1.5
			S212.6,52.5,213,52.5z"/>
		<path d="M222.1,53.9l-0.3-0.9h0c-0.3,0.4-0.6,0.6-0.9,0.8S220,54,219.5,54c-0.6,0-1.1-0.2-1.5-0.5s-0.5-0.9-0.5-1.5
			c0-0.7,0.2-1.2,0.7-1.5s1.2-0.5,2.2-0.5l1.1,0v-0.3c0-0.7-0.3-1-1-1c-0.5,0-1.1,0.2-1.8,0.5l-0.6-1.2c0.8-0.4,1.6-0.6,2.5-0.6
			c0.9,0,1.6,0.2,2,0.6s0.7,1,0.7,1.7v4.4H222.1z M221.5,50.8l-0.7,0c-0.5,0-0.9,0.1-1.2,0.3s-0.4,0.4-0.4,0.8
			c0,0.5,0.3,0.8,0.9,0.8c0.4,0,0.7-0.1,1-0.4s0.4-0.6,0.4-0.9V50.8z"/>
		<path d="M231.9,54c-0.8,0-1.4-0.3-1.8-0.8H230c0.1,0.5,0.1,0.9,0.1,0.9v2.7h-1.8v-9.4h1.5l0.3,0.8h0.1c0.4-0.6,1-1,1.9-1
			c0.8,0,1.4,0.3,1.8,0.9s0.7,1.4,0.7,2.5c0,0.7-0.1,1.3-0.3,1.8s-0.5,0.9-0.9,1.2S232.4,54,231.9,54z M231.3,48.6
			c-0.4,0-0.8,0.1-1,0.4s-0.3,0.7-0.3,1.3v0.2c0,0.7,0.1,1.2,0.3,1.5s0.5,0.5,1,0.5c0.8,0,1.2-0.7,1.2-2c0-0.6-0.1-1.1-0.3-1.5
			S231.8,48.6,231.3,48.6z"/>
		<path d="M241.8,50.6c0,1.1-0.3,1.9-0.8,2.5s-1.3,0.9-2.3,0.9c-0.6,0-1.2-0.1-1.7-0.4s-0.8-0.7-1.1-1.2s-0.4-1.1-0.4-1.8
			c0-1.1,0.3-1.9,0.8-2.5s1.3-0.9,2.4-0.9c0.6,0,1.2,0.1,1.7,0.4s0.8,0.7,1.1,1.2S241.8,49.9,241.8,50.6z M237.3,50.6
			c0,0.6,0.1,1.1,0.3,1.5s0.6,0.5,1,0.5c0.5,0,0.8-0.2,1-0.5s0.3-0.8,0.3-1.5c0-0.6-0.1-1.1-0.3-1.5s-0.6-0.5-1-0.5
			c-0.5,0-0.8,0.2-1,0.5S237.3,49.9,237.3,50.6z"/>
		<path d="M246.9,54c-0.8,0-1.4-0.3-1.8-0.8H245c0.1,0.5,0.1,0.9,0.1,0.9v2.7h-1.8v-9.4h1.5l0.3,0.8h0.1c0.4-0.6,1-1,1.9-1
			c0.8,0,1.4,0.3,1.8,0.9s0.7,1.4,0.7,2.5c0,0.7-0.1,1.3-0.3,1.8s-0.5,0.9-0.9,1.2S247.4,54,246.9,54z M246.4,48.6
			c-0.4,0-0.8,0.1-1,0.4s-0.3,0.7-0.3,1.3v0.2c0,0.7,0.1,1.2,0.3,1.5s0.5,0.5,1,0.5c0.8,0,1.2-0.7,1.2-2c0-0.6-0.1-1.1-0.3-1.5
			S246.8,48.6,246.4,48.6z"/>
		<path d="M255.5,53.9l-0.2-0.8h-0.1c-0.2,0.3-0.5,0.5-0.8,0.7s-0.8,0.2-1.2,0.2c-0.8,0-1.3-0.2-1.7-0.6s-0.6-1-0.6-1.8v-4.3h1.8
			v3.8c0,0.5,0.1,0.8,0.3,1.1s0.4,0.4,0.8,0.4c0.5,0,0.9-0.2,1.1-0.5s0.3-0.9,0.3-1.7v-3.1h1.8v6.6H255.5z"/>
		<path d="M260.6,53.9h-1.8v-9.1h1.8V53.9z"/>
		<path d="M266.6,53.9l-0.3-0.9h0c-0.3,0.4-0.6,0.6-0.9,0.8S264.5,54,264,54c-0.6,0-1.1-0.2-1.5-0.5s-0.5-0.9-0.5-1.5
			c0-0.7,0.2-1.2,0.7-1.5s1.2-0.5,2.2-0.5l1.1,0v-0.3c0-0.7-0.3-1-1-1c-0.5,0-1.1,0.2-1.8,0.5l-0.6-1.2c0.8-0.4,1.6-0.6,2.5-0.6
			c0.9,0,1.6,0.2,2,0.6s0.7,1,0.7,1.7v4.4H266.6z M266.1,50.8l-0.7,0c-0.5,0-0.9,0.1-1.2,0.3s-0.4,0.4-0.4,0.8
			c0,0.5,0.3,0.8,0.9,0.8c0.4,0,0.7-0.1,1-0.4s0.4-0.6,0.4-0.9V50.8z"/>
		<path d="M272.3,54c-2,0-3.1-1.1-3.1-3.4c0-1.1,0.3-2,0.8-2.6s1.3-0.9,2.4-0.9c0.8,0,1.4,0.1,2,0.4L274,49
			c-0.3-0.1-0.5-0.2-0.8-0.3s-0.5-0.1-0.7-0.1c-0.9,0-1.4,0.7-1.4,2c0,1.3,0.5,1.9,1.4,1.9c0.3,0,0.7,0,1-0.1s0.6-0.2,0.9-0.4v1.5
			c-0.3,0.2-0.6,0.3-0.9,0.4S272.8,54,272.3,54z M273.5,55.3c0,0.5-0.1,0.9-0.4,1.1s-0.8,0.3-1.4,0.3c-0.3,0-0.6,0-0.9-0.1v-1
			c0.1,0,0.2,0.1,0.4,0.1s0.3,0,0.4,0c0.3,0,0.4-0.1,0.4-0.4c0-0.3-0.3-0.5-1-0.6l0.5-0.9h1.1l-0.2,0.4c0.3,0.1,0.5,0.2,0.7,0.4
			S273.5,55.1,273.5,55.3z"/>
		<path d="M280,53.9l-0.3-0.9h0c-0.3,0.4-0.6,0.6-0.9,0.8S278,54,277.5,54c-0.6,0-1.1-0.2-1.5-0.5s-0.5-0.9-0.5-1.5
			c0-0.7,0.2-1.2,0.7-1.5s1.2-0.5,2.2-0.5l1.1,0v-0.3c0-0.7-0.3-1-1-1c-0.5,0-1.1,0.2-1.8,0.5l-0.6-1.2c0.8-0.4,1.6-0.6,2.5-0.6
			c0.9,0,1.6,0.2,2,0.6s0.7,1,0.7,1.7v4.4H280z M277.7,46c-0.1,0-0.2,0.1-0.3,0.2s-0.2,0.3-0.2,0.5h-0.9c0-0.6,0.2-1,0.5-1.3
			s0.6-0.5,1.1-0.5c0.2,0,0.3,0,0.5,0.1s0.3,0.1,0.5,0.2s0.3,0.1,0.4,0.2s0.3,0.1,0.4,0.1c0.1,0,0.2-0.1,0.3-0.2s0.2-0.3,0.2-0.5
			h0.9c0,0.6-0.2,1-0.5,1.3s-0.7,0.5-1.1,0.5c-0.2,0-0.3,0-0.5-0.1s-0.3-0.1-0.5-0.2s-0.3-0.1-0.4-0.2S277.8,46,277.7,46z
			 M279.5,50.8l-0.7,0c-0.5,0-0.9,0.1-1.2,0.3s-0.4,0.4-0.4,0.8c0,0.5,0.3,0.8,0.9,0.8c0.4,0,0.7-0.1,1-0.4s0.4-0.6,0.4-0.9V50.8z"
			/>
		<path d="M289.1,50.6c0,1.1-0.3,1.9-0.8,2.5s-1.3,0.9-2.3,0.9c-0.6,0-1.2-0.1-1.7-0.4s-0.8-0.7-1.1-1.2s-0.4-1.1-0.4-1.8
			c0-1.1,0.3-1.9,0.8-2.5s1.3-0.9,2.4-0.9c0.6,0,1.2,0.1,1.7,0.4s0.8,0.7,1.1,1.2S289.1,49.9,289.1,50.6z M284.5,50.6
			c0,0.6,0.1,1.1,0.3,1.5s0.6,0.5,1,0.5c0.5,0,0.8-0.2,1-0.5s0.3-0.8,0.3-1.5c0-0.6-0.1-1.1-0.3-1.5s-0.6-0.5-1-0.5
			c-0.5,0-0.8,0.2-1,0.5S284.5,49.9,284.5,50.6z"/>
		<path d="M296.4,52.5c0.3,0,0.7-0.1,1.1-0.2v1.3c-0.4,0.2-1,0.3-1.6,0.3c-0.7,0-1.2-0.2-1.6-0.5s-0.5-0.9-0.5-1.6v-3.2H293v-0.8
			l1-0.6l0.5-1.4h1.1v1.4h1.8v1.3h-1.8v3.2c0,0.3,0.1,0.4,0.2,0.6S296.2,52.5,296.4,52.5z"/>
		<path d="M304.8,50.6c0,1.1-0.3,1.9-0.8,2.5s-1.3,0.9-2.3,0.9c-0.6,0-1.2-0.1-1.7-0.4s-0.8-0.7-1.1-1.2s-0.4-1.1-0.4-1.8
			c0-1.1,0.3-1.9,0.8-2.5s1.3-0.9,2.4-0.9c0.6,0,1.2,0.1,1.7,0.4s0.8,0.7,1.1,1.2S304.8,49.9,304.8,50.6z M300.3,50.6
			c0,0.6,0.1,1.1,0.3,1.5s0.6,0.5,1,0.5c0.5,0,0.8-0.2,1-0.5s0.3-0.8,0.3-1.5c0-0.6-0.1-1.1-0.3-1.5s-0.6-0.5-1-0.5
			c-0.5,0-0.8,0.2-1,0.5S300.3,49.9,300.3,50.6z"/>
		<path d="M309,52.5c0.3,0,0.7-0.1,1.1-0.2v1.3c-0.4,0.2-1,0.3-1.6,0.3c-0.7,0-1.2-0.2-1.6-0.5s-0.5-0.9-0.5-1.6v-3.2h-0.9v-0.8
			l1-0.6l0.5-1.4h1.1v1.4h1.8v1.3h-1.8v3.2c0,0.3,0.1,0.4,0.2,0.6S308.8,52.5,309,52.5z"/>
		<path d="M315.7,53.9l-0.3-0.9h0c-0.3,0.4-0.6,0.6-0.9,0.8s-0.7,0.2-1.2,0.2c-0.6,0-1.1-0.2-1.5-0.5s-0.5-0.9-0.5-1.5
			c0-0.7,0.2-1.2,0.7-1.5s1.2-0.5,2.2-0.5l1.1,0v-0.3c0-0.7-0.3-1-1-1c-0.5,0-1.1,0.2-1.8,0.5l-0.6-1.2c0.8-0.4,1.6-0.6,2.5-0.6
			c0.9,0,1.6,0.2,2,0.6s0.7,1,0.7,1.7v4.4H315.7z M315.1,50.8l-0.7,0c-0.5,0-0.9,0.1-1.2,0.3s-0.4,0.4-0.4,0.8
			c0,0.5,0.3,0.8,0.9,0.8c0.4,0,0.7-0.1,1-0.4s0.4-0.6,0.4-0.9V50.8z"/>
		<path d="M320.5,53.9h-1.8v-9.1h1.8V53.9z"/>
		<path d="M324.2,52.6c-0.2,0.8-0.5,1.7-1,2.8h-1.3c0.3-1,0.5-2,0.6-2.9h1.6L324.2,52.6z"/>
		<path d="M333.6,53.9l-0.2-0.8h-0.1c-0.2,0.3-0.5,0.5-0.8,0.7s-0.8,0.2-1.2,0.2c-0.8,0-1.3-0.2-1.7-0.6s-0.6-1-0.6-1.8v-4.3h1.8
			v3.8c0,0.5,0.1,0.8,0.3,1.1s0.4,0.4,0.8,0.4c0.5,0,0.9-0.2,1.1-0.5s0.3-0.9,0.3-1.7v-3.1h1.8v6.6H333.6z"/>
		<path d="M340.5,47.2c0.2,0,0.4,0,0.6,0.1l-0.1,1.7c-0.1,0-0.3-0.1-0.5-0.1c-0.6,0-1,0.1-1.3,0.4s-0.5,0.7-0.5,1.2v3.3h-1.8v-6.6
			h1.4l0.3,1.1h0.1c0.2-0.4,0.5-0.7,0.8-0.9S340.1,47.2,340.5,47.2z"/>
		<path d="M346,47.2c0.8,0,1.4,0.3,1.8,0.9s0.7,1.4,0.7,2.5c0,1.1-0.2,1.9-0.7,2.5s-1.1,0.9-1.8,0.9c-0.8,0-1.4-0.3-1.8-0.8H344
			l-0.3,0.7h-1.4v-9.1h1.8v2.1c0,0.3,0,0.7-0.1,1.3h0.1C344.5,47.5,345.2,47.2,346,47.2z M345.4,48.6c-0.4,0-0.8,0.1-1,0.4
			s-0.3,0.7-0.3,1.3v0.2c0,0.7,0.1,1.2,0.3,1.5s0.5,0.5,1,0.5c0.4,0,0.7-0.2,0.9-0.5s0.3-0.8,0.3-1.5s-0.1-1.1-0.3-1.5
			S345.8,48.6,345.4,48.6z"/>
		<path d="M354.1,53.9l-0.3-0.9h0c-0.3,0.4-0.6,0.6-0.9,0.8S352,54,351.5,54c-0.6,0-1.1-0.2-1.5-0.5s-0.5-0.9-0.5-1.5
			c0-0.7,0.2-1.2,0.7-1.5s1.2-0.5,2.2-0.5l1.1,0v-0.3c0-0.7-0.3-1-1-1c-0.5,0-1.1,0.2-1.8,0.5l-0.6-1.2c0.8-0.4,1.6-0.6,2.5-0.6
			c0.9,0,1.6,0.2,2,0.6s0.7,1,0.7,1.7v4.4H354.1z M353.6,50.8l-0.7,0c-0.5,0-0.9,0.1-1.2,0.3s-0.4,0.4-0.4,0.8
			c0,0.5,0.3,0.8,0.9,0.8c0.4,0,0.7-0.1,1-0.4s0.4-0.6,0.4-0.9V50.8z"/>
		<path d="M363.2,53.9h-1.8V50c0-0.5-0.1-0.8-0.3-1.1s-0.4-0.4-0.8-0.4c-0.5,0-0.9,0.2-1.1,0.5S359,50,359,50.8v3.1h-1.8v-6.6h1.4
			l0.2,0.8h0.1c0.2-0.3,0.5-0.6,0.8-0.7s0.7-0.2,1.2-0.2c0.8,0,1.3,0.2,1.7,0.6s0.6,1,0.6,1.8V53.9z"/>
		<path d="M369.2,53.9l-0.3-0.9h0c-0.3,0.4-0.6,0.6-0.9,0.8s-0.7,0.2-1.2,0.2c-0.6,0-1.1-0.2-1.5-0.5s-0.5-0.9-0.5-1.5
			c0-0.7,0.2-1.2,0.7-1.5s1.2-0.5,2.2-0.5l1.1,0v-0.3c0-0.7-0.3-1-1-1c-0.5,0-1.1,0.2-1.8,0.5l-0.6-1.2c0.8-0.4,1.6-0.6,2.5-0.6
			c0.9,0,1.6,0.2,2,0.6s0.7,1,0.7,1.7v4.4H369.2z M368.7,50.8l-0.7,0c-0.5,0-0.9,0.1-1.2,0.3s-0.4,0.4-0.4,0.8
			c0,0.5,0.3,0.8,0.9,0.8c0.4,0,0.7-0.1,1-0.4s0.4-0.6,0.4-0.9V50.8z"/>
		<path d="M378.4,54c-1.1,0-1.9-0.3-2.5-0.9s-0.9-1.4-0.9-2.5c0-1.1,0.3-1.9,0.8-2.5s1.3-0.9,2.3-0.9c0.9,0,1.6,0.3,2.2,0.8
			s0.8,1.3,0.8,2.2V51h-4.2c0,0.5,0.2,0.9,0.5,1.2s0.7,0.4,1.2,0.4c0.4,0,0.8,0,1.1-0.1s0.7-0.2,1.1-0.4v1.4c-0.3,0.2-0.6,0.3-1,0.3
			S378.9,54,378.4,54z M378.1,48.5c-0.4,0-0.7,0.1-0.9,0.4s-0.3,0.6-0.4,1h2.5c0-0.4-0.1-0.8-0.3-1S378.5,48.5,378.1,48.5z"/>
		<path d="M389.3,47.2c0.2,0,0.4,0,0.6,0.1l-0.1,1.7c-0.1,0-0.3-0.1-0.5-0.1c-0.6,0-1,0.1-1.3,0.4s-0.5,0.7-0.5,1.2v3.3h-1.8v-6.6
			h1.4l0.3,1.1h0.1c0.2-0.4,0.5-0.7,0.8-0.9S388.9,47.2,389.3,47.2z"/>
		<path d="M395.7,53.9l-0.2-0.8h-0.1c-0.2,0.3-0.5,0.5-0.8,0.7s-0.8,0.2-1.2,0.2c-0.8,0-1.3-0.2-1.7-0.6s-0.6-1-0.6-1.8v-4.3h1.8
			v3.8c0,0.5,0.1,0.8,0.3,1.1s0.4,0.4,0.8,0.4c0.5,0,0.9-0.2,1.1-0.5s0.3-0.9,0.3-1.7v-3.1h1.8v6.6H395.7z"/>
		<path d="M402.6,47.2c0.2,0,0.4,0,0.6,0.1l-0.1,1.7c-0.1,0-0.3-0.1-0.5-0.1c-0.6,0-1,0.1-1.3,0.4s-0.5,0.7-0.5,1.2v3.3H399v-6.6
			h1.4l0.3,1.1h0.1c0.2-0.4,0.5-0.7,0.8-0.9S402.2,47.2,402.6,47.2z"/>
		<path d="M408.6,53.9l-0.3-0.9h0c-0.3,0.4-0.6,0.6-0.9,0.8S406.5,54,406,54c-0.6,0-1.1-0.2-1.5-0.5s-0.5-0.9-0.5-1.5
			c0-0.7,0.2-1.2,0.7-1.5s1.2-0.5,2.2-0.5l1.1,0v-0.3c0-0.7-0.3-1-1-1c-0.5,0-1.1,0.2-1.8,0.5l-0.6-1.2c0.8-0.4,1.6-0.6,2.5-0.6
			c0.9,0,1.6,0.2,2,0.6s0.7,1,0.7,1.7v4.4H408.6z M408.1,50.8l-0.7,0c-0.5,0-0.9,0.1-1.2,0.3s-0.4,0.4-0.4,0.8
			c0,0.5,0.3,0.8,0.9,0.8c0.4,0,0.7-0.1,1-0.4s0.4-0.6,0.4-0.9V50.8z"/>
		<path d="M413.5,53.9h-1.8v-9.1h1.8V53.9z"/>
		<path d="M417.1,52.6c-0.2,0.8-0.5,1.7-1,2.8h-1.3c0.3-1,0.5-2,0.6-2.9h1.6L417.1,52.6z"/>
		<path d="M172.2,59.7h2.7c1.2,0,2.1,0.2,2.6,0.5s0.8,0.9,0.8,1.6c0,0.5-0.1,0.9-0.4,1.3s-0.6,0.5-1,0.6v0.1
			c0.5,0.1,0.9,0.3,1.2,0.7s0.4,0.8,0.4,1.3c0,0.8-0.3,1.4-0.8,1.8s-1.3,0.7-2.3,0.7h-3.2V59.7z M174,63.1h1.1
			c0.5,0,0.8-0.1,1.1-0.2s0.3-0.4,0.3-0.8c0-0.3-0.1-0.6-0.4-0.7s-0.6-0.2-1.1-0.2h-1V63.1z M174,64.5v2.2h1.2
			c0.5,0,0.9-0.1,1.1-0.3s0.4-0.5,0.4-0.9c0-0.7-0.5-1.1-1.5-1.1H174z"/>
		<path d="M183.7,61.6c0.2,0,0.4,0,0.6,0.1l-0.1,1.7c-0.1,0-0.3-0.1-0.5-0.1c-0.6,0-1,0.1-1.3,0.4s-0.5,0.7-0.5,1.2v3.3h-1.8v-6.6
			h1.4l0.3,1.1h0.1c0.2-0.4,0.5-0.7,0.8-0.9S183.3,61.6,183.7,61.6z"/>
		<path d="M189.7,68.3l-0.3-0.9h0c-0.3,0.4-0.6,0.6-0.9,0.8s-0.7,0.2-1.2,0.2c-0.6,0-1.1-0.2-1.5-0.5s-0.5-0.9-0.5-1.5
			c0-0.7,0.2-1.2,0.7-1.5s1.2-0.5,2.2-0.5l1.1,0v-0.3c0-0.7-0.3-1-1-1c-0.5,0-1.1,0.2-1.8,0.5l-0.6-1.2c0.8-0.4,1.6-0.6,2.5-0.6
			c0.9,0,1.6,0.2,2,0.6s0.7,1,0.7,1.7v4.4H189.7z M189.2,65.2l-0.7,0c-0.5,0-0.9,0.1-1.2,0.3s-0.4,0.4-0.4,0.8
			c0,0.5,0.3,0.8,0.9,0.8c0.4,0,0.7-0.1,1-0.4s0.4-0.6,0.4-0.9V65.2z"/>
		<path d="M197.3,66.3c0,0.7-0.2,1.2-0.7,1.5s-1.2,0.5-2.1,0.5c-0.5,0-0.9,0-1.2-0.1s-0.7-0.2-0.9-0.3v-1.5c0.3,0.2,0.7,0.3,1.1,0.4
			s0.8,0.2,1.1,0.2c0.6,0,1-0.2,1-0.6c0-0.1,0-0.3-0.1-0.3s-0.2-0.2-0.4-0.3s-0.5-0.2-0.8-0.4c-0.5-0.2-0.9-0.4-1.1-0.6
			s-0.4-0.4-0.5-0.6s-0.2-0.5-0.2-0.9c0-0.6,0.2-1,0.7-1.4s1.1-0.5,1.9-0.5c0.8,0,1.6,0.2,2.3,0.5l-0.5,1.3
			c-0.3-0.1-0.6-0.3-0.9-0.3s-0.6-0.1-0.9-0.1c-0.5,0-0.8,0.1-0.8,0.4c0,0.2,0.1,0.3,0.3,0.4s0.5,0.3,1.1,0.5
			c0.5,0.2,0.9,0.4,1.1,0.6s0.4,0.4,0.5,0.6S197.3,66,197.3,66.3z"/>
		<path d="M198.7,60c0-0.6,0.3-0.9,1-0.9s1,0.3,1,0.9c0,0.3-0.1,0.5-0.2,0.6s-0.4,0.2-0.7,0.2C199,60.9,198.7,60.6,198.7,60z
			 M200.5,68.3h-1.8v-6.6h1.8V68.3z"/>
		<path d="M204.2,68.3h-1.8v-9.1h1.8V68.3z"/>
		<path d="M205.8,62.6c0-0.3,0.1-0.6,0.3-0.7s0.4-0.3,0.8-0.3c0.3,0,0.6,0.1,0.8,0.3s0.3,0.4,0.3,0.7c0,0.3-0.1,0.6-0.3,0.7
			s-0.4,0.3-0.7,0.3c-0.3,0-0.6-0.1-0.8-0.3S205.8,62.9,205.8,62.6z M205.8,67.4c0-0.3,0.1-0.6,0.3-0.7s0.4-0.3,0.8-0.3
			c0.3,0,0.6,0.1,0.8,0.3s0.3,0.4,0.3,0.7c0,0.3-0.1,0.6-0.3,0.7s-0.4,0.3-0.8,0.3c-0.3,0-0.6-0.1-0.8-0.3S205.8,67.7,205.8,67.4z"
			/>
		<path d="M216.6,68.3h-1.8v-5l0-0.8l0-0.9c-0.3,0.3-0.5,0.5-0.6,0.6l-1,0.8l-0.9-1.1l2.8-2.2h1.5V68.3z"/>
		<path d="M225,63.3c0,1.7-0.4,2.9-1.1,3.8s-1.8,1.2-3.2,1.2c-0.5,0-0.9,0-1.2-0.1v-1.5c0.3,0.1,0.7,0.1,1,0.1
			c0.6,0,1.1-0.1,1.5-0.3s0.7-0.5,0.9-0.8s0.3-0.9,0.4-1.6h-0.1c-0.2,0.4-0.5,0.6-0.8,0.8s-0.7,0.2-1.1,0.2c-0.7,0-1.3-0.2-1.8-0.7
			s-0.6-1.1-0.6-2c0-0.9,0.3-1.6,0.8-2.2s1.2-0.8,2.1-0.8c0.6,0,1.2,0.1,1.7,0.4s0.8,0.7,1.1,1.3S225,62.6,225,63.3z M221.9,61
			c-0.4,0-0.7,0.1-0.9,0.4s-0.3,0.6-0.3,1.1c0,0.4,0.1,0.7,0.3,1s0.5,0.4,0.9,0.4c0.4,0,0.7-0.1,0.9-0.4s0.4-0.5,0.4-0.8
			c0-0.5-0.1-0.9-0.4-1.2S222.2,61,221.9,61z"/>
		<path d="M229,62.8c0.8,0,1.5,0.2,2,0.7s0.7,1.1,0.7,1.9c0,1-0.3,1.7-0.9,2.2s-1.4,0.8-2.5,0.8c-1,0-1.7-0.2-2.3-0.5v-1.6
			c0.3,0.2,0.7,0.3,1.1,0.4s0.8,0.2,1.2,0.2c1.1,0,1.7-0.5,1.7-1.4c0-0.9-0.6-1.3-1.7-1.3c-0.2,0-0.4,0-0.7,0.1s-0.5,0.1-0.6,0.1
			l-0.7-0.4l0.3-4.4h4.6v1.5H228l-0.2,1.7l0.2,0C228.3,62.8,228.6,62.8,229,62.8z"/>
		<path d="M238.6,64c0,1.5-0.2,2.6-0.7,3.3s-1.2,1.1-2.3,1.1c-1,0-1.7-0.4-2.2-1.1s-0.8-1.8-0.8-3.3c0-1.5,0.2-2.6,0.7-3.3
			s1.2-1.1,2.3-1.1c1,0,1.7,0.4,2.2,1.1S238.6,62.5,238.6,64z M234.5,64c0,1.1,0.1,1.8,0.3,2.3s0.5,0.7,0.9,0.7
			c0.4,0,0.7-0.2,0.9-0.7s0.3-1.2,0.3-2.2c0-1.1-0.1-1.8-0.3-2.3s-0.5-0.7-0.9-0.7c-0.4,0-0.7,0.2-0.9,0.7S234.5,62.9,234.5,64z"/>
		<path d="M239.4,65.8v-1.5h3.1v1.5H239.4z"/>
		<path d="M249.4,68.3h-6V67l2.2-2.2c0.6-0.7,1.1-1.1,1.2-1.4s0.3-0.5,0.4-0.7s0.1-0.4,0.1-0.7c0-0.3-0.1-0.6-0.3-0.8
			s-0.4-0.3-0.8-0.3c-0.3,0-0.7,0.1-1,0.2s-0.6,0.4-1,0.7l-1-1.2c0.4-0.4,0.8-0.6,1-0.8s0.6-0.3,0.9-0.3s0.7-0.1,1.1-0.1
			c0.5,0,1,0.1,1.4,0.3s0.7,0.5,1,0.8s0.3,0.8,0.3,1.2c0,0.4-0.1,0.8-0.2,1.1s-0.4,0.7-0.6,1.1s-0.8,0.9-1.5,1.6l-1.1,1v0.1h3.7
			V68.3z"/>
		<path d="M256.2,64c0,1.5-0.2,2.6-0.7,3.3s-1.2,1.1-2.3,1.1c-1,0-1.7-0.4-2.2-1.1s-0.8-1.8-0.8-3.3c0-1.5,0.2-2.6,0.7-3.3
			s1.2-1.1,2.3-1.1c1,0,1.7,0.4,2.2,1.1S256.2,62.5,256.2,64z M252,64c0,1.1,0.1,1.8,0.3,2.3s0.5,0.7,0.9,0.7c0.4,0,0.7-0.2,0.9-0.7
			s0.3-1.2,0.3-2.2c0-1.1-0.1-1.8-0.3-2.3s-0.5-0.7-0.9-0.7c-0.4,0-0.7,0.2-0.9,0.7S252,62.9,252,64z"/>
		<path d="M261.6,68.3h-1.8v-5l0-0.8l0-0.9c-0.3,0.3-0.5,0.5-0.6,0.6l-1,0.8l-0.9-1.1l2.8-2.2h1.5V68.3z"/>
		<path d="M269.9,64c0,1.5-0.2,2.6-0.7,3.3s-1.2,1.1-2.3,1.1c-1,0-1.7-0.4-2.2-1.1s-0.8-1.8-0.8-3.3c0-1.5,0.2-2.6,0.7-3.3
			s1.2-1.1,2.3-1.1c1,0,1.7,0.4,2.2,1.1S269.9,62.5,269.9,64z M265.7,64c0,1.1,0.1,1.8,0.3,2.3s0.5,0.7,0.9,0.7
			c0.4,0,0.7-0.2,0.9-0.7s0.3-1.2,0.3-2.2c0-1.1-0.1-1.8-0.3-2.3s-0.5-0.7-0.9-0.7c-0.4,0-0.7,0.2-0.9,0.7S265.7,62.9,265.7,64z"/>
	</g>
	<g>
		<path d="M115.1,339.8h-0.7V334h3.2v0.6h-2.5v2.1h2.4v0.6h-2.4V339.8z"/>
		<path d="M122.2,337.6c0,0.7-0.2,1.2-0.5,1.6c-0.4,0.4-0.8,0.6-1.5,0.6c-0.4,0-0.7-0.1-1-0.3s-0.5-0.4-0.7-0.8s-0.2-0.7-0.2-1.2
			c0-0.7,0.2-1.2,0.5-1.6c0.3-0.4,0.8-0.6,1.5-0.6c0.6,0,1.1,0.2,1.4,0.6S122.2,336.9,122.2,337.6z M118.9,337.6
			c0,0.5,0.1,1,0.3,1.2c0.2,0.3,0.5,0.4,1,0.4s0.7-0.1,1-0.4s0.3-0.7,0.3-1.3c0-0.5-0.1-1-0.3-1.2c-0.2-0.3-0.5-0.4-1-0.4
			c-0.4,0-0.7,0.1-1,0.4C119,336.6,118.9,337.1,118.9,337.6z"/>
		<path d="M126.2,339.8V337c0-0.3-0.1-0.6-0.2-0.8s-0.4-0.3-0.7-0.3c-0.4,0-0.8,0.1-1,0.4s-0.3,0.6-0.3,1.2v2.2h-0.6v-4.3h0.5
			l0.1,0.6h0c0.1-0.2,0.3-0.4,0.6-0.5c0.2-0.1,0.5-0.2,0.8-0.2c0.5,0,0.9,0.1,1.2,0.4c0.3,0.2,0.4,0.6,0.4,1.2v2.8H126.2z"/>
		<path d="M129.6,339.3c0.1,0,0.2,0,0.3,0c0.1,0,0.2,0,0.3-0.1v0.5c-0.1,0-0.2,0.1-0.3,0.1c-0.1,0-0.3,0-0.4,0
			c-0.8,0-1.2-0.4-1.2-1.3V336h-0.6v-0.3l0.6-0.3l0.3-0.9h0.4v1h1.2v0.5h-1.2v2.5c0,0.3,0.1,0.5,0.2,0.6
			C129.2,339.2,129.4,339.3,129.6,339.3z"/>
		<path d="M132.9,339.8c-0.6,0-1.1-0.2-1.5-0.6c-0.4-0.4-0.5-0.9-0.5-1.6c0-0.7,0.2-1.2,0.5-1.6s0.8-0.6,1.4-0.6
			c0.5,0,1,0.2,1.3,0.5c0.3,0.4,0.5,0.8,0.5,1.4v0.4h-2.9c0,0.5,0.1,0.9,0.4,1.1c0.2,0.3,0.6,0.4,1,0.4c0.5,0,0.9-0.1,1.4-0.3v0.6
			c-0.2,0.1-0.4,0.2-0.7,0.2S133.2,339.8,132.9,339.8z M132.7,335.9c-0.3,0-0.6,0.1-0.8,0.3c-0.2,0.2-0.3,0.5-0.4,0.9h2.2
			c0-0.4-0.1-0.7-0.3-0.9C133.3,336,133,335.9,132.7,335.9z"/>
		<path d="M135.4,335.9c0-0.4,0.2-0.5,0.5-0.5c0.3,0,0.5,0.2,0.5,0.5c0,0.2,0,0.3-0.1,0.4c-0.1,0.1-0.2,0.1-0.4,0.1
			c-0.1,0-0.2,0-0.3-0.1S135.4,336.1,135.4,335.9z M135.4,339.3c0-0.2,0-0.3,0.1-0.4s0.2-0.1,0.3-0.1c0.2,0,0.3,0,0.4,0.1
			s0.1,0.2,0.1,0.4c0,0.2,0,0.3-0.1,0.4c-0.1,0.1-0.2,0.1-0.4,0.1c-0.1,0-0.2,0-0.3-0.1S135.4,339.5,135.4,339.3z"/>
		<path d="M139.8,339.8V334h0.7v5.7H139.8z"/>
		<path d="M142.1,334h1.6c0.8,0,1.3,0.1,1.6,0.3s0.5,0.6,0.5,1.1c0,0.3-0.1,0.6-0.3,0.8c-0.2,0.2-0.5,0.4-0.8,0.4v0
			c0.9,0.1,1.3,0.6,1.3,1.4c0,0.5-0.2,0.9-0.5,1.2c-0.3,0.3-0.8,0.4-1.4,0.4h-2V334z M142.7,336.5h1.1c0.5,0,0.8-0.1,1-0.2
			c0.2-0.1,0.3-0.4,0.3-0.7c0-0.3-0.1-0.6-0.3-0.7c-0.2-0.1-0.6-0.2-1.1-0.2h-1V336.5z M142.7,337v2.1h1.2c0.5,0,0.8-0.1,1-0.3
			c0.2-0.2,0.3-0.5,0.3-0.8c0-0.4-0.1-0.6-0.4-0.8c-0.2-0.2-0.6-0.2-1.1-0.2H142.7z"/>
		<path d="M149.8,336.8h1.9v2.8c-0.3,0.1-0.6,0.2-0.9,0.2c-0.3,0-0.7,0.1-1.1,0.1c-0.9,0-1.5-0.3-2-0.8c-0.5-0.5-0.7-1.2-0.7-2.2
			c0-0.6,0.1-1.1,0.4-1.6c0.2-0.4,0.6-0.8,1-1c0.4-0.2,1-0.4,1.6-0.4c0.6,0,1.2,0.1,1.7,0.3l-0.3,0.6c-0.5-0.2-1-0.3-1.5-0.3
			c-0.7,0-1.2,0.2-1.6,0.6s-0.6,1-0.6,1.7c0,0.8,0.2,1.4,0.6,1.8s0.9,0.6,1.7,0.6c0.4,0,0.8,0,1.2-0.1v-1.8h-1.3V336.8z"/>
		<path d="M156.3,339.8h-3.2V334h3.2v0.6h-2.5v1.8h2.4v0.6h-2.4v2.1h2.5V339.8z"/>
		<path d="M158.1,338.8L158.1,338.8c0,0.3-0.1,0.7-0.2,1c-0.1,0.3-0.3,0.7-0.4,1H157c0.1-0.3,0.1-0.6,0.2-1s0.1-0.7,0.2-1H158.1z"/>
		<path d="M163.2,339.8c-0.6,0-1.1-0.2-1.4-0.6c-0.3-0.4-0.5-0.9-0.5-1.6c0-0.7,0.2-1.3,0.5-1.7s0.8-0.6,1.5-0.6
			c0.2,0,0.4,0,0.6,0.1c0.2,0,0.4,0.1,0.5,0.2l-0.2,0.6c-0.1-0.1-0.3-0.1-0.5-0.1c-0.2,0-0.3-0.1-0.4-0.1c-0.9,0-1.3,0.6-1.3,1.7
			c0,0.5,0.1,0.9,0.3,1.2s0.5,0.4,0.9,0.4c0.4,0,0.7-0.1,1.1-0.2v0.6C164,339.8,163.6,339.8,163.2,339.8z"/>
		<path d="M167.1,339.8c-0.6,0-1.1-0.2-1.5-0.6c-0.4-0.4-0.5-0.9-0.5-1.6c0-0.7,0.2-1.2,0.5-1.6s0.8-0.6,1.4-0.6
			c0.5,0,1,0.2,1.3,0.5c0.3,0.4,0.5,0.8,0.5,1.4v0.4h-2.9c0,0.5,0.1,0.9,0.4,1.1c0.2,0.3,0.6,0.4,1,0.4c0.5,0,0.9-0.1,1.4-0.3v0.6
			c-0.2,0.1-0.4,0.2-0.7,0.2S167.4,339.8,167.1,339.8z M166.9,335.9c-0.3,0-0.6,0.1-0.8,0.3c-0.2,0.2-0.3,0.5-0.4,0.9h2.2
			c0-0.4-0.1-0.7-0.3-0.9C167.5,336,167.3,335.9,166.9,335.9z"/>
		<path d="M172.7,339.8V337c0-0.3-0.1-0.6-0.2-0.8s-0.4-0.3-0.7-0.3c-0.4,0-0.8,0.1-1,0.4s-0.3,0.6-0.3,1.2v2.2h-0.6v-4.3h0.5
			l0.1,0.6h0c0.1-0.2,0.3-0.4,0.6-0.5c0.2-0.1,0.5-0.2,0.8-0.2c0.5,0,0.9,0.1,1.2,0.4c0.3,0.2,0.4,0.6,0.4,1.2v2.8H172.7z"/>
		<path d="M177.4,338.6c0,0.4-0.1,0.7-0.4,0.9c-0.3,0.2-0.7,0.3-1.2,0.3c-0.6,0-1-0.1-1.3-0.3V339c0.2,0.1,0.4,0.2,0.7,0.2
			c0.2,0.1,0.5,0.1,0.7,0.1c0.3,0,0.6-0.1,0.8-0.2c0.2-0.1,0.3-0.3,0.3-0.5c0-0.2-0.1-0.3-0.2-0.4c-0.1-0.1-0.4-0.3-0.8-0.4
			c-0.4-0.1-0.7-0.3-0.8-0.4c-0.2-0.1-0.3-0.2-0.4-0.4s-0.1-0.3-0.1-0.5c0-0.3,0.1-0.6,0.4-0.8c0.3-0.2,0.7-0.3,1.2-0.3
			c0.5,0,0.9,0.1,1.4,0.3l-0.2,0.5c-0.4-0.2-0.8-0.3-1.2-0.3c-0.3,0-0.5,0-0.7,0.1c-0.2,0.1-0.2,0.2-0.2,0.4c0,0.1,0,0.2,0.1,0.3
			c0.1,0.1,0.2,0.2,0.3,0.2c0.1,0.1,0.4,0.2,0.8,0.3c0.5,0.2,0.9,0.4,1,0.6S177.4,338.3,177.4,338.6z"/>
		<path d="M182.2,337.6c0,0.7-0.2,1.2-0.5,1.6c-0.4,0.4-0.8,0.6-1.5,0.6c-0.4,0-0.7-0.1-1-0.3s-0.5-0.4-0.7-0.8s-0.2-0.7-0.2-1.2
			c0-0.7,0.2-1.2,0.5-1.6c0.3-0.4,0.8-0.6,1.5-0.6c0.6,0,1.1,0.2,1.4,0.6S182.2,336.9,182.2,337.6z M178.9,337.6
			c0,0.5,0.1,1,0.3,1.2c0.2,0.3,0.5,0.4,1,0.4s0.7-0.1,1-0.4s0.3-0.7,0.3-1.3c0-0.5-0.1-1-0.3-1.2c-0.2-0.3-0.5-0.4-1-0.4
			c-0.4,0-0.7,0.1-1,0.4C179,336.6,178.9,337.1,178.9,337.6z"/>
		<path d="M186.1,338.6c0,0.4-0.1,0.7-0.4,0.9c-0.3,0.2-0.7,0.3-1.2,0.3c-0.6,0-1-0.1-1.3-0.3V339c0.2,0.1,0.4,0.2,0.7,0.2
			c0.2,0.1,0.5,0.1,0.7,0.1c0.3,0,0.6-0.1,0.8-0.2c0.2-0.1,0.3-0.3,0.3-0.5c0-0.2-0.1-0.3-0.2-0.4c-0.1-0.1-0.4-0.3-0.8-0.4
			c-0.4-0.1-0.7-0.3-0.8-0.4c-0.2-0.1-0.3-0.2-0.4-0.4s-0.1-0.3-0.1-0.5c0-0.3,0.1-0.6,0.4-0.8c0.3-0.2,0.7-0.3,1.2-0.3
			c0.5,0,0.9,0.1,1.4,0.3l-0.2,0.5c-0.4-0.2-0.8-0.3-1.2-0.3c-0.3,0-0.5,0-0.7,0.1c-0.2,0.1-0.2,0.2-0.2,0.4c0,0.1,0,0.2,0.1,0.3
			c0.1,0.1,0.2,0.2,0.3,0.2c0.1,0.1,0.4,0.2,0.8,0.3c0.5,0.2,0.9,0.4,1,0.6S186.1,338.3,186.1,338.6z"/>
		<path d="M192.1,339.2L192.1,339.2c-0.3,0.4-0.8,0.7-1.4,0.7c-0.6,0-1-0.2-1.3-0.6s-0.5-0.9-0.5-1.6c0-0.7,0.2-1.3,0.5-1.6
			s0.7-0.6,1.3-0.6c0.6,0,1,0.2,1.3,0.6h0.1l0-0.3l0-0.3v-1.7h0.6v6.1h-0.5L192.1,339.2z M190.8,339.3c0.4,0,0.8-0.1,1-0.4
			c0.2-0.2,0.3-0.6,0.3-1.2v-0.1c0-0.6-0.1-1-0.3-1.3c-0.2-0.3-0.5-0.4-1-0.4c-0.4,0-0.7,0.1-0.9,0.4c-0.2,0.3-0.3,0.7-0.3,1.3
			c0,0.5,0.1,1,0.3,1.2C190.2,339.1,190.5,339.3,190.8,339.3z"/>
		<path d="M195.9,339.8c-0.6,0-1.1-0.2-1.5-0.6c-0.4-0.4-0.5-0.9-0.5-1.6c0-0.7,0.2-1.2,0.5-1.6s0.8-0.6,1.4-0.6
			c0.5,0,1,0.2,1.3,0.5c0.3,0.4,0.5,0.8,0.5,1.4v0.4h-2.9c0,0.5,0.1,0.9,0.4,1.1c0.2,0.3,0.6,0.4,1,0.4c0.5,0,0.9-0.1,1.4-0.3v0.6
			c-0.2,0.1-0.4,0.2-0.7,0.2S196.2,339.8,195.9,339.8z M195.8,335.9c-0.3,0-0.6,0.1-0.8,0.3c-0.2,0.2-0.3,0.5-0.4,0.9h2.2
			c0-0.4-0.1-0.7-0.3-0.9C196.4,336,196.1,335.9,195.8,335.9z"/>
		<path d="M204.1,339.8V337c0-0.3-0.1-0.6-0.2-0.8c-0.1-0.2-0.4-0.3-0.7-0.3c-0.4,0-0.7,0.1-0.9,0.3c-0.2,0.2-0.3,0.6-0.3,1.1v2.4
			h-0.6V337c0-0.3-0.1-0.6-0.2-0.8c-0.1-0.2-0.4-0.3-0.7-0.3c-0.4,0-0.7,0.1-0.9,0.4c-0.2,0.2-0.3,0.6-0.3,1.2v2.2h-0.6v-4.3h0.5
			l0.1,0.6h0c0.1-0.2,0.3-0.4,0.5-0.5s0.5-0.2,0.7-0.2c0.7,0,1.1,0.2,1.3,0.7h0c0.1-0.2,0.3-0.4,0.6-0.5c0.2-0.1,0.5-0.2,0.8-0.2
			c0.5,0,0.8,0.1,1.1,0.4c0.2,0.2,0.4,0.6,0.4,1.2v2.8H204.1z"/>
		<path d="M209.8,337.6c0,0.7-0.2,1.2-0.5,1.6c-0.4,0.4-0.8,0.6-1.5,0.6c-0.4,0-0.7-0.1-1-0.3s-0.5-0.4-0.7-0.8s-0.2-0.7-0.2-1.2
			c0-0.7,0.2-1.2,0.5-1.6c0.3-0.4,0.8-0.6,1.5-0.6c0.6,0,1.1,0.2,1.4,0.6S209.8,336.9,209.8,337.6z M206.5,337.6
			c0,0.5,0.1,1,0.3,1.2c0.2,0.3,0.5,0.4,1,0.4s0.7-0.1,1-0.4s0.3-0.7,0.3-1.3c0-0.5-0.1-1-0.3-1.2c-0.2-0.3-0.5-0.4-1-0.4
			c-0.4,0-0.7,0.1-1,0.4C206.6,336.6,206.5,337.1,206.5,337.6z"/>
		<path d="M214.4,335.5v0.4l-0.8,0.1c0.1,0.1,0.1,0.2,0.2,0.4c0.1,0.1,0.1,0.3,0.1,0.5c0,0.4-0.1,0.8-0.4,1s-0.7,0.4-1.2,0.4
			c-0.1,0-0.2,0-0.4,0c-0.3,0.1-0.4,0.3-0.4,0.6c0,0.1,0,0.2,0.1,0.3c0.1,0.1,0.3,0.1,0.5,0.1h0.8c0.5,0,0.8,0.1,1.1,0.3
			s0.4,0.5,0.4,0.9c0,0.5-0.2,0.8-0.6,1.1c-0.4,0.2-0.9,0.4-1.7,0.4c-0.6,0-1-0.1-1.3-0.3c-0.3-0.2-0.5-0.5-0.5-0.9
			c0-0.3,0.1-0.5,0.2-0.7c0.2-0.2,0.4-0.3,0.7-0.4c-0.1,0-0.2-0.1-0.3-0.2c-0.1-0.1-0.1-0.2-0.1-0.4c0-0.2,0-0.3,0.1-0.4
			s0.2-0.2,0.4-0.3c-0.2-0.1-0.4-0.2-0.5-0.5s-0.2-0.5-0.2-0.8c0-0.5,0.1-0.8,0.4-1.1s0.7-0.4,1.2-0.4c0.2,0,0.4,0,0.6,0.1H214.4z
			 M211,340.5c0,0.2,0.1,0.4,0.3,0.5c0.2,0.1,0.5,0.2,0.8,0.2c0.5,0,0.9-0.1,1.2-0.2c0.3-0.2,0.4-0.4,0.4-0.7c0-0.2-0.1-0.4-0.2-0.5
			s-0.4-0.1-0.8-0.1h-0.8c-0.3,0-0.5,0.1-0.7,0.2S211,340.2,211,340.5z M211.3,336.8c0,0.3,0.1,0.5,0.3,0.7c0.2,0.2,0.4,0.2,0.7,0.2
			c0.6,0,0.9-0.3,0.9-0.9c0-0.6-0.3-1-1-1c-0.3,0-0.5,0.1-0.7,0.2S211.3,336.5,211.3,336.8z"/>
		<path d="M217.2,335.4c0.2,0,0.4,0,0.5,0l-0.1,0.6c-0.2,0-0.3-0.1-0.5-0.1c-0.3,0-0.6,0.1-0.9,0.4s-0.4,0.6-0.4,1.1v2.3h-0.6v-4.3
			h0.5l0.1,0.8h0c0.2-0.3,0.4-0.5,0.6-0.6C216.7,335.5,217,335.4,217.2,335.4z"/>
		<path d="M221.2,339.8l-0.1-0.6h0c-0.2,0.3-0.4,0.4-0.6,0.5c-0.2,0.1-0.5,0.1-0.8,0.1c-0.4,0-0.8-0.1-1-0.3s-0.4-0.5-0.4-0.9
			c0-0.9,0.7-1.3,2.1-1.4l0.7,0v-0.3c0-0.3-0.1-0.6-0.2-0.7s-0.4-0.2-0.7-0.2c-0.4,0-0.8,0.1-1.2,0.3l-0.2-0.5
			c0.2-0.1,0.4-0.2,0.7-0.3c0.3-0.1,0.5-0.1,0.8-0.1c0.5,0,0.9,0.1,1.1,0.3s0.4,0.6,0.4,1.1v2.9H221.2z M219.7,339.3
			c0.4,0,0.7-0.1,1-0.3c0.2-0.2,0.3-0.5,0.3-0.9v-0.4l-0.6,0c-0.5,0-0.9,0.1-1.1,0.2c-0.2,0.1-0.3,0.4-0.3,0.7
			c0,0.2,0.1,0.4,0.2,0.5C219.3,339.2,219.5,339.3,219.7,339.3z M219.6,334.8c0.1-0.2,0.3-0.4,0.4-0.6c0.1-0.2,0.3-0.4,0.3-0.6h0.8
			v0.1c-0.1,0.2-0.3,0.4-0.5,0.6c-0.2,0.2-0.4,0.4-0.6,0.6L219.6,334.8L219.6,334.8z"/>
		<path d="M224.9,336h-1.1v3.8h-0.6V336h-0.8v-0.3l0.8-0.2v-0.2c0-1.1,0.5-1.6,1.4-1.6c0.2,0,0.5,0,0.8,0.1l-0.2,0.5
			c-0.2-0.1-0.5-0.1-0.6-0.1c-0.2,0-0.4,0.1-0.5,0.2c-0.1,0.2-0.2,0.4-0.2,0.8v0.3h1.1V336z M225.6,334.3c0-0.1,0-0.3,0.1-0.3
			c0.1-0.1,0.2-0.1,0.3-0.1c0.1,0,0.2,0,0.3,0.1s0.1,0.2,0.1,0.3c0,0.1,0,0.3-0.1,0.3c-0.1,0.1-0.2,0.1-0.3,0.1
			c-0.1,0-0.2,0-0.3-0.1C225.7,334.6,225.6,334.5,225.6,334.3z M226.3,339.8h-0.6v-4.3h0.6V339.8z"/>
		<path d="M229.4,339.8c-0.6,0-1.1-0.2-1.4-0.6c-0.3-0.4-0.5-0.9-0.5-1.6c0-0.7,0.2-1.3,0.5-1.7s0.8-0.6,1.5-0.6
			c0.2,0,0.4,0,0.6,0.1c0.2,0,0.4,0.1,0.5,0.2l-0.2,0.6c-0.1-0.1-0.3-0.1-0.5-0.1c-0.2,0-0.3-0.1-0.4-0.1c-0.9,0-1.3,0.6-1.3,1.7
			c0,0.5,0.1,0.9,0.3,1.2s0.5,0.4,0.9,0.4c0.4,0,0.7-0.1,1.1-0.2v0.6C230.2,339.8,229.9,339.8,229.4,339.8z"/>
		<path d="M235.2,337.6c0,0.7-0.2,1.2-0.5,1.6c-0.4,0.4-0.8,0.6-1.5,0.6c-0.4,0-0.7-0.1-1-0.3s-0.5-0.4-0.7-0.8s-0.2-0.7-0.2-1.2
			c0-0.7,0.2-1.2,0.5-1.6c0.3-0.4,0.8-0.6,1.5-0.6c0.6,0,1.1,0.2,1.4,0.6S235.2,336.9,235.2,337.6z M232,337.6c0,0.5,0.1,1,0.3,1.2
			c0.2,0.3,0.5,0.4,1,0.4s0.7-0.1,1-0.4s0.3-0.7,0.3-1.3c0-0.5-0.1-1-0.3-1.2c-0.2-0.3-0.5-0.4-1-0.4c-0.4,0-0.7,0.1-1,0.4
			C232.1,336.6,232,337.1,232,337.6z"/>
		<path d="M239.1,338.6c0,0.4-0.1,0.7-0.4,0.9c-0.3,0.2-0.7,0.3-1.2,0.3c-0.6,0-1-0.1-1.3-0.3V339c0.2,0.1,0.4,0.2,0.7,0.2
			c0.2,0.1,0.5,0.1,0.7,0.1c0.3,0,0.6-0.1,0.8-0.2c0.2-0.1,0.3-0.3,0.3-0.5c0-0.2-0.1-0.3-0.2-0.4c-0.1-0.1-0.4-0.3-0.8-0.4
			c-0.4-0.1-0.7-0.3-0.8-0.4c-0.2-0.1-0.3-0.2-0.4-0.4s-0.1-0.3-0.1-0.5c0-0.3,0.1-0.6,0.4-0.8c0.3-0.2,0.7-0.3,1.2-0.3
			c0.5,0,0.9,0.1,1.4,0.3l-0.2,0.5c-0.4-0.2-0.8-0.3-1.2-0.3c-0.3,0-0.5,0-0.7,0.1c-0.2,0.1-0.2,0.2-0.2,0.4c0,0.1,0,0.2,0.1,0.3
			c0.1,0.1,0.2,0.2,0.3,0.2c0.1,0.1,0.4,0.2,0.8,0.3c0.5,0.2,0.9,0.4,1,0.6S239.1,338.3,239.1,338.6z"/>
		<path d="M240.9,338.8L240.9,338.8c0,0.3-0.1,0.7-0.2,1c-0.1,0.3-0.3,0.7-0.4,1h-0.5c0.1-0.3,0.1-0.6,0.2-1s0.1-0.7,0.2-1H240.9z"
			/>
		<path d="M247,338.6c0,0.4-0.1,0.7-0.4,0.9c-0.3,0.2-0.7,0.3-1.2,0.3c-0.6,0-1-0.1-1.3-0.3V339c0.2,0.1,0.4,0.2,0.7,0.2
			c0.2,0.1,0.5,0.1,0.7,0.1c0.3,0,0.6-0.1,0.8-0.2c0.2-0.1,0.3-0.3,0.3-0.5c0-0.2-0.1-0.3-0.2-0.4c-0.1-0.1-0.4-0.3-0.8-0.4
			c-0.4-0.1-0.7-0.3-0.8-0.4c-0.2-0.1-0.3-0.2-0.4-0.4s-0.1-0.3-0.1-0.5c0-0.3,0.1-0.6,0.4-0.8c0.3-0.2,0.7-0.3,1.2-0.3
			c0.5,0,0.9,0.1,1.4,0.3l-0.2,0.5c-0.4-0.2-0.8-0.3-1.2-0.3c-0.3,0-0.5,0-0.7,0.1c-0.2,0.1-0.2,0.2-0.2,0.4c0,0.1,0,0.2,0.1,0.3
			c0.1,0.1,0.2,0.2,0.3,0.2c0.1,0.1,0.4,0.2,0.8,0.3c0.5,0.2,0.9,0.4,1,0.6S247,338.3,247,338.6z"/>
		<path d="M249.8,339.8c-0.6,0-1.1-0.2-1.5-0.6c-0.4-0.4-0.5-0.9-0.5-1.6c0-0.7,0.2-1.2,0.5-1.6s0.8-0.6,1.4-0.6
			c0.5,0,1,0.2,1.3,0.5c0.3,0.4,0.5,0.8,0.5,1.4v0.4h-2.9c0,0.5,0.1,0.9,0.4,1.1c0.2,0.3,0.6,0.4,1,0.4c0.5,0,0.9-0.1,1.4-0.3v0.6
			c-0.2,0.1-0.4,0.2-0.7,0.2S250.1,339.8,249.8,339.8z M249.7,335.9c-0.3,0-0.6,0.1-0.8,0.3c-0.2,0.2-0.3,0.5-0.4,0.9h2.2
			c0-0.4-0.1-0.7-0.3-0.9C250.3,336,250,335.9,249.7,335.9z M249.2,334.8c0.1-0.2,0.3-0.4,0.4-0.6c0.1-0.2,0.3-0.4,0.3-0.6h0.8v0.1
			c-0.1,0.2-0.3,0.4-0.5,0.6c-0.2,0.2-0.4,0.4-0.6,0.6L249.2,334.8L249.2,334.8z"/>
		<path d="M254.5,335.4c0.2,0,0.4,0,0.5,0l-0.1,0.6c-0.2,0-0.3-0.1-0.5-0.1c-0.3,0-0.6,0.1-0.9,0.4s-0.4,0.6-0.4,1.1v2.3h-0.6v-4.3
			h0.5l0.1,0.8h0c0.2-0.3,0.4-0.5,0.6-0.6C254,335.5,254.2,335.4,254.5,335.4z"/>
		<path d="M255.7,334.3c0-0.1,0-0.3,0.1-0.3c0.1-0.1,0.2-0.1,0.3-0.1c0.1,0,0.2,0,0.3,0.1s0.1,0.2,0.1,0.3c0,0.1,0,0.3-0.1,0.3
			c-0.1,0.1-0.2,0.1-0.3,0.1c-0.1,0-0.2,0-0.3-0.1C255.8,334.6,255.7,334.5,255.7,334.3z M256.4,339.8h-0.6v-4.3h0.6V339.8z"/>
		<path d="M259.6,339.8c-0.6,0-1.1-0.2-1.5-0.6c-0.4-0.4-0.5-0.9-0.5-1.6c0-0.7,0.2-1.2,0.5-1.6s0.8-0.6,1.4-0.6
			c0.5,0,1,0.2,1.3,0.5c0.3,0.4,0.5,0.8,0.5,1.4v0.4h-2.9c0,0.5,0.1,0.9,0.4,1.1c0.2,0.3,0.6,0.4,1,0.4c0.5,0,0.9-0.1,1.4-0.3v0.6
			c-0.2,0.1-0.4,0.2-0.7,0.2S259.9,339.8,259.6,339.8z M259.4,335.9c-0.3,0-0.6,0.1-0.8,0.3c-0.2,0.2-0.3,0.5-0.4,0.9h2.2
			c0-0.4-0.1-0.7-0.3-0.9C260,336,259.8,335.9,259.4,335.9z"/>
		<path d="M265.1,338.6c0,0.4-0.1,0.7-0.4,0.9c-0.3,0.2-0.7,0.3-1.2,0.3c-0.6,0-1-0.1-1.3-0.3V339c0.2,0.1,0.4,0.2,0.7,0.2
			c0.2,0.1,0.5,0.1,0.7,0.1c0.3,0,0.6-0.1,0.8-0.2c0.2-0.1,0.3-0.3,0.3-0.5c0-0.2-0.1-0.3-0.2-0.4c-0.1-0.1-0.4-0.3-0.8-0.4
			c-0.4-0.1-0.7-0.3-0.8-0.4c-0.2-0.1-0.3-0.2-0.4-0.4s-0.1-0.3-0.1-0.5c0-0.3,0.1-0.6,0.4-0.8c0.3-0.2,0.7-0.3,1.2-0.3
			c0.5,0,0.9,0.1,1.4,0.3l-0.2,0.5c-0.4-0.2-0.8-0.3-1.2-0.3c-0.3,0-0.5,0-0.7,0.1c-0.2,0.1-0.2,0.2-0.2,0.4c0,0.1,0,0.2,0.1,0.3
			c0.1,0.1,0.2,0.2,0.3,0.2c0.1,0.1,0.4,0.2,0.8,0.3c0.5,0.2,0.9,0.4,1,0.6S265.1,338.3,265.1,338.6z"/>
		<path d="M271.1,339.8V337c0-0.3-0.1-0.6-0.2-0.8s-0.4-0.3-0.7-0.3c-0.5,0-0.8,0.1-1,0.4c-0.2,0.2-0.3,0.6-0.3,1.2v2.2h-0.6v-6.1
			h0.6v1.8c0,0.2,0,0.4,0,0.6h0c0.1-0.2,0.3-0.4,0.5-0.5c0.2-0.1,0.5-0.2,0.8-0.2c0.5,0,0.9,0.1,1.2,0.4c0.3,0.2,0.4,0.6,0.4,1.2
			v2.8H271.1z"/>
		<path d="M273,334.3c0-0.1,0-0.3,0.1-0.3c0.1-0.1,0.2-0.1,0.3-0.1c0.1,0,0.2,0,0.3,0.1s0.1,0.2,0.1,0.3c0,0.1,0,0.3-0.1,0.3
			c-0.1,0.1-0.2,0.1-0.3,0.1c-0.1,0-0.2,0-0.3-0.1C273.1,334.6,273,334.5,273,334.3z M273.8,339.8h-0.6v-4.3h0.6V339.8z"/>
		<path d="M277.9,338.6c0,0.4-0.1,0.7-0.4,0.9c-0.3,0.2-0.7,0.3-1.2,0.3c-0.6,0-1-0.1-1.3-0.3V339c0.2,0.1,0.4,0.2,0.7,0.2
			c0.2,0.1,0.5,0.1,0.7,0.1c0.3,0,0.6-0.1,0.8-0.2c0.2-0.1,0.3-0.3,0.3-0.5c0-0.2-0.1-0.3-0.2-0.4c-0.1-0.1-0.4-0.3-0.8-0.4
			c-0.4-0.1-0.7-0.3-0.8-0.4c-0.2-0.1-0.3-0.2-0.4-0.4s-0.1-0.3-0.1-0.5c0-0.3,0.1-0.6,0.4-0.8c0.3-0.2,0.7-0.3,1.2-0.3
			c0.5,0,0.9,0.1,1.4,0.3l-0.2,0.5c-0.4-0.2-0.8-0.3-1.2-0.3c-0.3,0-0.5,0-0.7,0.1c-0.2,0.1-0.2,0.2-0.2,0.4c0,0.1,0,0.2,0.1,0.3
			c0.1,0.1,0.2,0.2,0.3,0.2c0.1,0.1,0.4,0.2,0.8,0.3c0.5,0.2,0.9,0.4,1,0.6S277.9,338.3,277.9,338.6z"/>
		<path d="M280.3,339.3c0.1,0,0.2,0,0.3,0c0.1,0,0.2,0,0.3-0.1v0.5c-0.1,0-0.2,0.1-0.3,0.1c-0.1,0-0.3,0-0.4,0
			c-0.8,0-1.2-0.4-1.2-1.3V336h-0.6v-0.3l0.6-0.3l0.3-0.9h0.4v1h1.2v0.5h-1.2v2.5c0,0.3,0.1,0.5,0.2,0.6
			C279.9,339.2,280.1,339.3,280.3,339.3z"/>
		<path d="M285.5,337.6c0,0.7-0.2,1.2-0.5,1.6c-0.4,0.4-0.8,0.6-1.5,0.6c-0.4,0-0.7-0.1-1-0.3s-0.5-0.4-0.7-0.8s-0.2-0.7-0.2-1.2
			c0-0.7,0.2-1.2,0.5-1.6c0.3-0.4,0.8-0.6,1.5-0.6c0.6,0,1.1,0.2,1.4,0.6S285.5,336.9,285.5,337.6z M282.2,337.6
			c0,0.5,0.1,1,0.3,1.2c0.2,0.3,0.5,0.4,1,0.4s0.7-0.1,1-0.4s0.3-0.7,0.3-1.3c0-0.5-0.1-1-0.3-1.2c-0.2-0.3-0.5-0.4-1-0.4
			c-0.4,0-0.7,0.1-1,0.4C282.3,336.6,282.2,337.1,282.2,337.6z M283,334.8c0.1-0.2,0.3-0.4,0.4-0.6c0.1-0.2,0.3-0.4,0.3-0.6h0.8v0.1
			c-0.1,0.2-0.3,0.4-0.5,0.6c-0.2,0.2-0.4,0.4-0.6,0.6L283,334.8L283,334.8z"/>
		<path d="M288.6,335.4c0.2,0,0.4,0,0.5,0L289,336c-0.2,0-0.3-0.1-0.5-0.1c-0.3,0-0.6,0.1-0.9,0.4s-0.4,0.6-0.4,1.1v2.3h-0.6v-4.3
			h0.5l0.1,0.8h0c0.2-0.3,0.4-0.5,0.6-0.6C288,335.5,288.3,335.4,288.6,335.4z"/>
		<path d="M289.8,334.3c0-0.1,0-0.3,0.1-0.3c0.1-0.1,0.2-0.1,0.3-0.1c0.1,0,0.2,0,0.3,0.1s0.1,0.2,0.1,0.3c0,0.1,0,0.3-0.1,0.3
			c-0.1,0.1-0.2,0.1-0.3,0.1c-0.1,0-0.2,0-0.3-0.1C289.8,334.6,289.8,334.5,289.8,334.3z M290.5,339.8h-0.6v-4.3h0.6V339.8z"/>
		<path d="M293.6,339.8c-0.6,0-1.1-0.2-1.4-0.6c-0.3-0.4-0.5-0.9-0.5-1.6c0-0.7,0.2-1.3,0.5-1.7s0.8-0.6,1.5-0.6
			c0.2,0,0.4,0,0.6,0.1c0.2,0,0.4,0.1,0.5,0.2l-0.2,0.6c-0.1-0.1-0.3-0.1-0.5-0.1c-0.2,0-0.3-0.1-0.4-0.1c-0.9,0-1.3,0.6-1.3,1.7
			c0,0.5,0.1,0.9,0.3,1.2s0.5,0.4,0.9,0.4c0.4,0,0.7-0.1,1.1-0.2v0.6C294.4,339.8,294,339.8,293.6,339.8z"/>
		<path d="M298.3,339.8l-0.1-0.6h0c-0.2,0.3-0.4,0.4-0.6,0.5c-0.2,0.1-0.5,0.1-0.8,0.1c-0.4,0-0.8-0.1-1-0.3s-0.4-0.5-0.4-0.9
			c0-0.9,0.7-1.3,2.1-1.4l0.7,0v-0.3c0-0.3-0.1-0.6-0.2-0.7s-0.4-0.2-0.7-0.2c-0.4,0-0.8,0.1-1.2,0.3l-0.2-0.5
			c0.2-0.1,0.4-0.2,0.7-0.3c0.3-0.1,0.5-0.1,0.8-0.1c0.5,0,0.9,0.1,1.1,0.3s0.4,0.6,0.4,1.1v2.9H298.3z M296.9,339.3
			c0.4,0,0.7-0.1,1-0.3c0.2-0.2,0.3-0.5,0.3-0.9v-0.4l-0.6,0c-0.5,0-0.9,0.1-1.1,0.2c-0.2,0.1-0.3,0.4-0.3,0.7
			c0,0.2,0.1,0.4,0.2,0.5C296.4,339.2,296.6,339.3,296.9,339.3z"/>
		<path d="M302.9,338.6c0,0.4-0.1,0.7-0.4,0.9c-0.3,0.2-0.7,0.3-1.2,0.3c-0.6,0-1-0.1-1.3-0.3V339c0.2,0.1,0.4,0.2,0.7,0.2
			c0.2,0.1,0.5,0.1,0.7,0.1c0.3,0,0.6-0.1,0.8-0.2c0.2-0.1,0.3-0.3,0.3-0.5c0-0.2-0.1-0.3-0.2-0.4c-0.1-0.1-0.4-0.3-0.8-0.4
			c-0.4-0.1-0.7-0.3-0.8-0.4c-0.2-0.1-0.3-0.2-0.4-0.4s-0.1-0.3-0.1-0.5c0-0.3,0.1-0.6,0.4-0.8c0.3-0.2,0.7-0.3,1.2-0.3
			c0.5,0,0.9,0.1,1.4,0.3l-0.2,0.5c-0.4-0.2-0.8-0.3-1.2-0.3c-0.3,0-0.5,0-0.7,0.1c-0.2,0.1-0.2,0.2-0.2,0.4c0,0.1,0,0.2,0.1,0.3
			c0.1,0.1,0.2,0.2,0.3,0.2c0.1,0.1,0.4,0.2,0.8,0.3c0.5,0.2,0.9,0.4,1,0.6S302.9,338.3,302.9,338.6z"/>
		<path d="M304.6,338.8L304.6,338.8c0,0.3-0.1,0.7-0.2,1c-0.1,0.3-0.3,0.7-0.4,1h-0.5c0.1-0.3,0.1-0.6,0.2-1s0.1-0.7,0.2-1H304.6z"
			/>
		<path d="M311.5,339.8h-3.8v-0.6l1.5-1.5c0.5-0.5,0.8-0.8,0.9-1c0.1-0.2,0.3-0.4,0.3-0.6s0.1-0.4,0.1-0.6c0-0.3-0.1-0.5-0.3-0.7
			c-0.2-0.2-0.4-0.3-0.8-0.3c-0.2,0-0.5,0-0.7,0.1s-0.4,0.2-0.7,0.4l-0.3-0.4c0.5-0.4,1.1-0.7,1.7-0.7c0.5,0,1,0.1,1.3,0.4
			c0.3,0.3,0.5,0.6,0.5,1.1c0,0.4-0.1,0.7-0.3,1.1c-0.2,0.4-0.6,0.8-1.1,1.3l-1.2,1.2v0h2.9V339.8z"/>
		<path d="M316.1,336.9c0,1-0.2,1.7-0.5,2.2c-0.3,0.5-0.8,0.7-1.4,0.7c-0.6,0-1.1-0.2-1.4-0.7c-0.3-0.5-0.5-1.2-0.5-2.2
			c0-1,0.2-1.7,0.5-2.2c0.3-0.5,0.8-0.7,1.4-0.7c0.6,0,1.1,0.3,1.4,0.8C315.9,335.2,316.1,335.9,316.1,336.9z M312.9,336.9
			c0,0.8,0.1,1.4,0.3,1.8s0.5,0.6,0.9,0.6c0.4,0,0.7-0.2,0.9-0.6c0.2-0.4,0.3-1,0.3-1.8s-0.1-1.4-0.3-1.8c-0.2-0.4-0.5-0.6-0.9-0.6
			c-0.4,0-0.7,0.2-0.9,0.6C313,335.5,312.9,336.1,312.9,336.9z"/>
		<path d="M320.6,339.8h-3.8v-0.6l1.5-1.5c0.5-0.5,0.8-0.8,0.9-1c0.1-0.2,0.3-0.4,0.3-0.6s0.1-0.4,0.1-0.6c0-0.3-0.1-0.5-0.3-0.7
			c-0.2-0.2-0.4-0.3-0.8-0.3c-0.2,0-0.5,0-0.7,0.1s-0.4,0.2-0.7,0.4l-0.3-0.4c0.5-0.4,1.1-0.7,1.7-0.7c0.5,0,1,0.1,1.3,0.4
			c0.3,0.3,0.5,0.6,0.5,1.1c0,0.4-0.1,0.7-0.3,1.1c-0.2,0.4-0.6,0.8-1.1,1.3l-1.2,1.2v0h2.9V339.8z"/>
		<path d="M325.2,339.8h-3.8v-0.6l1.5-1.5c0.5-0.5,0.8-0.8,0.9-1c0.1-0.2,0.3-0.4,0.3-0.6s0.1-0.4,0.1-0.6c0-0.3-0.1-0.5-0.3-0.7
			c-0.2-0.2-0.4-0.3-0.8-0.3c-0.2,0-0.5,0-0.7,0.1s-0.4,0.2-0.7,0.4l-0.3-0.4c0.5-0.4,1.1-0.7,1.7-0.7c0.5,0,1,0.1,1.3,0.4
			c0.3,0.3,0.5,0.6,0.5,1.1c0,0.4-0.1,0.7-0.3,1.1c-0.2,0.4-0.6,0.8-1.1,1.3l-1.2,1.2v0h2.9V339.8z"/>
		<path d="M326.2,339.3c0-0.2,0-0.3,0.1-0.4s0.2-0.1,0.3-0.1c0.2,0,0.3,0,0.4,0.1s0.1,0.2,0.1,0.4c0,0.2,0,0.3-0.1,0.4
			c-0.1,0.1-0.2,0.1-0.4,0.1c-0.1,0-0.2,0-0.3-0.1S326.2,339.5,326.2,339.3z"/>
	</g>
	<g>
		<g>
			<path d="M15.6,239.7c-0.9,0-1.7-0.1-2.4-0.4s-1.4-0.6-2-1.1v-1c0.6,0.5,1.3,0.8,2.1,1c0.8,0.2,1.5,0.4,2.3,0.4
				c0.8,0,1.6-0.1,2.3-0.4c0.7-0.2,1.4-0.6,2-1v1c-0.6,0.5-1.2,0.8-1.9,1.1C17.2,239.6,16.4,239.7,15.6,239.7z"/>
			<path d="M13.3,231.3c0.7,0,1.3,0.2,1.7,0.7c0.4,0.5,0.6,1.2,0.6,2.1v0.7h2.7v1.2h-7.1V234c0-0.9,0.2-1.6,0.5-2
				C12.1,231.5,12.6,231.3,13.3,231.3z M14.7,234.9v-0.6c0-0.6-0.1-1-0.3-1.3c-0.2-0.3-0.5-0.4-1-0.4c-0.4,0-0.7,0.1-0.9,0.4
				c-0.2,0.3-0.3,0.6-0.3,1.2v0.8H14.7z"/>
			<path d="M15.6,225.2c0.9,0,1.6,0.2,2.1,0.7c0.5,0.5,0.7,1.1,0.7,1.9c0,0.5-0.1,1-0.3,1.3c-0.2,0.4-0.6,0.7-1,0.9
				c-0.4,0.2-0.9,0.3-1.5,0.3c-0.9,0-1.6-0.2-2.1-0.7c-0.5-0.4-0.7-1.1-0.7-1.9c0-0.8,0.3-1.4,0.8-1.9S14.7,225.2,15.6,225.2z
				 M15.6,229.1c1.2,0,1.9-0.5,1.9-1.4c0-0.9-0.6-1.4-1.9-1.4c-1.2,0-1.9,0.5-1.9,1.4c0,0.5,0.2,0.8,0.5,1
				C14.5,229,15,229.1,15.6,229.1z"/>
			<path d="M18.4,221.2c0,0.7-0.2,1.2-0.7,1.6v0.1c0.5,0,0.7-0.1,0.8-0.1h2.2v1.1h-7.8V223c0.1,0,0.3-0.1,0.7-0.2v-0.1
				c-0.5-0.4-0.8-0.9-0.8-1.6c0-0.7,0.2-1.2,0.7-1.6s1.2-0.6,2.1-0.6c0.9,0,1.6,0.2,2.1,0.6C18.2,220,18.4,220.5,18.4,221.2z
				 M13.8,221.4c0,0.5,0.1,0.8,0.4,1c0.3,0.2,0.7,0.3,1.3,0.3h0.2c0.7,0,1.1-0.1,1.4-0.3c0.3-0.2,0.4-0.5,0.4-1
				c0-0.4-0.2-0.7-0.5-0.9c-0.3-0.2-0.8-0.3-1.4-0.3c-0.6,0-1.1,0.1-1.4,0.3C13.9,220.7,13.8,221,13.8,221.4z"/>
			<path d="M18.3,213.9l-0.7,0.2v0.1c0.3,0.2,0.4,0.4,0.6,0.7c0.1,0.3,0.2,0.6,0.2,1c0,0.7-0.2,1.1-0.5,1.5
				c-0.3,0.3-0.8,0.5-1.5,0.5h-3.5v-1.2h3.3c0.4,0,0.7-0.1,0.9-0.3c0.2-0.2,0.3-0.4,0.3-0.8c0-0.5-0.1-0.8-0.4-1.1s-0.8-0.3-1.4-0.3
				h-2.7V213h5.4V213.9z"/>
			<path d="M18.3,210.2v1.1h-7.6v-1.1H18.3z"/>
			<path d="M18.3,205.2l-0.8,0.2v0c0.3,0.3,0.6,0.5,0.7,0.8c0.1,0.3,0.2,0.6,0.2,1c0,0.5-0.1,0.9-0.4,1.2c-0.3,0.3-0.7,0.4-1.2,0.4
				c-0.6,0-1-0.2-1.3-0.6s-0.4-1-0.5-1.9l0-0.9h-0.3c-0.3,0-0.6,0.1-0.8,0.2s-0.3,0.4-0.3,0.7c0,0.3,0,0.5,0.1,0.8
				c0.1,0.3,0.2,0.5,0.3,0.7l-0.8,0.4c-0.2-0.3-0.3-0.6-0.3-1c-0.1-0.3-0.1-0.7-0.1-1c0-0.7,0.2-1.2,0.4-1.6
				c0.3-0.4,0.8-0.5,1.4-0.5h3.6V205.2z M17.5,206.9c0-0.4-0.1-0.8-0.3-1c-0.2-0.3-0.6-0.4-1-0.4h-0.5l0,0.7c0,0.5,0.1,0.9,0.3,1.2
				c0.2,0.2,0.4,0.4,0.7,0.4c0.2,0,0.4-0.1,0.6-0.2S17.5,207.1,17.5,206.9z"/>
			<path d="M18.4,200.6c0,0.8-0.2,1.4-0.7,1.9c-0.5,0.4-1.2,0.6-2.1,0.6c-0.9,0-1.6-0.2-2.1-0.7s-0.7-1.1-0.7-1.9
				c0-0.6,0.1-1.1,0.3-1.5l0.9,0.3c-0.2,0.5-0.3,0.9-0.3,1.2c0,0.9,0.6,1.4,1.9,1.4c0.6,0,1.1-0.1,1.4-0.3c0.3-0.2,0.5-0.6,0.5-1
				c0-0.5-0.1-1-0.4-1.5h1c0.1,0.2,0.2,0.4,0.3,0.7C18.4,199.9,18.4,200.2,18.4,200.6z M19.6,199.7c0.7,0,1.1,0.5,1.1,1.5
				c0,0.2,0,0.4-0.1,0.6H20c0-0.2,0.1-0.4,0.1-0.6c0-0.2,0-0.3-0.1-0.4s-0.2-0.2-0.3-0.2c-0.3,0-0.5,0.3-0.5,0.9l-0.8-0.4v-0.7
				l0.4,0.2c0.1-0.3,0.2-0.5,0.3-0.6C19.2,199.8,19.4,199.7,19.6,199.7z"/>
			<path d="M18.3,194.4l-0.8,0.2v0c0.3,0.3,0.6,0.5,0.7,0.8c0.1,0.3,0.2,0.6,0.2,1c0,0.5-0.1,0.9-0.4,1.2c-0.3,0.3-0.7,0.4-1.2,0.4
				c-0.6,0-1-0.2-1.3-0.6s-0.4-1-0.5-1.9l0-0.9h-0.3c-0.3,0-0.6,0.1-0.8,0.2s-0.3,0.4-0.3,0.7c0,0.3,0,0.5,0.1,0.8
				c0.1,0.3,0.2,0.5,0.3,0.7l-0.8,0.4c-0.2-0.3-0.3-0.6-0.3-1c-0.1-0.3-0.1-0.7-0.1-1c0-0.7,0.2-1.2,0.4-1.6
				c0.3-0.4,0.8-0.5,1.4-0.5h3.6V194.4z M12.3,194.9c0,0.1,0,0.3-0.1,0.4c-0.1,0.1-0.1,0.3-0.2,0.4c-0.1,0.1-0.1,0.3-0.2,0.4
				c-0.1,0.1-0.1,0.2-0.1,0.3c0,0.3,0.2,0.4,0.6,0.5v0.6c-0.5,0-0.8-0.2-1-0.4c-0.2-0.2-0.4-0.5-0.4-0.8c0-0.1,0-0.3,0.1-0.4
				c0.1-0.1,0.1-0.3,0.2-0.4c0.1-0.1,0.1-0.2,0.2-0.4c0.1-0.1,0.1-0.2,0.1-0.3c0-0.3-0.2-0.4-0.6-0.5v-0.6c0.4,0,0.8,0.2,1,0.4
				C12.1,194.3,12.3,194.6,12.3,194.9z M17.5,196.1c0-0.4-0.1-0.8-0.3-1c-0.2-0.3-0.6-0.4-1-0.4h-0.5l0,0.7c0,0.5,0.1,0.9,0.3,1.2
				c0.2,0.2,0.4,0.4,0.7,0.4c0.2,0,0.4-0.1,0.6-0.2S17.5,196.4,17.5,196.1z"/>
			<path d="M15.6,187.2c0.9,0,1.6,0.2,2.1,0.7c0.5,0.5,0.7,1.1,0.7,1.9c0,0.5-0.1,1-0.3,1.3c-0.2,0.4-0.6,0.7-1,0.9
				c-0.4,0.2-0.9,0.3-1.5,0.3c-0.9,0-1.6-0.2-2.1-0.7c-0.5-0.4-0.7-1.1-0.7-1.9c0-0.8,0.3-1.4,0.8-1.9S14.7,187.2,15.6,187.2z
				 M15.6,191.1c1.2,0,1.9-0.5,1.9-1.4c0-0.9-0.6-1.4-1.9-1.4c-1.2,0-1.9,0.5-1.9,1.4c0,0.5,0.2,0.8,0.5,1
				C14.5,191,15,191.1,15.6,191.1z"/>
			<path d="M18.4,180.9c0,0.8-0.2,1.5-0.7,2c-0.5,0.5-1.2,0.7-2,0.7c-0.9,0-1.6-0.2-2.1-0.7c-0.5-0.4-0.8-1-0.8-1.8
				c0-0.7,0.2-1.3,0.6-1.7c0.4-0.4,1-0.6,1.8-0.6h0.6v3.6c0.5,0,0.9-0.2,1.2-0.4c0.3-0.3,0.4-0.6,0.4-1.1c0-0.3,0-0.6-0.1-0.9
				c-0.1-0.3-0.2-0.6-0.3-0.9H18c0.1,0.3,0.2,0.6,0.3,0.8C18.4,180.2,18.4,180.5,18.4,180.9z M13.7,181.1c0,0.4,0.1,0.7,0.3,0.9
				c0.2,0.2,0.6,0.4,1,0.4v-2.5c-0.4,0-0.8,0.1-1,0.3S13.7,180.8,13.7,181.1z"/>
			<path d="M18.3,173v1.2H15c-0.4,0-0.7,0.1-0.9,0.2c-0.2,0.2-0.3,0.4-0.3,0.7c0,0.4,0.1,0.8,0.4,1s0.8,0.3,1.4,0.3h2.7v1.1h-5.4
				v-0.9l0.7-0.2v-0.1c-0.3-0.1-0.5-0.4-0.6-0.7c-0.1-0.3-0.2-0.6-0.2-0.9c0-0.8,0.3-1.4,0.8-1.7v-0.1c-0.3-0.2-0.5-0.4-0.6-0.7
				c-0.1-0.3-0.2-0.6-0.2-1c0-0.6,0.2-1.1,0.5-1.4c0.3-0.3,0.8-0.4,1.5-0.4h3.5v1.1H15c-0.4,0-0.7,0.1-0.9,0.2
				c-0.2,0.2-0.3,0.4-0.3,0.7c0,0.4,0.1,0.8,0.4,1s0.7,0.3,1.3,0.3H18.3z"/>
			<path d="M18.3,160.8v1.2H15c-0.4,0-0.7,0.1-0.9,0.2c-0.2,0.2-0.3,0.4-0.3,0.7c0,0.4,0.1,0.8,0.4,1s0.8,0.3,1.4,0.3h2.7v1.1h-5.4
				v-0.9l0.7-0.2v-0.1c-0.3-0.1-0.5-0.4-0.6-0.7c-0.1-0.3-0.2-0.6-0.2-0.9c0-0.8,0.3-1.4,0.8-1.7v-0.1c-0.3-0.2-0.5-0.4-0.6-0.7
				c-0.1-0.3-0.2-0.6-0.2-1c0-0.6,0.2-1.1,0.5-1.4c0.3-0.3,0.8-0.4,1.5-0.4h3.5v1.1H15c-0.4,0-0.7,0.1-0.9,0.2
				c-0.2,0.2-0.3,0.4-0.3,0.7c0,0.4,0.1,0.8,0.4,1s0.7,0.3,1.3,0.3H18.3z"/>
			<path d="M11.5,155.9c-0.2,0-0.4-0.1-0.5-0.2c-0.1-0.1-0.2-0.3-0.2-0.5c0-0.2,0.1-0.4,0.2-0.5c0.1-0.1,0.3-0.2,0.5-0.2
				c0.2,0,0.3,0.1,0.5,0.2s0.2,0.3,0.2,0.5c0,0.2-0.1,0.4-0.2,0.5S11.7,155.9,11.5,155.9z M18.3,154.6v1.1h-5.4v-1.1H18.3z"/>
			<path d="M18.3,151.9v1.1h-7.6v-1.1H18.3z"/>
			<path d="M15.6,148.3c0.9,0,1.7,0.1,2.4,0.4c0.7,0.3,1.4,0.6,1.9,1.1v1c-0.6-0.4-1.3-0.8-2-1s-1.5-0.4-2.3-0.4
				c-0.8,0-1.6,0.1-2.3,0.4s-1.4,0.6-2.1,1v-1c0.6-0.5,1.2-0.8,2-1.1C13.9,148.4,14.7,148.3,15.6,148.3z"/>
		</g>
	</g>
	<g>
		<g>
			<path d="M416.3,260.2c0.7,0,1.3,0.1,1.7,0.4s0.6,0.7,0.6,1.2c0,0.5-0.2,0.9-0.6,1.2c-0.4,0.3-0.9,0.4-1.7,0.4
				c-1.5,0-2.2-0.5-2.2-1.6c0-0.5,0.2-0.9,0.6-1.2C415,260.4,415.6,260.2,416.3,260.2z M416.3,262.4c0.5,0,0.8,0,1.1-0.1
				c0.2-0.1,0.4-0.2,0.4-0.5c0-0.4-0.5-0.6-1.4-0.6c-1,0-1.4,0.2-1.4,0.6c0,0.2,0.1,0.4,0.4,0.5
				C415.4,262.4,415.8,262.4,416.3,262.4z M414.2,257l7.1,4v0.9l-7.1-4V257z M419.1,255.6c0.7,0,1.3,0.1,1.7,0.4
				c0.4,0.3,0.6,0.7,0.6,1.2c0,0.5-0.2,0.9-0.6,1.2s-0.9,0.4-1.7,0.4c-1.5,0-2.2-0.5-2.2-1.6c0-0.5,0.2-0.9,0.6-1.2
				C417.9,255.7,418.4,255.6,419.1,255.6z M419.1,257.8c0.5,0,0.8,0,1.1-0.1c0.2-0.1,0.4-0.3,0.4-0.5c0-0.4-0.5-0.6-1.5-0.6
				c-1,0-1.4,0.2-1.4,0.6c0,0.2,0.1,0.4,0.4,0.5C418.3,257.7,418.7,257.8,419.1,257.8z"/>
			<path d="M421.4,249.9c0,0.7-0.2,1.2-0.7,1.6c-0.5,0.4-1.2,0.6-2.1,0.6c-0.9,0-1.6-0.2-2.1-0.6c-0.5-0.4-0.7-0.9-0.7-1.6
				c0-0.7,0.3-1.2,0.8-1.6v-0.1c-0.4,0.1-0.7,0.1-0.9,0.1h-2v-1.2h7.6v0.9l-0.7,0.2v0.1C421.1,248.7,421.4,249.2,421.4,249.9z
				 M420.5,249.6c0-0.5-0.1-0.8-0.4-1c-0.3-0.2-0.7-0.3-1.3-0.3h-0.2c-0.7,0-1.2,0.1-1.5,0.3c-0.3,0.2-0.4,0.6-0.4,1
				c0,0.4,0.2,0.7,0.5,0.9c0.3,0.2,0.8,0.3,1.4,0.3c0.6,0,1.1-0.1,1.4-0.3C420.3,250.4,420.5,250.1,420.5,249.6z"/>
			<path d="M421.3,242.2l-0.8,0.2v0c0.3,0.3,0.6,0.5,0.7,0.8c0.1,0.3,0.2,0.6,0.2,1c0,0.5-0.1,0.9-0.4,1.2c-0.3,0.3-0.7,0.4-1.2,0.4
				c-0.6,0-1-0.2-1.3-0.6c-0.3-0.4-0.4-1-0.5-1.9l0-0.9h-0.3c-0.3,0-0.6,0.1-0.8,0.2s-0.3,0.4-0.3,0.7c0,0.3,0,0.5,0.1,0.8
				c0.1,0.3,0.2,0.5,0.3,0.7l-0.8,0.4c-0.2-0.3-0.3-0.6-0.3-1c-0.1-0.3-0.1-0.7-0.1-1c0-0.7,0.2-1.2,0.4-1.6
				c0.3-0.4,0.8-0.5,1.4-0.5h3.6V242.2z M420.5,243.9c0-0.4-0.1-0.8-0.3-1c-0.2-0.3-0.6-0.4-1-0.4h-0.5l0,0.7c0,0.5,0.1,0.9,0.3,1.2
				c0.2,0.2,0.4,0.4,0.7,0.4c0.2,0,0.4-0.1,0.6-0.2C420.4,244.4,420.5,244.1,420.5,243.9z"/>
			<path d="M421.4,234.4c0,0.7-0.2,1.2-0.7,1.6v0.1c0.5,0,0.7-0.1,0.8-0.1h2.2v1.1h-7.8v-0.9c0.1,0,0.3-0.1,0.7-0.2V236
				c-0.5-0.4-0.8-0.9-0.8-1.6c0-0.7,0.2-1.2,0.7-1.6s1.2-0.6,2.1-0.6c0.9,0,1.6,0.2,2.1,0.6C421.1,233.2,421.4,233.7,421.4,234.4z
				 M416.7,234.7c0,0.5,0.1,0.8,0.4,1c0.3,0.2,0.7,0.3,1.3,0.3h0.2c0.7,0,1.1-0.1,1.4-0.3c0.3-0.2,0.4-0.5,0.4-1
				c0-0.4-0.2-0.7-0.5-0.9c-0.3-0.2-0.8-0.3-1.4-0.3c-0.6,0-1.1,0.1-1.4,0.3C416.9,233.9,416.7,234.3,416.7,234.7z"/>
			<path d="M418.6,226.1c0.9,0,1.6,0.2,2.1,0.7c0.5,0.5,0.7,1.1,0.7,1.9c0,0.5-0.1,1-0.3,1.3c-0.2,0.4-0.6,0.7-1,0.9
				c-0.4,0.2-0.9,0.3-1.5,0.3c-0.9,0-1.6-0.2-2.1-0.7c-0.5-0.4-0.7-1.1-0.7-1.9c0-0.8,0.3-1.4,0.8-1.9
				C417.1,226.3,417.7,226.1,418.6,226.1z M418.6,230c1.2,0,1.9-0.5,1.9-1.4c0-0.9-0.6-1.4-1.9-1.4c-1.2,0-1.9,0.5-1.9,1.4
				c0,0.5,0.2,0.8,0.5,1C417.5,229.9,418,230,418.6,230z"/>
			<path d="M421.4,222.1c0,0.7-0.2,1.2-0.7,1.6v0.1c0.5,0,0.7-0.1,0.8-0.1h2.2v1.1h-7.8v-0.9c0.1,0,0.3-0.1,0.7-0.2v-0.1
				c-0.5-0.4-0.8-0.9-0.8-1.6c0-0.7,0.2-1.2,0.7-1.6s1.2-0.6,2.1-0.6c0.9,0,1.6,0.2,2.1,0.6C421.1,220.9,421.4,221.4,421.4,222.1z
				 M416.7,222.3c0,0.5,0.1,0.8,0.4,1c0.3,0.2,0.7,0.3,1.3,0.3h0.2c0.7,0,1.1-0.1,1.4-0.3c0.3-0.2,0.4-0.5,0.4-1
				c0-0.4-0.2-0.7-0.5-0.9c-0.3-0.2-0.8-0.3-1.4-0.3c-0.6,0-1.1,0.1-1.4,0.3C416.9,221.6,416.7,221.9,416.7,222.3z"/>
			<path d="M421.3,214.8l-0.7,0.2v0.1c0.3,0.2,0.4,0.4,0.6,0.7c0.1,0.3,0.2,0.6,0.2,1c0,0.7-0.2,1.1-0.5,1.5
				c-0.3,0.3-0.8,0.5-1.5,0.5h-3.5v-1.2h3.3c0.4,0,0.7-0.1,0.9-0.3c0.2-0.2,0.3-0.4,0.3-0.8c0-0.5-0.1-0.8-0.4-1.1
				c-0.3-0.2-0.8-0.3-1.4-0.3h-2.7v-1.2h5.4V214.8z"/>
			<path d="M421.3,211.1v1.1h-7.6v-1.1H421.3z"/>
			<path d="M421.3,206l-0.8,0.2v0c0.3,0.3,0.6,0.5,0.7,0.8c0.1,0.3,0.2,0.6,0.2,1c0,0.5-0.1,0.9-0.4,1.2c-0.3,0.3-0.7,0.4-1.2,0.4
				c-0.6,0-1-0.2-1.3-0.6c-0.3-0.4-0.4-1-0.5-1.9l0-0.9h-0.3c-0.3,0-0.6,0.1-0.8,0.2s-0.3,0.4-0.3,0.7c0,0.3,0,0.5,0.1,0.8
				c0.1,0.3,0.2,0.5,0.3,0.7l-0.8,0.4c-0.2-0.3-0.3-0.6-0.3-1c-0.1-0.3-0.1-0.7-0.1-1c0-0.7,0.2-1.2,0.4-1.6
				c0.3-0.4,0.8-0.5,1.4-0.5h3.6V206z M420.5,207.8c0-0.4-0.1-0.8-0.3-1c-0.2-0.3-0.6-0.4-1-0.4h-0.5l0,0.7c0,0.5,0.1,0.9,0.3,1.2
				c0.2,0.2,0.4,0.4,0.7,0.4c0.2,0,0.4-0.1,0.6-0.2C420.4,208.3,420.5,208,420.5,207.8z"/>
			<path d="M421.4,201.4c0,0.8-0.2,1.4-0.7,1.9c-0.5,0.4-1.2,0.6-2.1,0.6c-0.9,0-1.6-0.2-2.1-0.7s-0.7-1.1-0.7-1.9
				c0-0.6,0.1-1.1,0.3-1.5l0.9,0.3c-0.2,0.5-0.3,0.9-0.3,1.2c0,0.9,0.6,1.4,1.9,1.4c0.6,0,1.1-0.1,1.4-0.3c0.3-0.2,0.5-0.6,0.5-1
				c0-0.5-0.1-1-0.4-1.5h1c0.1,0.2,0.2,0.4,0.3,0.7C421.4,200.8,421.4,201.1,421.4,201.4z M422.6,200.6c0.7,0,1.1,0.5,1.1,1.5
				c0,0.2,0,0.4-0.1,0.6H423c0-0.2,0.1-0.4,0.1-0.6c0-0.2,0-0.3-0.1-0.4s-0.2-0.2-0.3-0.2c-0.3,0-0.5,0.3-0.5,0.9l-0.8-0.4v-0.7
				l0.4,0.2c0.1-0.3,0.2-0.5,0.3-0.6C422.2,200.7,422.4,200.6,422.6,200.6z"/>
			<path d="M421.3,195.3l-0.8,0.2v0c0.3,0.3,0.6,0.5,0.7,0.8c0.1,0.3,0.2,0.6,0.2,1c0,0.5-0.1,0.9-0.4,1.2c-0.3,0.3-0.7,0.4-1.2,0.4
				c-0.6,0-1-0.2-1.3-0.6c-0.3-0.4-0.4-1-0.5-1.9l0-0.9h-0.3c-0.3,0-0.6,0.1-0.8,0.2s-0.3,0.4-0.3,0.7c0,0.3,0,0.5,0.1,0.8
				c0.1,0.3,0.2,0.5,0.3,0.7l-0.8,0.4c-0.2-0.3-0.3-0.6-0.3-1c-0.1-0.3-0.1-0.7-0.1-1c0-0.7,0.2-1.2,0.4-1.6
				c0.3-0.4,0.8-0.5,1.4-0.5h3.6V195.3z M415.2,195.8c0,0.1,0,0.3-0.1,0.4c-0.1,0.1-0.1,0.3-0.2,0.4c-0.1,0.1-0.1,0.3-0.2,0.4
				c-0.1,0.1-0.1,0.2-0.1,0.3c0,0.3,0.2,0.4,0.6,0.5v0.6c-0.5,0-0.8-0.2-1-0.4c-0.2-0.2-0.4-0.5-0.4-0.8c0-0.1,0-0.3,0.1-0.4
				c0.1-0.1,0.1-0.3,0.2-0.4c0.1-0.1,0.1-0.2,0.2-0.4c0.1-0.1,0.1-0.2,0.1-0.3c0-0.3-0.2-0.4-0.6-0.5v-0.6c0.4,0,0.8,0.2,1,0.4
				C415.1,195.2,415.2,195.5,415.2,195.8z M420.5,197c0-0.4-0.1-0.8-0.3-1c-0.2-0.3-0.6-0.4-1-0.4h-0.5l0,0.7c0,0.5,0.1,0.9,0.3,1.2
				c0.2,0.2,0.4,0.4,0.7,0.4c0.2,0,0.4-0.1,0.6-0.2C420.4,197.5,420.5,197.3,420.5,197z"/>
			<path d="M418.6,188.1c0.9,0,1.6,0.2,2.1,0.7c0.5,0.5,0.7,1.1,0.7,1.9c0,0.5-0.1,1-0.3,1.3c-0.2,0.4-0.6,0.7-1,0.9
				c-0.4,0.2-0.9,0.3-1.5,0.3c-0.9,0-1.6-0.2-2.1-0.7c-0.5-0.4-0.7-1.1-0.7-1.9c0-0.8,0.3-1.4,0.8-1.9
				C417.1,188.3,417.7,188.1,418.6,188.1z M418.6,192c1.2,0,1.9-0.5,1.9-1.4c0-0.9-0.6-1.4-1.9-1.4c-1.2,0-1.9,0.5-1.9,1.4
				c0,0.5,0.2,0.8,0.5,1C417.5,191.9,418,192,418.6,192z"/>
			<path d="M421.3,180.4l-0.7,0.2v0.1c0.3,0.2,0.4,0.4,0.6,0.7c0.1,0.3,0.2,0.6,0.2,1c0,0.7-0.2,1.1-0.5,1.5
				c-0.3,0.3-0.8,0.5-1.5,0.5h-3.5v-1.2h3.3c0.4,0,0.7-0.1,0.9-0.3c0.2-0.2,0.3-0.4,0.3-0.8c0-0.5-0.1-0.8-0.4-1.1
				c-0.3-0.2-0.8-0.3-1.4-0.3h-2.7v-1.2h5.4V180.4z"/>
			<path d="M415.8,175.1c0-0.2,0-0.4,0-0.6l1.1,0.1c0,0.2-0.1,0.3-0.1,0.5c0,0.5,0.2,0.8,0.4,1.1c0.3,0.3,0.7,0.4,1.2,0.4h2.8v1.1
				h-5.4v-0.9l1-0.2v-0.1c-0.3-0.2-0.6-0.4-0.8-0.7C415.9,175.7,415.8,175.4,415.8,175.1z"/>
			<path d="M415.8,170.8c0-0.7,0.2-1.2,0.7-1.6s1.2-0.6,2.1-0.6c0.9,0,1.6,0.2,2.1,0.6s0.7,0.9,0.7,1.6c0,0.7-0.2,1.2-0.7,1.6v0.1
				l0.6,0.2v0.9h-7.6v-1.1h1.8c0.1,0,0.3,0,0.6,0c0.3,0,0.4,0,0.5,0v0C416.1,172,415.8,171.5,415.8,170.8z M416.7,171
				c0,0.5,0.1,0.8,0.4,1c0.3,0.2,0.7,0.3,1.4,0.3h0.1c0.7,0,1.1-0.1,1.4-0.3c0.3-0.2,0.4-0.5,0.4-1c0-0.4-0.2-0.7-0.5-0.9
				s-0.8-0.3-1.4-0.3C417.3,169.8,416.7,170.2,416.7,171z"/>
			<path d="M421.3,163.9l-0.8,0.2v0c0.3,0.3,0.6,0.5,0.7,0.8c0.1,0.3,0.2,0.6,0.2,1c0,0.5-0.1,0.9-0.4,1.2c-0.3,0.3-0.7,0.4-1.2,0.4
				c-0.6,0-1-0.2-1.3-0.6c-0.3-0.4-0.4-1-0.5-1.9l0-0.9h-0.3c-0.3,0-0.6,0.1-0.8,0.2s-0.3,0.4-0.3,0.7c0,0.3,0,0.5,0.1,0.8
				c0.1,0.3,0.2,0.5,0.3,0.7l-0.8,0.4c-0.2-0.3-0.3-0.6-0.3-1c-0.1-0.3-0.1-0.7-0.1-1c0-0.7,0.2-1.2,0.4-1.6
				c0.3-0.4,0.8-0.5,1.4-0.5h3.6V163.9z M420.5,165.6c0-0.4-0.1-0.8-0.3-1c-0.2-0.3-0.6-0.4-1-0.4h-0.5l0,0.7c0,0.5,0.1,0.9,0.3,1.2
				c0.2,0.2,0.4,0.4,0.7,0.4c0.2,0,0.4-0.1,0.6-0.2C420.4,166.1,420.5,165.9,420.5,165.6z"/>
			<path d="M421.3,156.7v1.2H418c-0.4,0-0.7,0.1-0.9,0.3c-0.2,0.2-0.3,0.4-0.3,0.8c0,0.5,0.1,0.8,0.4,1.1c0.3,0.2,0.8,0.3,1.4,0.3
				h2.7v1.1h-5.4v-0.9l0.7-0.2v-0.1c-0.3-0.2-0.5-0.4-0.6-0.7c-0.1-0.3-0.2-0.6-0.2-1c0-1.3,0.7-1.9,2-1.9H421.3z"/>
			<path d="M421.3,151.8l-0.8,0.2v0c0.3,0.3,0.6,0.5,0.7,0.8c0.1,0.3,0.2,0.6,0.2,1c0,0.5-0.1,0.9-0.4,1.2c-0.3,0.3-0.7,0.4-1.2,0.4
				c-0.6,0-1-0.2-1.3-0.6c-0.3-0.4-0.4-1-0.5-1.9l0-0.9h-0.3c-0.3,0-0.6,0.1-0.8,0.2s-0.3,0.4-0.3,0.7c0,0.3,0,0.5,0.1,0.8
				c0.1,0.3,0.2,0.5,0.3,0.7l-0.8,0.4c-0.2-0.3-0.3-0.6-0.3-1c-0.1-0.3-0.1-0.7-0.1-1c0-0.7,0.2-1.2,0.4-1.6
				c0.3-0.4,0.8-0.5,1.4-0.5h3.6V151.8z M420.5,153.5c0-0.4-0.1-0.8-0.3-1c-0.2-0.3-0.6-0.4-1-0.4h-0.5l0,0.7c0,0.5,0.1,0.9,0.3,1.2
				c0.2,0.2,0.4,0.4,0.7,0.4c0.2,0,0.4-0.1,0.6-0.2C420.4,154,420.5,153.7,420.5,153.5z"/>
			<path d="M415.8,144c0-0.2,0-0.4,0-0.6l1.1,0.1c0,0.2-0.1,0.3-0.1,0.5c0,0.5,0.2,0.8,0.4,1.1c0.3,0.3,0.7,0.4,1.2,0.4h2.8v1.1
				h-5.4v-0.9l1-0.2v-0.1c-0.3-0.2-0.6-0.4-0.8-0.7C415.9,144.6,415.8,144.3,415.8,144z"/>
			<path d="M421.3,138.6l-0.7,0.2v0.1c0.3,0.2,0.4,0.4,0.6,0.7c0.1,0.3,0.2,0.6,0.2,1c0,0.7-0.2,1.1-0.5,1.5
				c-0.3,0.3-0.8,0.5-1.5,0.5h-3.5v-1.2h3.3c0.4,0,0.7-0.1,0.9-0.3c0.2-0.2,0.3-0.4,0.3-0.8c0-0.5-0.1-0.8-0.4-1.1
				c-0.3-0.2-0.8-0.3-1.4-0.3h-2.7v-1.2h5.4V138.6z"/>
			<path d="M415.8,133.3c0-0.2,0-0.4,0-0.6l1.1,0.1c0,0.2-0.1,0.3-0.1,0.5c0,0.5,0.2,0.8,0.4,1.1c0.3,0.3,0.7,0.4,1.2,0.4h2.8v1.1
				h-5.4v-0.9l1-0.2V135c-0.3-0.2-0.6-0.4-0.8-0.7C415.9,134,415.8,133.7,415.8,133.3z"/>
			<path d="M421.3,128.4l-0.8,0.2v0c0.3,0.3,0.6,0.5,0.7,0.8c0.1,0.3,0.2,0.6,0.2,1c0,0.5-0.1,0.9-0.4,1.2c-0.3,0.3-0.7,0.4-1.2,0.4
				c-0.6,0-1-0.2-1.3-0.6c-0.3-0.4-0.4-1-0.5-1.9l0-0.9h-0.3c-0.3,0-0.6,0.1-0.8,0.2s-0.3,0.4-0.3,0.7c0,0.3,0,0.5,0.1,0.8
				c0.1,0.3,0.2,0.5,0.3,0.7l-0.8,0.4c-0.2-0.3-0.3-0.6-0.3-1c-0.1-0.3-0.1-0.7-0.1-1c0-0.7,0.2-1.2,0.4-1.6
				c0.3-0.4,0.8-0.5,1.4-0.5h3.6V128.4z M420.5,130.1c0-0.4-0.1-0.8-0.3-1c-0.2-0.3-0.6-0.4-1-0.4h-0.5l0,0.7c0,0.5,0.1,0.9,0.3,1.2
				c0.2,0.2,0.4,0.4,0.7,0.4c0.2,0,0.4-0.1,0.6-0.2C420.4,130.6,420.5,130.4,420.5,130.1z"/>
			<path d="M421.3,124.8v1.1h-7.6v-1.1H421.3z"/>
		</g>
	</g>
	<g>
		<path d="M36,110.1h-4.7v-0.7l1.9-1.9c0.6-0.6,1-1,1.1-1.2s0.3-0.5,0.4-0.7s0.1-0.5,0.1-0.8c0-0.4-0.1-0.7-0.3-0.9s-0.6-0.3-1-0.3
			c-0.3,0-0.6,0-0.8,0.1s-0.6,0.3-0.9,0.5l-0.4-0.6c0.7-0.5,1.4-0.8,2.1-0.8c0.7,0,1.2,0.2,1.6,0.5s0.6,0.8,0.6,1.4
			c0,0.5-0.1,0.9-0.4,1.3s-0.7,1-1.4,1.7l-1.6,1.5v0H36V110.1z"/>
		<path d="M41.8,106.6c0,1.2-0.2,2.2-0.6,2.8s-1,0.9-1.8,0.9c-0.8,0-1.4-0.3-1.8-0.9s-0.6-1.5-0.6-2.7c0-1.2,0.2-2.2,0.6-2.8
			s1-0.9,1.8-0.9c0.8,0,1.4,0.3,1.8,0.9S41.8,105.4,41.8,106.6z M37.9,106.6c0,1,0.1,1.8,0.4,2.3s0.6,0.7,1.2,0.7
			c0.5,0,0.9-0.2,1.2-0.7s0.4-1.2,0.4-2.3s-0.1-1.8-0.4-2.3s-0.6-0.7-1.2-0.7c-0.5,0-0.9,0.2-1.2,0.7S37.9,105.5,37.9,106.6z"/>
		<path d="M47.5,106.6c0,1.2-0.2,2.2-0.6,2.8s-1,0.9-1.8,0.9c-0.8,0-1.4-0.3-1.8-0.9s-0.6-1.5-0.6-2.7c0-1.2,0.2-2.2,0.6-2.8
			s1-0.9,1.8-0.9c0.8,0,1.4,0.3,1.8,0.9S47.5,105.4,47.5,106.6z M43.6,106.6c0,1,0.1,1.8,0.4,2.3s0.6,0.7,1.2,0.7
			c0.5,0,0.9-0.2,1.2-0.7s0.4-1.2,0.4-2.3s-0.1-1.8-0.4-2.3s-0.6-0.7-1.2-0.7c-0.5,0-0.9,0.2-1.2,0.7S43.6,105.5,43.6,106.6z"/>
		<path d="M48.8,109.6c0-0.2,0-0.4,0.1-0.5s0.2-0.2,0.4-0.2c0.2,0,0.3,0.1,0.4,0.2s0.2,0.3,0.2,0.5c0,0.2-0.1,0.4-0.2,0.5
			s-0.3,0.2-0.4,0.2c-0.2,0-0.3-0.1-0.4-0.2S48.8,109.9,48.8,109.6z"/>
		<path d="M55.9,106.6c0,1.2-0.2,2.2-0.6,2.8s-1,0.9-1.8,0.9c-0.8,0-1.4-0.3-1.8-0.9s-0.6-1.5-0.6-2.7c0-1.2,0.2-2.2,0.6-2.8
			s1-0.9,1.8-0.9c0.8,0,1.4,0.3,1.8,0.9S55.9,105.4,55.9,106.6z M52,106.6c0,1,0.1,1.8,0.4,2.3s0.6,0.7,1.2,0.7
			c0.5,0,0.9-0.2,1.2-0.7s0.4-1.2,0.4-2.3s-0.1-1.8-0.4-2.3s-0.6-0.7-1.2-0.7c-0.5,0-0.9,0.2-1.2,0.7S52,105.5,52,106.6z"/>
		<path d="M61.6,106.6c0,1.2-0.2,2.2-0.6,2.8s-1,0.9-1.8,0.9c-0.8,0-1.4-0.3-1.8-0.9s-0.6-1.5-0.6-2.7c0-1.2,0.2-2.2,0.6-2.8
			s1-0.9,1.8-0.9c0.8,0,1.4,0.3,1.8,0.9S61.6,105.4,61.6,106.6z M57.7,106.6c0,1,0.1,1.8,0.4,2.3s0.6,0.7,1.2,0.7
			c0.5,0,0.9-0.2,1.2-0.7s0.4-1.2,0.4-2.3s-0.1-1.8-0.4-2.3s-0.6-0.7-1.2-0.7c-0.5,0-0.9,0.2-1.2,0.7S57.7,105.5,57.7,106.6z"/>
		<path d="M67.3,106.6c0,1.2-0.2,2.2-0.6,2.8s-1,0.9-1.8,0.9c-0.8,0-1.4-0.3-1.8-0.9s-0.6-1.5-0.6-2.7c0-1.2,0.2-2.2,0.6-2.8
			s1-0.9,1.8-0.9c0.8,0,1.4,0.3,1.8,0.9S67.3,105.4,67.3,106.6z M63.4,106.6c0,1,0.1,1.8,0.4,2.3s0.6,0.7,1.2,0.7
			c0.5,0,0.9-0.2,1.2-0.7s0.4-1.2,0.4-2.3s-0.1-1.8-0.4-2.3s-0.6-0.7-1.2-0.7c-0.5,0-0.9,0.2-1.2,0.7S63.4,105.5,63.4,106.6z"/>
	</g>
	<g>
		<path d="M88.8,288.2H88v-5.1c0-0.4,0-0.8,0-1.2c-0.1,0.1-0.1,0.1-0.2,0.2c-0.1,0.1-0.5,0.4-1.2,1l-0.4-0.6l1.9-1.5h0.7V288.2z"/>
		<path d="M96.2,284.1c0,2.8-1.1,4.2-3.2,4.2c-0.4,0-0.7,0-0.9-0.1v-0.7c0.3,0.1,0.6,0.1,0.9,0.1c0.8,0,1.4-0.2,1.8-0.7
			s0.6-1.2,0.7-2.2h-0.1c-0.2,0.3-0.4,0.5-0.7,0.6s-0.6,0.2-1,0.2c-0.6,0-1.1-0.2-1.5-0.6c-0.4-0.4-0.6-0.9-0.6-1.6
			c0-0.7,0.2-1.3,0.6-1.8s1-0.6,1.6-0.6c0.5,0,0.9,0.1,1.3,0.4s0.6,0.6,0.8,1.1C96.1,282.9,96.2,283.5,96.2,284.1z M93.8,281.7
			c-0.5,0-0.8,0.1-1.1,0.4c-0.3,0.3-0.4,0.7-0.4,1.2c0,0.5,0.1,0.8,0.4,1.1s0.6,0.4,1.1,0.4c0.3,0,0.6-0.1,0.8-0.2
			c0.2-0.1,0.4-0.3,0.6-0.5c0.1-0.2,0.2-0.4,0.2-0.7c0-0.3-0.1-0.7-0.2-0.9c-0.1-0.3-0.3-0.5-0.6-0.7S94.1,281.7,93.8,281.7z"/>
		<path d="M99.5,283.9c0.8,0,1.3,0.2,1.8,0.6c0.4,0.4,0.6,0.9,0.6,1.5c0,0.7-0.2,1.3-0.7,1.7s-1.1,0.6-1.9,0.6
			c-0.8,0-1.4-0.1-1.8-0.4v-0.8c0.2,0.1,0.5,0.3,0.8,0.3s0.7,0.1,1,0.1c0.6,0,1-0.1,1.3-0.4c0.3-0.3,0.5-0.7,0.5-1.2
			c0-1-0.6-1.5-1.8-1.5c-0.3,0-0.7,0-1.2,0.1l-0.4-0.3l0.3-3.3h3.5v0.7h-2.9l-0.2,2.1C98.7,283.9,99.1,283.9,99.5,283.9z"/>
		<path d="M107.7,284.6c0,1.2-0.2,2.2-0.6,2.8c-0.4,0.6-1,0.9-1.8,0.9c-0.8,0-1.4-0.3-1.8-0.9c-0.4-0.6-0.6-1.5-0.6-2.7
			c0-1.2,0.2-2.2,0.6-2.8c0.4-0.6,1-0.9,1.8-0.9c0.8,0,1.4,0.3,1.8,0.9C107.5,282.5,107.7,283.4,107.7,284.6z M103.8,284.6
			c0,1,0.1,1.8,0.4,2.3s0.6,0.7,1.2,0.7c0.5,0,0.9-0.2,1.2-0.7c0.2-0.5,0.4-1.2,0.4-2.3s-0.1-1.8-0.4-2.3c-0.2-0.5-0.6-0.7-1.2-0.7
			c-0.5,0-0.9,0.2-1.2,0.7C103.9,282.8,103.8,283.6,103.8,284.6z"/>
	</g>
	<g>
		<path d="M99.8,311.1H99v-6.4h-2.3V304h5.4v0.7h-2.3V311.1z"/>
		<path d="M107.7,308.4c0,0.9-0.2,1.6-0.7,2c-0.4,0.5-1,0.7-1.8,0.7c-0.5,0-0.9-0.1-1.3-0.3s-0.7-0.5-0.9-1s-0.3-0.9-0.3-1.5
			c0-0.9,0.2-1.6,0.7-2c0.4-0.5,1-0.7,1.8-0.7c0.7,0,1.3,0.2,1.8,0.7S107.7,307.6,107.7,308.4z M103.6,308.4c0,0.7,0.1,1.2,0.4,1.6
			c0.3,0.4,0.7,0.5,1.2,0.5s0.9-0.2,1.2-0.5s0.4-0.9,0.4-1.6c0-0.7-0.1-1.2-0.4-1.6c-0.3-0.4-0.7-0.5-1.2-0.5
			c-0.5,0-0.9,0.2-1.2,0.5C103.7,307.2,103.6,307.7,103.6,308.4z"/>
		<path d="M110.8,310.5c0.1,0,0.3,0,0.4,0c0.1,0,0.2,0,0.3-0.1v0.6c-0.1,0-0.2,0.1-0.4,0.1c-0.2,0-0.3,0-0.5,0c-1,0-1.6-0.5-1.6-1.6
			v-3.2h-0.8V306l0.8-0.3l0.3-1.1h0.5v1.2h1.6v0.6H110v3.1c0,0.3,0.1,0.6,0.2,0.7C110.3,310.4,110.6,310.5,110.8,310.5z"/>
		<path d="M115.9,311.1l-0.2-0.8h0c-0.3,0.3-0.5,0.6-0.8,0.7c-0.3,0.1-0.6,0.2-1,0.2c-0.5,0-0.9-0.1-1.2-0.4s-0.5-0.7-0.5-1.2
			c0-1.1,0.9-1.6,2.6-1.7l0.9,0v-0.3c0-0.4-0.1-0.7-0.3-0.9s-0.5-0.3-0.9-0.3c-0.4,0-1,0.1-1.5,0.4l-0.2-0.6
			c0.3-0.1,0.6-0.3,0.9-0.3c0.3-0.1,0.6-0.1,0.9-0.1c0.6,0,1.1,0.1,1.4,0.4s0.5,0.7,0.5,1.4v3.7H115.9z M114.1,310.5
			c0.5,0,0.9-0.1,1.2-0.4c0.3-0.3,0.4-0.7,0.4-1.2v-0.5l-0.8,0c-0.6,0-1.1,0.1-1.4,0.3c-0.3,0.2-0.4,0.5-0.4,0.8
			c0,0.3,0.1,0.5,0.3,0.7C113.5,310.5,113.8,310.5,114.1,310.5z"/>
		<path d="M119,311.1h-0.8v-7.6h0.8V311.1z"/>
	</g>
	<g>
		<path d="M158.1,304v4.6c0,0.8-0.2,1.5-0.7,1.9c-0.5,0.5-1.2,0.7-2,0.7s-1.5-0.2-2-0.7s-0.7-1.1-0.7-1.9V304h0.8v4.7
			c0,0.6,0.2,1.1,0.5,1.4c0.3,0.3,0.8,0.5,1.4,0.5c0.6,0,1.1-0.2,1.4-0.5c0.3-0.3,0.5-0.8,0.5-1.4V304H158.1z"/>
		<path d="M162.3,305.7c0.2,0,0.5,0,0.6,0.1l-0.1,0.8c-0.2,0-0.4-0.1-0.6-0.1c-0.4,0-0.8,0.2-1.1,0.5s-0.5,0.8-0.5,1.3v2.9h-0.8
			v-5.4h0.7l0.1,1h0c0.2-0.3,0.4-0.6,0.7-0.8C161.6,305.7,161.9,305.7,162.3,305.7z"/>
		<path d="M166.4,305.7c0.7,0,1.2,0.2,1.6,0.7c0.4,0.5,0.6,1.2,0.6,2s-0.2,1.6-0.6,2c-0.4,0.5-0.9,0.7-1.6,0.7c-0.3,0-0.7-0.1-1-0.2
			c-0.3-0.1-0.5-0.3-0.7-0.6h-0.1l-0.2,0.7h-0.6v-7.6h0.8v1.8c0,0.4,0,0.8,0,1.1h0C165.1,305.9,165.7,305.7,166.4,305.7z
			 M166.3,306.3c-0.6,0-1,0.2-1.2,0.5s-0.4,0.9-0.4,1.6s0.1,1.3,0.4,1.6c0.3,0.3,0.7,0.5,1.2,0.5c0.5,0,0.9-0.2,1.1-0.5
			c0.2-0.4,0.4-0.9,0.4-1.6c0-0.7-0.1-1.2-0.4-1.6S166.8,306.3,166.3,306.3z"/>
		<path d="M173.3,311.1l-0.2-0.8h0c-0.3,0.3-0.5,0.6-0.8,0.7c-0.3,0.1-0.6,0.2-1,0.2c-0.5,0-0.9-0.1-1.2-0.4s-0.5-0.7-0.5-1.2
			c0-1.1,0.9-1.6,2.6-1.7l0.9,0v-0.3c0-0.4-0.1-0.7-0.3-0.9s-0.5-0.3-0.9-0.3c-0.4,0-1,0.1-1.5,0.4l-0.2-0.6
			c0.3-0.1,0.6-0.3,0.9-0.3c0.3-0.1,0.6-0.1,0.9-0.1c0.6,0,1.1,0.1,1.4,0.4s0.5,0.7,0.5,1.4v3.7H173.3z M171.5,310.5
			c0.5,0,0.9-0.1,1.2-0.4c0.3-0.3,0.4-0.7,0.4-1.2v-0.5l-0.8,0c-0.6,0-1.1,0.1-1.4,0.3c-0.3,0.2-0.4,0.5-0.4,0.8
			c0,0.3,0.1,0.5,0.3,0.7C170.9,310.5,171.2,310.5,171.5,310.5z"/>
		<path d="M179.3,311.1v-3.5c0-0.4-0.1-0.8-0.3-1s-0.5-0.3-0.9-0.3c-0.6,0-1,0.2-1.2,0.5s-0.4,0.8-0.4,1.5v2.8h-0.8v-5.4h0.7
			l0.1,0.7h0c0.2-0.3,0.4-0.5,0.7-0.6c0.3-0.1,0.6-0.2,1-0.2c0.6,0,1.1,0.2,1.5,0.5c0.3,0.3,0.5,0.8,0.5,1.5v3.5H179.3z"/>
		<path d="M185,311.1l-0.2-0.8h0c-0.3,0.3-0.5,0.6-0.8,0.7c-0.3,0.1-0.6,0.2-1,0.2c-0.5,0-0.9-0.1-1.2-0.4s-0.5-0.7-0.5-1.2
			c0-1.1,0.9-1.6,2.6-1.7l0.9,0v-0.3c0-0.4-0.1-0.7-0.3-0.9s-0.5-0.3-0.9-0.3c-0.4,0-1,0.1-1.5,0.4l-0.2-0.6
			c0.3-0.1,0.6-0.3,0.9-0.3c0.3-0.1,0.6-0.1,0.9-0.1c0.6,0,1.1,0.1,1.4,0.4s0.5,0.7,0.5,1.4v3.7H185z M183.2,310.5
			c0.5,0,0.9-0.1,1.2-0.4c0.3-0.3,0.4-0.7,0.4-1.2v-0.5l-0.8,0c-0.6,0-1.1,0.1-1.4,0.3c-0.3,0.2-0.4,0.5-0.4,0.8
			c0,0.3,0.1,0.5,0.3,0.7C182.6,310.5,182.9,310.5,183.2,310.5z"/>
	</g>
	<g>
		<path d="M219.8,308.1v3h-0.8V304h2c0.9,0,1.5,0.2,1.9,0.5c0.4,0.3,0.6,0.8,0.6,1.5c0,0.9-0.5,1.6-1.4,1.9l1.9,3.2h-1l-1.7-3H219.8
			z M219.8,307.4h1.1c0.6,0,1-0.1,1.3-0.3c0.3-0.2,0.4-0.6,0.4-1c0-0.5-0.1-0.8-0.4-1c-0.3-0.2-0.7-0.3-1.3-0.3h-1.1V307.4z"/>
		<path d="M225.8,305.8v3.5c0,0.4,0.1,0.8,0.3,1c0.2,0.2,0.5,0.3,0.9,0.3c0.6,0,1-0.2,1.2-0.5c0.3-0.3,0.4-0.8,0.4-1.5v-2.8h0.8v5.4
			h-0.7l-0.1-0.7h0c-0.2,0.3-0.4,0.5-0.7,0.6c-0.3,0.1-0.6,0.2-1,0.2c-0.7,0-1.1-0.2-1.5-0.5c-0.3-0.3-0.5-0.8-0.5-1.5v-3.5H225.8z"
			/>
		<path d="M233.6,305.7c0.2,0,0.5,0,0.6,0.1l-0.1,0.8c-0.2,0-0.4-0.1-0.6-0.1c-0.4,0-0.8,0.2-1.1,0.5s-0.5,0.8-0.5,1.3v2.9h-0.8
			v-5.4h0.7l0.1,1h0c0.2-0.3,0.4-0.6,0.7-0.8C232.9,305.7,233.2,305.7,233.6,305.7z"/>
		<path d="M238.5,311.1l-0.2-0.8h0c-0.3,0.3-0.5,0.6-0.8,0.7c-0.3,0.1-0.6,0.2-1,0.2c-0.5,0-0.9-0.1-1.2-0.4
			c-0.3-0.3-0.5-0.7-0.5-1.2c0-1.1,0.9-1.6,2.6-1.7l0.9,0v-0.3c0-0.4-0.1-0.7-0.3-0.9s-0.5-0.3-0.9-0.3c-0.4,0-1,0.1-1.5,0.4
			l-0.2-0.6c0.3-0.1,0.6-0.3,0.9-0.3c0.3-0.1,0.6-0.1,0.9-0.1c0.6,0,1.1,0.1,1.4,0.4s0.5,0.7,0.5,1.4v3.7H238.5z M236.7,310.5
			c0.5,0,0.9-0.1,1.2-0.4c0.3-0.3,0.4-0.7,0.4-1.2v-0.5l-0.8,0c-0.6,0-1.1,0.1-1.4,0.3c-0.3,0.2-0.4,0.5-0.4,0.8
			c0,0.3,0.1,0.5,0.3,0.7C236.1,310.5,236.3,310.5,236.7,310.5z"/>
		<path d="M241.6,311.1h-0.8v-7.6h0.8V311.1z"/>
	</g>
	<g>
		<path d="M277.3,306.1c0,0.7-0.1,1.3-0.4,1.7c-0.2,0.4-0.6,0.6-1.1,0.6c-0.5,0-0.8-0.2-1.1-0.6c-0.3-0.4-0.4-0.9-0.4-1.7
			c0-0.7,0.1-1.3,0.4-1.7c0.2-0.4,0.6-0.6,1.1-0.6c0.5,0,0.8,0.2,1.1,0.6C277.2,304.8,277.3,305.4,277.3,306.1z M275.1,306.1
			c0,0.6,0.1,1,0.2,1.2c0.1,0.3,0.3,0.4,0.6,0.4c0.5,0,0.8-0.6,0.8-1.7c0-1.1-0.3-1.7-0.8-1.7c-0.3,0-0.5,0.1-0.6,0.4
			C275.2,305.1,275.1,305.5,275.1,306.1z M280.4,304l-4,7.1h-0.7l4-7.1H280.4z M281.6,309c0,0.7-0.1,1.3-0.4,1.7
			c-0.2,0.4-0.6,0.6-1.1,0.6c-0.5,0-0.8-0.2-1.1-0.6c-0.2-0.4-0.4-0.9-0.4-1.7c0-0.7,0.1-1.3,0.4-1.7c0.2-0.4,0.6-0.6,1.1-0.6
			c0.5,0,0.8,0.2,1.1,0.6C281.5,307.7,281.6,308.2,281.6,309z M279.4,309c0,0.6,0.1,1,0.2,1.2c0.1,0.3,0.3,0.4,0.6,0.4
			s0.5-0.1,0.6-0.4c0.1-0.3,0.2-0.7,0.2-1.3c0-0.6-0.1-1-0.2-1.2c-0.1-0.3-0.3-0.4-0.6-0.4s-0.5,0.1-0.6,0.4
			C279.5,308,279.4,308.4,279.4,309z"/>
		<path d="M286.4,305.8v3.5c0,0.4,0.1,0.8,0.3,1c0.2,0.2,0.5,0.3,0.9,0.3c0.6,0,1-0.2,1.2-0.5c0.3-0.3,0.4-0.8,0.4-1.5v-2.8h0.8v5.4
			h-0.7l-0.1-0.7h0c-0.2,0.3-0.4,0.5-0.7,0.6c-0.3,0.1-0.6,0.2-1,0.2c-0.7,0-1.1-0.2-1.5-0.5c-0.3-0.3-0.5-0.8-0.5-1.5v-3.5H286.4z"
			/>
		<path d="M294.2,305.7c0.2,0,0.5,0,0.6,0.1l-0.1,0.8c-0.2,0-0.4-0.1-0.6-0.1c-0.4,0-0.8,0.2-1.1,0.5s-0.5,0.8-0.5,1.3v2.9h-0.8
			v-5.4h0.7l0.1,1h0c0.2-0.3,0.4-0.6,0.7-0.8C293.5,305.7,293.9,305.7,294.2,305.7z"/>
		<path d="M298.3,305.7c0.7,0,1.2,0.2,1.6,0.7c0.4,0.5,0.6,1.2,0.6,2s-0.2,1.6-0.6,2c-0.4,0.5-0.9,0.7-1.6,0.7c-0.3,0-0.7-0.1-1-0.2
			c-0.3-0.1-0.5-0.3-0.7-0.6h-0.1l-0.2,0.7h-0.6v-7.6h0.8v1.8c0,0.4,0,0.8,0,1.1h0C297,305.9,297.6,305.7,298.3,305.7z M298.2,306.3
			c-0.6,0-1,0.2-1.2,0.5s-0.4,0.9-0.4,1.6s0.1,1.3,0.4,1.6c0.2,0.3,0.7,0.5,1.2,0.5c0.5,0,0.9-0.2,1.1-0.5c0.2-0.4,0.4-0.9,0.4-1.6
			c0-0.7-0.1-1.2-0.4-1.6S298.7,306.3,298.2,306.3z"/>
		<path d="M305.3,311.1l-0.2-0.8h0c-0.3,0.3-0.5,0.6-0.8,0.7c-0.3,0.1-0.6,0.2-1,0.2c-0.5,0-0.9-0.1-1.2-0.4
			c-0.3-0.3-0.5-0.7-0.5-1.2c0-1.1,0.9-1.6,2.6-1.7l0.9,0v-0.3c0-0.4-0.1-0.7-0.3-0.9s-0.5-0.3-0.9-0.3c-0.4,0-1,0.1-1.5,0.4
			l-0.2-0.6c0.3-0.1,0.6-0.3,0.9-0.3c0.3-0.1,0.6-0.1,0.9-0.1c0.6,0,1.1,0.1,1.4,0.4s0.5,0.7,0.5,1.4v3.7H305.3z M303.4,310.5
			c0.5,0,0.9-0.1,1.2-0.4c0.3-0.3,0.4-0.7,0.4-1.2v-0.5l-0.8,0c-0.6,0-1.1,0.1-1.4,0.3c-0.3,0.2-0.4,0.5-0.4,0.8
			c0,0.3,0.1,0.5,0.3,0.7C302.9,310.5,303.1,310.5,303.4,310.5z"/>
		<path d="M311.2,311.1v-3.5c0-0.4-0.1-0.8-0.3-1c-0.2-0.2-0.5-0.3-0.9-0.3c-0.6,0-1,0.2-1.2,0.5c-0.3,0.3-0.4,0.8-0.4,1.5v2.8h-0.8
			v-5.4h0.7l0.1,0.7h0c0.2-0.3,0.4-0.5,0.7-0.6c0.3-0.1,0.6-0.2,1-0.2c0.6,0,1.1,0.2,1.5,0.5c0.3,0.3,0.5,0.8,0.5,1.5v3.5H311.2z"/>
		<path d="M317,311.1l-0.2-0.8h0c-0.3,0.3-0.5,0.6-0.8,0.7c-0.3,0.1-0.6,0.2-1,0.2c-0.5,0-0.9-0.1-1.2-0.4c-0.3-0.3-0.5-0.7-0.5-1.2
			c0-1.1,0.9-1.6,2.6-1.7l0.9,0v-0.3c0-0.4-0.1-0.7-0.3-0.9s-0.5-0.3-0.9-0.3c-0.4,0-1,0.1-1.5,0.4l-0.2-0.6
			c0.3-0.1,0.6-0.3,0.9-0.3c0.3-0.1,0.6-0.1,0.9-0.1c0.6,0,1.1,0.1,1.4,0.4s0.5,0.7,0.5,1.4v3.7H317z M315.1,310.5
			c0.5,0,0.9-0.1,1.2-0.4c0.3-0.3,0.4-0.7,0.4-1.2v-0.5l-0.8,0c-0.6,0-1.1,0.1-1.4,0.3c-0.3,0.2-0.4,0.5-0.4,0.8
			c0,0.3,0.1,0.5,0.3,0.7C314.6,310.5,314.8,310.5,315.1,310.5z"/>
	</g>
	<g>
		<path d="M351.8,306.1c0,0.7-0.1,1.3-0.4,1.7c-0.2,0.4-0.6,0.6-1.1,0.6c-0.5,0-0.8-0.2-1.1-0.6c-0.3-0.4-0.4-0.9-0.4-1.7
			c0-0.7,0.1-1.3,0.4-1.7c0.2-0.4,0.6-0.6,1.1-0.6c0.5,0,0.8,0.2,1.1,0.6C351.7,304.8,351.8,305.4,351.8,306.1z M349.5,306.1
			c0,0.6,0.1,1,0.2,1.2c0.1,0.3,0.3,0.4,0.6,0.4c0.5,0,0.8-0.6,0.8-1.7c0-1.1-0.3-1.7-0.8-1.7c-0.3,0-0.5,0.1-0.6,0.4
			C349.6,305.1,349.5,305.5,349.5,306.1z M354.8,304l-4,7.1h-0.7l4-7.1H354.8z M356.1,309c0,0.7-0.1,1.3-0.4,1.7
			c-0.2,0.4-0.6,0.6-1.1,0.6c-0.5,0-0.8-0.2-1.1-0.6c-0.2-0.4-0.4-0.9-0.4-1.7c0-0.7,0.1-1.3,0.4-1.7c0.2-0.4,0.6-0.6,1.1-0.6
			c0.5,0,0.8,0.2,1.1,0.6C356,307.7,356.1,308.2,356.1,309z M353.8,309c0,0.6,0.1,1,0.2,1.2c0.1,0.3,0.3,0.4,0.6,0.4
			s0.5-0.1,0.6-0.4c0.1-0.3,0.2-0.7,0.2-1.3c0-0.6-0.1-1-0.2-1.2c-0.1-0.3-0.3-0.4-0.6-0.4s-0.5,0.1-0.6,0.4
			C353.9,308,353.8,308.4,353.8,309z"/>
		<path d="M362.5,305.7c0.2,0,0.5,0,0.6,0.1l-0.1,0.8c-0.2,0-0.4-0.1-0.6-0.1c-0.4,0-0.8,0.2-1.1,0.5s-0.5,0.8-0.5,1.3v2.9H360v-5.4
			h0.7l0.1,1h0c0.2-0.3,0.4-0.6,0.7-0.8C361.8,305.7,362.2,305.7,362.5,305.7z"/>
		<path d="M364.9,305.8v3.5c0,0.4,0.1,0.8,0.3,1c0.2,0.2,0.5,0.3,0.9,0.3c0.6,0,1-0.2,1.2-0.5c0.3-0.3,0.4-0.8,0.4-1.5v-2.8h0.8v5.4
			h-0.7l-0.1-0.7h0c-0.2,0.3-0.4,0.5-0.7,0.6c-0.3,0.1-0.6,0.2-1,0.2c-0.7,0-1.1-0.2-1.5-0.5c-0.3-0.3-0.5-0.8-0.5-1.5v-3.5H364.9z"
			/>
		<path d="M372.7,305.7c0.2,0,0.5,0,0.6,0.1l-0.1,0.8c-0.2,0-0.4-0.1-0.6-0.1c-0.4,0-0.8,0.2-1.1,0.5s-0.5,0.8-0.5,1.3v2.9h-0.8
			v-5.4h0.7l0.1,1h0c0.2-0.3,0.4-0.6,0.7-0.8C372.1,305.7,372.4,305.7,372.7,305.7z"/>
		<path d="M377.6,311.1l-0.2-0.8h0c-0.3,0.3-0.5,0.6-0.8,0.7c-0.3,0.1-0.6,0.2-1,0.2c-0.5,0-0.9-0.1-1.2-0.4
			c-0.3-0.3-0.5-0.7-0.5-1.2c0-1.1,0.9-1.6,2.6-1.7l0.9,0v-0.3c0-0.4-0.1-0.7-0.3-0.9s-0.5-0.3-0.9-0.3c-0.4,0-1,0.1-1.5,0.4
			l-0.2-0.6c0.3-0.1,0.6-0.3,0.9-0.3c0.3-0.1,0.6-0.1,0.9-0.1c0.6,0,1.1,0.1,1.4,0.4s0.5,0.7,0.5,1.4v3.7H377.6z M375.8,310.5
			c0.5,0,0.9-0.1,1.2-0.4c0.3-0.3,0.4-0.7,0.4-1.2v-0.5l-0.8,0c-0.6,0-1.1,0.1-1.4,0.3c-0.3,0.2-0.4,0.5-0.4,0.8
			c0,0.3,0.1,0.5,0.3,0.7C375.2,310.5,375.5,310.5,375.8,310.5z"/>
		<path d="M380.7,311.1h-0.8v-7.6h0.8V311.1z"/>
	</g>
	<g>
		<path d="M133,288.2h-0.8v-5.1c0-0.4,0-0.8,0-1.2c-0.1,0.1-0.1,0.1-0.2,0.2c-0.1,0.1-0.5,0.4-1.2,1l-0.4-0.6l1.9-1.5h0.7V288.2z"/>
		<path d="M140.4,284.1c0,2.8-1.1,4.2-3.2,4.2c-0.4,0-0.7,0-0.9-0.1v-0.7c0.3,0.1,0.6,0.1,0.9,0.1c0.8,0,1.4-0.2,1.8-0.7
			s0.6-1.2,0.7-2.2h-0.1c-0.2,0.3-0.4,0.5-0.7,0.6s-0.6,0.2-1,0.2c-0.6,0-1.1-0.2-1.5-0.6c-0.4-0.4-0.6-0.9-0.6-1.6
			c0-0.7,0.2-1.3,0.6-1.8s1-0.6,1.6-0.6c0.5,0,0.9,0.1,1.3,0.4s0.6,0.6,0.8,1.1C140.3,282.9,140.4,283.5,140.4,284.1z M138,281.7
			c-0.5,0-0.8,0.1-1.1,0.4c-0.3,0.3-0.4,0.7-0.4,1.2c0,0.5,0.1,0.8,0.4,1.1s0.6,0.4,1.1,0.4c0.3,0,0.6-0.1,0.8-0.2
			c0.2-0.1,0.4-0.3,0.6-0.5c0.1-0.2,0.2-0.4,0.2-0.7c0-0.3-0.1-0.7-0.2-0.9c-0.1-0.3-0.3-0.5-0.6-0.7S138.3,281.7,138,281.7z"/>
		<path d="M141.5,285.2c0-1.4,0.3-2.5,0.8-3.1c0.5-0.7,1.4-1,2.4-1c0.4,0,0.7,0,0.9,0.1v0.7c-0.3-0.1-0.5-0.1-0.9-0.1
			c-0.8,0-1.3,0.2-1.8,0.7c-0.4,0.5-0.6,1.2-0.7,2.2h0.1c0.4-0.6,0.9-0.8,1.7-0.8c0.6,0,1.1,0.2,1.5,0.6c0.4,0.4,0.6,0.9,0.6,1.6
			c0,0.7-0.2,1.3-0.6,1.8s-1,0.6-1.6,0.6c-0.7,0-1.3-0.3-1.8-0.8C141.7,286.9,141.5,286.2,141.5,285.2z M143.9,287.6
			c0.5,0,0.8-0.1,1.1-0.4c0.3-0.3,0.4-0.7,0.4-1.3c0-0.5-0.1-0.8-0.4-1.1c-0.2-0.3-0.6-0.4-1.1-0.4c-0.3,0-0.6,0.1-0.8,0.2
			c-0.2,0.1-0.4,0.3-0.6,0.5c-0.1,0.2-0.2,0.4-0.2,0.7c0,0.3,0.1,0.6,0.2,0.9c0.1,0.3,0.3,0.5,0.6,0.7
			C143.3,287.5,143.6,287.6,143.9,287.6z"/>
		<path d="M151.9,284.6c0,1.2-0.2,2.2-0.6,2.8c-0.4,0.6-1,0.9-1.8,0.9c-0.8,0-1.4-0.3-1.8-0.9c-0.4-0.6-0.6-1.5-0.6-2.7
			c0-1.2,0.2-2.2,0.6-2.8c0.4-0.6,1-0.9,1.8-0.9c0.8,0,1.4,0.3,1.8,0.9C151.7,282.5,151.9,283.4,151.9,284.6z M148,284.6
			c0,1,0.1,1.8,0.4,2.3s0.6,0.7,1.2,0.7c0.5,0,0.9-0.2,1.2-0.7c0.2-0.5,0.4-1.2,0.4-2.3s-0.1-1.8-0.4-2.3c-0.2-0.5-0.6-0.7-1.2-0.7
			c-0.5,0-0.9,0.2-1.2,0.7C148.1,282.8,148,283.6,148,284.6z"/>
	</g>
	<g>
		<path d="M177.1,288.2h-0.8v-5.1c0-0.4,0-0.8,0-1.2c-0.1,0.1-0.1,0.1-0.2,0.2c-0.1,0.1-0.5,0.4-1.2,1l-0.4-0.6l1.9-1.5h0.7V288.2z"
			/>
		<path d="M184.5,284.1c0,2.8-1.1,4.2-3.2,4.2c-0.4,0-0.7,0-0.9-0.1v-0.7c0.3,0.1,0.6,0.1,0.9,0.1c0.8,0,1.4-0.2,1.8-0.7
			s0.6-1.2,0.7-2.2h-0.1c-0.2,0.3-0.4,0.5-0.7,0.6s-0.6,0.2-1,0.2c-0.6,0-1.1-0.2-1.5-0.6c-0.4-0.4-0.6-0.9-0.6-1.6
			c0-0.7,0.2-1.3,0.6-1.8s1-0.6,1.6-0.6c0.5,0,0.9,0.1,1.3,0.4s0.6,0.6,0.8,1.1C184.4,282.9,184.5,283.5,184.5,284.1z M182.1,281.7
			c-0.5,0-0.8,0.1-1.1,0.4c-0.3,0.3-0.4,0.7-0.4,1.2c0,0.5,0.1,0.8,0.4,1.1s0.6,0.4,1.1,0.4c0.3,0,0.6-0.1,0.8-0.2
			c0.2-0.1,0.4-0.3,0.6-0.5c0.1-0.2,0.2-0.4,0.2-0.7c0-0.3-0.1-0.7-0.2-0.9c-0.1-0.3-0.3-0.5-0.6-0.7S182.4,281.7,182.1,281.7z"/>
		<path d="M186.5,288.2l3-6.4h-3.9v-0.7h4.8v0.6l-2.9,6.5H186.5z"/>
		<path d="M196,284.6c0,1.2-0.2,2.2-0.6,2.8c-0.4,0.6-1,0.9-1.8,0.9c-0.8,0-1.4-0.3-1.8-0.9c-0.4-0.6-0.6-1.5-0.6-2.7
			c0-1.2,0.2-2.2,0.6-2.8c0.4-0.6,1-0.9,1.8-0.9c0.8,0,1.4,0.3,1.8,0.9C195.8,282.5,196,283.4,196,284.6z M192.1,284.6
			c0,1,0.1,1.8,0.4,2.3s0.6,0.7,1.2,0.7c0.5,0,0.9-0.2,1.2-0.7c0.2-0.5,0.4-1.2,0.4-2.3s-0.1-1.8-0.4-2.3c-0.2-0.5-0.6-0.7-1.2-0.7
			c-0.5,0-0.9,0.2-1.2,0.7C192.2,282.8,192.1,283.6,192.1,284.6z"/>
	</g>
	<g>
		<path d="M221.3,288.2h-0.8v-5.1c0-0.4,0-0.8,0-1.2c-0.1,0.1-0.1,0.1-0.2,0.2c-0.1,0.1-0.5,0.4-1.2,1l-0.4-0.6l1.9-1.5h0.7V288.2z"
			/>
		<path d="M228.7,284.1c0,2.8-1.1,4.2-3.2,4.2c-0.4,0-0.7,0-0.9-0.1v-0.7c0.3,0.1,0.6,0.1,0.9,0.1c0.8,0,1.4-0.2,1.8-0.7
			c0.4-0.5,0.6-1.2,0.7-2.2h-0.1c-0.2,0.3-0.4,0.5-0.7,0.6c-0.3,0.1-0.6,0.2-1,0.2c-0.6,0-1.1-0.2-1.5-0.6c-0.4-0.4-0.6-0.9-0.6-1.6
			c0-0.7,0.2-1.3,0.6-1.8s1-0.6,1.6-0.6c0.5,0,0.9,0.1,1.3,0.4c0.4,0.2,0.6,0.6,0.8,1.1C228.6,282.9,228.7,283.5,228.7,284.1z
			 M226.3,281.7c-0.5,0-0.8,0.1-1.1,0.4c-0.3,0.3-0.4,0.7-0.4,1.2c0,0.5,0.1,0.8,0.4,1.1s0.6,0.4,1.1,0.4c0.3,0,0.6-0.1,0.8-0.2
			c0.2-0.1,0.4-0.3,0.6-0.5c0.1-0.2,0.2-0.4,0.2-0.7c0-0.3-0.1-0.7-0.2-0.9c-0.1-0.3-0.3-0.5-0.6-0.7S226.6,281.7,226.3,281.7z"/>
		<path d="M232.1,281c0.7,0,1.2,0.2,1.5,0.5s0.6,0.7,0.6,1.3c0,0.4-0.1,0.7-0.3,1c-0.2,0.3-0.6,0.6-1,0.8c0.6,0.3,1,0.6,1.2,0.9
			c0.2,0.3,0.4,0.7,0.4,1.1c0,0.6-0.2,1.1-0.6,1.4c-0.4,0.4-1,0.5-1.7,0.5c-0.8,0-1.3-0.2-1.8-0.5c-0.4-0.3-0.6-0.8-0.6-1.4
			c0-0.8,0.5-1.5,1.5-1.9c-0.4-0.3-0.8-0.5-1-0.8c-0.2-0.3-0.3-0.6-0.3-1c0-0.5,0.2-0.9,0.6-1.2C230.9,281.1,231.4,281,232.1,281z
			 M230.5,286.4c0,0.4,0.1,0.7,0.4,0.9c0.3,0.2,0.7,0.3,1.1,0.3c0.5,0,0.9-0.1,1.1-0.3c0.3-0.2,0.4-0.5,0.4-0.9
			c0-0.3-0.1-0.6-0.4-0.8c-0.3-0.2-0.7-0.5-1.3-0.7c-0.5,0.2-0.8,0.4-1.1,0.7C230.6,285.8,230.5,286.1,230.5,286.4z M232.1,281.6
			c-0.4,0-0.7,0.1-1,0.3c-0.2,0.2-0.3,0.5-0.3,0.8c0,0.3,0.1,0.6,0.3,0.8c0.2,0.2,0.5,0.4,1.1,0.6c0.5-0.2,0.8-0.4,1-0.6
			c0.2-0.2,0.3-0.5,0.3-0.8c0-0.3-0.1-0.6-0.4-0.8C232.8,281.7,232.5,281.6,232.1,281.6z"/>
		<path d="M240.2,284.6c0,1.2-0.2,2.2-0.6,2.8c-0.4,0.6-1,0.9-1.8,0.9c-0.8,0-1.4-0.3-1.8-0.9c-0.4-0.6-0.6-1.5-0.6-2.7
			c0-1.2,0.2-2.2,0.6-2.8c0.4-0.6,1-0.9,1.8-0.9c0.8,0,1.4,0.3,1.8,0.9C240,282.5,240.2,283.4,240.2,284.6z M236.3,284.6
			c0,1,0.1,1.8,0.4,2.3s0.6,0.7,1.2,0.7c0.5,0,0.9-0.2,1.2-0.7c0.2-0.5,0.4-1.2,0.4-2.3s-0.1-1.8-0.4-2.3c-0.2-0.5-0.6-0.7-1.2-0.7
			c-0.5,0-0.9,0.2-1.2,0.7C236.4,282.8,236.3,283.6,236.3,284.6z"/>
	</g>
	<g>
		<path d="M265.4,288.2h-0.8v-5.1c0-0.4,0-0.8,0-1.2c-0.1,0.1-0.1,0.1-0.2,0.2c-0.1,0.1-0.5,0.4-1.2,1l-0.4-0.6l1.9-1.5h0.7V288.2z"
			/>
		<path d="M272.8,284.1c0,2.8-1.1,4.2-3.2,4.2c-0.4,0-0.7,0-0.9-0.1v-0.7c0.3,0.1,0.6,0.1,0.9,0.1c0.8,0,1.4-0.2,1.8-0.7
			c0.4-0.5,0.6-1.2,0.7-2.2h-0.1c-0.2,0.3-0.4,0.5-0.7,0.6c-0.3,0.1-0.6,0.2-1,0.2c-0.6,0-1.1-0.2-1.5-0.6c-0.4-0.4-0.6-0.9-0.6-1.6
			c0-0.7,0.2-1.3,0.6-1.8s1-0.6,1.6-0.6c0.5,0,0.9,0.1,1.3,0.4c0.4,0.2,0.6,0.6,0.8,1.1C272.7,282.9,272.8,283.5,272.8,284.1z
			 M270.4,281.7c-0.5,0-0.8,0.1-1.1,0.4c-0.3,0.3-0.4,0.7-0.4,1.2c0,0.5,0.1,0.8,0.4,1.1s0.6,0.4,1.1,0.4c0.3,0,0.6-0.1,0.8-0.2
			c0.2-0.1,0.4-0.3,0.6-0.5c0.1-0.2,0.2-0.4,0.2-0.7c0-0.3-0.1-0.7-0.2-0.9c-0.1-0.3-0.3-0.5-0.6-0.7S270.7,281.7,270.4,281.7z"/>
		<path d="M278.6,284.1c0,2.8-1.1,4.2-3.2,4.2c-0.4,0-0.7,0-0.9-0.1v-0.7c0.3,0.1,0.6,0.1,0.9,0.1c0.8,0,1.4-0.2,1.8-0.7
			c0.4-0.5,0.6-1.2,0.7-2.2h-0.1c-0.2,0.3-0.4,0.5-0.7,0.6c-0.3,0.1-0.6,0.2-1,0.2c-0.6,0-1.1-0.2-1.5-0.6c-0.4-0.4-0.6-0.9-0.6-1.6
			c0-0.7,0.2-1.3,0.6-1.8s1-0.6,1.6-0.6c0.5,0,0.9,0.1,1.3,0.4c0.4,0.2,0.6,0.6,0.8,1.1C278.5,282.9,278.6,283.5,278.6,284.1z
			 M276.2,281.7c-0.5,0-0.8,0.1-1.1,0.4c-0.3,0.3-0.4,0.7-0.4,1.2c0,0.5,0.1,0.8,0.4,1.1s0.6,0.4,1.1,0.4c0.3,0,0.6-0.1,0.8-0.2
			c0.2-0.1,0.4-0.3,0.6-0.5c0.1-0.2,0.2-0.4,0.2-0.7c0-0.3-0.1-0.7-0.2-0.9c-0.1-0.3-0.3-0.5-0.6-0.7S276.5,281.7,276.2,281.7z"/>
		<path d="M284.3,284.6c0,1.2-0.2,2.2-0.6,2.8c-0.4,0.6-1,0.9-1.8,0.9c-0.8,0-1.4-0.3-1.8-0.9c-0.4-0.6-0.6-1.5-0.6-2.7
			c0-1.2,0.2-2.2,0.6-2.8c0.4-0.6,1-0.9,1.8-0.9c0.8,0,1.4,0.3,1.8,0.9C284.1,282.5,284.3,283.4,284.3,284.6z M280.4,284.6
			c0,1,0.1,1.8,0.4,2.3s0.6,0.7,1.2,0.7c0.5,0,0.9-0.2,1.2-0.7c0.2-0.5,0.4-1.2,0.4-2.3s-0.1-1.8-0.4-2.3c-0.2-0.5-0.6-0.7-1.2-0.7
			c-0.5,0-0.9,0.2-1.2,0.7C280.5,282.8,280.4,283.6,280.4,284.6z"/>
	</g>
	<g>
		<path d="M311.3,288.2h-4.7v-0.7l1.9-1.9c0.6-0.6,1-1,1.1-1.2c0.2-0.2,0.3-0.5,0.4-0.7c0.1-0.2,0.1-0.5,0.1-0.8
			c0-0.4-0.1-0.7-0.3-0.9c-0.2-0.2-0.6-0.3-1-0.3c-0.3,0-0.6,0-0.8,0.1c-0.3,0.1-0.6,0.3-0.9,0.5l-0.4-0.6c0.7-0.5,1.4-0.8,2.1-0.8
			c0.7,0,1.2,0.2,1.6,0.5c0.4,0.3,0.6,0.8,0.6,1.4c0,0.5-0.1,0.9-0.4,1.3c-0.3,0.4-0.7,1-1.4,1.7l-1.6,1.5v0h3.7V288.2z"/>
		<path d="M317,284.6c0,1.2-0.2,2.2-0.6,2.8c-0.4,0.6-1,0.9-1.8,0.9c-0.8,0-1.4-0.3-1.8-0.9c-0.4-0.6-0.6-1.5-0.6-2.7
			c0-1.2,0.2-2.2,0.6-2.8c0.4-0.6,1-0.9,1.8-0.9c0.8,0,1.4,0.3,1.8,0.9C316.8,282.5,317,283.4,317,284.6z M313.1,284.6
			c0,1,0.1,1.8,0.4,2.3s0.6,0.7,1.2,0.7c0.5,0,0.9-0.2,1.2-0.7c0.2-0.5,0.4-1.2,0.4-2.3s-0.1-1.8-0.4-2.3c-0.2-0.5-0.6-0.7-1.2-0.7
			c-0.5,0-0.9,0.2-1.2,0.7C313.2,282.8,313.1,283.6,313.1,284.6z"/>
		<path d="M322.7,284.6c0,1.2-0.2,2.2-0.6,2.8c-0.4,0.6-1,0.9-1.8,0.9c-0.8,0-1.4-0.3-1.8-0.9c-0.4-0.6-0.6-1.5-0.6-2.7
			c0-1.2,0.2-2.2,0.6-2.8c0.4-0.6,1-0.9,1.8-0.9c0.8,0,1.4,0.3,1.8,0.9C322.5,282.5,322.7,283.4,322.7,284.6z M318.8,284.6
			c0,1,0.1,1.8,0.4,2.3s0.6,0.7,1.2,0.7c0.5,0,0.9-0.2,1.2-0.7c0.2-0.5,0.4-1.2,0.4-2.3s-0.1-1.8-0.4-2.3c-0.2-0.5-0.6-0.7-1.2-0.7
			c-0.5,0-0.9,0.2-1.2,0.7C319,282.8,318.8,283.6,318.8,284.6z"/>
		<path d="M328.5,284.6c0,1.2-0.2,2.2-0.6,2.8c-0.4,0.6-1,0.9-1.8,0.9c-0.8,0-1.4-0.3-1.8-0.9c-0.4-0.6-0.6-1.5-0.6-2.7
			c0-1.2,0.2-2.2,0.6-2.8c0.4-0.6,1-0.9,1.8-0.9c0.8,0,1.4,0.3,1.8,0.9C328.3,282.5,328.5,283.4,328.5,284.6z M324.6,284.6
			c0,1,0.1,1.8,0.4,2.3s0.6,0.7,1.2,0.7c0.5,0,0.9-0.2,1.2-0.7c0.2-0.5,0.4-1.2,0.4-2.3s-0.1-1.8-0.4-2.3c-0.2-0.5-0.6-0.7-1.2-0.7
			c-0.5,0-0.9,0.2-1.2,0.7C324.7,282.8,324.6,283.6,324.6,284.6z"/>
	</g>
	<g>
		<path d="M355.4,288.2h-4.7v-0.7l1.9-1.9c0.6-0.6,1-1,1.1-1.2c0.2-0.2,0.3-0.5,0.4-0.7c0.1-0.2,0.1-0.5,0.1-0.8
			c0-0.4-0.1-0.7-0.3-0.9c-0.2-0.2-0.6-0.3-1-0.3c-0.3,0-0.6,0-0.8,0.1c-0.3,0.1-0.6,0.3-0.9,0.5l-0.4-0.6c0.7-0.5,1.4-0.8,2.1-0.8
			c0.7,0,1.2,0.2,1.6,0.5c0.4,0.3,0.6,0.8,0.6,1.4c0,0.5-0.1,0.9-0.4,1.3c-0.3,0.4-0.7,1-1.4,1.7l-1.6,1.5v0h3.7V288.2z"/>
		<path d="M361.2,284.6c0,1.2-0.2,2.2-0.6,2.8c-0.4,0.6-1,0.9-1.8,0.9c-0.8,0-1.4-0.3-1.8-0.9c-0.4-0.6-0.6-1.5-0.6-2.7
			c0-1.2,0.2-2.2,0.6-2.8c0.4-0.6,1-0.9,1.8-0.9c0.8,0,1.4,0.3,1.8,0.9C361,282.5,361.2,283.4,361.2,284.6z M357.3,284.6
			c0,1,0.1,1.8,0.4,2.3s0.6,0.7,1.2,0.7c0.5,0,0.9-0.2,1.2-0.7c0.2-0.5,0.4-1.2,0.4-2.3s-0.1-1.8-0.4-2.3c-0.2-0.5-0.6-0.7-1.2-0.7
			c-0.5,0-0.9,0.2-1.2,0.7C357.4,282.8,357.3,283.6,357.3,284.6z"/>
		<path d="M365.2,288.2h-0.8v-5.1c0-0.4,0-0.8,0-1.2c-0.1,0.1-0.1,0.1-0.2,0.2c-0.1,0.1-0.5,0.4-1.2,1l-0.4-0.6l1.9-1.5h0.7V288.2z"
			/>
		<path d="M372.6,284.6c0,1.2-0.2,2.2-0.6,2.8c-0.4,0.6-1,0.9-1.8,0.9c-0.8,0-1.4-0.3-1.8-0.9c-0.4-0.6-0.6-1.5-0.6-2.7
			c0-1.2,0.2-2.2,0.6-2.8c0.4-0.6,1-0.9,1.8-0.9c0.8,0,1.4,0.3,1.8,0.9C372.4,282.5,372.6,283.4,372.6,284.6z M368.7,284.6
			c0,1,0.1,1.8,0.4,2.3s0.6,0.7,1.2,0.7c0.5,0,0.9-0.2,1.2-0.7c0.2-0.5,0.4-1.2,0.4-2.3s-0.1-1.8-0.4-2.3c-0.2-0.5-0.6-0.7-1.2-0.7
			c-0.5,0-0.9,0.2-1.2,0.7C368.8,282.8,368.7,283.6,368.7,284.6z"/>
	</g>
	<g>
		<path d="M397.1,106.4c0,2.8-1.1,4.2-3.2,4.2c-0.4,0-0.7,0-0.9-0.1v-0.7c0.3,0.1,0.6,0.1,0.9,0.1c0.8,0,1.4-0.2,1.8-0.7
			c0.4-0.5,0.6-1.2,0.7-2.2h-0.1c-0.2,0.3-0.4,0.5-0.7,0.6c-0.3,0.1-0.6,0.2-1,0.2c-0.6,0-1.1-0.2-1.5-0.6s-0.6-0.9-0.6-1.6
			c0-0.7,0.2-1.3,0.6-1.8s1-0.6,1.6-0.6c0.5,0,0.9,0.1,1.3,0.4c0.4,0.2,0.6,0.6,0.8,1.1S397.1,105.8,397.1,106.4z M394.7,104
			c-0.5,0-0.8,0.1-1.1,0.4s-0.4,0.7-0.4,1.2c0,0.5,0.1,0.8,0.4,1.1s0.6,0.4,1.1,0.4c0.3,0,0.6-0.1,0.8-0.2s0.4-0.3,0.6-0.5
			c0.1-0.2,0.2-0.4,0.2-0.7c0-0.3-0.1-0.7-0.2-0.9c-0.1-0.3-0.3-0.5-0.6-0.7S395,104,394.7,104z"/>
		<path d="M402.9,106.9c0,1.2-0.2,2.2-0.6,2.8c-0.4,0.6-1,0.9-1.8,0.9c-0.8,0-1.4-0.3-1.8-0.9s-0.6-1.5-0.6-2.7
			c0-1.2,0.2-2.2,0.6-2.8c0.4-0.6,1-0.9,1.8-0.9c0.8,0,1.4,0.3,1.8,0.9C402.6,104.8,402.9,105.7,402.9,106.9z M398.9,106.9
			c0,1,0.1,1.8,0.4,2.3s0.6,0.7,1.2,0.7c0.5,0,0.9-0.2,1.2-0.7c0.2-0.5,0.4-1.2,0.4-2.3s-0.1-1.8-0.4-2.3c-0.2-0.5-0.6-0.7-1.2-0.7
			c-0.5,0-0.9,0.2-1.2,0.7S398.9,105.9,398.9,106.9z"/>
	</g>
	<g>
		<path d="M394.8,121.6c0.7,0,1.2,0.2,1.5,0.5s0.6,0.7,0.6,1.3c0,0.4-0.1,0.7-0.3,1c-0.2,0.3-0.6,0.6-1,0.8c0.6,0.3,1,0.6,1.2,0.9
			s0.4,0.7,0.4,1.1c0,0.6-0.2,1.1-0.6,1.4c-0.4,0.4-1,0.5-1.7,0.5c-0.8,0-1.3-0.2-1.8-0.5s-0.6-0.8-0.6-1.4c0-0.8,0.5-1.5,1.5-1.9
			c-0.4-0.3-0.8-0.5-1-0.8s-0.3-0.6-0.3-1c0-0.5,0.2-0.9,0.6-1.2C393.6,121.7,394.1,121.6,394.8,121.6z M393.2,127
			c0,0.4,0.1,0.7,0.4,0.9c0.3,0.2,0.7,0.3,1.1,0.3c0.5,0,0.9-0.1,1.1-0.3c0.3-0.2,0.4-0.5,0.4-0.9c0-0.3-0.1-0.6-0.4-0.8
			s-0.7-0.5-1.3-0.7c-0.5,0.2-0.8,0.4-1.1,0.7C393.3,126.3,393.2,126.6,393.2,127z M394.8,122.2c-0.4,0-0.7,0.1-1,0.3
			c-0.2,0.2-0.3,0.5-0.3,0.8c0,0.3,0.1,0.6,0.3,0.8c0.2,0.2,0.5,0.4,1.1,0.6c0.5-0.2,0.8-0.4,1-0.6c0.2-0.2,0.3-0.5,0.3-0.8
			c0-0.3-0.1-0.6-0.4-0.8C395.5,122.3,395.2,122.2,394.8,122.2z"/>
		<path d="M402.9,125.2c0,1.2-0.2,2.2-0.6,2.8c-0.4,0.6-1,0.9-1.8,0.9c-0.8,0-1.4-0.3-1.8-0.9s-0.6-1.5-0.6-2.7
			c0-1.2,0.2-2.2,0.6-2.8c0.4-0.6,1-0.9,1.8-0.9c0.8,0,1.4,0.3,1.8,0.9C402.6,123.1,402.9,124,402.9,125.2z M398.9,125.2
			c0,1,0.1,1.8,0.4,2.3s0.6,0.7,1.2,0.7c0.5,0,0.9-0.2,1.2-0.7c0.2-0.5,0.4-1.2,0.4-2.3s-0.1-1.8-0.4-2.3c-0.2-0.5-0.6-0.7-1.2-0.7
			c-0.5,0-0.9,0.2-1.2,0.7S398.9,124.2,398.9,125.2z"/>
	</g>
	<g>
		<path d="M393.3,147.1l3-6.4h-3.9V140h4.8v0.6l-2.9,6.5H393.3z"/>
		<path d="M402.9,143.5c0,1.2-0.2,2.2-0.6,2.8c-0.4,0.6-1,0.9-1.8,0.9c-0.8,0-1.4-0.3-1.8-0.9s-0.6-1.5-0.6-2.7
			c0-1.2,0.2-2.2,0.6-2.8c0.4-0.6,1-0.9,1.8-0.9c0.8,0,1.4,0.3,1.8,0.9C402.6,141.4,402.9,142.3,402.9,143.5z M398.9,143.5
			c0,1,0.1,1.8,0.4,2.3s0.6,0.7,1.2,0.7c0.5,0,0.9-0.2,1.2-0.7c0.2-0.5,0.4-1.2,0.4-2.3s-0.1-1.8-0.4-2.3c-0.2-0.5-0.6-0.7-1.2-0.7
			c-0.5,0-0.9,0.2-1.2,0.7S398.9,142.5,398.9,143.5z"/>
	</g>
	<g>
		<path d="M392.5,162.4c0-1.4,0.3-2.5,0.8-3.1c0.5-0.7,1.4-1,2.4-1c0.4,0,0.7,0,0.9,0.1v0.7c-0.3-0.1-0.5-0.1-0.9-0.1
			c-0.8,0-1.3,0.2-1.8,0.7c-0.4,0.5-0.6,1.2-0.7,2.2h0.1c0.4-0.6,0.9-0.8,1.7-0.8c0.6,0,1.1,0.2,1.5,0.6c0.4,0.4,0.6,0.9,0.6,1.6
			c0,0.7-0.2,1.3-0.6,1.8s-1,0.6-1.6,0.6c-0.7,0-1.3-0.3-1.8-0.8C392.7,164.1,392.5,163.3,392.5,162.4z M394.9,164.8
			c0.5,0,0.8-0.1,1.1-0.4c0.3-0.3,0.4-0.7,0.4-1.3c0-0.5-0.1-0.8-0.4-1.1c-0.2-0.3-0.6-0.4-1.1-0.4c-0.3,0-0.6,0.1-0.8,0.2
			s-0.4,0.3-0.6,0.5c-0.1,0.2-0.2,0.4-0.2,0.7c0,0.3,0.1,0.6,0.2,0.9c0.1,0.3,0.3,0.5,0.6,0.7S394.6,164.8,394.9,164.8z"/>
		<path d="M402.9,161.8c0,1.2-0.2,2.2-0.6,2.8c-0.4,0.6-1,0.9-1.8,0.9c-0.8,0-1.4-0.3-1.8-0.9s-0.6-1.5-0.6-2.7
			c0-1.2,0.2-2.2,0.6-2.8c0.4-0.6,1-0.9,1.8-0.9c0.8,0,1.4,0.3,1.8,0.9C402.6,159.7,402.9,160.6,402.9,161.8z M398.9,161.8
			c0,1,0.1,1.8,0.4,2.3s0.6,0.7,1.2,0.7c0.5,0,0.9-0.2,1.2-0.7c0.2-0.5,0.4-1.2,0.4-2.3s-0.1-1.8-0.4-2.3c-0.2-0.5-0.6-0.7-1.2-0.7
			c-0.5,0-0.9,0.2-1.2,0.7S398.9,160.8,398.9,161.8z"/>
	</g>
	<g>
		<path d="M394.6,179.4c0.8,0,1.3,0.2,1.8,0.6c0.4,0.4,0.6,0.9,0.6,1.5c0,0.7-0.2,1.3-0.7,1.7c-0.5,0.4-1.1,0.6-1.9,0.6
			c-0.8,0-1.4-0.1-1.8-0.4v-0.8c0.2,0.1,0.5,0.3,0.8,0.3c0.3,0.1,0.7,0.1,1,0.1c0.6,0,1-0.1,1.3-0.4s0.5-0.7,0.5-1.2
			c0-1-0.6-1.5-1.8-1.5c-0.3,0-0.7,0-1.2,0.1l-0.4-0.3l0.3-3.3h3.5v0.7h-2.9l-0.2,2.1C393.9,179.4,394.3,179.4,394.6,179.4z"/>
		<path d="M402.9,180.1c0,1.2-0.2,2.2-0.6,2.8c-0.4,0.6-1,0.9-1.8,0.9c-0.8,0-1.4-0.3-1.8-0.9s-0.6-1.5-0.6-2.7
			c0-1.2,0.2-2.2,0.6-2.8c0.4-0.6,1-0.9,1.8-0.9c0.8,0,1.4,0.3,1.8,0.9C402.6,178,402.9,178.9,402.9,180.1z M398.9,180.1
			c0,1,0.1,1.8,0.4,2.3s0.6,0.7,1.2,0.7c0.5,0,0.9-0.2,1.2-0.7c0.2-0.5,0.4-1.2,0.4-2.3s-0.1-1.8-0.4-2.3c-0.2-0.5-0.6-0.7-1.2-0.7
			c-0.5,0-0.9,0.2-1.2,0.7S398.9,179.1,398.9,180.1z"/>
	</g>
	<g>
		<path d="M397.4,200.4h-1.1v1.6h-0.8v-1.6h-3.5v-0.7l3.4-4.8h0.9v4.8h1.1V200.4z M395.6,199.6v-2.4c0-0.5,0-1,0-1.6h0
			c-0.2,0.3-0.3,0.6-0.4,0.8l-2.2,3.2H395.6z"/>
		<path d="M402.9,198.4c0,1.2-0.2,2.2-0.6,2.8c-0.4,0.6-1,0.9-1.8,0.9c-0.8,0-1.4-0.3-1.8-0.9c-0.4-0.6-0.6-1.5-0.6-2.7
			c0-1.2,0.2-2.2,0.6-2.8c0.4-0.6,1-0.9,1.8-0.9c0.8,0,1.4,0.3,1.8,0.9C402.6,196.3,402.9,197.2,402.9,198.4z M398.9,198.4
			c0,1,0.1,1.8,0.4,2.3s0.6,0.7,1.2,0.7c0.5,0,0.9-0.2,1.2-0.7c0.2-0.5,0.4-1.2,0.4-2.3s-0.1-1.8-0.4-2.3c-0.2-0.5-0.6-0.7-1.2-0.7
			c-0.5,0-0.9,0.2-1.2,0.7C399.1,196.6,398.9,197.4,398.9,198.4z"/>
	</g>
	<g>
		<path d="M396.8,214.9c0,0.5-0.1,0.8-0.4,1.1c-0.3,0.3-0.6,0.5-1.1,0.6v0c0.6,0.1,1,0.3,1.3,0.5c0.3,0.3,0.4,0.7,0.4,1.2
			c0,0.7-0.2,1.2-0.7,1.6c-0.5,0.4-1.1,0.5-2,0.5c-0.4,0-0.7,0-1-0.1c-0.3-0.1-0.6-0.2-0.9-0.3v-0.8c0.3,0.2,0.6,0.3,1,0.3
			c0.4,0.1,0.7,0.1,1,0.1c1.2,0,1.9-0.5,1.9-1.5c0-0.9-0.7-1.3-2-1.3h-0.7v-0.7h0.7c0.6,0,1-0.1,1.3-0.4c0.3-0.2,0.5-0.6,0.5-1
			c0-0.3-0.1-0.6-0.4-0.8c-0.2-0.2-0.6-0.3-1-0.3c-0.3,0-0.6,0-0.9,0.1c-0.3,0.1-0.6,0.2-0.9,0.5l-0.4-0.5c0.3-0.2,0.6-0.4,1-0.5
			c0.4-0.1,0.8-0.2,1.2-0.2c0.7,0,1.2,0.2,1.6,0.5C396.6,213.9,396.8,214.3,396.8,214.9z"/>
		<path d="M402.9,216.7c0,1.2-0.2,2.2-0.6,2.8c-0.4,0.6-1,0.9-1.8,0.9c-0.8,0-1.4-0.3-1.8-0.9c-0.4-0.6-0.6-1.5-0.6-2.7
			c0-1.2,0.2-2.2,0.6-2.8c0.4-0.6,1-0.9,1.8-0.9c0.8,0,1.4,0.3,1.8,0.9C402.6,214.6,402.9,215.5,402.9,216.7z M398.9,216.7
			c0,1,0.1,1.8,0.4,2.3s0.6,0.7,1.2,0.7c0.5,0,0.9-0.2,1.2-0.7c0.2-0.5,0.4-1.2,0.4-2.3s-0.1-1.8-0.4-2.3c-0.2-0.5-0.6-0.7-1.2-0.7
			c-0.5,0-0.9,0.2-1.2,0.7C399.1,214.9,398.9,215.7,398.9,216.7z"/>
	</g>
	<g>
		<path d="M397.1,238.6h-4.7v-0.7l1.9-1.9c0.6-0.6,1-1,1.1-1.2c0.2-0.2,0.3-0.5,0.4-0.7c0.1-0.2,0.1-0.5,0.1-0.8
			c0-0.4-0.1-0.7-0.3-0.9c-0.2-0.2-0.6-0.3-1-0.3c-0.3,0-0.6,0-0.8,0.1c-0.3,0.1-0.6,0.3-0.9,0.5l-0.4-0.6c0.7-0.5,1.4-0.8,2.1-0.8
			c0.7,0,1.2,0.2,1.6,0.5c0.4,0.3,0.6,0.8,0.6,1.4c0,0.5-0.1,0.9-0.4,1.3c-0.3,0.4-0.7,1-1.4,1.7l-1.6,1.5v0h3.7V238.6z"/>
		<path d="M402.9,235c0,1.2-0.2,2.2-0.6,2.8c-0.4,0.6-1,0.9-1.8,0.9c-0.8,0-1.4-0.3-1.8-0.9c-0.4-0.6-0.6-1.5-0.6-2.7
			c0-1.2,0.2-2.2,0.6-2.8c0.4-0.6,1-0.9,1.8-0.9c0.8,0,1.4,0.3,1.8,0.9C402.6,232.9,402.9,233.9,402.9,235z M398.9,235
			c0,1,0.1,1.8,0.4,2.3s0.6,0.7,1.2,0.7c0.5,0,0.9-0.2,1.2-0.7c0.2-0.5,0.4-1.2,0.4-2.3s-0.1-1.8-0.4-2.3c-0.2-0.5-0.6-0.7-1.2-0.7
			c-0.5,0-0.9,0.2-1.2,0.7C399.1,233.2,398.9,234,398.9,235z"/>
	</g>
	<g>
		<path d="M395.4,256.9h-0.8v-5.1c0-0.4,0-0.8,0-1.2c-0.1,0.1-0.1,0.1-0.2,0.2c-0.1,0.1-0.5,0.4-1.2,1l-0.4-0.6l1.9-1.5h0.7V256.9z"
			/>
		<path d="M402.9,253.3c0,1.2-0.2,2.2-0.6,2.8c-0.4,0.6-1,0.9-1.8,0.9c-0.8,0-1.4-0.3-1.8-0.9c-0.4-0.6-0.6-1.5-0.6-2.7
			c0-1.2,0.2-2.2,0.6-2.8c0.4-0.6,1-0.9,1.8-0.9c0.8,0,1.4,0.3,1.8,0.9C402.6,251.2,402.9,252.2,402.9,253.3z M398.9,253.3
			c0,1,0.1,1.8,0.4,2.3s0.6,0.7,1.2,0.7c0.5,0,0.9-0.2,1.2-0.7c0.2-0.5,0.4-1.2,0.4-2.3s-0.1-1.8-0.4-2.3c-0.2-0.5-0.6-0.7-1.2-0.7
			c-0.5,0-0.9,0.2-1.2,0.7C399.1,251.6,398.9,252.3,398.9,253.3z"/>
	</g>
	<g>
		<path d="M397.1,271.6c0,1.2-0.2,2.2-0.6,2.8c-0.4,0.6-1,0.9-1.8,0.9c-0.8,0-1.4-0.3-1.8-0.9c-0.4-0.6-0.6-1.5-0.6-2.7
			c0-1.2,0.2-2.2,0.6-2.8c0.4-0.6,1-0.9,1.8-0.9c0.8,0,1.4,0.3,1.8,0.9C396.9,269.5,397.1,270.5,397.1,271.6z M393.2,271.6
			c0,1,0.1,1.8,0.4,2.3s0.6,0.7,1.2,0.7c0.5,0,0.9-0.2,1.2-0.7c0.2-0.5,0.4-1.2,0.4-2.3s-0.1-1.8-0.4-2.3c-0.2-0.5-0.6-0.7-1.2-0.7
			c-0.5,0-0.9,0.2-1.2,0.7C393.4,269.9,393.2,270.6,393.2,271.6z"/>
	</g>
	<g>
		<path d="M34.4,151.4h-0.8v-5.1c0-0.4,0-0.8,0-1.2c-0.1,0.1-0.1,0.1-0.2,0.2s-0.5,0.4-1.2,1l-0.4-0.6l1.9-1.5h0.7V151.4z"/>
		<path d="M39.3,147.1c0.8,0,1.3,0.2,1.8,0.6s0.6,0.9,0.6,1.5c0,0.7-0.2,1.3-0.7,1.7s-1.1,0.6-1.9,0.6c-0.8,0-1.4-0.1-1.8-0.4v-0.8
			c0.2,0.1,0.5,0.3,0.8,0.3s0.7,0.1,1,0.1c0.6,0,1-0.1,1.3-0.4s0.5-0.7,0.5-1.2c0-1-0.6-1.5-1.8-1.5c-0.3,0-0.7,0-1.2,0.1l-0.4-0.3
			l0.3-3.3h3.5v0.7h-2.9l-0.2,2.1C38.6,147.1,38.9,147.1,39.3,147.1z"/>
		<path d="M47.5,147.9c0,1.2-0.2,2.2-0.6,2.8s-1,0.9-1.8,0.9c-0.8,0-1.4-0.3-1.8-0.9s-0.6-1.5-0.6-2.7c0-1.2,0.2-2.2,0.6-2.8
			s1-0.9,1.8-0.9c0.8,0,1.4,0.3,1.8,0.9S47.5,146.7,47.5,147.9z M43.6,147.9c0,1,0.1,1.8,0.4,2.3s0.6,0.7,1.2,0.7
			c0.5,0,0.9-0.2,1.2-0.7s0.4-1.2,0.4-2.3s-0.1-1.8-0.4-2.3s-0.6-0.7-1.2-0.7c-0.5,0-0.9,0.2-1.2,0.7S43.6,146.8,43.6,147.9z"/>
		<path d="M48.8,150.9c0-0.2,0-0.4,0.1-0.5s0.2-0.2,0.4-0.2c0.2,0,0.3,0.1,0.4,0.2s0.2,0.3,0.2,0.5c0,0.2-0.1,0.4-0.2,0.5
			s-0.3,0.2-0.4,0.2c-0.2,0-0.3-0.1-0.4-0.2S48.8,151.2,48.8,150.9z"/>
		<path d="M55.9,147.9c0,1.2-0.2,2.2-0.6,2.8s-1,0.9-1.8,0.9c-0.8,0-1.4-0.3-1.8-0.9s-0.6-1.5-0.6-2.7c0-1.2,0.2-2.2,0.6-2.8
			s1-0.9,1.8-0.9c0.8,0,1.4,0.3,1.8,0.9S55.9,146.7,55.9,147.9z M52,147.9c0,1,0.1,1.8,0.4,2.3s0.6,0.7,1.2,0.7
			c0.5,0,0.9-0.2,1.2-0.7s0.4-1.2,0.4-2.3s-0.1-1.8-0.4-2.3s-0.6-0.7-1.2-0.7c-0.5,0-0.9,0.2-1.2,0.7S52,146.8,52,147.9z"/>
		<path d="M61.6,147.9c0,1.2-0.2,2.2-0.6,2.8s-1,0.9-1.8,0.9c-0.8,0-1.4-0.3-1.8-0.9s-0.6-1.5-0.6-2.7c0-1.2,0.2-2.2,0.6-2.8
			s1-0.9,1.8-0.9c0.8,0,1.4,0.3,1.8,0.9S61.6,146.7,61.6,147.9z M57.7,147.9c0,1,0.1,1.8,0.4,2.3s0.6,0.7,1.2,0.7
			c0.5,0,0.9-0.2,1.2-0.7s0.4-1.2,0.4-2.3s-0.1-1.8-0.4-2.3s-0.6-0.7-1.2-0.7c-0.5,0-0.9,0.2-1.2,0.7S57.7,146.8,57.7,147.9z"/>
		<path d="M67.3,147.9c0,1.2-0.2,2.2-0.6,2.8s-1,0.9-1.8,0.9c-0.8,0-1.4-0.3-1.8-0.9s-0.6-1.5-0.6-2.7c0-1.2,0.2-2.2,0.6-2.8
			s1-0.9,1.8-0.9c0.8,0,1.4,0.3,1.8,0.9S67.3,146.7,67.3,147.9z M63.4,147.9c0,1,0.1,1.8,0.4,2.3s0.6,0.7,1.2,0.7
			c0.5,0,0.9-0.2,1.2-0.7s0.4-1.2,0.4-2.3s-0.1-1.8-0.4-2.3s-0.6-0.7-1.2-0.7c-0.5,0-0.9,0.2-1.2,0.7S63.4,146.8,63.4,147.9z"/>
	</g>
	<g>
		<path d="M34.4,192.7h-0.8v-5.1c0-0.4,0-0.8,0-1.2c-0.1,0.1-0.1,0.1-0.2,0.2s-0.5,0.4-1.2,1l-0.4-0.6l1.9-1.5h0.7V192.7z"/>
		<path d="M41.8,189.2c0,1.2-0.2,2.2-0.6,2.8s-1,0.9-1.8,0.9c-0.8,0-1.4-0.3-1.8-0.9s-0.6-1.5-0.6-2.7c0-1.2,0.2-2.2,0.6-2.8
			s1-0.9,1.8-0.9c0.8,0,1.4,0.3,1.8,0.9S41.8,188,41.8,189.2z M37.9,189.2c0,1,0.1,1.8,0.4,2.3s0.6,0.7,1.2,0.7
			c0.5,0,0.9-0.2,1.2-0.7s0.4-1.2,0.4-2.3s-0.1-1.8-0.4-2.3s-0.6-0.7-1.2-0.7c-0.5,0-0.9,0.2-1.2,0.7S37.9,188.1,37.9,189.2z"/>
		<path d="M47.5,189.2c0,1.2-0.2,2.2-0.6,2.8s-1,0.9-1.8,0.9c-0.8,0-1.4-0.3-1.8-0.9s-0.6-1.5-0.6-2.7c0-1.2,0.2-2.2,0.6-2.8
			s1-0.9,1.8-0.9c0.8,0,1.4,0.3,1.8,0.9S47.5,188,47.5,189.2z M43.6,189.2c0,1,0.1,1.8,0.4,2.3s0.6,0.7,1.2,0.7
			c0.5,0,0.9-0.2,1.2-0.7s0.4-1.2,0.4-2.3s-0.1-1.8-0.4-2.3s-0.6-0.7-1.2-0.7c-0.5,0-0.9,0.2-1.2,0.7S43.6,188.1,43.6,189.2z"/>
		<path d="M48.8,192.2c0-0.2,0-0.4,0.1-0.5s0.2-0.2,0.4-0.2c0.2,0,0.3,0.1,0.4,0.2s0.2,0.3,0.2,0.5c0,0.2-0.1,0.4-0.2,0.5
			s-0.3,0.2-0.4,0.2c-0.2,0-0.3-0.1-0.4-0.2S48.8,192.5,48.8,192.2z"/>
		<path d="M55.9,189.2c0,1.2-0.2,2.2-0.6,2.8s-1,0.9-1.8,0.9c-0.8,0-1.4-0.3-1.8-0.9s-0.6-1.5-0.6-2.7c0-1.2,0.2-2.2,0.6-2.8
			s1-0.9,1.8-0.9c0.8,0,1.4,0.3,1.8,0.9S55.9,188,55.9,189.2z M52,189.2c0,1,0.1,1.8,0.4,2.3s0.6,0.7,1.2,0.7c0.5,0,0.9-0.2,1.2-0.7
			s0.4-1.2,0.4-2.3s-0.1-1.8-0.4-2.3s-0.6-0.7-1.2-0.7c-0.5,0-0.9,0.2-1.2,0.7S52,188.1,52,189.2z"/>
		<path d="M61.6,189.2c0,1.2-0.2,2.2-0.6,2.8s-1,0.9-1.8,0.9c-0.8,0-1.4-0.3-1.8-0.9s-0.6-1.5-0.6-2.7c0-1.2,0.2-2.2,0.6-2.8
			s1-0.9,1.8-0.9c0.8,0,1.4,0.3,1.8,0.9S61.6,188,61.6,189.2z M57.7,189.2c0,1,0.1,1.8,0.4,2.3s0.6,0.7,1.2,0.7
			c0.5,0,0.9-0.2,1.2-0.7s0.4-1.2,0.4-2.3s-0.1-1.8-0.4-2.3s-0.6-0.7-1.2-0.7c-0.5,0-0.9,0.2-1.2,0.7S57.7,188.1,57.7,189.2z"/>
		<path d="M67.3,189.2c0,1.2-0.2,2.2-0.6,2.8s-1,0.9-1.8,0.9c-0.8,0-1.4-0.3-1.8-0.9s-0.6-1.5-0.6-2.7c0-1.2,0.2-2.2,0.6-2.8
			s1-0.9,1.8-0.9c0.8,0,1.4,0.3,1.8,0.9S67.3,188,67.3,189.2z M63.4,189.2c0,1,0.1,1.8,0.4,2.3s0.6,0.7,1.2,0.7
			c0.5,0,0.9-0.2,1.2-0.7s0.4-1.2,0.4-2.3s-0.1-1.8-0.4-2.3s-0.6-0.7-1.2-0.7c-0.5,0-0.9,0.2-1.2,0.7S63.4,188.1,63.4,189.2z"/>
	</g>
	<g>
		<path d="M39.3,229.7c0.8,0,1.3,0.2,1.8,0.6c0.4,0.4,0.6,0.9,0.6,1.5c0,0.7-0.2,1.3-0.7,1.7s-1.1,0.6-1.9,0.6
			c-0.8,0-1.4-0.1-1.8-0.4V233c0.2,0.1,0.5,0.3,0.8,0.3s0.7,0.1,1,0.1c0.6,0,1-0.1,1.3-0.4c0.3-0.3,0.5-0.7,0.5-1.2
			c0-1-0.6-1.5-1.8-1.5c-0.3,0-0.7,0-1.2,0.1l-0.4-0.3l0.3-3.3h3.5v0.7h-2.9l-0.2,2.1C38.6,229.7,38.9,229.7,39.3,229.7z"/>
		<path d="M47.5,230.5c0,1.2-0.2,2.2-0.6,2.8c-0.4,0.6-1,0.9-1.8,0.9c-0.8,0-1.4-0.3-1.8-0.9c-0.4-0.6-0.6-1.5-0.6-2.7
			c0-1.2,0.2-2.2,0.6-2.8c0.4-0.6,1-0.9,1.8-0.9c0.8,0,1.4,0.3,1.8,0.9C47.3,228.4,47.5,229.3,47.5,230.5z M43.6,230.5
			c0,1,0.1,1.8,0.4,2.3s0.6,0.7,1.2,0.7c0.5,0,0.9-0.2,1.2-0.7c0.2-0.5,0.4-1.2,0.4-2.3s-0.1-1.8-0.4-2.3c-0.2-0.5-0.6-0.7-1.2-0.7
			c-0.5,0-0.9,0.2-1.2,0.7C43.7,228.7,43.6,229.4,43.6,230.5z"/>
		<path d="M48.8,233.5c0-0.2,0-0.4,0.1-0.5s0.2-0.2,0.4-0.2c0.2,0,0.3,0.1,0.4,0.2s0.2,0.3,0.2,0.5c0,0.2-0.1,0.4-0.2,0.5
			c-0.1,0.1-0.3,0.2-0.4,0.2c-0.2,0-0.3-0.1-0.4-0.2S48.8,233.7,48.8,233.5z"/>
		<path d="M55.9,230.5c0,1.2-0.2,2.2-0.6,2.8c-0.4,0.6-1,0.9-1.8,0.9c-0.8,0-1.4-0.3-1.8-0.9c-0.4-0.6-0.6-1.5-0.6-2.7
			c0-1.2,0.2-2.2,0.6-2.8c0.4-0.6,1-0.9,1.8-0.9c0.8,0,1.4,0.3,1.8,0.9C55.7,228.4,55.9,229.3,55.9,230.5z M52,230.5
			c0,1,0.1,1.8,0.4,2.3s0.6,0.7,1.2,0.7c0.5,0,0.9-0.2,1.2-0.7c0.2-0.5,0.4-1.2,0.4-2.3s-0.1-1.8-0.4-2.3c-0.2-0.5-0.6-0.7-1.2-0.7
			c-0.5,0-0.9,0.2-1.2,0.7C52.1,228.7,52,229.4,52,230.5z"/>
		<path d="M61.6,230.5c0,1.2-0.2,2.2-0.6,2.8c-0.4,0.6-1,0.9-1.8,0.9c-0.8,0-1.4-0.3-1.8-0.9c-0.4-0.6-0.6-1.5-0.6-2.7
			c0-1.2,0.2-2.2,0.6-2.8c0.4-0.6,1-0.9,1.8-0.9c0.8,0,1.4,0.3,1.8,0.9C61.4,228.4,61.6,229.3,61.6,230.5z M57.7,230.5
			c0,1,0.1,1.8,0.4,2.3s0.6,0.7,1.2,0.7c0.5,0,0.9-0.2,1.2-0.7c0.2-0.5,0.4-1.2,0.4-2.3s-0.1-1.8-0.4-2.3c-0.2-0.5-0.6-0.7-1.2-0.7
			c-0.5,0-0.9,0.2-1.2,0.7C57.8,228.7,57.7,229.4,57.7,230.5z"/>
		<path d="M67.3,230.5c0,1.2-0.2,2.2-0.6,2.8c-0.4,0.6-1,0.9-1.8,0.9c-0.8,0-1.4-0.3-1.8-0.9c-0.4-0.6-0.6-1.5-0.6-2.7
			c0-1.2,0.2-2.2,0.6-2.8c0.4-0.6,1-0.9,1.8-0.9c0.8,0,1.4,0.3,1.8,0.9C67.1,228.4,67.3,229.3,67.3,230.5z M63.4,230.5
			c0,1,0.1,1.8,0.4,2.3s0.6,0.7,1.2,0.7c0.5,0,0.9-0.2,1.2-0.7c0.2-0.5,0.4-1.2,0.4-2.3s-0.1-1.8-0.4-2.3c-0.2-0.5-0.6-0.7-1.2-0.7
			c-0.5,0-0.9,0.2-1.2,0.7C63.5,228.7,63.4,229.4,63.4,230.5z"/>
	</g>
	<g>
		<path d="M67.3,271.7c0,1.2-0.2,2.2-0.6,2.8c-0.4,0.6-1,0.9-1.8,0.9c-0.8,0-1.4-0.3-1.8-0.9c-0.4-0.6-0.6-1.5-0.6-2.7
			c0-1.2,0.2-2.2,0.6-2.8c0.4-0.6,1-0.9,1.8-0.9c0.8,0,1.4,0.3,1.8,0.9C67.1,269.6,67.3,270.6,67.3,271.7z M63.4,271.7
			c0,1,0.1,1.8,0.4,2.3s0.6,0.7,1.2,0.7c0.5,0,0.9-0.2,1.2-0.7c0.2-0.5,0.4-1.2,0.4-2.3s-0.1-1.8-0.4-2.3c-0.2-0.5-0.6-0.7-1.2-0.7
			c-0.5,0-0.9,0.2-1.2,0.7C63.5,270,63.4,270.7,63.4,271.7z"/>
	</g>
</g>
</svg>
