<?xml version="1.0" encoding="utf-8"?>
<!-- Generator: Adobe Illustrator 27.3.0, SVG Export Plug-In . SVG Version: 6.00 Build 0)  -->
<svg version="1.1" id="Camada_1" xmlns="http://www.w3.org/2000/svg" xmlns:xlink="http://www.w3.org/1999/xlink" x="0px" y="0px"
	 viewBox="0 0 352.3 207.5" style="enable-background:new 0 0 352.3 207.5;" xml:space="preserve">
<style type="text/css">
	.st0{fill:#46B3C2;}
	.st1{enable-background:new    ;}
	.st2{fill:#FFFFFF;}
	.st3{fill:#F7B36C;}
	.st4{fill:#1D1D1B;}
</style>
<rect class="st0" width="352.3" height="22.5"/>
<rect x="299.5" y="188" class="st0" width="52.3" height="19.5"/>
<g class="st1">
	<path class="st2" d="M310.1,5.8c0,0.9-0.3,1.7-0.8,2.2S308,8.7,307,8.7h-1.6V3h1.8c0.9,0,1.7,0.2,2.2,0.7S310.1,4.9,310.1,5.8z
		 M308.9,5.8c0-1.2-0.5-1.8-1.6-1.8h-0.6v3.7h0.5C308.3,7.7,308.9,7.1,308.9,5.8z"/>
	<path class="st2" d="M313.2,8.8c-0.7,0-1.3-0.2-1.6-0.6c-0.4-0.4-0.6-0.9-0.6-1.6c0-0.7,0.2-1.3,0.5-1.7c0.4-0.4,0.9-0.6,1.5-0.6
		c0.6,0,1.1,0.2,1.4,0.5s0.5,0.8,0.5,1.5v0.6h-2.8c0,0.3,0.1,0.6,0.3,0.8s0.5,0.3,0.8,0.3c0.3,0,0.5,0,0.7-0.1s0.5-0.1,0.7-0.3v0.9
		c-0.2,0.1-0.4,0.2-0.7,0.2C313.8,8.8,313.5,8.8,313.2,8.8z M313,5.1c-0.3,0-0.5,0.1-0.6,0.2c-0.1,0.2-0.2,0.4-0.2,0.7h1.7
		c0-0.3-0.1-0.5-0.2-0.7S313.3,5.1,313,5.1z"/>
	<path class="st2" d="M320,8.7h-1.2V6.2c0-0.3-0.1-0.6-0.2-0.7c-0.1-0.2-0.3-0.2-0.5-0.2c-0.3,0-0.6,0.1-0.7,0.3s-0.2,0.6-0.2,1.1
		v2.1h-1.2V4.3h0.9l0.2,0.6h0.1c0.1-0.2,0.3-0.4,0.5-0.5c0.2-0.1,0.5-0.2,0.8-0.2c0.5,0,0.9,0.1,1.2,0.4c0.3,0.3,0.4,0.7,0.4,1.2
		V8.7z"/>
	<path class="st2" d="M324.2,7.4c0,0.4-0.2,0.8-0.5,1c-0.3,0.2-0.8,0.4-1.4,0.4c-0.3,0-0.6,0-0.8-0.1c-0.2,0-0.4-0.1-0.6-0.2v-1
		c0.2,0.1,0.5,0.2,0.7,0.3s0.5,0.1,0.7,0.1c0.4,0,0.6-0.1,0.6-0.4c0-0.1,0-0.2-0.1-0.2c-0.1-0.1-0.2-0.1-0.3-0.2s-0.3-0.2-0.6-0.3
		c-0.3-0.1-0.6-0.3-0.7-0.4c-0.2-0.1-0.3-0.3-0.3-0.4c-0.1-0.2-0.1-0.3-0.1-0.6c0-0.4,0.2-0.7,0.5-0.9s0.7-0.3,1.3-0.3
		c0.5,0,1,0.1,1.5,0.3l-0.4,0.9c-0.2-0.1-0.4-0.2-0.6-0.2c-0.2-0.1-0.4-0.1-0.6-0.1c-0.4,0-0.5,0.1-0.5,0.3c0,0.1,0.1,0.2,0.2,0.3
		s0.4,0.2,0.7,0.3c0.3,0.1,0.6,0.3,0.8,0.4c0.2,0.1,0.3,0.3,0.4,0.4C324.2,7,324.2,7.2,324.2,7.4z"/>
	<path class="st2" d="M325.1,3.2c0-0.4,0.2-0.6,0.6-0.6c0.4,0,0.6,0.2,0.6,0.6c0,0.2-0.1,0.3-0.2,0.4c-0.1,0.1-0.3,0.2-0.5,0.2
		C325.3,3.8,325.1,3.6,325.1,3.2z M326.4,8.7h-1.2V4.3h1.2V8.7z"/>
	<path class="st2" d="M329,8.8c-0.5,0-0.9-0.2-1.2-0.6s-0.4-1-0.4-1.7c0-0.7,0.1-1.3,0.4-1.7c0.3-0.4,0.7-0.6,1.2-0.6
		c0.5,0,1,0.2,1.3,0.6h0c-0.1-0.3-0.1-0.6-0.1-0.9V2.6h1.2v6.1h-0.9l-0.2-0.6h-0.1C330,8.6,329.5,8.8,329,8.8z M329.4,7.8
		c0.3,0,0.5-0.1,0.7-0.3c0.1-0.2,0.2-0.5,0.2-0.9V6.5c0-0.5-0.1-0.8-0.2-1s-0.4-0.3-0.7-0.3c-0.3,0-0.5,0.1-0.6,0.3
		c-0.1,0.2-0.2,0.6-0.2,1s0.1,0.8,0.2,1S329.1,7.8,329.4,7.8z"/>
	<path class="st2" d="M335.4,8.7l-0.2-0.6h0c-0.2,0.3-0.4,0.4-0.6,0.5c-0.2,0.1-0.5,0.1-0.8,0.1c-0.4,0-0.8-0.1-1-0.4
		c-0.2-0.2-0.4-0.6-0.4-1c0-0.5,0.2-0.8,0.5-1s0.8-0.3,1.5-0.4l0.8,0V5.8c0-0.4-0.2-0.7-0.7-0.7c-0.3,0-0.8,0.1-1.2,0.3l-0.4-0.8
		c0.5-0.3,1.1-0.4,1.7-0.4c0.6,0,1,0.1,1.3,0.4s0.5,0.6,0.5,1.2v2.9H335.4z M335.1,6.7l-0.5,0c-0.3,0-0.6,0.1-0.8,0.2
		c-0.2,0.1-0.3,0.3-0.3,0.5c0,0.3,0.2,0.5,0.6,0.5c0.3,0,0.5-0.1,0.7-0.2c0.2-0.2,0.2-0.4,0.2-0.6V6.7z"/>
	<path class="st2" d="M338.9,8.8c-0.5,0-0.9-0.2-1.2-0.6s-0.4-1-0.4-1.7c0-0.7,0.1-1.3,0.4-1.7c0.3-0.4,0.7-0.6,1.2-0.6
		c0.5,0,1,0.2,1.3,0.6h0c-0.1-0.3-0.1-0.6-0.1-0.9V2.6h1.2v6.1h-0.9l-0.2-0.6h-0.1C339.9,8.6,339.4,8.8,338.9,8.8z M339.3,7.8
		c0.3,0,0.5-0.1,0.7-0.3c0.1-0.2,0.2-0.5,0.2-0.9V6.5c0-0.5-0.1-0.8-0.2-1s-0.4-0.3-0.7-0.3c-0.3,0-0.5,0.1-0.6,0.3
		c-0.1,0.2-0.2,0.6-0.2,1s0.1,0.8,0.2,1S339,7.8,339.3,7.8z"/>
	<path class="st2" d="M344.5,8.8c-0.7,0-1.3-0.2-1.6-0.6c-0.4-0.4-0.6-0.9-0.6-1.6c0-0.7,0.2-1.3,0.5-1.7c0.4-0.4,0.9-0.6,1.5-0.6
		c0.6,0,1.1,0.2,1.4,0.5s0.5,0.8,0.5,1.5v0.6h-2.8c0,0.3,0.1,0.6,0.3,0.8s0.5,0.3,0.8,0.3c0.3,0,0.5,0,0.7-0.1s0.5-0.1,0.7-0.3v0.9
		c-0.2,0.1-0.4,0.2-0.7,0.2C345.2,8.8,344.9,8.8,344.5,8.8z M344.4,5.1c-0.3,0-0.5,0.1-0.6,0.2c-0.1,0.2-0.2,0.4-0.2,0.7h1.7
		c0-0.3-0.1-0.5-0.2-0.7S344.6,5.1,344.4,5.1z"/>
</g>
<g class="st1">
	<path class="st2" d="M305,16.1c0-0.7,0.1-1.3,0.3-1.9c0.2-0.6,0.5-1.1,0.9-1.6h1c-0.4,0.5-0.6,1.1-0.8,1.7s-0.3,1.2-0.3,1.9
		c0,0.6,0.1,1.3,0.3,1.8s0.5,1.1,0.8,1.6h-1c-0.4-0.4-0.7-1-0.9-1.6C305.1,17.4,305,16.8,305,16.1z"/>
	<path class="st2" d="M312,18.3h-1.2v-2.6c0-0.6-0.2-0.9-0.7-0.9c-0.3,0-0.6,0.1-0.7,0.3s-0.2,0.6-0.2,1.1v2.1H308v-6.1h1.2v1.2
		c0,0.1,0,0.3,0,0.7l0,0.4h0.1c0.3-0.4,0.7-0.6,1.3-0.6c0.5,0,0.9,0.1,1.2,0.4s0.4,0.7,0.4,1.2V18.3z"/>
	<path class="st2" d="M316,18.3l-0.2-0.6h0c-0.2,0.3-0.4,0.4-0.6,0.5c-0.2,0.1-0.5,0.1-0.8,0.1c-0.4,0-0.8-0.1-1-0.4
		c-0.2-0.2-0.4-0.6-0.4-1c0-0.5,0.2-0.8,0.5-1s0.8-0.3,1.5-0.4l0.8,0v-0.2c0-0.4-0.2-0.7-0.7-0.7c-0.3,0-0.8,0.1-1.2,0.3l-0.4-0.8
		c0.5-0.3,1.1-0.4,1.7-0.4c0.6,0,1,0.1,1.3,0.4s0.5,0.6,0.5,1.2v2.9H316z M315.7,16.3l-0.5,0c-0.3,0-0.6,0.1-0.8,0.2
		c-0.2,0.1-0.3,0.3-0.3,0.5c0,0.3,0.2,0.5,0.6,0.5c0.3,0,0.5-0.1,0.7-0.2c0.2-0.2,0.2-0.4,0.2-0.6V16.3z"/>
	<path class="st2" d="M320.5,13.9c0.5,0,0.9,0.2,1.2,0.6c0.3,0.4,0.4,1,0.4,1.7c0,0.7-0.2,1.3-0.5,1.7s-0.7,0.6-1.2,0.6
		c-0.5,0-0.9-0.2-1.2-0.6h-0.1l-0.2,0.5h-0.9v-6.1h1.2v1.4c0,0.2,0,0.5,0,0.9h0C319.6,14.1,320,13.9,320.5,13.9z M320.1,14.8
		c-0.3,0-0.5,0.1-0.6,0.3c-0.1,0.2-0.2,0.5-0.2,0.9v0.1c0,0.5,0.1,0.8,0.2,1c0.1,0.2,0.4,0.3,0.7,0.3c0.2,0,0.4-0.1,0.6-0.3
		s0.2-0.6,0.2-1s-0.1-0.8-0.2-1C320.6,14.9,320.4,14.8,320.1,14.8z"/>
	<path class="st2" d="M325.8,12.6l-2.1,5.7h-1.1l2.1-5.7H325.8z"/>
	<path class="st2" d="M327.6,15.9l0.5-0.7l1.2-1.3h1.3l-1.7,1.9l1.8,2.5h-1.4l-1.3-1.8l-0.5,0.4v1.4h-1.2v-6.1h1.2v2.7L327.6,15.9
		L327.6,15.9z"/>
	<path class="st2" d="M335.3,18.3h-1.2v-2.6c0-0.3-0.1-0.6-0.2-0.7s-0.3-0.2-0.5-0.2c-0.3,0-0.5,0.1-0.7,0.3
		c-0.1,0.2-0.2,0.6-0.2,1.1v2.1h-1.2v-4.4h0.9l0.2,0.6h0.1c0.1-0.2,0.3-0.4,0.5-0.5c0.2-0.1,0.5-0.2,0.8-0.2c0.7,0,1.1,0.2,1.3,0.6
		h0.1c0.1-0.2,0.3-0.4,0.5-0.5c0.2-0.1,0.5-0.2,0.8-0.2c0.5,0,0.9,0.1,1.1,0.4s0.4,0.7,0.4,1.2v2.8h-1.2v-2.6c0-0.3-0.1-0.6-0.2-0.7
		s-0.3-0.2-0.5-0.2c-0.3,0-0.5,0.1-0.7,0.3s-0.2,0.5-0.2,1V18.3z"/>
	<path class="st2" d="M343,18.3h-4v-0.8l1.4-1.4c0.4-0.4,0.7-0.7,0.8-0.9c0.1-0.2,0.2-0.3,0.3-0.5c0.1-0.1,0.1-0.3,0.1-0.4
		c0-0.2-0.1-0.4-0.2-0.5c-0.1-0.1-0.3-0.2-0.5-0.2c-0.2,0-0.4,0.1-0.6,0.2c-0.2,0.1-0.4,0.2-0.7,0.4l-0.7-0.8
		c0.3-0.2,0.5-0.4,0.7-0.5c0.2-0.1,0.4-0.2,0.6-0.2s0.5-0.1,0.7-0.1c0.4,0,0.7,0.1,0.9,0.2s0.5,0.3,0.6,0.5c0.2,0.2,0.2,0.5,0.2,0.8
		c0,0.3,0,0.5-0.1,0.7c-0.1,0.2-0.2,0.5-0.4,0.7c-0.2,0.2-0.5,0.6-1,1l-0.7,0.7v0.1h2.5V18.3z"/>
	<path class="st2" d="M345.6,16.1c0,0.7-0.1,1.3-0.3,1.9c-0.2,0.6-0.5,1.1-0.9,1.5h-1c0.4-0.5,0.6-1,0.8-1.6
		c0.2-0.6,0.3-1.2,0.3-1.9c0-0.6-0.1-1.3-0.3-1.9s-0.5-1.2-0.8-1.7h1c0.4,0.5,0.7,1,0.9,1.6C345.5,14.8,345.6,15.4,345.6,16.1z"/>
</g>
<rect x="299.4" y="24.5" class="st3" width="52.5" height="161.8"/>
<g class="st1">
	<path class="st4" d="M324.4,44.9h-0.7v1.2h-1.2v-1.2h-2.4v-0.8l2.5-3.7h1.1V44h0.7V44.9z M322.5,44v-1c0-0.2,0-0.4,0-0.7
		c0-0.3,0-0.5,0-0.5h0c-0.1,0.2-0.2,0.4-0.3,0.6l-1,1.6H322.5z"/>
	<path class="st4" d="M326.3,45.2c-0.1,0.5-0.4,1.1-0.7,1.9h-0.9c0.2-0.7,0.3-1.3,0.4-2L326.3,45.2L326.3,45.2z"/>
	<path class="st4" d="M331.1,42.8c0,1.1-0.2,2-0.7,2.5c-0.5,0.6-1.2,0.8-2.2,0.8c-0.3,0-0.6,0-0.8-0.1v-1c0.2,0.1,0.4,0.1,0.7,0.1
		c0.4,0,0.7-0.1,1-0.2c0.3-0.1,0.5-0.3,0.6-0.6c0.1-0.3,0.2-0.6,0.2-1h0c-0.2,0.2-0.3,0.4-0.5,0.5c-0.2,0.1-0.4,0.1-0.7,0.1
		c-0.5,0-0.9-0.2-1.2-0.5c-0.3-0.3-0.4-0.8-0.4-1.3c0-0.6,0.2-1.1,0.5-1.5s0.8-0.5,1.4-0.5c0.4,0,0.8,0.1,1.1,0.3s0.6,0.5,0.7,0.9
		C331,41.8,331.1,42.3,331.1,42.8z M329,41.3c-0.2,0-0.4,0.1-0.6,0.3s-0.2,0.4-0.2,0.7c0,0.3,0.1,0.5,0.2,0.7
		c0.1,0.2,0.3,0.2,0.6,0.2c0.2,0,0.5-0.1,0.6-0.2c0.2-0.2,0.3-0.3,0.3-0.6c0-0.3-0.1-0.6-0.2-0.8C329.5,41.4,329.3,41.3,329,41.3z"
		/>
</g>
<g class="st1">
	<path class="st4" d="M321,77.5h-1.2v-3.3l0-0.5l0-0.6c-0.2,0.2-0.3,0.3-0.4,0.4l-0.7,0.5l-0.6-0.7l1.8-1.5h1V77.5z"/>
	<path class="st4" d="M326.5,74.6c0,1-0.2,1.7-0.5,2.2c-0.3,0.5-0.8,0.7-1.5,0.7c-0.7,0-1.2-0.2-1.5-0.7c-0.3-0.5-0.5-1.2-0.5-2.2
		c0-1,0.2-1.8,0.5-2.2c0.3-0.5,0.8-0.7,1.5-0.7c0.7,0,1.2,0.2,1.5,0.8C326.3,72.9,326.5,73.6,326.5,74.6z M323.7,74.6
		c0,0.7,0.1,1.2,0.2,1.5s0.3,0.5,0.6,0.5c0.3,0,0.5-0.2,0.6-0.5s0.2-0.8,0.2-1.5c0-0.7-0.1-1.2-0.2-1.5c-0.1-0.3-0.3-0.5-0.6-0.5
		c-0.3,0-0.5,0.2-0.6,0.5C323.8,73.4,323.7,73.9,323.7,74.6z"/>
	<path class="st4" d="M328.6,76.6c-0.1,0.5-0.4,1.1-0.7,1.9H327c0.2-0.7,0.3-1.3,0.4-2L328.6,76.6L328.6,76.6z"/>
	<path class="st4" d="M333.5,76.3h-0.7v1.2h-1.2v-1.2h-2.4v-0.8l2.5-3.7h1.1v3.6h0.7V76.3z M331.7,75.3v-1c0-0.2,0-0.4,0-0.7
		c0-0.3,0-0.5,0-0.5h0c-0.1,0.2-0.2,0.4-0.3,0.6l-1,1.6H331.7z"/>
</g>
<g class="st1">
	<path class="st4" d="M321.7,104.4c0,0.4-0.1,0.7-0.3,0.9c-0.2,0.2-0.5,0.4-0.9,0.5v0c0.5,0.1,0.8,0.2,1,0.4
		c0.2,0.2,0.4,0.5,0.4,0.9c0,0.5-0.2,1-0.6,1.3s-1,0.5-1.7,0.5c-0.6,0-1.2-0.1-1.6-0.3v-1c0.2,0.1,0.5,0.2,0.7,0.3s0.5,0.1,0.8,0.1
		c0.4,0,0.7-0.1,0.9-0.2c0.2-0.1,0.3-0.4,0.3-0.7c0-0.3-0.1-0.5-0.3-0.6s-0.6-0.2-1-0.2h-0.4v-0.9h0.4c0.4,0,0.8-0.1,1-0.2
		c0.2-0.1,0.3-0.3,0.3-0.6c0-0.4-0.3-0.6-0.8-0.6c-0.2,0-0.4,0-0.6,0.1c-0.2,0.1-0.4,0.2-0.6,0.3l-0.6-0.8c0.5-0.4,1.1-0.6,1.9-0.6
		c0.6,0,1.1,0.1,1.4,0.4C321.6,103.6,321.7,104,321.7,104.4z"/>
	<path class="st4" d="M323.1,108.8l2.1-4.7h-2.8v-1h4.1v0.8l-2.2,4.9H323.1z"/>
	<path class="st4" d="M328.6,108c-0.1,0.5-0.4,1.1-0.7,1.9H327c0.2-0.7,0.3-1.3,0.4-2L328.6,108L328.6,108z"/>
	<path class="st4" d="M332.4,108.8h-1.2v-3.3l0-0.5l0-0.6c-0.2,0.2-0.3,0.3-0.4,0.4l-0.7,0.5l-0.6-0.7l1.8-1.5h1V108.8z"/>
</g>
<g class="st1">
	<path class="st4" d="M321.9,136.9c0,1.1-0.2,2-0.7,2.5c-0.5,0.6-1.2,0.8-2.2,0.8c-0.3,0-0.6,0-0.8-0.1v-1c0.2,0.1,0.4,0.1,0.7,0.1
		c0.4,0,0.7-0.1,1-0.2c0.3-0.1,0.5-0.3,0.6-0.6c0.1-0.3,0.2-0.6,0.2-1h0c-0.2,0.2-0.3,0.4-0.5,0.5c-0.2,0.1-0.4,0.1-0.7,0.1
		c-0.5,0-0.9-0.2-1.2-0.5c-0.3-0.3-0.4-0.8-0.4-1.3c0-0.6,0.2-1.1,0.5-1.5s0.8-0.5,1.4-0.5c0.4,0,0.8,0.1,1.1,0.3s0.6,0.5,0.7,0.9
		C321.9,136,321.9,136.4,321.9,136.9z M319.9,135.4c-0.2,0-0.4,0.1-0.6,0.3s-0.2,0.4-0.2,0.7c0,0.3,0.1,0.5,0.2,0.7
		c0.1,0.2,0.3,0.2,0.6,0.2c0.2,0,0.5-0.1,0.6-0.2c0.2-0.2,0.3-0.3,0.3-0.6c0-0.3-0.1-0.6-0.2-0.8
		C320.3,135.5,320.1,135.4,319.9,135.4z"/>
	<path class="st4" d="M322.5,137.8c0-1.1,0.2-2,0.7-2.5c0.5-0.6,1.2-0.8,2.1-0.8c0.3,0,0.6,0,0.8,0.1v1c-0.2-0.1-0.5-0.1-0.7-0.1
		c-0.4,0-0.8,0.1-1,0.2s-0.5,0.3-0.6,0.6c-0.1,0.2-0.2,0.6-0.2,1h0.1c0.3-0.4,0.7-0.7,1.2-0.7c0.5,0,0.9,0.2,1.2,0.5
		s0.4,0.8,0.4,1.3c0,0.6-0.2,1.1-0.5,1.4s-0.8,0.5-1.4,0.5c-0.4,0-0.8-0.1-1.1-0.3c-0.3-0.2-0.6-0.5-0.7-0.9
		C322.6,138.8,322.5,138.3,322.5,137.8z M324.6,139.3c0.3,0,0.5-0.1,0.6-0.3c0.1-0.2,0.2-0.4,0.2-0.7c0-0.3-0.1-0.5-0.2-0.7
		s-0.3-0.2-0.6-0.2c-0.2,0-0.5,0.1-0.6,0.2c-0.2,0.2-0.3,0.3-0.3,0.6c0,0.3,0.1,0.6,0.2,0.8C324.1,139.2,324.3,139.3,324.6,139.3z"
		/>
	<path class="st4" d="M328.6,139.4c-0.1,0.5-0.4,1.1-0.7,1.9H327c0.2-0.7,0.3-1.3,0.4-2L328.6,139.4L328.6,139.4z"/>
	<path class="st4" d="M333.4,136.9c0,1.1-0.2,2-0.7,2.5c-0.5,0.6-1.2,0.8-2.2,0.8c-0.3,0-0.6,0-0.8-0.1v-1c0.2,0.1,0.4,0.1,0.7,0.1
		c0.4,0,0.7-0.1,1-0.2c0.3-0.1,0.5-0.3,0.6-0.6c0.1-0.3,0.2-0.6,0.2-1h0c-0.2,0.2-0.3,0.4-0.5,0.5c-0.2,0.1-0.4,0.1-0.7,0.1
		c-0.5,0-0.9-0.2-1.2-0.5c-0.3-0.3-0.4-0.8-0.4-1.3c0-0.6,0.2-1.1,0.5-1.5s0.8-0.5,1.4-0.5c0.4,0,0.8,0.1,1.1,0.3s0.6,0.5,0.7,0.9
		C333.3,136,333.4,136.4,333.4,136.9z M331.3,135.4c-0.2,0-0.4,0.1-0.6,0.3s-0.2,0.4-0.2,0.7c0,0.3,0.1,0.5,0.2,0.7
		c0.1,0.2,0.3,0.2,0.6,0.2c0.2,0,0.5-0.1,0.6-0.2c0.2-0.2,0.3-0.3,0.3-0.6c0-0.3-0.1-0.6-0.2-0.8
		C331.8,135.5,331.6,135.4,331.3,135.4z"/>
</g>
<g class="st1">
	<path class="st4" d="M320,166.8c0.6,0,1,0.2,1.3,0.5c0.3,0.3,0.5,0.7,0.5,1.3c0,0.6-0.2,1.1-0.6,1.5c-0.4,0.3-1,0.5-1.7,0.5
		c-0.6,0-1.1-0.1-1.5-0.3v-1c0.2,0.1,0.4,0.2,0.7,0.3s0.5,0.1,0.8,0.1c0.7,0,1.1-0.3,1.1-0.9c0-0.6-0.4-0.9-1.1-0.9
		c-0.1,0-0.3,0-0.5,0c-0.2,0-0.3,0.1-0.4,0.1l-0.5-0.3l0.2-2.9h3.1v1h-2l-0.1,1.1l0.1,0C319.6,166.8,319.8,166.8,320,166.8z"/>
	<path class="st4" d="M326.5,170.5h-4v-0.8l1.4-1.4c0.4-0.4,0.7-0.7,0.8-0.9c0.1-0.2,0.2-0.3,0.3-0.5c0.1-0.1,0.1-0.3,0.1-0.4
		c0-0.2-0.1-0.4-0.2-0.5c-0.1-0.1-0.3-0.2-0.5-0.2c-0.2,0-0.4,0.1-0.6,0.2c-0.2,0.1-0.4,0.2-0.7,0.4l-0.7-0.8
		c0.3-0.2,0.5-0.4,0.7-0.5c0.2-0.1,0.4-0.2,0.6-0.2s0.5-0.1,0.7-0.1c0.4,0,0.7,0.1,0.9,0.2s0.5,0.3,0.6,0.5c0.2,0.2,0.2,0.5,0.2,0.8
		c0,0.3,0,0.5-0.1,0.7c-0.1,0.2-0.2,0.5-0.4,0.7c-0.2,0.2-0.5,0.6-1,1l-0.7,0.7v0.1h2.5V170.5z"/>
	<path class="st4" d="M328.6,169.6c-0.1,0.5-0.4,1.1-0.7,1.9H327c0.2-0.7,0.3-1.3,0.4-2L328.6,169.6L328.6,169.6z"/>
	<path class="st4" d="M330,170.5l2.1-4.7h-2.8v-1h4.1v0.8l-2.2,4.9H330z"/>
</g>
<g class="st1">
	<path class="st4" d="M322,201.8h-4V201l1.4-1.4c0.4-0.4,0.7-0.7,0.8-0.9c0.1-0.2,0.2-0.3,0.3-0.5c0.1-0.1,0.1-0.3,0.1-0.4
		c0-0.2-0.1-0.4-0.2-0.5c-0.1-0.1-0.3-0.2-0.5-0.2c-0.2,0-0.4,0.1-0.6,0.2c-0.2,0.1-0.4,0.2-0.7,0.4l-0.7-0.8
		c0.3-0.2,0.5-0.4,0.7-0.5c0.2-0.1,0.4-0.2,0.6-0.2s0.5-0.1,0.7-0.1c0.4,0,0.7,0.1,0.9,0.2s0.5,0.3,0.6,0.5c0.2,0.2,0.2,0.5,0.2,0.8
		c0,0.3,0,0.5-0.1,0.7c-0.1,0.2-0.2,0.5-0.4,0.7c-0.2,0.2-0.5,0.6-1,1l-0.7,0.7v0.1h2.5V201.8z"/>
	<path class="st4" d="M324.6,198.2c0.6,0,1,0.2,1.3,0.5c0.3,0.3,0.5,0.7,0.5,1.3c0,0.6-0.2,1.1-0.6,1.5c-0.4,0.3-1,0.5-1.7,0.5
		c-0.6,0-1.1-0.1-1.5-0.3v-1c0.2,0.1,0.4,0.2,0.7,0.3s0.5,0.1,0.8,0.1c0.7,0,1.1-0.3,1.1-0.9c0-0.6-0.4-0.9-1.1-0.9
		c-0.1,0-0.3,0-0.5,0c-0.2,0-0.3,0.1-0.4,0.1l-0.5-0.3l0.2-2.9h3.1v1h-2l-0.1,1.1l0.1,0C324.2,198.2,324.4,198.2,324.6,198.2z"/>
	<path class="st4" d="M328.6,201c-0.1,0.5-0.4,1.1-0.7,1.9H327c0.2-0.7,0.3-1.3,0.4-2L328.6,201L328.6,201z"/>
	<path class="st4" d="M332.4,201.8h-1.2v-3.3l0-0.5l0-0.6c-0.2,0.2-0.3,0.3-0.4,0.4l-0.7,0.5l-0.6-0.7l1.8-1.5h1V201.8z"/>
</g>
<g class="st1">
	<path class="st2" d="M270.2,9.5c0,0.6-0.1,1-0.3,1.3c-0.2,0.3-0.6,0.5-1,0.5c-0.4,0-0.8-0.2-1-0.5s-0.4-0.8-0.4-1.3
		c0-1.2,0.4-1.8,1.3-1.8c0.4,0,0.8,0.2,1,0.5C270,8.5,270.2,8.9,270.2,9.5z M268.4,9.5c0,0.3,0,0.6,0.1,0.7s0.2,0.2,0.3,0.2
		c0.2,0,0.4-0.3,0.4-1c0-0.7-0.1-1-0.4-1c-0.1,0-0.2,0.1-0.3,0.2S268.4,9.2,268.4,9.5z M272.8,7.8l-3.2,5.7h-0.9l3.2-5.7H272.8z
		 M274.2,11.8c0,0.6-0.1,1-0.3,1.3c-0.2,0.3-0.6,0.5-1,0.5c-0.4,0-0.8-0.2-1-0.5s-0.4-0.8-0.4-1.3c0-1.2,0.4-1.8,1.3-1.8
		c0.4,0,0.8,0.2,1,0.5C274,10.8,274.2,11.2,274.2,11.8z M272.4,11.8c0,0.3,0,0.6,0.1,0.7s0.2,0.2,0.3,0.2c0.2,0,0.4-0.3,0.4-1
		c0-0.7-0.1-1-0.4-1c-0.1,0-0.2,0.1-0.3,0.2S272.4,11.5,272.4,11.8z"/>
</g>
<rect x="244.6" y="188" class="st0" width="52.3" height="19.5"/>
<rect x="244.5" y="24.5" class="st3" width="52.5" height="161.8"/>
<g class="st1">
	<path class="st4" d="M267.4,40.3c0.5,0,1,0.1,1.3,0.4c0.3,0.2,0.5,0.6,0.5,1c0,0.3-0.1,0.6-0.2,0.8c-0.2,0.2-0.4,0.4-0.8,0.6
		c0.4,0.2,0.7,0.5,0.9,0.7c0.2,0.2,0.3,0.5,0.3,0.8c0,0.5-0.2,0.8-0.6,1.1s-0.9,0.4-1.4,0.4c-0.6,0-1.1-0.1-1.5-0.4
		c-0.4-0.3-0.5-0.6-0.5-1.1c0-0.3,0.1-0.6,0.3-0.9c0.2-0.3,0.5-0.5,0.8-0.7c-0.3-0.2-0.6-0.4-0.7-0.7c-0.1-0.2-0.2-0.5-0.2-0.8
		c0-0.4,0.2-0.7,0.5-1C266.4,40.4,266.8,40.3,267.4,40.3z M266.5,44.6c0,0.2,0.1,0.4,0.2,0.5s0.4,0.2,0.6,0.2c0.3,0,0.5-0.1,0.7-0.2
		s0.2-0.3,0.2-0.5c0-0.2-0.1-0.3-0.2-0.5c-0.1-0.2-0.4-0.3-0.7-0.5C266.7,43.9,266.5,44.2,266.5,44.6z M267.4,41.2
		c-0.2,0-0.4,0.1-0.5,0.2c-0.1,0.1-0.2,0.2-0.2,0.4c0,0.2,0,0.3,0.2,0.4c0.1,0.1,0.3,0.3,0.5,0.4c0.3-0.1,0.4-0.2,0.5-0.4
		s0.2-0.3,0.2-0.4c0-0.2-0.1-0.3-0.2-0.4C267.7,41.2,267.6,41.2,267.4,41.2z"/>
	<path class="st4" d="M271.4,45.2c-0.1,0.5-0.4,1.1-0.7,1.9h-0.9c0.2-0.7,0.3-1.3,0.4-2L271.4,45.2L271.4,45.2z"/>
	<path class="st4" d="M276.2,42.8c0,1.1-0.2,2-0.7,2.5c-0.5,0.6-1.2,0.8-2.2,0.8c-0.3,0-0.6,0-0.8-0.1v-1c0.2,0.1,0.4,0.1,0.7,0.1
		c0.4,0,0.7-0.1,1-0.2c0.3-0.1,0.5-0.3,0.6-0.6c0.1-0.3,0.2-0.6,0.2-1h0c-0.2,0.2-0.3,0.4-0.5,0.5c-0.2,0.1-0.4,0.1-0.7,0.1
		c-0.5,0-0.9-0.2-1.2-0.5c-0.3-0.3-0.4-0.8-0.4-1.3c0-0.6,0.2-1.1,0.5-1.5s0.8-0.5,1.4-0.5c0.4,0,0.8,0.1,1.1,0.3s0.6,0.5,0.7,0.9
		C276.2,41.8,276.2,42.3,276.2,42.8z M274.2,41.3c-0.2,0-0.4,0.1-0.6,0.3s-0.2,0.4-0.2,0.7c0,0.3,0.1,0.5,0.2,0.7
		c0.1,0.2,0.3,0.2,0.6,0.2c0.2,0,0.5-0.1,0.6-0.2c0.2-0.2,0.3-0.3,0.3-0.6c0-0.3-0.1-0.6-0.2-0.8C274.6,41.4,274.4,41.3,274.2,41.3z
		"/>
</g>
<g class="st1">
	<path class="st4" d="M266,77.5l2.1-4.7h-2.8v-1h4.1v0.8l-2.2,4.9H266z"/>
	<path class="st4" d="M271.4,76.6c-0.1,0.5-0.4,1.1-0.7,1.9h-0.9c0.2-0.7,0.3-1.3,0.4-2L271.4,76.6L271.4,76.6z"/>
	<path class="st4" d="M274.2,71.7c0.5,0,1,0.1,1.3,0.4c0.3,0.2,0.5,0.6,0.5,1c0,0.3-0.1,0.6-0.2,0.8c-0.2,0.2-0.4,0.4-0.8,0.6
		c0.4,0.2,0.7,0.5,0.9,0.7c0.2,0.2,0.3,0.5,0.3,0.8c0,0.5-0.2,0.8-0.6,1.1s-0.9,0.4-1.4,0.4c-0.6,0-1.1-0.1-1.5-0.4
		c-0.4-0.3-0.5-0.6-0.5-1.1c0-0.3,0.1-0.6,0.3-0.9c0.2-0.3,0.5-0.5,0.8-0.7c-0.3-0.2-0.6-0.4-0.7-0.7c-0.1-0.2-0.2-0.5-0.2-0.8
		c0-0.4,0.2-0.7,0.5-1C273.3,71.8,273.7,71.7,274.2,71.7z M273.4,75.9c0,0.2,0.1,0.4,0.2,0.5s0.4,0.2,0.6,0.2c0.3,0,0.5-0.1,0.7-0.2
		s0.2-0.3,0.2-0.5c0-0.2-0.1-0.3-0.2-0.5c-0.1-0.2-0.4-0.3-0.7-0.5C273.6,75.2,273.4,75.5,273.4,75.9z M274.2,72.6
		c-0.2,0-0.4,0.1-0.5,0.2c-0.1,0.1-0.2,0.2-0.2,0.4c0,0.2,0,0.3,0.2,0.4c0.1,0.1,0.3,0.3,0.5,0.4c0.3-0.1,0.4-0.2,0.5-0.4
		s0.2-0.3,0.2-0.4c0-0.2-0.1-0.3-0.2-0.4C274.6,72.6,274.4,72.6,274.2,72.6z"/>
</g>
<g class="st1">
	<path class="st4" d="M267.1,108.8h-4V108l1.4-1.4c0.4-0.4,0.7-0.7,0.8-0.9s0.2-0.3,0.3-0.5s0.1-0.3,0.1-0.4c0-0.2-0.1-0.4-0.2-0.5
		s-0.3-0.2-0.5-0.2c-0.2,0-0.4,0.1-0.6,0.2s-0.4,0.2-0.7,0.4l-0.7-0.8c0.3-0.2,0.5-0.4,0.7-0.5s0.4-0.2,0.6-0.2s0.5-0.1,0.7-0.1
		c0.4,0,0.7,0.1,0.9,0.2s0.5,0.3,0.6,0.5s0.2,0.5,0.2,0.8c0,0.3,0,0.5-0.1,0.7s-0.2,0.5-0.4,0.7s-0.5,0.6-1,1l-0.7,0.7v0.1h2.5
		V108.8z"/>
	<path class="st4" d="M268.2,108.8l2.1-4.7h-2.8v-1h4.1v0.8l-2.2,4.9H268.2z"/>
	<path class="st4" d="M273.7,108c-0.1,0.5-0.4,1.1-0.7,1.9h-0.9c0.2-0.7,0.3-1.3,0.4-2L273.7,108L273.7,108z"/>
	<path class="st4" d="M278.5,106c0,1-0.2,1.7-0.5,2.2s-0.8,0.7-1.5,0.7c-0.7,0-1.2-0.2-1.5-0.7s-0.5-1.2-0.5-2.2
		c0-1,0.2-1.8,0.5-2.2s0.8-0.7,1.5-0.7c0.7,0,1.2,0.2,1.5,0.8S278.5,105,278.5,106z M275.7,106c0,0.7,0.1,1.2,0.2,1.5
		s0.3,0.5,0.6,0.5c0.3,0,0.5-0.2,0.6-0.5s0.2-0.8,0.2-1.5c0-0.7-0.1-1.2-0.2-1.5s-0.3-0.5-0.6-0.5c-0.3,0-0.5,0.2-0.6,0.5
		S275.7,105.3,275.7,106z"/>
</g>
<g class="st1">
	<path class="st4" d="M267.2,139h-0.7v1.2h-1.2V139h-2.4v-0.8l2.5-3.7h1.1v3.6h0.7V139z M265.4,138.1v-1c0-0.2,0-0.4,0-0.7
		s0-0.5,0-0.5h0c-0.1,0.2-0.2,0.4-0.3,0.6l-1,1.6H265.4z"/>
	<path class="st4" d="M271.7,140.2h-4v-0.8l1.4-1.4c0.4-0.4,0.7-0.7,0.8-0.9s0.2-0.3,0.3-0.5s0.1-0.3,0.1-0.4c0-0.2-0.1-0.4-0.2-0.5
		s-0.3-0.2-0.5-0.2c-0.2,0-0.4,0.1-0.6,0.2s-0.4,0.2-0.7,0.4l-0.7-0.8c0.3-0.2,0.5-0.4,0.7-0.5s0.4-0.2,0.6-0.2s0.5-0.1,0.7-0.1
		c0.4,0,0.7,0.1,0.9,0.2s0.5,0.3,0.6,0.5s0.2,0.5,0.2,0.8c0,0.3,0,0.5-0.1,0.7s-0.2,0.5-0.4,0.7s-0.5,0.6-1,1l-0.7,0.7v0.1h2.5
		V140.2z"/>
	<path class="st4" d="M273.7,139.4c-0.1,0.5-0.4,1.1-0.7,1.9h-0.9c0.2-0.7,0.3-1.3,0.4-2L273.7,139.4L273.7,139.4z"/>
	<path class="st4" d="M278.5,137.4c0,1-0.2,1.7-0.5,2.2s-0.8,0.7-1.5,0.7c-0.7,0-1.2-0.2-1.5-0.7s-0.5-1.2-0.5-2.2
		c0-1,0.2-1.8,0.5-2.2s0.8-0.7,1.5-0.7c0.7,0,1.2,0.2,1.5,0.8S278.5,136.4,278.5,137.4z M275.7,137.4c0,0.7,0.1,1.2,0.2,1.5
		s0.3,0.5,0.6,0.5c0.3,0,0.5-0.2,0.6-0.5s0.2-0.8,0.2-1.5c0-0.7-0.1-1.2-0.2-1.5s-0.3-0.5-0.6-0.5c-0.3,0-0.5,0.2-0.6,0.5
		S275.7,136.7,275.7,137.4z"/>
</g>
<g class="st1">
	<path class="st4" d="M266.1,170.5h-1.2v-3.3l0-0.5l0-0.6c-0.2,0.2-0.3,0.3-0.4,0.4l-0.7,0.5l-0.6-0.7l1.8-1.5h1V170.5z"/>
	<path class="st4" d="M271.8,169.3h-0.7v1.2h-1.2v-1.2h-2.4v-0.8l2.5-3.7h1.1v3.6h0.7V169.3z M269.9,168.3v-1c0-0.2,0-0.4,0-0.7
		s0-0.5,0-0.5h0c-0.1,0.2-0.2,0.4-0.3,0.6l-1,1.6H269.9z"/>
	<path class="st4" d="M273.7,169.6c-0.1,0.5-0.4,1.1-0.7,1.9h-0.9c0.2-0.7,0.3-1.3,0.4-2L273.7,169.6L273.7,169.6z"/>
	<path class="st4" d="M278.3,166c0,0.4-0.1,0.7-0.3,0.9s-0.5,0.4-0.9,0.5v0c0.5,0.1,0.8,0.2,1,0.4s0.4,0.5,0.4,0.9
		c0,0.5-0.2,1-0.6,1.3s-1,0.5-1.7,0.5c-0.6,0-1.2-0.1-1.6-0.3v-1c0.2,0.1,0.5,0.2,0.7,0.3s0.5,0.1,0.8,0.1c0.4,0,0.7-0.1,0.9-0.2
		s0.3-0.4,0.3-0.7c0-0.3-0.1-0.5-0.3-0.6s-0.6-0.2-1-0.2h-0.4v-0.9h0.4c0.4,0,0.8-0.1,1-0.2s0.3-0.3,0.3-0.6c0-0.4-0.3-0.6-0.8-0.6
		c-0.2,0-0.4,0-0.6,0.1s-0.4,0.2-0.6,0.3l-0.6-0.8c0.5-0.4,1.1-0.6,1.9-0.6c0.6,0,1.1,0.1,1.4,0.4S278.3,165.6,278.3,166z"/>
</g>
<g class="st1">
	<path class="st4" d="M263.8,201.8h-1.2v-3.3l0-0.5l0-0.6c-0.2,0.2-0.3,0.3-0.4,0.4l-0.7,0.5l-0.6-0.7l1.8-1.5h1V201.8z"/>
	<path class="st4" d="M269.3,199c0,1-0.2,1.7-0.5,2.2s-0.8,0.7-1.5,0.7c-0.7,0-1.2-0.2-1.5-0.7s-0.5-1.2-0.5-2.2
		c0-1,0.2-1.8,0.5-2.2s0.8-0.7,1.5-0.7c0.7,0,1.2,0.2,1.5,0.8S269.3,198,269.3,199z M266.6,199c0,0.7,0.1,1.2,0.2,1.5
		s0.3,0.5,0.6,0.5c0.3,0,0.5-0.2,0.6-0.5s0.2-0.8,0.2-1.5c0-0.7-0.1-1.2-0.2-1.5s-0.3-0.5-0.6-0.5c-0.3,0-0.5,0.2-0.6,0.5
		S266.6,198.3,266.6,199z"/>
	<path class="st4" d="M273.9,199c0,1-0.2,1.7-0.5,2.2s-0.8,0.7-1.5,0.7c-0.7,0-1.2-0.2-1.5-0.7s-0.5-1.2-0.5-2.2
		c0-1,0.2-1.8,0.5-2.2s0.8-0.7,1.5-0.7c0.7,0,1.2,0.2,1.5,0.8S273.9,198,273.9,199z M271.1,199c0,0.7,0.1,1.2,0.2,1.5
		s0.3,0.5,0.6,0.5c0.3,0,0.5-0.2,0.6-0.5s0.2-0.8,0.2-1.5c0-0.7-0.1-1.2-0.2-1.5s-0.3-0.5-0.6-0.5c-0.3,0-0.5,0.2-0.6,0.5
		S271.1,198.3,271.1,199z"/>
	<path class="st4" d="M276,201c-0.1,0.5-0.4,1.1-0.7,1.9h-0.9c0.2-0.7,0.3-1.3,0.4-2L276,201L276,201z"/>
	<path class="st4" d="M280.8,199c0,1-0.2,1.7-0.5,2.2s-0.8,0.7-1.5,0.7c-0.7,0-1.2-0.2-1.5-0.7s-0.5-1.2-0.5-2.2
		c0-1,0.2-1.8,0.5-2.2s0.8-0.7,1.5-0.7c0.7,0,1.2,0.2,1.5,0.8S280.8,198,280.8,199z M278,199c0,0.7,0.1,1.2,0.2,1.5s0.3,0.5,0.6,0.5
		c0.3,0,0.5-0.2,0.6-0.5s0.2-0.8,0.2-1.5c0-0.7-0.1-1.2-0.2-1.5s-0.3-0.5-0.6-0.5c-0.3,0-0.5,0.2-0.6,0.5S278,198.3,278,199z"/>
</g>
<g class="st1">
	<path class="st2" d="M160.4,9.5c0,0.6-0.1,1-0.3,1.3s-0.6,0.5-1,0.5c-0.4,0-0.8-0.2-1-0.5s-0.4-0.8-0.4-1.3c0-1.2,0.4-1.8,1.3-1.8
		c0.4,0,0.8,0.2,1,0.5S160.4,8.9,160.4,9.5z M158.7,9.5c0,0.3,0,0.6,0.1,0.7s0.2,0.2,0.3,0.2c0.2,0,0.4-0.3,0.4-1c0-0.7-0.1-1-0.4-1
		c-0.1,0-0.2,0.1-0.3,0.2S158.7,9.2,158.7,9.5z M163.1,7.8l-3.2,5.7H159l3.2-5.7H163.1z M164.4,11.8c0,0.6-0.1,1-0.3,1.3
		s-0.6,0.5-1,0.5c-0.4,0-0.8-0.2-1-0.5s-0.4-0.8-0.4-1.3c0-1.2,0.4-1.8,1.3-1.8c0.4,0,0.8,0.2,1,0.5S164.4,11.2,164.4,11.8z
		 M162.7,11.8c0,0.3,0,0.6,0.1,0.7s0.2,0.2,0.3,0.2c0.2,0,0.4-0.3,0.4-1c0-0.7-0.1-1-0.4-1c-0.1,0-0.2,0.1-0.3,0.2
		S162.7,11.5,162.7,11.8z"/>
</g>
<rect x="134.9" y="188" class="st0" width="52.3" height="19.5"/>
<rect x="134.8" y="24.5" class="st3" width="52.5" height="161.8"/>
<g class="st1">
	<path class="st4" d="M157.5,44.9h-0.7v1.2h-1.2v-1.2h-2.4v-0.8l2.5-3.7h1.1V44h0.7V44.9z M155.6,44v-1c0-0.2,0-0.4,0-0.7
		s0-0.5,0-0.5h0c-0.1,0.2-0.2,0.4-0.3,0.6l-1,1.6H155.6z"/>
	<path class="st4" d="M160,42.4c0.6,0,1,0.2,1.3,0.5s0.5,0.7,0.5,1.3c0,0.6-0.2,1.1-0.6,1.5s-1,0.5-1.7,0.5c-0.6,0-1.1-0.1-1.5-0.3
		v-1c0.2,0.1,0.4,0.2,0.7,0.3s0.5,0.1,0.8,0.1c0.7,0,1.1-0.3,1.1-0.9c0-0.6-0.4-0.9-1.1-0.9c-0.1,0-0.3,0-0.5,0s-0.3,0.1-0.4,0.1
		l-0.5-0.3l0.2-2.9h3.1v1h-2l-0.1,1.1l0.1,0C159.6,42.5,159.8,42.4,160,42.4z"/>
	<path class="st4" d="M164,45.2c-0.1,0.5-0.4,1.1-0.7,1.9h-0.9c0.2-0.7,0.3-1.3,0.4-2L164,45.2L164,45.2z"/>
	<path class="st4" d="M168.6,41.7c0,0.4-0.1,0.7-0.3,0.9s-0.5,0.4-0.9,0.5v0c0.5,0.1,0.8,0.2,1,0.4s0.4,0.5,0.4,0.9
		c0,0.5-0.2,1-0.6,1.3s-1,0.5-1.7,0.5c-0.6,0-1.2-0.1-1.6-0.3v-1c0.2,0.1,0.5,0.2,0.7,0.3s0.5,0.1,0.8,0.1c0.4,0,0.7-0.1,0.9-0.2
		s0.3-0.4,0.3-0.7c0-0.3-0.1-0.5-0.3-0.6s-0.6-0.2-1-0.2h-0.4v-0.9h0.4c0.4,0,0.8-0.1,1-0.2s0.3-0.3,0.3-0.6c0-0.4-0.3-0.6-0.8-0.6
		c-0.2,0-0.4,0-0.6,0.1s-0.4,0.2-0.6,0.3l-0.6-0.8c0.5-0.4,1.1-0.6,1.9-0.6c0.6,0,1.1,0.1,1.4,0.4S168.6,41.2,168.6,41.7z"/>
</g>
<g class="st1">
	<path class="st4" d="M156.4,77.5h-1.2v-3.3l0-0.5l0-0.6c-0.2,0.2-0.3,0.3-0.4,0.4l-0.7,0.5l-0.6-0.7l1.8-1.5h1V77.5z"/>
	<path class="st4" d="M159.9,71.7c0.5,0,1,0.1,1.3,0.4s0.5,0.6,0.5,1c0,0.3-0.1,0.6-0.2,0.8s-0.4,0.4-0.8,0.6
		c0.4,0.2,0.7,0.5,0.9,0.7s0.3,0.5,0.3,0.8c0,0.5-0.2,0.8-0.6,1.1s-0.9,0.4-1.4,0.4c-0.6,0-1.1-0.1-1.5-0.4s-0.5-0.6-0.5-1.1
		c0-0.3,0.1-0.6,0.3-0.9s0.5-0.5,0.8-0.7c-0.3-0.2-0.6-0.4-0.7-0.7s-0.2-0.5-0.2-0.8c0-0.4,0.2-0.7,0.5-1S159.4,71.7,159.9,71.7z
		 M159,75.9c0,0.2,0.1,0.4,0.2,0.5s0.4,0.2,0.6,0.2c0.3,0,0.5-0.1,0.7-0.2s0.2-0.3,0.2-0.5c0-0.2-0.1-0.3-0.2-0.5s-0.4-0.3-0.7-0.5
		C159.3,75.2,159,75.5,159,75.9z M159.9,72.6c-0.2,0-0.4,0.1-0.5,0.2s-0.2,0.2-0.2,0.4c0,0.2,0.1,0.3,0.2,0.4s0.3,0.3,0.5,0.4
		c0.3-0.1,0.4-0.2,0.5-0.4s0.2-0.3,0.2-0.4c0-0.2-0.1-0.3-0.2-0.4S160.1,72.6,159.9,72.6z"/>
	<path class="st4" d="M164,76.6c-0.1,0.5-0.4,1.1-0.7,1.9h-0.9c0.2-0.7,0.3-1.3,0.4-2L164,76.6L164,76.6z"/>
	<path class="st4" d="M168.8,74.2c0,1.1-0.2,2-0.7,2.5s-1.2,0.8-2.2,0.8c-0.3,0-0.6,0-0.8-0.1v-1c0.2,0.1,0.4,0.1,0.7,0.1
		c0.4,0,0.7-0.1,1-0.2s0.5-0.3,0.6-0.6s0.2-0.6,0.2-1h0c-0.2,0.2-0.3,0.4-0.5,0.5s-0.4,0.1-0.7,0.1c-0.5,0-0.9-0.2-1.2-0.5
		s-0.4-0.8-0.4-1.3c0-0.6,0.2-1.1,0.5-1.5s0.8-0.5,1.4-0.5c0.4,0,0.8,0.1,1.1,0.3s0.6,0.5,0.7,0.9S168.8,73.7,168.8,74.2z
		 M166.7,72.7c-0.2,0-0.4,0.1-0.6,0.3s-0.2,0.4-0.2,0.7c0,0.3,0.1,0.5,0.2,0.7s0.3,0.2,0.6,0.2c0.2,0,0.5-0.1,0.6-0.2
		s0.3-0.3,0.3-0.6c0-0.3-0.1-0.6-0.2-0.8S167,72.7,166.7,72.7z"/>
</g>
<g class="st1">
	<path class="st4" d="M156.4,108.8h-1.2v-3.3l0-0.5l0-0.6c-0.2,0.2-0.3,0.3-0.4,0.4l-0.7,0.5l-0.6-0.7l1.8-1.5h1V108.8z"/>
	<path class="st4" d="M159.9,103.1c0.5,0,1,0.1,1.3,0.4s0.5,0.6,0.5,1c0,0.3-0.1,0.6-0.2,0.8s-0.4,0.4-0.8,0.6
		c0.4,0.2,0.7,0.5,0.9,0.7s0.3,0.5,0.3,0.8c0,0.5-0.2,0.8-0.6,1.1s-0.9,0.4-1.4,0.4c-0.6,0-1.1-0.1-1.5-0.4s-0.5-0.6-0.5-1.1
		c0-0.3,0.1-0.6,0.3-0.9s0.5-0.5,0.8-0.7c-0.3-0.2-0.6-0.4-0.7-0.7s-0.2-0.5-0.2-0.8c0-0.4,0.2-0.7,0.5-1S159.4,103.1,159.9,103.1z
		 M159,107.3c0,0.2,0.1,0.4,0.2,0.5s0.4,0.2,0.6,0.2c0.3,0,0.5-0.1,0.7-0.2s0.2-0.3,0.2-0.5c0-0.2-0.1-0.3-0.2-0.5s-0.4-0.3-0.7-0.5
		C159.3,106.6,159,106.9,159,107.3z M159.9,103.9c-0.2,0-0.4,0.1-0.5,0.2s-0.2,0.2-0.2,0.4c0,0.2,0.1,0.3,0.2,0.4s0.3,0.3,0.5,0.4
		c0.3-0.1,0.4-0.2,0.5-0.4s0.2-0.3,0.2-0.4c0-0.2-0.1-0.3-0.2-0.4S160.1,103.9,159.9,103.9z"/>
	<path class="st4" d="M164,108c-0.1,0.5-0.4,1.1-0.7,1.9h-0.9c0.2-0.7,0.3-1.3,0.4-2L164,108L164,108z"/>
	<path class="st4" d="M168.6,104.4c0,0.4-0.1,0.7-0.3,0.9s-0.5,0.4-0.9,0.5v0c0.5,0.1,0.8,0.2,1,0.4s0.4,0.5,0.4,0.9
		c0,0.5-0.2,1-0.6,1.3s-1,0.5-1.7,0.5c-0.6,0-1.2-0.1-1.6-0.3v-1c0.2,0.1,0.5,0.2,0.7,0.3s0.5,0.1,0.8,0.1c0.4,0,0.7-0.1,0.9-0.2
		s0.3-0.4,0.3-0.7c0-0.3-0.1-0.5-0.3-0.6s-0.6-0.2-1-0.2h-0.4v-0.9h0.4c0.4,0,0.8-0.1,1-0.2s0.3-0.3,0.3-0.6c0-0.4-0.3-0.6-0.8-0.6
		c-0.2,0-0.4,0-0.6,0.1s-0.4,0.2-0.6,0.3l-0.6-0.8c0.5-0.4,1.1-0.6,1.9-0.6c0.6,0,1.1,0.1,1.4,0.4S168.6,104,168.6,104.4z"/>
</g>
<g class="st1">
	<path class="st4" d="M156.4,140.2h-1.2v-3.3l0-0.5l0-0.6c-0.2,0.2-0.3,0.3-0.4,0.4l-0.7,0.5l-0.6-0.7l1.8-1.5h1V140.2z"/>
	<path class="st4" d="M161.9,137.4c0,1-0.2,1.7-0.5,2.2s-0.8,0.7-1.5,0.7c-0.7,0-1.2-0.2-1.5-0.7s-0.5-1.2-0.5-2.2
		c0-1,0.2-1.8,0.5-2.2s0.8-0.7,1.5-0.7c0.7,0,1.2,0.2,1.5,0.8S161.9,136.4,161.9,137.4z M159.1,137.4c0,0.7,0.1,1.2,0.2,1.5
		s0.3,0.5,0.6,0.5c0.3,0,0.5-0.2,0.6-0.5s0.2-0.8,0.2-1.5c0-0.7-0.1-1.2-0.2-1.5s-0.3-0.5-0.6-0.5c-0.3,0-0.5,0.2-0.6,0.5
		S159.1,136.7,159.1,137.4z"/>
	<path class="st4" d="M164,139.4c-0.1,0.5-0.4,1.1-0.7,1.9h-0.9c0.2-0.7,0.3-1.3,0.4-2L164,139.4L164,139.4z"/>
	<path class="st4" d="M168.8,136.9c0,1.1-0.2,2-0.7,2.5s-1.2,0.8-2.2,0.8c-0.3,0-0.6,0-0.8-0.1v-1c0.2,0.1,0.4,0.1,0.7,0.1
		c0.4,0,0.7-0.1,1-0.2s0.5-0.3,0.6-0.6s0.2-0.6,0.2-1h0c-0.2,0.2-0.3,0.4-0.5,0.5s-0.4,0.1-0.7,0.1c-0.5,0-0.9-0.2-1.2-0.5
		s-0.4-0.8-0.4-1.3c0-0.6,0.2-1.1,0.5-1.5s0.8-0.5,1.4-0.5c0.4,0,0.8,0.1,1.1,0.3s0.6,0.5,0.7,0.9S168.8,136.4,168.8,136.9z
		 M166.7,135.4c-0.2,0-0.4,0.1-0.6,0.3s-0.2,0.4-0.2,0.7c0,0.3,0.1,0.5,0.2,0.7s0.3,0.2,0.6,0.2c0.2,0,0.5-0.1,0.6-0.2
		s0.3-0.3,0.3-0.6c0-0.3-0.1-0.6-0.2-0.8S167,135.4,166.7,135.4z"/>
</g>
<g class="st1">
	<path class="st4" d="M155.6,168c0-1.1,0.2-2,0.7-2.5s1.2-0.8,2.1-0.8c0.3,0,0.6,0,0.8,0.1v1c-0.2-0.1-0.5-0.1-0.7-0.1
		c-0.4,0-0.8,0.1-1,0.2s-0.5,0.3-0.6,0.6s-0.2,0.6-0.2,1h0.1c0.3-0.4,0.7-0.7,1.2-0.7c0.5,0,0.9,0.2,1.2,0.5s0.4,0.8,0.4,1.3
		c0,0.6-0.2,1.1-0.5,1.4s-0.8,0.5-1.4,0.5c-0.4,0-0.8-0.1-1.1-0.3s-0.6-0.5-0.7-0.9S155.6,168.6,155.6,168z M157.7,169.6
		c0.3,0,0.5-0.1,0.6-0.3s0.2-0.4,0.2-0.7c0-0.3-0.1-0.5-0.2-0.7s-0.3-0.2-0.6-0.2c-0.2,0-0.5,0.1-0.6,0.2s-0.3,0.3-0.3,0.6
		c0,0.3,0.1,0.6,0.2,0.8S157.4,169.6,157.7,169.6z"/>
	<path class="st4" d="M161.7,169.6c-0.1,0.5-0.4,1.1-0.7,1.9h-0.9c0.2-0.7,0.3-1.3,0.4-2L161.7,169.6L161.7,169.6z"/>
	<path class="st4" d="M164.5,164.7c0.5,0,1,0.1,1.3,0.4s0.5,0.6,0.5,1c0,0.3-0.1,0.6-0.2,0.8s-0.4,0.4-0.8,0.6
		c0.4,0.2,0.7,0.5,0.9,0.7s0.3,0.5,0.3,0.8c0,0.5-0.2,0.8-0.6,1.1s-0.9,0.4-1.4,0.4c-0.6,0-1.1-0.1-1.5-0.4s-0.5-0.6-0.5-1.1
		c0-0.3,0.1-0.6,0.3-0.9s0.5-0.5,0.8-0.7c-0.3-0.2-0.6-0.4-0.7-0.7s-0.2-0.5-0.2-0.8c0-0.4,0.2-0.7,0.5-1S164,164.7,164.5,164.7z
		 M163.6,169c0,0.2,0.1,0.4,0.2,0.5s0.4,0.2,0.6,0.2c0.3,0,0.5-0.1,0.7-0.2s0.2-0.3,0.2-0.5c0-0.2-0.1-0.3-0.2-0.5s-0.4-0.3-0.7-0.5
		C163.9,168.2,163.6,168.6,163.6,169z M164.5,165.6c-0.2,0-0.4,0.1-0.5,0.2s-0.2,0.2-0.2,0.4c0,0.2,0.1,0.3,0.2,0.4s0.3,0.3,0.5,0.4
		c0.3-0.1,0.4-0.2,0.5-0.4s0.2-0.3,0.2-0.4c0-0.2-0.1-0.3-0.2-0.4S164.7,165.6,164.5,165.6z"/>
</g>
<g class="st1">
	<path class="st4" d="M154.1,201.8h-1.2v-3.3l0-0.5l0-0.6c-0.2,0.2-0.3,0.3-0.4,0.4l-0.7,0.5l-0.6-0.7l1.8-1.5h1V201.8z"/>
	<path class="st4" d="M159.6,199c0,1-0.2,1.7-0.5,2.2s-0.8,0.7-1.5,0.7c-0.7,0-1.2-0.2-1.5-0.7s-0.5-1.2-0.5-2.2
		c0-1,0.2-1.8,0.5-2.2s0.8-0.7,1.5-0.7c0.7,0,1.2,0.2,1.5,0.8S159.6,198,159.6,199z M156.8,199c0,0.7,0.1,1.2,0.2,1.5
		s0.3,0.5,0.6,0.5c0.3,0,0.5-0.2,0.6-0.5s0.2-0.8,0.2-1.5c0-0.7-0.1-1.2-0.2-1.5s-0.3-0.5-0.6-0.5c-0.3,0-0.5,0.2-0.6,0.5
		S156.8,198.3,156.8,199z"/>
	<path class="st4" d="M164.2,199c0,1-0.2,1.7-0.5,2.2s-0.8,0.7-1.5,0.7c-0.7,0-1.2-0.2-1.5-0.7s-0.5-1.2-0.5-2.2
		c0-1,0.2-1.8,0.5-2.2s0.8-0.7,1.5-0.7c0.7,0,1.2,0.2,1.5,0.8S164.2,198,164.2,199z M161.4,199c0,0.7,0.1,1.2,0.2,1.5
		s0.3,0.5,0.6,0.5c0.3,0,0.5-0.2,0.6-0.5s0.2-0.8,0.2-1.5c0-0.7-0.1-1.2-0.2-1.5s-0.3-0.5-0.6-0.5c-0.3,0-0.5,0.2-0.6,0.5
		S161.4,198.3,161.4,199z"/>
	<path class="st4" d="M166.3,201c-0.1,0.5-0.4,1.1-0.7,1.9h-0.9c0.2-0.7,0.3-1.3,0.4-2L166.3,201L166.3,201z"/>
	<path class="st4" d="M171.1,199c0,1-0.2,1.7-0.5,2.2s-0.8,0.7-1.5,0.7c-0.7,0-1.2-0.2-1.5-0.7s-0.5-1.2-0.5-2.2
		c0-1,0.2-1.8,0.5-2.2s0.8-0.7,1.5-0.7c0.7,0,1.2,0.2,1.5,0.8S171.1,198,171.1,199z M168.3,199c0,0.7,0.1,1.2,0.2,1.5
		s0.3,0.5,0.6,0.5c0.3,0,0.5-0.2,0.6-0.5s0.2-0.8,0.2-1.5c0-0.7-0.1-1.2-0.2-1.5s-0.3-0.5-0.6-0.5c-0.3,0-0.5,0.2-0.6,0.5
		S168.3,198.3,168.3,199z"/>
</g>
<path class="st2" d="M199.9,4.8c0,0.6-0.2,1.1-0.6,1.4s-0.9,0.5-1.6,0.5h-0.5v2h-1.2V3h1.8c0.7,0,1.2,0.2,1.6,0.5
	S199.8,4.2,199.9,4.8L199.9,4.8z M197.1,5.7h0.4c0.4,0,0.6-0.1,0.8-0.2s0.3-0.4,0.3-0.6s-0.1-0.5-0.2-0.6S198,4,197.7,4h-0.6
	L197.1,5.7L197.1,5.7z"/>
<path class="st2" d="M204.8,6.5c0,0.7-0.2,1.3-0.6,1.7s-0.9,0.6-1.6,0.6c-0.4,0-0.8-0.1-1.1-0.3s-0.6-0.4-0.7-0.8s-0.3-0.7-0.3-1.2
	c0-0.7,0.2-1.3,0.6-1.7s0.9-0.6,1.6-0.6c0.4,0,0.8,0.1,1.1,0.3s0.6,0.4,0.7,0.8S204.8,6.1,204.8,6.5L204.8,6.5z M201.8,6.5
	c0,0.4,0.1,0.8,0.2,1s0.4,0.3,0.7,0.3s0.6-0.1,0.7-0.3s0.2-0.6,0.2-1s-0.1-0.8-0.2-1s-0.4-0.3-0.7-0.3s-0.6,0.1-0.7,0.3
	S201.8,6.1,201.8,6.5z"/>
<path class="st2" d="M208.2,8.8c-0.5,0-0.9-0.2-1.2-0.6h-0.1c0,0.4,0.1,0.6,0.1,0.6v1.8h-1.2V4.3h1l0.2,0.6h0.1
	c0.3-0.4,0.7-0.7,1.2-0.7c0.5,0,0.9,0.2,1.2,0.6s0.4,0.9,0.4,1.7c0,0.5-0.1,0.9-0.2,1.2c-0.1,0.3-0.3,0.6-0.6,0.8
	S208.5,8.8,208.2,8.8z M207.8,5.2c-0.3,0-0.5,0.1-0.6,0.3S207,6,207,6.4v0.1c0,0.5,0.1,0.8,0.2,1s0.4,0.3,0.7,0.3
	c0.5,0,0.8-0.4,0.8-1.3c0-0.4-0.1-0.8-0.2-1S208.1,5.2,207.8,5.2L207.8,5.2z"/>
<path class="st2" d="M213.9,8.7l-0.2-0.6h-0.1c-0.1,0.2-0.3,0.4-0.5,0.5s-0.5,0.2-0.8,0.2c-0.5,0-0.9-0.1-1.2-0.4s-0.4-0.7-0.4-1.2
	V4.3h1.2v2.6c0,0.3,0.1,0.6,0.2,0.7s0.3,0.2,0.5,0.2c0.3,0,0.6-0.1,0.7-0.3s0.2-0.6,0.2-1.1v-2h1.2v4.4L213.9,8.7L213.9,8.7z"/>
<path class="st2" d="M217.3,8.7h-1.2V2.6h1.2V8.7z"/>
<path class="st2" d="M221.3,8.7l-0.2-0.6h0c-0.2,0.2-0.4,0.4-0.6,0.5s-0.5,0.1-0.8,0.1c-0.4,0-0.8-0.1-1-0.4s-0.4-0.6-0.4-1
	s0.2-0.8,0.5-1s0.8-0.3,1.5-0.4l0.8,0V5.8c0-0.4-0.2-0.7-0.7-0.7c-0.4,0-0.8,0.1-1.2,0.3l-0.4-0.8c0.5-0.3,1.1-0.4,1.7-0.4
	s1,0.1,1.4,0.4s0.5,0.6,0.5,1.2v2.9L221.3,8.7L221.3,8.7z M221,6.7l-0.5,0c-0.4,0-0.6,0.1-0.8,0.2s-0.2,0.3-0.2,0.5
	c0,0.3,0.2,0.5,0.6,0.5c0.3,0,0.5-0.1,0.7-0.2s0.2-0.4,0.2-0.6L221,6.7L221,6.7z"/>
<path class="st2" d="M225.2,8.8c-1.4,0-2-0.8-2-2.2c0-0.7,0.2-1.3,0.6-1.7s0.9-0.6,1.6-0.6c0.5,0,1,0.1,1.4,0.3l-0.4,0.9
	c-0.2-0.1-0.4-0.1-0.5-0.2s-0.3-0.1-0.5-0.1c-0.6,0-0.9,0.4-0.9,1.3s0.3,1.3,0.9,1.3c0.2,0,0.4,0,0.6-0.1s0.4-0.2,0.6-0.3v1
	c-0.2,0.1-0.4,0.2-0.6,0.2S225.5,8.8,225.2,8.8L225.2,8.8z M225.9,9.7c0,0.3-0.1,0.6-0.3,0.7s-0.5,0.2-0.9,0.2c-0.2,0-0.4,0-0.6-0.1
	V9.9c0.1,0,0.2,0,0.3,0.1s0.2,0,0.3,0c0.2,0,0.3-0.1,0.3-0.2c0-0.2-0.2-0.4-0.6-0.4l0.3-0.6h0.8l-0.1,0.2c0.2,0.1,0.4,0.2,0.5,0.3
	S225.9,9.5,225.9,9.7L225.9,9.7z"/>
<path class="st2" d="M230.3,8.7l-0.2-0.6h0c-0.2,0.2-0.4,0.4-0.6,0.5s-0.5,0.1-0.8,0.1c-0.4,0-0.8-0.1-1-0.4s-0.4-0.6-0.4-1
	s0.2-0.8,0.5-1s0.8-0.3,1.5-0.4l0.8,0V5.8c0-0.4-0.2-0.7-0.7-0.7c-0.4,0-0.8,0.1-1.2,0.3l-0.4-0.8c0.5-0.3,1.1-0.4,1.7-0.4
	s1,0.1,1.4,0.4s0.5,0.6,0.5,1.2v2.9L230.3,8.7L230.3,8.7z M228.7,3.4c-0.1,0-0.2,0-0.2,0.1s-0.1,0.2-0.2,0.3h-0.6
	c0-0.4,0.1-0.7,0.3-0.9s0.4-0.3,0.7-0.3c0.1,0,0.2,0,0.3,0.1s0.2,0.1,0.3,0.1s0.2,0.1,0.3,0.1S229.9,3,230,3c0.1,0,0.2,0,0.2-0.1
	s0.1-0.2,0.2-0.3h0.6c0,0.4-0.1,0.7-0.3,0.9s-0.4,0.3-0.7,0.3c-0.1,0-0.2,0-0.3-0.1s-0.2-0.1-0.3-0.1s-0.2-0.1-0.3-0.1
	S228.8,3.5,228.7,3.4L228.7,3.4z M229.9,6.7l-0.5,0c-0.4,0-0.6,0.1-0.8,0.2s-0.2,0.3-0.2,0.5c0,0.3,0.2,0.5,0.6,0.5
	c0.3,0,0.5-0.1,0.7-0.2s0.2-0.4,0.2-0.6L229.9,6.7L229.9,6.7z"/>
<path class="st2" d="M236.3,6.5c0,0.7-0.2,1.3-0.6,1.7s-0.9,0.6-1.6,0.6c-0.4,0-0.8-0.1-1.1-0.3s-0.6-0.4-0.7-0.8s-0.3-0.7-0.3-1.2
	c0-0.7,0.2-1.3,0.6-1.7s0.9-0.6,1.6-0.6c0.4,0,0.8,0.1,1.1,0.3s0.6,0.4,0.7,0.8S236.3,6.1,236.3,6.5L236.3,6.5z M233.3,6.5
	c0,0.4,0.1,0.8,0.2,1s0.4,0.3,0.7,0.3s0.6-0.1,0.7-0.3s0.2-0.6,0.2-1s-0.1-0.8-0.2-1s-0.4-0.3-0.7-0.3s-0.6,0.1-0.7,0.3
	S233.3,6.1,233.3,6.5z"/>
<path class="st2" d="M204.4,16.1c0-0.7,0.1-1.3,0.3-1.9s0.5-1.1,0.9-1.6h1c-0.4,0.5-0.6,1.1-0.8,1.7s-0.3,1.2-0.3,1.9
	c0,0.6,0.1,1.2,0.3,1.9s0.5,1.1,0.8,1.6h-1c-0.4-0.4-0.7-1-0.9-1.5S204.4,16.8,204.4,16.1L204.4,16.1z"/>
<path class="st2" d="M211.1,18.3h-4v-0.8l1.4-1.5c0.4-0.4,0.7-0.7,0.8-0.9s0.2-0.3,0.3-0.5s0.1-0.3,0.1-0.4c0-0.2-0.1-0.4-0.2-0.5
	s-0.3-0.2-0.5-0.2s-0.4,0.1-0.6,0.1s-0.4,0.2-0.6,0.4l-0.7-0.8c0.3-0.2,0.5-0.4,0.7-0.5s0.4-0.2,0.6-0.2s0.5-0.1,0.7-0.1
	c0.4,0,0.7,0.1,0.9,0.2s0.5,0.3,0.6,0.6s0.2,0.5,0.2,0.8c0,0.3-0.1,0.5-0.1,0.7s-0.2,0.5-0.4,0.7s-0.5,0.6-1,1l-0.7,0.7v0h2.5
	L211.1,18.3L211.1,18.3z"/>
<path class="st2" d="M215.6,15.5c0,1-0.2,1.7-0.5,2.2s-0.8,0.7-1.5,0.7s-1.2-0.2-1.5-0.7s-0.5-1.2-0.5-2.2s0.2-1.8,0.5-2.2
	s0.8-0.7,1.5-0.7s1.2,0.2,1.5,0.8S215.6,14.5,215.6,15.5z M212.9,15.5c0,0.7,0.1,1.2,0.2,1.5s0.3,0.5,0.6,0.5s0.5-0.1,0.6-0.5
	s0.2-0.8,0.2-1.5s-0.1-1.2-0.2-1.5s-0.3-0.5-0.6-0.5s-0.5,0.1-0.6,0.5S212.9,14.8,212.9,15.5L212.9,15.5z"/>
<path class="st2" d="M220.2,18.3h-4v-0.8l1.4-1.5c0.4-0.4,0.7-0.7,0.8-0.9s0.2-0.3,0.3-0.5s0.1-0.3,0.1-0.4c0-0.2-0.1-0.4-0.2-0.5
	s-0.3-0.2-0.5-0.2s-0.4,0.1-0.6,0.1s-0.4,0.2-0.6,0.4l-0.7-0.8c0.3-0.2,0.5-0.4,0.7-0.5s0.4-0.2,0.6-0.2s0.5-0.1,0.7-0.1
	c0.4,0,0.7,0.1,0.9,0.2s0.5,0.3,0.6,0.6s0.2,0.5,0.2,0.8c0,0.3-0.1,0.5-0.1,0.7s-0.2,0.5-0.4,0.7s-0.5,0.6-1,1l-0.7,0.7v0h2.5
	L220.2,18.3L220.2,18.3z"/>
<path class="st2" d="M223.8,18.3h-1.2v-3.9l0-0.6c-0.2,0.2-0.3,0.3-0.4,0.4l-0.7,0.5l-0.6-0.7l1.8-1.5h1L223.8,18.3L223.8,18.3z"/>
<path class="st2" d="M227.4,16.1c0,0.7-0.1,1.3-0.3,1.9s-0.5,1.1-0.9,1.5h-1c0.4-0.5,0.6-1,0.8-1.6s0.3-1.2,0.3-1.9
	s-0.1-1.2-0.3-1.9s-0.5-1.1-0.8-1.7h1c0.4,0.5,0.7,1,0.9,1.6S227.5,15.4,227.4,16.1L227.4,16.1z"/>
<rect x="189.8" y="188" class="st0" width="52.3" height="19.5"/>
<rect x="189.7" y="24.5" class="st3" width="52.5" height="161.8"/>
<g class="st1">
	<path class="st4" d="M198.9,46.1h-1.2v-3.3l0-0.5l0-0.6c-0.2,0.2-0.3,0.3-0.4,0.4l-0.7,0.5l-0.6-0.7l1.8-1.5h1V46.1z"/>
	<path class="st4" d="M202.4,40.3c0.5,0,1,0.1,1.3,0.4c0.3,0.2,0.5,0.6,0.5,1c0,0.3-0.1,0.6-0.2,0.8c-0.2,0.2-0.4,0.4-0.8,0.6
		c0.4,0.2,0.7,0.5,0.9,0.7c0.2,0.2,0.3,0.5,0.3,0.8c0,0.5-0.2,0.8-0.6,1.1s-0.8,0.4-1.4,0.4c-0.6,0-1.1-0.1-1.5-0.4
		c-0.4-0.3-0.5-0.6-0.5-1.1c0-0.3,0.1-0.6,0.3-0.9c0.2-0.3,0.5-0.5,0.8-0.7c-0.3-0.2-0.6-0.4-0.7-0.7c-0.1-0.2-0.2-0.5-0.2-0.8
		c0-0.4,0.2-0.7,0.5-1C201.5,40.4,201.9,40.3,202.4,40.3z M201.6,44.6c0,0.2,0.1,0.4,0.2,0.5s0.4,0.2,0.6,0.2c0.3,0,0.5-0.1,0.7-0.2
		s0.2-0.3,0.2-0.5c0-0.2-0.1-0.3-0.2-0.5c-0.1-0.2-0.4-0.3-0.7-0.5C201.8,43.9,201.6,44.2,201.6,44.6z M202.4,41.2
		c-0.2,0-0.4,0.1-0.5,0.2c-0.1,0.1-0.2,0.2-0.2,0.4c0,0.2,0.1,0.3,0.2,0.4c0.1,0.1,0.3,0.3,0.5,0.4c0.3-0.1,0.4-0.2,0.5-0.4
		s0.2-0.3,0.2-0.4c0-0.2-0.1-0.3-0.2-0.4C202.8,41.2,202.6,41.2,202.4,41.2z"/>
	<path class="st4" d="M211.1,42.8c0,1.1-0.2,2-0.7,2.5c-0.5,0.6-1.2,0.8-2.2,0.8c-0.3,0-0.6,0-0.8-0.1v-1c0.2,0.1,0.4,0.1,0.7,0.1
		c0.4,0,0.7-0.1,1-0.2c0.3-0.1,0.5-0.3,0.6-0.6c0.1-0.3,0.2-0.6,0.2-1h0c-0.2,0.2-0.3,0.4-0.5,0.5c-0.2,0.1-0.4,0.1-0.7,0.1
		c-0.5,0-0.9-0.2-1.2-0.5c-0.3-0.3-0.4-0.8-0.4-1.3c0-0.6,0.2-1.1,0.5-1.5s0.8-0.5,1.4-0.5c0.4,0,0.8,0.1,1.1,0.3s0.6,0.5,0.7,0.9
		C211,41.8,211.1,42.3,211.1,42.8z M209,41.3c-0.2,0-0.4,0.1-0.6,0.3s-0.2,0.4-0.2,0.7c0,0.3,0.1,0.5,0.2,0.7
		c0.1,0.2,0.3,0.2,0.6,0.2c0.2,0,0.5-0.1,0.6-0.2c0.2-0.2,0.3-0.3,0.3-0.6c0-0.3-0.1-0.6-0.2-0.8C209.5,41.4,209.3,41.3,209,41.3z"
		/>
	<path class="st4" d="M215.6,43.2c0,1-0.2,1.7-0.5,2.2c-0.3,0.5-0.8,0.7-1.5,0.7c-0.7,0-1.2-0.2-1.5-0.7c-0.3-0.5-0.5-1.2-0.5-2.2
		c0-1,0.2-1.8,0.5-2.2c0.3-0.5,0.8-0.7,1.5-0.7c0.7,0,1.2,0.2,1.5,0.8C215.5,41.5,215.6,42.3,215.6,43.2z M212.9,43.2
		c0,0.7,0.1,1.2,0.2,1.5s0.3,0.5,0.6,0.5c0.3,0,0.5-0.2,0.6-0.5s0.2-0.8,0.2-1.5c0-0.7-0.1-1.2-0.2-1.5c-0.1-0.3-0.3-0.5-0.6-0.5
		c-0.3,0-0.5,0.2-0.6,0.5C212.9,42,212.9,42.5,212.9,43.2z"/>
	<path class="st4" d="M216.2,43.7c0-1.1,0.2-2,0.7-2.5c0.5-0.6,1.2-0.8,2.1-0.8c0.3,0,0.6,0,0.8,0.1v1c-0.2-0.1-0.5-0.1-0.7-0.1
		c-0.4,0-0.8,0.1-1,0.2s-0.5,0.3-0.6,0.6c-0.1,0.2-0.2,0.6-0.2,1h0.1c0.3-0.4,0.7-0.7,1.2-0.7c0.5,0,0.9,0.2,1.2,0.5
		s0.4,0.8,0.4,1.3c0,0.6-0.2,1.1-0.5,1.4s-0.8,0.5-1.4,0.5c-0.4,0-0.8-0.1-1.1-0.3c-0.3-0.2-0.6-0.5-0.7-0.9
		C216.3,44.6,216.2,44.2,216.2,43.7z M218.3,45.2c0.3,0,0.5-0.1,0.6-0.3c0.1-0.2,0.2-0.4,0.2-0.7c0-0.3-0.1-0.5-0.2-0.7
		s-0.3-0.2-0.6-0.2c-0.2,0-0.5,0.1-0.6,0.2c-0.2,0.2-0.3,0.3-0.3,0.6c0,0.3,0.1,0.6,0.2,0.8C217.8,45.1,218,45.2,218.3,45.2z"/>
	<path class="st4" d="M226.9,42.8c0,1.1-0.2,2-0.7,2.5c-0.5,0.6-1.2,0.8-2.2,0.8c-0.3,0-0.6,0-0.8-0.1v-1c0.2,0.1,0.4,0.1,0.7,0.1
		c0.4,0,0.7-0.1,1-0.2c0.3-0.1,0.5-0.3,0.6-0.6c0.1-0.3,0.2-0.6,0.2-1h0c-0.2,0.2-0.3,0.4-0.5,0.5c-0.2,0.1-0.4,0.1-0.7,0.1
		c-0.5,0-0.9-0.2-1.2-0.5c-0.3-0.3-0.4-0.8-0.4-1.3c0-0.6,0.2-1.1,0.5-1.5s0.8-0.5,1.4-0.5c0.4,0,0.8,0.1,1.1,0.3s0.6,0.5,0.7,0.9
		C226.8,41.8,226.9,42.3,226.9,42.8z M224.8,41.3c-0.2,0-0.4,0.1-0.6,0.3S224,42,224,42.3c0,0.3,0.1,0.5,0.2,0.7
		c0.1,0.2,0.3,0.2,0.6,0.2c0.2,0,0.5-0.1,0.6-0.2c0.2-0.2,0.3-0.3,0.3-0.6c0-0.3-0.1-0.6-0.2-0.8C225.3,41.4,225.1,41.3,224.8,41.3z
		"/>
	<path class="st4" d="M227.4,43.7c0-1.1,0.2-2,0.7-2.5c0.5-0.6,1.2-0.8,2.1-0.8c0.3,0,0.6,0,0.8,0.1v1c-0.2-0.1-0.5-0.1-0.7-0.1
		c-0.4,0-0.8,0.1-1,0.2s-0.5,0.3-0.6,0.6c-0.1,0.2-0.2,0.6-0.2,1h0.1c0.3-0.4,0.7-0.7,1.2-0.7c0.5,0,0.9,0.2,1.2,0.5
		s0.4,0.8,0.4,1.3c0,0.6-0.2,1.1-0.5,1.4s-0.8,0.5-1.4,0.5c-0.4,0-0.8-0.1-1.1-0.3c-0.3-0.2-0.6-0.5-0.7-0.9
		C227.5,44.6,227.4,44.2,227.4,43.7z M229.5,45.2c0.3,0,0.5-0.1,0.6-0.3c0.1-0.2,0.2-0.4,0.2-0.7c0-0.3-0.1-0.5-0.2-0.7
		s-0.3-0.2-0.6-0.2c-0.2,0-0.5,0.1-0.6,0.2c-0.2,0.2-0.3,0.3-0.3,0.6c0,0.3,0.1,0.6,0.2,0.8C229,45.1,229.2,45.2,229.5,45.2z"/>
	<path class="st4" d="M236,46.1h-4v-0.8l1.4-1.4c0.4-0.4,0.7-0.7,0.8-0.9c0.1-0.2,0.2-0.3,0.3-0.5c0.1-0.1,0.1-0.3,0.1-0.4
		c0-0.2-0.1-0.4-0.2-0.5c-0.1-0.1-0.3-0.2-0.5-0.2c-0.2,0-0.4,0.1-0.6,0.2c-0.2,0.1-0.4,0.2-0.7,0.4l-0.7-0.8
		c0.3-0.2,0.5-0.4,0.7-0.5c0.2-0.1,0.4-0.2,0.6-0.2s0.5-0.1,0.7-0.1c0.4,0,0.7,0.1,0.9,0.2s0.5,0.3,0.6,0.5c0.2,0.2,0.2,0.5,0.2,0.8
		c0,0.3,0,0.5-0.1,0.7c-0.1,0.2-0.2,0.5-0.4,0.7c-0.2,0.2-0.5,0.6-1,1l-0.7,0.7v0.1h2.5V46.1z"/>
</g>
<g class="st1">
	<path class="st4" d="M197.9,77.5h-1.2v-3.3l0-0.5l0-0.6c-0.2,0.2-0.3,0.3-0.4,0.4l-0.7,0.5l-0.6-0.7l1.8-1.5h1V77.5z"/>
	<path class="st4" d="M199.4,75c0-1.1,0.2-2,0.7-2.5c0.5-0.6,1.2-0.8,2.1-0.8c0.3,0,0.6,0,0.8,0.1v1c-0.2-0.1-0.5-0.1-0.7-0.1
		c-0.4,0-0.8,0.1-1,0.2s-0.5,0.3-0.6,0.6c-0.1,0.2-0.2,0.6-0.2,1h0.1c0.3-0.4,0.7-0.7,1.2-0.7c0.5,0,0.9,0.2,1.2,0.5
		s0.4,0.8,0.4,1.3c0,0.6-0.2,1.1-0.5,1.4s-0.8,0.5-1.4,0.5c-0.4,0-0.8-0.1-1.1-0.3c-0.3-0.2-0.6-0.5-0.7-0.9
		C199.5,76,199.4,75.6,199.4,75z M201.5,76.6c0.3,0,0.5-0.1,0.6-0.3c0.1-0.2,0.2-0.4,0.2-0.7c0-0.3-0.1-0.5-0.2-0.7
		s-0.3-0.2-0.6-0.2c-0.2,0-0.5,0.1-0.6,0.2c-0.2,0.2-0.3,0.3-0.3,0.6c0,0.3,0.1,0.6,0.2,0.8C201,76.5,201.2,76.6,201.5,76.6z"/>
	<path class="st4" d="M206.6,77.5l2.1-4.7H206v-1h4.1v0.8l-2.2,4.9H206.6z"/>
	<path class="st4" d="M214.6,74.6c0,1-0.2,1.7-0.5,2.2c-0.3,0.5-0.8,0.7-1.5,0.7c-0.7,0-1.2-0.2-1.5-0.7c-0.3-0.5-0.5-1.2-0.5-2.2
		c0-1,0.2-1.8,0.5-2.2c0.3-0.5,0.8-0.7,1.5-0.7c0.7,0,1.2,0.2,1.5,0.8C214.4,72.9,214.6,73.6,214.6,74.6z M211.8,74.6
		c0,0.7,0.1,1.2,0.2,1.5s0.3,0.5,0.6,0.5c0.3,0,0.5-0.2,0.6-0.5s0.2-0.8,0.2-1.5c0-0.7-0.1-1.2-0.2-1.5c-0.1-0.3-0.3-0.5-0.6-0.5
		c-0.3,0-0.5,0.2-0.6,0.5C211.9,73.4,211.8,73.9,211.8,74.6z"/>
	<path class="st4" d="M215.8,77.5l2.1-4.7h-2.8v-1h4.1v0.8l-2.2,4.9H215.8z"/>
	<path class="st4" d="M225.6,73c0,0.4-0.1,0.7-0.3,0.9c-0.2,0.2-0.5,0.4-0.9,0.5v0c0.5,0.1,0.8,0.2,1,0.4c0.2,0.2,0.4,0.5,0.4,0.9
		c0,0.5-0.2,1-0.6,1.3s-1,0.5-1.7,0.5c-0.6,0-1.2-0.1-1.6-0.3v-1c0.2,0.1,0.5,0.2,0.7,0.3s0.5,0.1,0.8,0.1c0.4,0,0.7-0.1,0.9-0.2
		c0.2-0.1,0.3-0.4,0.3-0.7c0-0.3-0.1-0.5-0.3-0.6s-0.6-0.2-1-0.2h-0.4v-0.9h0.4c0.4,0,0.8-0.1,1-0.2c0.2-0.1,0.3-0.3,0.3-0.6
		c0-0.4-0.3-0.6-0.8-0.6c-0.2,0-0.4,0-0.6,0.1c-0.2,0.1-0.4,0.2-0.6,0.3l-0.6-0.8c0.5-0.4,1.1-0.6,1.9-0.6c0.6,0,1.1,0.1,1.4,0.4
		C225.5,72.3,225.6,72.6,225.6,73z"/>
	<path class="st4" d="M230.2,73c0,0.4-0.1,0.7-0.3,0.9c-0.2,0.2-0.5,0.4-0.9,0.5v0c0.5,0.1,0.8,0.2,1,0.4c0.2,0.2,0.4,0.5,0.4,0.9
		c0,0.5-0.2,1-0.6,1.3s-1,0.5-1.7,0.5c-0.6,0-1.2-0.1-1.6-0.3v-1c0.2,0.1,0.5,0.2,0.7,0.3s0.5,0.1,0.8,0.1c0.4,0,0.7-0.1,0.9-0.2
		c0.2-0.1,0.3-0.4,0.3-0.7c0-0.3-0.1-0.5-0.3-0.6s-0.6-0.2-1-0.2h-0.4v-0.9h0.4c0.4,0,0.8-0.1,1-0.2c0.2-0.1,0.3-0.3,0.3-0.6
		c0-0.4-0.3-0.6-0.8-0.6c-0.2,0-0.4,0-0.6,0.1c-0.2,0.1-0.4,0.2-0.6,0.3l-0.6-0.8c0.5-0.4,1.1-0.6,1.9-0.6c0.6,0,1.1,0.1,1.4,0.4
		C230,72.3,230.2,72.6,230.2,73z"/>
	<path class="st4" d="M231,75c0-1.1,0.2-2,0.7-2.5c0.5-0.6,1.2-0.8,2.1-0.8c0.3,0,0.6,0,0.8,0.1v1c-0.2-0.1-0.5-0.1-0.7-0.1
		c-0.4,0-0.8,0.1-1,0.2s-0.5,0.3-0.6,0.6c-0.1,0.2-0.2,0.6-0.2,1h0.1c0.3-0.4,0.7-0.7,1.2-0.7c0.5,0,0.9,0.2,1.2,0.5
		s0.4,0.8,0.4,1.3c0,0.6-0.2,1.1-0.5,1.4s-0.8,0.5-1.4,0.5c-0.4,0-0.8-0.1-1.1-0.3c-0.3-0.2-0.6-0.5-0.7-0.9C231,76,231,75.6,231,75
		z M233,76.6c0.3,0,0.5-0.1,0.6-0.3c0.1-0.2,0.2-0.4,0.2-0.7c0-0.3-0.1-0.5-0.2-0.7s-0.3-0.2-0.6-0.2c-0.2,0-0.5,0.1-0.6,0.2
		c-0.2,0.2-0.3,0.3-0.3,0.6c0,0.3,0.1,0.6,0.2,0.8C232.6,76.5,232.8,76.6,233,76.6z"/>
</g>
<g class="st1">
	<path class="st4" d="M198,105.2c0.6,0,1,0.2,1.3,0.5c0.3,0.3,0.5,0.7,0.5,1.3c0,0.6-0.2,1.1-0.6,1.5c-0.4,0.3-1,0.5-1.7,0.5
		c-0.6,0-1.1-0.1-1.5-0.3v-1c0.2,0.1,0.4,0.2,0.7,0.3s0.5,0.1,0.8,0.1c0.7,0,1.1-0.3,1.1-0.9c0-0.6-0.4-0.9-1.1-0.9
		c-0.1,0-0.3,0-0.5,0c-0.2,0-0.3,0.1-0.4,0.1l-0.5-0.3l0.2-2.9h3.1v1h-2l-0.1,1.1l0.1,0C197.6,105.2,197.8,105.2,198,105.2z"/>
	<path class="st4" d="M201,108.8l2.1-4.7h-2.8v-1h4.1v0.8l-2.2,4.9H201z"/>
	<path class="st4" d="M207.1,106.4c0-1.1,0.2-2,0.7-2.5c0.5-0.6,1.2-0.8,2.1-0.8c0.3,0,0.6,0,0.8,0.1v1c-0.2-0.1-0.5-0.1-0.7-0.1
		c-0.4,0-0.8,0.1-1,0.2s-0.5,0.3-0.6,0.6c-0.1,0.2-0.2,0.6-0.2,1h0.1c0.3-0.4,0.7-0.7,1.2-0.7c0.5,0,0.9,0.2,1.2,0.5
		s0.4,0.8,0.4,1.3c0,0.6-0.2,1.1-0.5,1.4s-0.8,0.5-1.4,0.5c-0.4,0-0.8-0.1-1.1-0.3c-0.3-0.2-0.6-0.5-0.7-0.9
		C207.2,107.4,207.1,106.9,207.1,106.4z M209.1,108c0.3,0,0.5-0.1,0.6-0.3c0.1-0.2,0.2-0.4,0.2-0.7c0-0.3-0.1-0.5-0.2-0.7
		s-0.3-0.2-0.6-0.2c-0.2,0-0.5,0.1-0.6,0.2c-0.2,0.2-0.3,0.3-0.3,0.6c0,0.3,0.1,0.6,0.2,0.8C208.7,107.8,208.9,108,209.1,108z"/>
	<path class="st4" d="M211.6,106.4c0-1.1,0.2-2,0.7-2.5c0.5-0.6,1.2-0.8,2.1-0.8c0.3,0,0.6,0,0.8,0.1v1c-0.2-0.1-0.5-0.1-0.7-0.1
		c-0.4,0-0.8,0.1-1,0.2s-0.5,0.3-0.6,0.6c-0.1,0.2-0.2,0.6-0.2,1h0.1c0.3-0.4,0.7-0.7,1.2-0.7c0.5,0,0.9,0.2,1.2,0.5
		s0.4,0.8,0.4,1.3c0,0.6-0.2,1.1-0.5,1.4s-0.8,0.5-1.4,0.5c-0.4,0-0.8-0.1-1.1-0.3c-0.3-0.2-0.6-0.5-0.7-0.9
		C211.7,107.4,211.6,106.9,211.6,106.4z M213.7,108c0.3,0,0.5-0.1,0.6-0.3c0.1-0.2,0.2-0.4,0.2-0.7c0-0.3-0.1-0.5-0.2-0.7
		s-0.3-0.2-0.6-0.2c-0.2,0-0.5,0.1-0.6,0.2c-0.2,0.2-0.3,0.3-0.3,0.6c0,0.3,0.1,0.6,0.2,0.8C213.3,107.8,213.5,108,213.7,108z"/>
	<path class="st4" d="M216.8,108.8l2.1-4.7h-2.8v-1h4.1v0.8l-2.2,4.9H216.8z"/>
	<path class="st4" d="M224.9,103.1c0.5,0,1,0.1,1.3,0.4c0.3,0.2,0.5,0.6,0.5,1c0,0.3-0.1,0.6-0.2,0.8c-0.2,0.2-0.4,0.4-0.8,0.6
		c0.4,0.2,0.7,0.5,0.9,0.7c0.2,0.2,0.3,0.5,0.3,0.8c0,0.5-0.2,0.8-0.6,1.1s-0.8,0.4-1.4,0.4c-0.6,0-1.1-0.1-1.5-0.4
		c-0.4-0.3-0.5-0.6-0.5-1.1c0-0.3,0.1-0.6,0.3-0.9c0.2-0.3,0.5-0.5,0.8-0.7c-0.3-0.2-0.6-0.4-0.7-0.7c-0.1-0.2-0.2-0.5-0.2-0.8
		c0-0.4,0.2-0.7,0.5-1C223.9,103.2,224.3,103.1,224.9,103.1z M224,107.3c0,0.2,0.1,0.4,0.2,0.5s0.4,0.2,0.6,0.2
		c0.3,0,0.5-0.1,0.7-0.2s0.2-0.3,0.2-0.5c0-0.2-0.1-0.3-0.2-0.5c-0.1-0.2-0.4-0.3-0.7-0.5C224.3,106.6,224,106.9,224,107.3z
		 M224.9,103.9c-0.2,0-0.4,0.1-0.5,0.2c-0.1,0.1-0.2,0.2-0.2,0.4c0,0.2,0.1,0.3,0.2,0.4c0.1,0.1,0.3,0.3,0.5,0.4
		c0.3-0.1,0.4-0.2,0.5-0.4s0.2-0.3,0.2-0.4c0-0.2-0.1-0.3-0.2-0.4C225.2,104,225.1,103.9,224.9,103.9z"/>
	<path class="st4" d="M231.6,107.7h-0.7v1.2h-1.2v-1.2h-2.4v-0.8l2.5-3.7h1.1v3.6h0.7V107.7z M229.7,106.7v-1c0-0.2,0-0.4,0-0.7
		c0-0.3,0-0.5,0-0.5h0c-0.1,0.2-0.2,0.4-0.3,0.6l-1,1.6H229.7z"/>
	<path class="st4" d="M236,108.8h-4V108l1.4-1.4c0.4-0.4,0.7-0.7,0.8-0.9c0.1-0.2,0.2-0.3,0.3-0.5c0.1-0.1,0.1-0.3,0.1-0.4
		c0-0.2-0.1-0.4-0.2-0.5c-0.1-0.1-0.3-0.2-0.5-0.2c-0.2,0-0.4,0.1-0.6,0.2c-0.2,0.1-0.4,0.2-0.7,0.4l-0.7-0.8
		c0.3-0.2,0.5-0.4,0.7-0.5c0.2-0.1,0.4-0.2,0.6-0.2s0.5-0.1,0.7-0.1c0.4,0,0.7,0.1,0.9,0.2s0.5,0.3,0.6,0.5c0.2,0.2,0.2,0.5,0.2,0.8
		c0,0.3,0,0.5-0.1,0.7c-0.1,0.2-0.2,0.5-0.4,0.7c-0.2,0.2-0.5,0.6-1,1l-0.7,0.7v0.1h2.5V108.8z"/>
</g>
<g class="st1">
	<path class="st4" d="M197.9,134.4c0.5,0,1,0.1,1.3,0.4c0.3,0.2,0.5,0.6,0.5,1c0,0.3-0.1,0.6-0.2,0.8c-0.2,0.2-0.4,0.4-0.8,0.6
		c0.4,0.2,0.7,0.5,0.9,0.7c0.2,0.2,0.3,0.5,0.3,0.8c0,0.5-0.2,0.8-0.6,1.1s-0.8,0.4-1.4,0.4c-0.6,0-1.1-0.1-1.5-0.4
		c-0.4-0.3-0.5-0.6-0.5-1.1c0-0.3,0.1-0.6,0.3-0.9c0.2-0.3,0.5-0.5,0.8-0.7c-0.3-0.2-0.6-0.4-0.7-0.7c-0.1-0.2-0.2-0.5-0.2-0.8
		c0-0.4,0.2-0.7,0.5-1C196.9,134.6,197.3,134.4,197.9,134.4z M197,138.7c0,0.2,0.1,0.4,0.2,0.5s0.4,0.2,0.6,0.2
		c0.3,0,0.5-0.1,0.7-0.2s0.2-0.3,0.2-0.5c0-0.2-0.1-0.3-0.2-0.5c-0.1-0.2-0.4-0.3-0.7-0.5C197.3,138,197,138.3,197,138.7z
		 M197.9,135.3c-0.2,0-0.4,0.1-0.5,0.2c-0.1,0.1-0.2,0.2-0.2,0.4c0,0.2,0.1,0.3,0.2,0.4c0.1,0.1,0.3,0.3,0.5,0.4
		c0.3-0.1,0.4-0.2,0.5-0.4s0.2-0.3,0.2-0.4c0-0.2-0.1-0.3-0.2-0.4C198.2,135.4,198.1,135.3,197.9,135.3z"/>
	<path class="st4" d="M204.4,136.9c0,1.1-0.2,2-0.7,2.5c-0.5,0.6-1.2,0.8-2.2,0.8c-0.3,0-0.6,0-0.8-0.1v-1c0.2,0.1,0.4,0.1,0.7,0.1
		c0.4,0,0.7-0.1,1-0.2c0.3-0.1,0.5-0.3,0.6-0.6c0.1-0.3,0.2-0.6,0.2-1h0c-0.2,0.2-0.3,0.4-0.5,0.5c-0.2,0.1-0.4,0.1-0.7,0.1
		c-0.5,0-0.9-0.2-1.2-0.5c-0.3-0.3-0.4-0.8-0.4-1.3c0-0.6,0.2-1.1,0.5-1.5s0.8-0.5,1.4-0.5c0.4,0,0.8,0.1,1.1,0.3s0.6,0.5,0.7,0.9
		C204.4,136,204.4,136.4,204.4,136.9z M202.4,135.4c-0.2,0-0.4,0.1-0.6,0.3s-0.2,0.4-0.2,0.7c0,0.3,0.1,0.5,0.2,0.7
		c0.1,0.2,0.3,0.2,0.6,0.2c0.2,0,0.5-0.1,0.6-0.2c0.2-0.2,0.3-0.3,0.3-0.6c0-0.3-0.1-0.6-0.2-0.8
		C202.8,135.5,202.6,135.4,202.4,135.4z"/>
	<path class="st4" d="M207.1,137.8c0-1.1,0.2-2,0.7-2.5c0.5-0.6,1.2-0.8,2.1-0.8c0.3,0,0.6,0,0.8,0.1v1c-0.2-0.1-0.5-0.1-0.7-0.1
		c-0.4,0-0.8,0.1-1,0.2s-0.5,0.3-0.6,0.6c-0.1,0.2-0.2,0.6-0.2,1h0.1c0.3-0.4,0.7-0.7,1.2-0.7c0.5,0,0.9,0.2,1.2,0.5
		s0.4,0.8,0.4,1.3c0,0.6-0.2,1.1-0.5,1.4s-0.8,0.5-1.4,0.5c-0.4,0-0.8-0.1-1.1-0.3c-0.3-0.2-0.6-0.5-0.7-0.9
		C207.2,138.8,207.1,138.3,207.1,137.8z M209.1,139.3c0.3,0,0.5-0.1,0.6-0.3c0.1-0.2,0.2-0.4,0.2-0.7c0-0.3-0.1-0.5-0.2-0.7
		s-0.3-0.2-0.6-0.2c-0.2,0-0.5,0.1-0.6,0.2c-0.2,0.2-0.3,0.3-0.3,0.6c0,0.3,0.1,0.6,0.2,0.8C208.7,139.2,208.9,139.3,209.1,139.3z"
		/>
	<path class="st4" d="M215.5,135.8c0,0.4-0.1,0.7-0.3,0.9c-0.2,0.2-0.5,0.4-0.9,0.5v0c0.5,0.1,0.8,0.2,1,0.4
		c0.2,0.2,0.4,0.5,0.4,0.9c0,0.5-0.2,1-0.6,1.3s-1,0.5-1.7,0.5c-0.6,0-1.2-0.1-1.6-0.3v-1c0.2,0.1,0.5,0.2,0.7,0.3s0.5,0.1,0.8,0.1
		c0.4,0,0.7-0.1,0.9-0.2c0.2-0.1,0.3-0.4,0.3-0.7c0-0.3-0.1-0.5-0.3-0.6s-0.6-0.2-1-0.2h-0.4v-0.9h0.4c0.4,0,0.8-0.1,1-0.2
		c0.2-0.1,0.3-0.3,0.3-0.6c0-0.4-0.3-0.6-0.8-0.6c-0.2,0-0.4,0-0.6,0.1c-0.2,0.1-0.4,0.2-0.6,0.3l-0.6-0.8c0.5-0.4,1.1-0.6,1.9-0.6
		c0.6,0,1.1,0.1,1.4,0.4C215.3,135,215.5,135.3,215.5,135.8z"/>
	<path class="st4" d="M220.2,140.2h-4v-0.8l1.4-1.4c0.4-0.4,0.7-0.7,0.8-0.9c0.1-0.2,0.2-0.3,0.3-0.5c0.1-0.1,0.1-0.3,0.1-0.4
		c0-0.2-0.1-0.4-0.2-0.5c-0.1-0.1-0.3-0.2-0.5-0.2c-0.2,0-0.4,0.1-0.6,0.2c-0.2,0.1-0.4,0.2-0.7,0.4l-0.7-0.8
		c0.3-0.2,0.5-0.4,0.7-0.5c0.2-0.1,0.4-0.2,0.6-0.2s0.5-0.1,0.7-0.1c0.4,0,0.7,0.1,0.9,0.2s0.5,0.3,0.6,0.5c0.2,0.2,0.2,0.5,0.2,0.8
		c0,0.3,0,0.5-0.1,0.7c-0.1,0.2-0.2,0.5-0.4,0.7c-0.2,0.2-0.5,0.6-1,1l-0.7,0.7v0.1h2.5V140.2z"/>
	<path class="st4" d="M226.9,136.9c0,1.1-0.2,2-0.7,2.5c-0.5,0.6-1.2,0.8-2.2,0.8c-0.3,0-0.6,0-0.8-0.1v-1c0.2,0.1,0.4,0.1,0.7,0.1
		c0.4,0,0.7-0.1,1-0.2c0.3-0.1,0.5-0.3,0.6-0.6c0.1-0.3,0.2-0.6,0.2-1h0c-0.2,0.2-0.3,0.4-0.5,0.5c-0.2,0.1-0.4,0.1-0.7,0.1
		c-0.5,0-0.9-0.2-1.2-0.5c-0.3-0.3-0.4-0.8-0.4-1.3c0-0.6,0.2-1.1,0.5-1.5s0.8-0.5,1.4-0.5c0.4,0,0.8,0.1,1.1,0.3s0.6,0.5,0.7,0.9
		C226.8,136,226.9,136.4,226.9,136.9z M224.8,135.4c-0.2,0-0.4,0.1-0.6,0.3s-0.2,0.4-0.2,0.7c0,0.3,0.1,0.5,0.2,0.7
		c0.1,0.2,0.3,0.2,0.6,0.2c0.2,0,0.5-0.1,0.6-0.2c0.2-0.2,0.3-0.3,0.3-0.6c0-0.3-0.1-0.6-0.2-0.8
		C225.3,135.5,225.1,135.4,224.8,135.4z"/>
	<path class="st4" d="M230.4,140.2h-1.2v-3.3l0-0.5l0-0.6c-0.2,0.2-0.3,0.3-0.4,0.4l-0.7,0.5l-0.6-0.7l1.8-1.5h1V140.2z"/>
	<path class="st4" d="M236,140.2h-4v-0.8l1.4-1.4c0.4-0.4,0.7-0.7,0.8-0.9c0.1-0.2,0.2-0.3,0.3-0.5c0.1-0.1,0.1-0.3,0.1-0.4
		c0-0.2-0.1-0.4-0.2-0.5c-0.1-0.1-0.3-0.2-0.5-0.2c-0.2,0-0.4,0.1-0.6,0.2c-0.2,0.1-0.4,0.2-0.7,0.4l-0.7-0.8
		c0.3-0.2,0.5-0.4,0.7-0.5c0.2-0.1,0.4-0.2,0.6-0.2s0.5-0.1,0.7-0.1c0.4,0,0.7,0.1,0.9,0.2s0.5,0.3,0.6,0.5c0.2,0.2,0.2,0.5,0.2,0.8
		c0,0.3,0,0.5-0.1,0.7c-0.1,0.2-0.2,0.5-0.4,0.7c-0.2,0.2-0.5,0.6-1,1l-0.7,0.7v0.1h2.5V140.2z"/>
</g>
<g class="st1">
	<path class="st4" d="M198.6,166c0,0.4-0.1,0.7-0.3,0.9c-0.2,0.2-0.5,0.4-0.9,0.5v0c0.5,0.1,0.8,0.2,1,0.4c0.2,0.2,0.4,0.5,0.4,0.9
		c0,0.5-0.2,1-0.6,1.3s-1,0.5-1.7,0.5c-0.6,0-1.2-0.1-1.6-0.3v-1c0.2,0.1,0.5,0.2,0.7,0.3s0.5,0.1,0.8,0.1c0.4,0,0.7-0.1,0.9-0.2
		c0.2-0.1,0.3-0.4,0.3-0.7c0-0.3-0.1-0.5-0.3-0.6s-0.6-0.2-1-0.2h-0.4v-0.9h0.4c0.4,0,0.8-0.1,1-0.2c0.2-0.1,0.3-0.3,0.3-0.6
		c0-0.4-0.3-0.6-0.8-0.6c-0.2,0-0.4,0-0.6,0.1c-0.2,0.1-0.4,0.2-0.6,0.3l-0.6-0.8c0.5-0.4,1.1-0.6,1.9-0.6c0.6,0,1.1,0.1,1.4,0.4
		C198.5,165.3,198.6,165.6,198.6,166z"/>
	<path class="st4" d="M203.4,167.6c0,1-0.2,1.7-0.5,2.2c-0.3,0.5-0.8,0.7-1.5,0.7c-0.7,0-1.2-0.2-1.5-0.7c-0.3-0.5-0.5-1.2-0.5-2.2
		c0-1,0.2-1.8,0.5-2.2c0.3-0.5,0.8-0.7,1.5-0.7c0.7,0,1.2,0.2,1.5,0.8C203.2,165.9,203.4,166.7,203.4,167.6z M200.6,167.6
		c0,0.7,0.1,1.2,0.2,1.5s0.3,0.5,0.6,0.5c0.3,0,0.5-0.2,0.6-0.5s0.2-0.8,0.2-1.5c0-0.7-0.1-1.2-0.2-1.5c-0.1-0.3-0.3-0.5-0.6-0.5
		c-0.3,0-0.5,0.2-0.6,0.5C200.7,166.4,200.6,166.9,200.6,167.6z"/>
	<path class="st4" d="M210.2,169.3h-0.7v1.2h-1.2v-1.2h-2.4v-0.8l2.5-3.7h1.1v3.6h0.7V169.3z M208.3,168.3v-1c0-0.2,0-0.4,0-0.7
		c0-0.3,0-0.5,0-0.5h0c-0.1,0.2-0.2,0.4-0.3,0.6l-1,1.6H208.3z"/>
	<path class="st4" d="M214.6,167.6c0,1-0.2,1.7-0.5,2.2c-0.3,0.5-0.8,0.7-1.5,0.7c-0.7,0-1.2-0.2-1.5-0.7c-0.3-0.5-0.5-1.2-0.5-2.2
		c0-1,0.2-1.8,0.5-2.2c0.3-0.5,0.8-0.7,1.5-0.7c0.7,0,1.2,0.2,1.5,0.8C214.4,165.9,214.6,166.7,214.6,167.6z M211.8,167.6
		c0,0.7,0.1,1.2,0.2,1.5s0.3,0.5,0.6,0.5c0.3,0,0.5-0.2,0.6-0.5s0.2-0.8,0.2-1.5c0-0.7-0.1-1.2-0.2-1.5c-0.1-0.3-0.3-0.5-0.6-0.5
		c-0.3,0-0.5,0.2-0.6,0.5C211.9,166.4,211.8,166.9,211.8,167.6z"/>
	<path class="st4" d="M219.2,170.5h-4v-0.8l1.4-1.4c0.4-0.4,0.7-0.7,0.8-0.9c0.1-0.2,0.2-0.3,0.3-0.5c0.1-0.1,0.1-0.3,0.1-0.4
		c0-0.2-0.1-0.4-0.2-0.5c-0.1-0.1-0.3-0.2-0.5-0.2c-0.2,0-0.4,0.1-0.6,0.2c-0.2,0.1-0.4,0.2-0.7,0.4l-0.7-0.8
		c0.3-0.2,0.5-0.4,0.7-0.5c0.2-0.1,0.4-0.2,0.6-0.2s0.5-0.1,0.7-0.1c0.4,0,0.7,0.1,0.9,0.2s0.5,0.3,0.6,0.5c0.2,0.2,0.2,0.5,0.2,0.8
		c0,0.3,0,0.5-0.1,0.7c-0.1,0.2-0.2,0.5-0.4,0.7c-0.2,0.2-0.5,0.6-1,1l-0.7,0.7v0.1h2.5V170.5z"/>
	<path class="st4" d="M223.9,166.8c0.6,0,1,0.2,1.3,0.5c0.3,0.3,0.5,0.7,0.5,1.3c0,0.6-0.2,1.1-0.6,1.5c-0.4,0.3-1,0.5-1.7,0.5
		c-0.6,0-1.1-0.1-1.5-0.3v-1c0.2,0.1,0.4,0.2,0.7,0.3s0.5,0.1,0.8,0.1c0.7,0,1.1-0.3,1.1-0.9c0-0.6-0.4-0.9-1.1-0.9
		c-0.1,0-0.3,0-0.5,0c-0.2,0-0.3,0.1-0.4,0.1l-0.5-0.3l0.2-2.9h3.1v1h-2l-0.1,1.1l0.1,0C223.5,166.8,223.7,166.8,223.9,166.8z"/>
	<path class="st4" d="M228.4,164.7c0.5,0,1,0.1,1.3,0.4c0.3,0.2,0.5,0.6,0.5,1c0,0.3-0.1,0.6-0.2,0.8c-0.2,0.2-0.4,0.4-0.8,0.6
		c0.4,0.2,0.7,0.5,0.9,0.7c0.2,0.2,0.3,0.5,0.3,0.8c0,0.5-0.2,0.8-0.6,1.1s-0.8,0.4-1.4,0.4c-0.6,0-1.1-0.1-1.5-0.4
		c-0.4-0.3-0.5-0.6-0.5-1.1c0-0.3,0.1-0.6,0.3-0.9c0.2-0.3,0.5-0.5,0.8-0.7c-0.3-0.2-0.6-0.4-0.7-0.7c-0.1-0.2-0.2-0.5-0.2-0.8
		c0-0.4,0.2-0.7,0.5-1C227.4,164.8,227.8,164.7,228.4,164.7z M227.5,169c0,0.2,0.1,0.4,0.2,0.5s0.4,0.2,0.6,0.2
		c0.3,0,0.5-0.1,0.7-0.2s0.2-0.3,0.2-0.5c0-0.2-0.1-0.3-0.2-0.5c-0.1-0.2-0.4-0.3-0.7-0.5C227.8,168.2,227.5,168.6,227.5,169z
		 M228.4,165.6c-0.2,0-0.4,0.1-0.5,0.2c-0.1,0.1-0.2,0.2-0.2,0.4c0,0.2,0.1,0.3,0.2,0.4c0.1,0.1,0.3,0.3,0.5,0.4
		c0.3-0.1,0.4-0.2,0.5-0.4s0.2-0.3,0.2-0.4c0-0.2-0.1-0.3-0.2-0.4C228.8,165.6,228.6,165.6,228.4,165.6z"/>
	<path class="st4" d="M231.6,170.5l2.1-4.7h-2.8v-1h4.1v0.8l-2.2,4.9H231.6z"/>
</g>
<g class="st1">
	<path class="st4" d="M197.6,201.8h-4V201l1.4-1.4c0.4-0.4,0.7-0.7,0.8-0.9c0.1-0.2,0.2-0.3,0.3-0.5c0.1-0.1,0.1-0.3,0.1-0.4
		c0-0.2-0.1-0.4-0.2-0.5c-0.1-0.1-0.3-0.2-0.5-0.2c-0.2,0-0.4,0.1-0.6,0.2c-0.2,0.1-0.4,0.2-0.7,0.4l-0.7-0.8
		c0.3-0.2,0.5-0.4,0.7-0.5c0.2-0.1,0.4-0.2,0.6-0.2s0.5-0.1,0.7-0.1c0.4,0,0.7,0.1,0.9,0.2s0.5,0.3,0.6,0.5c0.2,0.2,0.2,0.5,0.2,0.8
		c0,0.3,0,0.5-0.1,0.7c-0.1,0.2-0.2,0.5-0.4,0.7c-0.2,0.2-0.5,0.6-1,1l-0.7,0.7v0.1h2.5V201.8z"/>
	<path class="st4" d="M201.2,201.8H200v-3.3l0-0.5l0-0.6c-0.2,0.2-0.3,0.3-0.4,0.4l-0.7,0.5l-0.6-0.7l1.8-1.5h1V201.8z"/>
	<path class="st4" d="M206.5,197.4c0,0.4-0.1,0.7-0.3,0.9c-0.2,0.2-0.5,0.4-0.9,0.5v0c0.5,0.1,0.8,0.2,1,0.4
		c0.2,0.2,0.4,0.5,0.4,0.9c0,0.5-0.2,1-0.6,1.3s-1,0.5-1.7,0.5c-0.6,0-1.2-0.1-1.6-0.3v-1c0.2,0.1,0.5,0.2,0.7,0.3s0.5,0.1,0.8,0.1
		c0.4,0,0.7-0.1,0.9-0.2c0.2-0.1,0.3-0.4,0.3-0.7c0-0.3-0.1-0.5-0.3-0.6s-0.6-0.2-1-0.2h-0.4v-0.9h0.4c0.4,0,0.8-0.1,1-0.2
		c0.2-0.1,0.3-0.3,0.3-0.6c0-0.4-0.3-0.6-0.8-0.6c-0.2,0-0.4,0-0.6,0.1c-0.2,0.1-0.4,0.2-0.6,0.3l-0.6-0.8c0.5-0.4,1.1-0.6,1.9-0.6
		c0.6,0,1.1,0.1,1.4,0.4C206.4,196.6,206.5,197,206.5,197.4z"/>
	<path class="st4" d="M213.2,197.4c0,0.4-0.1,0.7-0.3,0.9c-0.2,0.2-0.5,0.4-0.9,0.5v0c0.5,0.1,0.8,0.2,1,0.4
		c0.2,0.2,0.4,0.5,0.4,0.9c0,0.5-0.2,1-0.6,1.3s-1,0.5-1.7,0.5c-0.6,0-1.2-0.1-1.6-0.3v-1c0.2,0.1,0.5,0.2,0.7,0.3s0.5,0.1,0.8,0.1
		c0.4,0,0.7-0.1,0.9-0.2c0.2-0.1,0.3-0.4,0.3-0.7c0-0.3-0.1-0.5-0.3-0.6s-0.6-0.2-1-0.2h-0.4v-0.9h0.4c0.4,0,0.8-0.1,1-0.2
		c0.2-0.1,0.3-0.3,0.3-0.6c0-0.4-0.3-0.6-0.8-0.6c-0.2,0-0.4,0-0.6,0.1c-0.2,0.1-0.4,0.2-0.6,0.3l-0.6-0.8c0.5-0.4,1.1-0.6,1.9-0.6
		c0.6,0,1.1,0.1,1.4,0.4C213,196.6,213.2,197,213.2,197.4z"/>
	<path class="st4" d="M216.9,201.8h-1.2v-3.3l0-0.5l0-0.6c-0.2,0.2-0.3,0.3-0.4,0.4l-0.7,0.5l-0.6-0.7l1.8-1.5h1V201.8z"/>
	<path class="st4" d="M219.1,201.8l2.1-4.7h-2.8v-1h4.1v0.8l-2.2,4.9H219.1z"/>
	<path class="st4" d="M225.1,199.4c0-1.1,0.2-2,0.7-2.5c0.5-0.6,1.2-0.8,2.1-0.8c0.3,0,0.6,0,0.8,0.1v1c-0.2-0.1-0.5-0.1-0.7-0.1
		c-0.4,0-0.8,0.1-1,0.2s-0.5,0.3-0.6,0.6c-0.1,0.2-0.2,0.6-0.2,1h0.1c0.3-0.4,0.7-0.7,1.2-0.7c0.5,0,0.9,0.2,1.2,0.5
		s0.4,0.8,0.4,1.3c0,0.6-0.2,1.1-0.5,1.4s-0.8,0.5-1.4,0.5c-0.4,0-0.8-0.1-1.1-0.3c-0.3-0.2-0.6-0.5-0.7-0.9
		C225.2,200.4,225.1,199.9,225.1,199.4z M227.2,201c0.3,0,0.5-0.1,0.6-0.3c0.1-0.2,0.2-0.4,0.2-0.7c0-0.3-0.1-0.5-0.2-0.7
		s-0.3-0.2-0.6-0.2c-0.2,0-0.5,0.1-0.6,0.2c-0.2,0.2-0.3,0.3-0.3,0.6c0,0.3,0.1,0.6,0.2,0.8C226.7,200.8,226.9,201,227.2,201z"/>
	<path class="st4" d="M233.5,197.4c0,0.4-0.1,0.7-0.3,0.9c-0.2,0.2-0.5,0.4-0.9,0.5v0c0.5,0.1,0.8,0.2,1,0.4
		c0.2,0.2,0.4,0.5,0.4,0.9c0,0.5-0.2,1-0.6,1.3s-1,0.5-1.7,0.5c-0.6,0-1.2-0.1-1.6-0.3v-1c0.2,0.1,0.5,0.2,0.7,0.3s0.5,0.1,0.8,0.1
		c0.4,0,0.7-0.1,0.9-0.2c0.2-0.1,0.3-0.4,0.3-0.7c0-0.3-0.1-0.5-0.3-0.6s-0.6-0.2-1-0.2h-0.4v-0.9h0.4c0.4,0,0.8-0.1,1-0.2
		c0.2-0.1,0.3-0.3,0.3-0.6c0-0.4-0.3-0.6-0.8-0.6c-0.2,0-0.4,0-0.6,0.1c-0.2,0.1-0.4,0.2-0.6,0.3l-0.6-0.8c0.5-0.4,1.1-0.6,1.9-0.6
		c0.6,0,1.1,0.1,1.4,0.4C233.3,196.6,233.5,197,233.5,197.4z"/>
	<path class="st4" d="M238.3,198.6c0,1.1-0.2,2-0.7,2.5c-0.5,0.6-1.2,0.8-2.2,0.8c-0.3,0-0.6,0-0.8-0.1v-1c0.2,0.1,0.4,0.1,0.7,0.1
		c0.4,0,0.7-0.1,1-0.2c0.3-0.1,0.5-0.3,0.6-0.6c0.1-0.3,0.2-0.6,0.2-1h0c-0.2,0.2-0.3,0.4-0.5,0.5c-0.2,0.1-0.4,0.1-0.7,0.1
		c-0.5,0-0.9-0.2-1.2-0.5c-0.3-0.3-0.4-0.8-0.4-1.3c0-0.6,0.2-1.1,0.5-1.5s0.8-0.5,1.4-0.5c0.4,0,0.8,0.1,1.1,0.3s0.6,0.5,0.7,0.9
		C238.2,197.6,238.3,198,238.3,198.6z M236.2,197c-0.2,0-0.4,0.1-0.6,0.3s-0.2,0.4-0.2,0.7c0,0.3,0.1,0.5,0.2,0.7
		c0.1,0.2,0.3,0.2,0.6,0.2c0.2,0,0.5-0.1,0.6-0.2c0.2-0.2,0.3-0.3,0.3-0.6c0-0.3-0.1-0.6-0.2-0.8C236.7,197.1,236.5,197,236.2,197z"
		/>
</g>
<g class="st1">
	<path class="st2" d="M101,9l-0.4-1.4h-2.1L98.1,9h-1.3l2-5.7h1.5l2,5.7H101z M100.3,6.6c-0.4-1.2-0.6-1.9-0.6-2.1s-0.1-0.3-0.1-0.4
		c-0.1,0.3-0.3,1.2-0.7,2.5H100.3z M98.9,2.8V2.7c0.4-0.5,0.8-0.9,0.9-1.2h1.3v0.1c-0.1,0.1-0.4,0.3-0.7,0.6s-0.6,0.5-0.8,0.6H98.9z
		"/>
	<path class="st2" d="M105.4,4.6c0.2,0,0.3,0,0.4,0l-0.1,1.1c-0.1,0-0.2,0-0.4,0c-0.4,0-0.7,0.1-0.9,0.3s-0.3,0.5-0.3,0.8V9h-1.2
		V4.6h0.9l0.2,0.7h0.1c0.1-0.2,0.3-0.4,0.5-0.6S105.1,4.6,105.4,4.6z"/>
	<path class="st2" d="M108.5,9.1c-0.7,0-1.3-0.2-1.6-0.6s-0.6-0.9-0.6-1.6c0-0.7,0.2-1.3,0.5-1.7s0.9-0.6,1.5-0.6
		c0.6,0,1.1,0.2,1.4,0.5s0.5,0.8,0.5,1.5v0.6h-2.8c0,0.3,0.1,0.6,0.3,0.8s0.5,0.3,0.8,0.3c0.3,0,0.5,0,0.7-0.1s0.5-0.1,0.7-0.3v0.9
		c-0.2,0.1-0.4,0.2-0.7,0.2S108.9,9.1,108.5,9.1z M108.4,5.4c-0.3,0-0.5,0.1-0.6,0.2s-0.2,0.4-0.2,0.7h1.7c0-0.3-0.1-0.5-0.2-0.7
		S108.6,5.4,108.4,5.4z"/>
	<path class="st2" d="M114.1,9l-0.2-0.6h0c-0.2,0.3-0.4,0.4-0.6,0.5s-0.5,0.1-0.8,0.1c-0.4,0-0.7-0.1-1-0.4s-0.4-0.6-0.4-1
		c0-0.5,0.2-0.8,0.5-1s0.8-0.3,1.5-0.4l0.8,0V6.1c0-0.4-0.2-0.7-0.7-0.7c-0.3,0-0.8,0.1-1.2,0.3l-0.4-0.8c0.5-0.3,1.1-0.4,1.7-0.4
		c0.6,0,1,0.1,1.3,0.4s0.5,0.6,0.5,1.2V9H114.1z M113.7,7l-0.5,0c-0.3,0-0.6,0.1-0.8,0.2s-0.3,0.3-0.3,0.5c0,0.3,0.2,0.5,0.6,0.5
		c0.3,0,0.5-0.1,0.7-0.2s0.2-0.4,0.2-0.6V7z"/>
</g>
<g class="st1">
	<path class="st2" d="M80.2,16.4c0-0.7,0.1-1.3,0.3-1.9s0.5-1.1,0.9-1.6h1c-0.4,0.5-0.6,1.1-0.8,1.7s-0.3,1.2-0.3,1.9
		c0,0.6,0.1,1.3,0.3,1.8s0.5,1.1,0.8,1.6h-1c-0.4-0.4-0.7-1-0.9-1.6S80.2,17.1,80.2,16.4z"/>
	<path class="st2" d="M85.1,18.7c-0.7,0-1.3-0.2-1.6-0.6s-0.6-0.9-0.6-1.6c0-0.7,0.2-1.3,0.5-1.7s0.9-0.6,1.5-0.6
		c0.6,0,1.1,0.2,1.4,0.5s0.5,0.8,0.5,1.5v0.6h-2.8c0,0.3,0.1,0.6,0.3,0.8s0.5,0.3,0.8,0.3c0.3,0,0.5,0,0.7-0.1s0.5-0.1,0.7-0.3v0.9
		c-0.2,0.1-0.4,0.2-0.7,0.2S85.5,18.7,85.1,18.7z M85,15c-0.3,0-0.5,0.1-0.6,0.2s-0.2,0.4-0.2,0.7h1.7c0-0.3-0.1-0.5-0.2-0.7
		S85.2,15,85,15z"/>
	<path class="st2" d="M91.8,18.6h-1.2v-2.6c0-0.3-0.1-0.6-0.2-0.7s-0.3-0.2-0.5-0.2c-0.3,0-0.5,0.1-0.7,0.3s-0.2,0.6-0.2,1.1v2.1
		h-1.2v-4.4h0.9l0.2,0.6H89c0.1-0.2,0.3-0.4,0.5-0.5s0.5-0.2,0.8-0.2c0.7,0,1.1,0.2,1.3,0.6h0.1c0.1-0.2,0.3-0.4,0.5-0.5
		s0.5-0.2,0.8-0.2c0.5,0,0.9,0.1,1.1,0.4s0.4,0.7,0.4,1.2v2.8h-1.2v-2.6c0-0.3-0.1-0.6-0.2-0.7s-0.3-0.2-0.5-0.2
		c-0.3,0-0.5,0.1-0.7,0.3s-0.2,0.5-0.2,1V18.6z"/>
	<path class="st2" d="M101.7,18.6h-1.2v-2.6c0-0.3-0.1-0.6-0.2-0.7s-0.3-0.2-0.5-0.2c-0.3,0-0.5,0.1-0.7,0.3S99,16,99,16.6v2.1h-1.2
		v-4.4h0.9l0.2,0.6H99c0.1-0.2,0.3-0.4,0.5-0.5s0.5-0.2,0.8-0.2c0.7,0,1.1,0.2,1.3,0.6h0.1c0.1-0.2,0.3-0.4,0.5-0.5s0.5-0.2,0.8-0.2
		c0.5,0,0.9,0.1,1.1,0.4s0.4,0.7,0.4,1.2v2.8h-1.2v-2.6c0-0.3-0.1-0.6-0.2-0.7s-0.3-0.2-0.5-0.2c-0.3,0-0.5,0.1-0.7,0.3
		s-0.2,0.5-0.2,1V18.6z"/>
	<path class="st2" d="M105.6,13.1c0-0.4,0.2-0.6,0.6-0.6s0.6,0.2,0.6,0.6c0,0.2-0.1,0.3-0.2,0.4s-0.3,0.2-0.5,0.2
		C105.8,13.7,105.6,13.5,105.6,13.1z M106.9,18.6h-1.2v-4.4h1.2V18.6z"/>
	<path class="st2" d="M109.3,18.6h-1.2v-6.1h1.2V18.6z"/>
	<path class="st2" d="M117.3,18.6H116l-1.5-2.4l-0.5,0.4v2h-1.2v-5.7h1.2v2.6l0.5-0.7l1.5-1.9h1.3l-2,2.5L117.3,18.6z"/>
	<path class="st2" d="M121.9,18.6h-1.2v-2.6c0-0.3-0.1-0.6-0.2-0.7s-0.3-0.2-0.5-0.2c-0.3,0-0.5,0.1-0.7,0.3s-0.2,0.6-0.2,1.1v2.1
		H118v-4.4h0.9l0.2,0.6h0.1c0.1-0.2,0.3-0.4,0.5-0.5s0.5-0.2,0.8-0.2c0.7,0,1.1,0.2,1.3,0.6h0.1c0.1-0.2,0.3-0.4,0.5-0.5
		s0.5-0.2,0.8-0.2c0.5,0,0.9,0.1,1.1,0.4s0.4,0.7,0.4,1.2v2.8h-1.2v-2.6c0-0.3-0.1-0.6-0.2-0.7s-0.3-0.2-0.5-0.2
		c-0.3,0-0.5,0.1-0.7,0.3s-0.2,0.5-0.2,1V18.6z"/>
	<path class="st2" d="M129.5,18.6h-4v-0.8l1.4-1.4c0.4-0.4,0.7-0.7,0.8-0.9s0.2-0.3,0.3-0.5s0.1-0.3,0.1-0.4c0-0.2-0.1-0.4-0.2-0.5
		s-0.3-0.2-0.5-0.2c-0.2,0-0.4,0.1-0.6,0.2s-0.4,0.2-0.7,0.4l-0.7-0.8c0.3-0.2,0.5-0.4,0.7-0.5s0.4-0.2,0.6-0.2s0.5-0.1,0.7-0.1
		c0.4,0,0.7,0.1,0.9,0.2s0.5,0.3,0.6,0.5s0.2,0.5,0.2,0.8c0,0.3,0,0.5-0.1,0.7s-0.2,0.5-0.4,0.7s-0.5,0.6-1,1l-0.7,0.7v0.1h2.5V18.6
		z"/>
	<path class="st2" d="M132.1,16.4c0,0.7-0.1,1.3-0.3,1.9s-0.5,1.1-0.9,1.5h-1c0.4-0.5,0.6-1,0.8-1.6s0.3-1.2,0.3-1.9
		c0-0.6-0.1-1.3-0.3-1.9s-0.5-1.2-0.8-1.7h1c0.4,0.5,0.7,1,0.9,1.6S132.1,15.7,132.1,16.4z"/>
</g>
<rect x="80" y="188" class="st0" width="52.3" height="19.5"/>
<rect x="79.9" y="24.5" class="st3" width="52.5" height="161.8"/>
<g class="st1">
	<path class="st4" d="M92.2,41.7c0,0.4-0.1,0.7-0.3,0.9s-0.5,0.4-0.9,0.5v0c0.5,0.1,0.8,0.2,1,0.4s0.4,0.5,0.4,0.9
		c0,0.5-0.2,1-0.6,1.3s-1,0.5-1.7,0.5c-0.6,0-1.2-0.1-1.6-0.3v-1c0.2,0.1,0.5,0.2,0.7,0.3s0.5,0.1,0.8,0.1c0.4,0,0.7-0.1,0.9-0.2
		s0.3-0.4,0.3-0.7c0-0.3-0.1-0.5-0.3-0.6s-0.6-0.2-1-0.2h-0.4v-0.9h0.4c0.4,0,0.8-0.1,1-0.2s0.3-0.3,0.3-0.6c0-0.4-0.3-0.6-0.8-0.6
		c-0.2,0-0.4,0-0.6,0.1s-0.4,0.2-0.6,0.3l-0.6-0.8c0.5-0.4,1.1-0.6,1.9-0.6c0.6,0,1.1,0.1,1.4,0.4S92.2,41.2,92.2,41.7z"/>
	<path class="st4" d="M97,40.3c0.5,0,1,0.1,1.3,0.4s0.5,0.6,0.5,1c0,0.3-0.1,0.6-0.2,0.8s-0.4,0.4-0.8,0.6c0.4,0.2,0.7,0.5,0.9,0.7
		s0.3,0.5,0.3,0.8c0,0.5-0.2,0.8-0.6,1.1s-0.9,0.4-1.4,0.4c-0.6,0-1.1-0.1-1.5-0.4S95,45.1,95,44.6c0-0.3,0.1-0.6,0.3-0.9
		s0.5-0.5,0.8-0.7c-0.3-0.2-0.6-0.4-0.7-0.7s-0.2-0.5-0.2-0.8c0-0.4,0.2-0.7,0.5-1S96.5,40.3,97,40.3z M96.1,44.6
		c0,0.2,0.1,0.4,0.2,0.5s0.4,0.2,0.6,0.2c0.3,0,0.5-0.1,0.7-0.2s0.2-0.3,0.2-0.5c0-0.2-0.1-0.3-0.2-0.5s-0.4-0.3-0.7-0.5
		C96.4,43.9,96.1,44.2,96.1,44.6z M97,41.2c-0.2,0-0.4,0.1-0.5,0.2s-0.2,0.2-0.2,0.4c0,0.2,0.1,0.3,0.2,0.4s0.3,0.3,0.5,0.4
		c0.3-0.1,0.4-0.2,0.5-0.4s0.2-0.3,0.2-0.4c0-0.2-0.1-0.3-0.2-0.4S97.2,41.2,97,41.2z"/>
	<path class="st4" d="M101.7,42.4c0.6,0,1,0.2,1.3,0.5s0.5,0.7,0.5,1.3c0,0.6-0.2,1.1-0.6,1.5s-1,0.5-1.7,0.5
		c-0.6,0-1.1-0.1-1.5-0.3v-1c0.2,0.1,0.4,0.2,0.7,0.3s0.5,0.1,0.8,0.1c0.7,0,1.1-0.3,1.1-0.9c0-0.6-0.4-0.9-1.1-0.9
		c-0.1,0-0.3,0-0.5,0s-0.3,0.1-0.4,0.1l-0.5-0.3l0.2-2.9h3.1v1h-2l-0.1,1.1l0.1,0C101.3,42.5,101.5,42.4,101.7,42.4z"/>
	<path class="st4" d="M108,41.7c0,0.4-0.1,0.7-0.3,0.9s-0.5,0.4-0.9,0.5v0c0.5,0.1,0.8,0.2,1,0.4s0.4,0.5,0.4,0.9
		c0,0.5-0.2,1-0.6,1.3s-1,0.5-1.7,0.5c-0.6,0-1.2-0.1-1.6-0.3v-1c0.2,0.1,0.5,0.2,0.7,0.3s0.5,0.1,0.8,0.1c0.4,0,0.7-0.1,0.9-0.2
		s0.3-0.4,0.3-0.7c0-0.3-0.1-0.5-0.3-0.6s-0.6-0.2-1-0.2h-0.4v-0.9h0.4c0.4,0,0.8-0.1,1-0.2s0.3-0.3,0.3-0.6c0-0.4-0.3-0.6-0.8-0.6
		c-0.2,0-0.4,0-0.6,0.1s-0.4,0.2-0.6,0.3l-0.6-0.8c0.5-0.4,1.1-0.6,1.9-0.6c0.6,0,1.1,0.1,1.4,0.4S108,41.2,108,41.7z"/>
	<path class="st4" d="M112.8,40.3c0.5,0,1,0.1,1.3,0.4s0.5,0.6,0.5,1c0,0.3-0.1,0.6-0.2,0.8s-0.4,0.4-0.8,0.6
		c0.4,0.2,0.7,0.5,0.9,0.7s0.3,0.5,0.3,0.8c0,0.5-0.2,0.8-0.6,1.1s-0.9,0.4-1.4,0.4c-0.6,0-1.1-0.1-1.5-0.4s-0.5-0.6-0.5-1.1
		c0-0.3,0.1-0.6,0.3-0.9s0.5-0.5,0.8-0.7c-0.3-0.2-0.6-0.4-0.7-0.7S111,42,111,41.7c0-0.4,0.2-0.7,0.5-1S112.3,40.3,112.8,40.3z
		 M111.9,44.6c0,0.2,0.1,0.4,0.2,0.5s0.4,0.2,0.6,0.2c0.3,0,0.5-0.1,0.7-0.2s0.2-0.3,0.2-0.5c0-0.2-0.1-0.3-0.2-0.5
		s-0.4-0.3-0.7-0.5C112.2,43.9,111.9,44.2,111.9,44.6z M112.8,41.2c-0.2,0-0.4,0.1-0.5,0.2s-0.2,0.2-0.2,0.4c0,0.2,0.1,0.3,0.2,0.4
		s0.3,0.3,0.5,0.4c0.3-0.1,0.4-0.2,0.5-0.4s0.2-0.3,0.2-0.4c0-0.2-0.1-0.3-0.2-0.4S113,41.2,112.8,41.2z"/>
	<path class="st4" d="M117.4,40.3c0.5,0,1,0.1,1.3,0.4s0.5,0.6,0.5,1c0,0.3-0.1,0.6-0.2,0.8s-0.4,0.4-0.8,0.6
		c0.4,0.2,0.7,0.5,0.9,0.7s0.3,0.5,0.3,0.8c0,0.5-0.2,0.8-0.6,1.1s-0.9,0.4-1.4,0.4c-0.6,0-1.1-0.1-1.5-0.4s-0.5-0.6-0.5-1.1
		c0-0.3,0.1-0.6,0.3-0.9s0.5-0.5,0.8-0.7c-0.3-0.2-0.6-0.4-0.7-0.7s-0.2-0.5-0.2-0.8c0-0.4,0.2-0.7,0.5-1S116.8,40.3,117.4,40.3z
		 M116.5,44.6c0,0.2,0.1,0.4,0.2,0.5s0.4,0.2,0.6,0.2c0.3,0,0.5-0.1,0.7-0.2s0.2-0.3,0.2-0.5c0-0.2-0.1-0.3-0.2-0.5
		s-0.4-0.3-0.7-0.5C116.8,43.9,116.5,44.2,116.5,44.6z M117.4,41.2c-0.2,0-0.4,0.1-0.5,0.2s-0.2,0.2-0.2,0.4c0,0.2,0.1,0.3,0.2,0.4
		s0.3,0.3,0.5,0.4c0.3-0.1,0.4-0.2,0.5-0.4s0.2-0.3,0.2-0.4c0-0.2-0.1-0.3-0.2-0.4S117.6,41.2,117.4,41.2z"/>
	<path class="st4" d="M124.1,44.9h-0.7v1.2h-1.2v-1.2h-2.4v-0.8l2.5-3.7h1.1V44h0.7V44.9z M122.2,44v-1c0-0.2,0-0.4,0-0.7
		s0-0.5,0-0.5h0c-0.1,0.2-0.2,0.4-0.3,0.6l-1,1.6H122.2z"/>
</g>
<g class="st1">
	<path class="st4" d="M91.4,77.5h-1.2v-3.3l0-0.5l0-0.6c-0.2,0.2-0.3,0.3-0.4,0.4l-0.7,0.5l-0.6-0.7l1.8-1.5h1V77.5z"/>
	<path class="st4" d="M95,75c0-1.1,0.2-2,0.7-2.5s1.2-0.8,2.1-0.8c0.3,0,0.6,0,0.8,0.1v1c-0.2-0.1-0.5-0.1-0.7-0.1
		c-0.4,0-0.8,0.1-1,0.2s-0.5,0.3-0.6,0.6s-0.2,0.6-0.2,1h0.1c0.3-0.4,0.7-0.7,1.2-0.7c0.5,0,0.9,0.2,1.2,0.5S99,75,99,75.6
		c0,0.6-0.2,1.1-0.5,1.4s-0.8,0.5-1.4,0.5c-0.4,0-0.8-0.1-1.1-0.3s-0.6-0.5-0.7-0.9S95,75.6,95,75z M97.1,76.6
		c0.3,0,0.5-0.1,0.6-0.3s0.2-0.4,0.2-0.7c0-0.3-0.1-0.5-0.2-0.7s-0.3-0.2-0.6-0.2c-0.2,0-0.5,0.1-0.6,0.2s-0.3,0.3-0.3,0.6
		c0,0.3,0.1,0.6,0.2,0.8S96.8,76.6,97.1,76.6z"/>
	<path class="st4" d="M103.6,74.6c0,1-0.2,1.7-0.5,2.2s-0.8,0.7-1.5,0.7c-0.7,0-1.2-0.2-1.5-0.7s-0.5-1.2-0.5-2.2
		c0-1,0.2-1.8,0.5-2.2s0.8-0.7,1.5-0.7c0.7,0,1.2,0.2,1.5,0.8S103.6,73.6,103.6,74.6z M100.8,74.6c0,0.7,0.1,1.2,0.2,1.5
		s0.3,0.5,0.6,0.5c0.3,0,0.5-0.2,0.6-0.5s0.2-0.8,0.2-1.5c0-0.7-0.1-1.2-0.2-1.5s-0.3-0.5-0.6-0.5c-0.3,0-0.5,0.2-0.6,0.5
		S100.8,73.9,100.8,74.6z"/>
	<path class="st4" d="M104.1,75c0-1.1,0.2-2,0.7-2.5s1.2-0.8,2.1-0.8c0.3,0,0.6,0,0.8,0.1v1c-0.2-0.1-0.5-0.1-0.7-0.1
		c-0.4,0-0.8,0.1-1,0.2s-0.5,0.3-0.6,0.6s-0.2,0.6-0.2,1h0.1c0.3-0.4,0.7-0.7,1.2-0.7c0.5,0,0.9,0.2,1.2,0.5s0.4,0.8,0.4,1.3
		c0,0.6-0.2,1.1-0.5,1.4s-0.8,0.5-1.4,0.5c-0.4,0-0.8-0.1-1.1-0.3s-0.6-0.5-0.7-0.9S104.1,75.6,104.1,75z M106.2,76.6
		c0.3,0,0.5-0.1,0.6-0.3s0.2-0.4,0.2-0.7c0-0.3-0.1-0.5-0.2-0.7s-0.3-0.2-0.6-0.2c-0.2,0-0.5,0.1-0.6,0.2s-0.3,0.3-0.3,0.6
		c0,0.3,0.1,0.6,0.2,0.8S106,76.6,106.2,76.6z"/>
	<path class="st4" d="M114.8,77.5h-4v-0.8l1.4-1.4c0.4-0.4,0.7-0.7,0.8-0.9s0.2-0.3,0.3-0.5s0.1-0.3,0.1-0.4c0-0.2-0.1-0.4-0.2-0.5
		s-0.3-0.2-0.5-0.2c-0.2,0-0.4,0.1-0.6,0.2s-0.4,0.2-0.7,0.4l-0.7-0.8c0.3-0.2,0.5-0.4,0.7-0.5s0.4-0.2,0.6-0.2s0.5-0.1,0.7-0.1
		c0.4,0,0.7,0.1,0.9,0.2s0.5,0.3,0.6,0.5s0.2,0.5,0.2,0.8c0,0.3,0,0.5-0.1,0.7s-0.2,0.5-0.4,0.7s-0.5,0.6-1,1l-0.7,0.7v0.1h2.5V77.5
		z"/>
	<path class="st4" d="M119.2,73c0,0.4-0.1,0.7-0.3,0.9s-0.5,0.4-0.9,0.5v0c0.5,0.1,0.8,0.2,1,0.4s0.4,0.5,0.4,0.9
		c0,0.5-0.2,1-0.6,1.3s-1,0.5-1.7,0.5c-0.6,0-1.2-0.1-1.6-0.3v-1c0.2,0.1,0.5,0.2,0.7,0.3s0.5,0.1,0.8,0.1c0.4,0,0.7-0.1,0.9-0.2
		s0.3-0.4,0.3-0.7c0-0.3-0.1-0.5-0.3-0.6s-0.6-0.2-1-0.2h-0.4v-0.9h0.4c0.4,0,0.8-0.1,1-0.2s0.3-0.3,0.3-0.6c0-0.4-0.3-0.6-0.8-0.6
		c-0.2,0-0.4,0-0.6,0.1s-0.4,0.2-0.6,0.3l-0.6-0.8c0.5-0.4,1.1-0.6,1.9-0.6c0.6,0,1.1,0.1,1.4,0.4S119.2,72.6,119.2,73z"/>
	<path class="st4" d="M119.9,75c0-1.1,0.2-2,0.7-2.5s1.2-0.8,2.1-0.8c0.3,0,0.6,0,0.8,0.1v1c-0.2-0.1-0.5-0.1-0.7-0.1
		c-0.4,0-0.8,0.1-1,0.2s-0.5,0.3-0.6,0.6s-0.2,0.6-0.2,1h0.1c0.3-0.4,0.7-0.7,1.2-0.7c0.5,0,0.9,0.2,1.2,0.5s0.4,0.8,0.4,1.3
		c0,0.6-0.2,1.1-0.5,1.4s-0.8,0.5-1.4,0.5c-0.4,0-0.8-0.1-1.1-0.3s-0.6-0.5-0.7-0.9S119.9,75.6,119.9,75z M122,76.6
		c0.3,0,0.5-0.1,0.6-0.3s0.2-0.4,0.2-0.7c0-0.3-0.1-0.5-0.2-0.7s-0.3-0.2-0.6-0.2c-0.2,0-0.5,0.1-0.6,0.2s-0.3,0.3-0.3,0.6
		c0,0.3,0.1,0.6,0.2,0.8S121.7,76.6,122,76.6z"/>
</g>
<g class="st1">
	<path class="st4" d="M91.4,108.8h-1.2v-3.3l0-0.5l0-0.6c-0.2,0.2-0.3,0.3-0.4,0.4l-0.7,0.5l-0.6-0.7l1.8-1.5h1V108.8z"/>
	<path class="st4" d="M97.1,105.2c0.6,0,1,0.2,1.3,0.5s0.5,0.7,0.5,1.3c0,0.6-0.2,1.1-0.6,1.5s-1,0.5-1.7,0.5
		c-0.6,0-1.1-0.1-1.5-0.3v-1c0.2,0.1,0.4,0.2,0.7,0.3s0.5,0.1,0.8,0.1c0.7,0,1.1-0.3,1.1-0.9c0-0.6-0.4-0.9-1.1-0.9
		c-0.1,0-0.3,0-0.5,0s-0.3,0.1-0.4,0.1l-0.5-0.3l0.2-2.9h3.1v1h-2l-0.1,1.1l0.1,0C96.7,105.2,96.9,105.2,97.1,105.2z"/>
	<path class="st4" d="M101.7,105.2c0.6,0,1,0.2,1.3,0.5s0.5,0.7,0.5,1.3c0,0.6-0.2,1.1-0.6,1.5s-1,0.5-1.7,0.5
		c-0.6,0-1.1-0.1-1.5-0.3v-1c0.2,0.1,0.4,0.2,0.7,0.3s0.5,0.1,0.8,0.1c0.7,0,1.1-0.3,1.1-0.9c0-0.6-0.4-0.9-1.1-0.9
		c-0.1,0-0.3,0-0.5,0s-0.3,0.1-0.4,0.1l-0.5-0.3l0.2-2.9h3.1v1h-2l-0.1,1.1l0.1,0C101.3,105.2,101.5,105.2,101.7,105.2z"/>
	<path class="st4" d="M108.3,107.7h-0.7v1.2h-1.2v-1.2H104v-0.8l2.5-3.7h1.1v3.6h0.7V107.7z M106.4,106.7v-1c0-0.2,0-0.4,0-0.7
		s0-0.5,0-0.5h0c-0.1,0.2-0.2,0.4-0.3,0.6l-1,1.6H106.4z"/>
	<path class="st4" d="M114.8,108.8h-4V108l1.4-1.4c0.4-0.4,0.7-0.7,0.8-0.9s0.2-0.3,0.3-0.5s0.1-0.3,0.1-0.4c0-0.2-0.1-0.4-0.2-0.5
		s-0.3-0.2-0.5-0.2c-0.2,0-0.4,0.1-0.6,0.2s-0.4,0.2-0.7,0.4l-0.7-0.8c0.3-0.2,0.5-0.4,0.7-0.5s0.4-0.2,0.6-0.2s0.5-0.1,0.7-0.1
		c0.4,0,0.7,0.1,0.9,0.2s0.5,0.3,0.6,0.5s0.2,0.5,0.2,0.8c0,0.3,0,0.5-0.1,0.7s-0.2,0.5-0.4,0.7s-0.5,0.6-1,1l-0.7,0.7v0.1h2.5
		V108.8z"/>
	<path class="st4" d="M119.4,105.6c0,1.1-0.2,2-0.7,2.5s-1.2,0.8-2.2,0.8c-0.3,0-0.6,0-0.8-0.1v-1c0.2,0.1,0.4,0.1,0.7,0.1
		c0.4,0,0.7-0.1,1-0.2s0.5-0.3,0.6-0.6s0.2-0.6,0.2-1h0c-0.2,0.2-0.3,0.4-0.5,0.5s-0.4,0.1-0.7,0.1c-0.5,0-0.9-0.2-1.2-0.5
		s-0.4-0.8-0.4-1.3c0-0.6,0.2-1.1,0.5-1.5s0.8-0.5,1.4-0.5c0.4,0,0.8,0.1,1.1,0.3s0.6,0.5,0.7,0.9S119.4,105,119.4,105.6z
		 M117.3,104c-0.2,0-0.4,0.1-0.6,0.3s-0.2,0.4-0.2,0.7c0,0.3,0.1,0.5,0.2,0.7s0.3,0.2,0.6,0.2c0.2,0,0.5-0.1,0.6-0.2
		s0.3-0.3,0.3-0.6c0-0.3-0.1-0.6-0.2-0.8S117.6,104,117.3,104z"/>
	<path class="st4" d="M123.7,104.4c0,0.4-0.1,0.7-0.3,0.9s-0.5,0.4-0.9,0.5v0c0.5,0.1,0.8,0.2,1,0.4s0.4,0.5,0.4,0.9
		c0,0.5-0.2,1-0.6,1.3s-1,0.5-1.7,0.5c-0.6,0-1.2-0.1-1.6-0.3v-1c0.2,0.1,0.5,0.2,0.7,0.3s0.5,0.1,0.8,0.1c0.4,0,0.7-0.1,0.9-0.2
		s0.3-0.4,0.3-0.7c0-0.3-0.1-0.5-0.3-0.6s-0.6-0.2-1-0.2h-0.4v-0.9h0.4c0.4,0,0.8-0.1,1-0.2s0.3-0.3,0.3-0.6c0-0.4-0.3-0.6-0.8-0.6
		c-0.2,0-0.4,0-0.6,0.1s-0.4,0.2-0.6,0.3l-0.6-0.8c0.5-0.4,1.1-0.6,1.9-0.6c0.6,0,1.1,0.1,1.4,0.4S123.7,104,123.7,104.4z"/>
</g>
<g class="st1">
	<path class="st4" d="M95.7,136.9c0,1.1-0.2,2-0.7,2.5s-1.2,0.8-2.2,0.8c-0.3,0-0.6,0-0.8-0.1v-1c0.2,0.1,0.4,0.1,0.7,0.1
		c0.4,0,0.7-0.1,1-0.2s0.5-0.3,0.6-0.6s0.2-0.6,0.2-1h0c-0.2,0.2-0.3,0.4-0.5,0.5s-0.4,0.1-0.7,0.1c-0.5,0-0.9-0.2-1.2-0.5
		s-0.4-0.8-0.4-1.3c0-0.6,0.2-1.1,0.5-1.5s0.8-0.5,1.4-0.5c0.4,0,0.8,0.1,1.1,0.3s0.6,0.5,0.7,0.9S95.7,136.4,95.7,136.9z
		 M93.6,135.4c-0.2,0-0.4,0.1-0.6,0.3s-0.2,0.4-0.2,0.7c0,0.3,0.1,0.5,0.2,0.7s0.3,0.2,0.6,0.2c0.2,0,0.5-0.1,0.6-0.2
		s0.3-0.3,0.3-0.6c0-0.3-0.1-0.6-0.2-0.8S93.9,135.4,93.6,135.4z"/>
	<path class="st4" d="M100.3,140.2h-4v-0.8l1.4-1.4c0.4-0.4,0.7-0.7,0.8-0.9s0.2-0.3,0.3-0.5s0.1-0.3,0.1-0.4c0-0.2-0.1-0.4-0.2-0.5
		s-0.3-0.2-0.5-0.2c-0.2,0-0.4,0.1-0.6,0.2s-0.4,0.2-0.7,0.4l-0.7-0.8c0.3-0.2,0.5-0.4,0.7-0.5s0.4-0.2,0.6-0.2s0.5-0.1,0.7-0.1
		c0.4,0,0.7,0.1,0.9,0.2s0.5,0.3,0.6,0.5s0.2,0.5,0.2,0.8c0,0.3,0,0.5-0.1,0.7s-0.2,0.5-0.4,0.7s-0.5,0.6-1,1l-0.7,0.7v0.1h2.5
		V140.2z"/>
	<path class="st4" d="M105,139h-0.7v1.2h-1.2V139h-2.4v-0.8l2.5-3.7h1.1v3.6h0.7V139z M103.1,138.1v-1c0-0.2,0-0.4,0-0.7
		s0-0.5,0-0.5h0c-0.1,0.2-0.2,0.4-0.3,0.6l-1,1.6H103.1z"/>
	<path class="st4" d="M107.5,137.8c0-1.1,0.2-2,0.7-2.5s1.2-0.8,2.1-0.8c0.3,0,0.6,0,0.8,0.1v1c-0.2-0.1-0.5-0.1-0.7-0.1
		c-0.4,0-0.8,0.1-1,0.2s-0.5,0.3-0.6,0.6s-0.2,0.6-0.2,1h0.1c0.3-0.4,0.7-0.7,1.2-0.7c0.5,0,0.9,0.2,1.2,0.5s0.4,0.8,0.4,1.3
		c0,0.6-0.2,1.1-0.5,1.4s-0.8,0.5-1.4,0.5c-0.4,0-0.8-0.1-1.1-0.3s-0.6-0.5-0.7-0.9S107.5,138.3,107.5,137.8z M109.5,139.3
		c0.3,0,0.5-0.1,0.6-0.3s0.2-0.4,0.2-0.7c0-0.3-0.1-0.5-0.2-0.7s-0.3-0.2-0.6-0.2c-0.2,0-0.5,0.1-0.6,0.2s-0.3,0.3-0.3,0.6
		c0,0.3,0.1,0.6,0.2,0.8S109.3,139.3,109.5,139.3z"/>
	<path class="st4" d="M115.1,140.2h-1.2v-3.3l0-0.5l0-0.6c-0.2,0.2-0.3,0.3-0.4,0.4l-0.7,0.5l-0.6-0.7l1.8-1.5h1V140.2z"/>
	<path class="st4" d="M120.6,140.2h-4v-0.8l1.4-1.4c0.4-0.4,0.7-0.7,0.8-0.9s0.2-0.3,0.3-0.5s0.1-0.3,0.1-0.4c0-0.2-0.1-0.4-0.2-0.5
		s-0.3-0.2-0.5-0.2c-0.2,0-0.4,0.1-0.6,0.2s-0.4,0.2-0.7,0.4l-0.7-0.8c0.3-0.2,0.5-0.4,0.7-0.5s0.4-0.2,0.6-0.2s0.5-0.1,0.7-0.1
		c0.4,0,0.7,0.1,0.9,0.2s0.5,0.3,0.6,0.5s0.2,0.5,0.2,0.8c0,0.3,0,0.5-0.1,0.7s-0.2,0.5-0.4,0.7s-0.5,0.6-1,1l-0.7,0.7v0.1h2.5
		V140.2z"/>
</g>
<g class="st1">
	<path class="st4" d="M93.8,166.8c0.6,0,1,0.2,1.3,0.5s0.5,0.7,0.5,1.3c0,0.6-0.2,1.1-0.6,1.5s-1,0.5-1.7,0.5
		c-0.6,0-1.1-0.1-1.5-0.3v-1c0.2,0.1,0.4,0.2,0.7,0.3s0.5,0.1,0.8,0.1c0.7,0,1.1-0.3,1.1-0.9c0-0.6-0.4-0.9-1.1-0.9
		c-0.1,0-0.3,0-0.5,0s-0.3,0.1-0.4,0.1l-0.5-0.3l0.2-2.9h3.1v1h-2l-0.1,1.1l0.1,0C93.4,166.8,93.6,166.8,93.8,166.8z"/>
	<path class="st4" d="M96.9,170.5l2.1-4.7h-2.8v-1h4.1v0.8l-2.2,4.9H96.9z"/>
	<path class="st4" d="M100.8,168c0-1.1,0.2-2,0.7-2.5s1.2-0.8,2.1-0.8c0.3,0,0.6,0,0.8,0.1v1c-0.2-0.1-0.5-0.1-0.7-0.1
		c-0.4,0-0.8,0.1-1,0.2s-0.5,0.3-0.6,0.6s-0.2,0.6-0.2,1h0.1c0.3-0.4,0.7-0.7,1.2-0.7c0.5,0,0.9,0.2,1.2,0.5s0.4,0.8,0.4,1.3
		c0,0.6-0.2,1.1-0.5,1.4s-0.8,0.5-1.4,0.5c-0.4,0-0.8-0.1-1.1-0.3s-0.6-0.5-0.7-0.9S100.8,168.6,100.8,168z M102.9,169.6
		c0.3,0,0.5-0.1,0.6-0.3s0.2-0.4,0.2-0.7c0-0.3-0.1-0.5-0.2-0.7s-0.3-0.2-0.6-0.2c-0.2,0-0.5,0.1-0.6,0.2s-0.3,0.3-0.3,0.6
		c0,0.3,0.1,0.6,0.2,0.8S102.6,169.6,102.9,169.6z"/>
	<path class="st4" d="M108.1,170.5l2.1-4.7h-2.8v-1h4.1v0.8l-2.2,4.9H108.1z"/>
	<path class="st4" d="M114,164.7c0.5,0,1,0.1,1.3,0.4s0.5,0.6,0.5,1c0,0.3-0.1,0.6-0.2,0.8s-0.4,0.4-0.8,0.6
		c0.4,0.2,0.7,0.5,0.9,0.7s0.3,0.5,0.3,0.8c0,0.5-0.2,0.8-0.6,1.1s-0.9,0.4-1.4,0.4c-0.6,0-1.1-0.1-1.5-0.4s-0.5-0.6-0.5-1.1
		c0-0.3,0.1-0.6,0.3-0.9s0.5-0.5,0.8-0.7c-0.3-0.2-0.6-0.4-0.7-0.7s-0.2-0.5-0.2-0.8c0-0.4,0.2-0.7,0.5-1S113.5,164.7,114,164.7z
		 M113.2,169c0,0.2,0.1,0.4,0.2,0.5s0.4,0.2,0.6,0.2c0.3,0,0.5-0.1,0.7-0.2s0.2-0.3,0.2-0.5c0-0.2-0.1-0.3-0.2-0.5s-0.4-0.3-0.7-0.5
		C113.4,168.2,113.2,168.6,113.2,169z M114,165.6c-0.2,0-0.4,0.1-0.5,0.2s-0.2,0.2-0.2,0.4c0,0.2,0.1,0.3,0.2,0.4s0.3,0.3,0.5,0.4
		c0.3-0.1,0.4-0.2,0.5-0.4s0.2-0.3,0.2-0.4c0-0.2-0.1-0.3-0.2-0.4S114.2,165.6,114,165.6z"/>
	<path class="st4" d="M117.2,170.5l2.1-4.7h-2.8v-1h4.1v0.8l-2.2,4.9H117.2z"/>
</g>
<g class="st1">
	<path class="st4" d="M90.4,196.1c0.5,0,1,0.1,1.3,0.4s0.5,0.6,0.5,1c0,0.3-0.1,0.6-0.2,0.8s-0.4,0.4-0.8,0.6
		c0.4,0.2,0.7,0.5,0.9,0.7s0.3,0.5,0.3,0.8c0,0.5-0.2,0.8-0.6,1.1s-0.9,0.4-1.4,0.4c-0.6,0-1.1-0.1-1.5-0.4s-0.5-0.6-0.5-1.1
		c0-0.3,0.1-0.6,0.3-0.9s0.5-0.5,0.8-0.7c-0.3-0.2-0.6-0.4-0.7-0.7s-0.2-0.5-0.2-0.8c0-0.4,0.2-0.7,0.5-1S89.8,196.1,90.4,196.1z
		 M89.5,200.3c0,0.2,0.1,0.4,0.2,0.5s0.4,0.2,0.6,0.2c0.3,0,0.5-0.1,0.7-0.2s0.2-0.3,0.2-0.5c0-0.2-0.1-0.3-0.2-0.5
		s-0.4-0.3-0.7-0.5C89.8,199.6,89.5,199.9,89.5,200.3z M90.4,196.9c-0.2,0-0.4,0.1-0.5,0.2s-0.2,0.2-0.2,0.4c0,0.2,0.1,0.3,0.2,0.4
		s0.3,0.3,0.5,0.4c0.3-0.1,0.4-0.2,0.5-0.4s0.2-0.3,0.2-0.4c0-0.2-0.1-0.3-0.2-0.4S90.6,196.9,90.4,196.9z"/>
	<path class="st4" d="M97.1,198.2c0.6,0,1,0.2,1.3,0.5s0.5,0.7,0.5,1.3c0,0.6-0.2,1.1-0.6,1.5s-1,0.5-1.7,0.5
		c-0.6,0-1.1-0.1-1.5-0.3v-1c0.2,0.1,0.4,0.2,0.7,0.3s0.5,0.1,0.8,0.1c0.7,0,1.1-0.3,1.1-0.9c0-0.6-0.4-0.9-1.1-0.9
		c-0.1,0-0.3,0-0.5,0s-0.3,0.1-0.4,0.1l-0.5-0.3l0.2-2.9h3.1v1h-2l-0.1,1.1l0.1,0C96.7,198.2,96.9,198.2,97.1,198.2z"/>
	<path class="st4" d="M102.6,201.8h-1.2v-3.3l0-0.5l0-0.6c-0.2,0.2-0.3,0.3-0.4,0.4l-0.7,0.5l-0.6-0.7l1.8-1.5h1V201.8z"/>
	<path class="st4" d="M108.1,199c0,1-0.2,1.7-0.5,2.2s-0.8,0.7-1.5,0.7c-0.7,0-1.2-0.2-1.5-0.7s-0.5-1.2-0.5-2.2
		c0-1,0.2-1.8,0.5-2.2s0.8-0.7,1.5-0.7c0.7,0,1.2,0.2,1.5,0.8S108.1,198,108.1,199z M105.4,199c0,0.7,0.1,1.2,0.2,1.5
		s0.3,0.5,0.6,0.5c0.3,0,0.5-0.2,0.6-0.5s0.2-0.8,0.2-1.5c0-0.7-0.1-1.2-0.2-1.5s-0.3-0.5-0.6-0.5c-0.3,0-0.5,0.2-0.6,0.5
		S105.4,198.3,105.4,199z"/>
	<path class="st4" d="M114.6,197.4c0,0.4-0.1,0.7-0.3,0.9s-0.5,0.4-0.9,0.5v0c0.5,0.1,0.8,0.2,1,0.4s0.4,0.5,0.4,0.9
		c0,0.5-0.2,1-0.6,1.3s-1,0.5-1.7,0.5c-0.6,0-1.2-0.1-1.6-0.3v-1c0.2,0.1,0.5,0.2,0.7,0.3s0.5,0.1,0.8,0.1c0.4,0,0.7-0.1,0.9-0.2
		s0.3-0.4,0.3-0.7c0-0.3-0.1-0.5-0.3-0.6s-0.6-0.2-1-0.2h-0.4v-0.9h0.4c0.4,0,0.8-0.1,1-0.2s0.3-0.3,0.3-0.6c0-0.4-0.3-0.6-0.8-0.6
		c-0.2,0-0.4,0-0.6,0.1s-0.4,0.2-0.6,0.3l-0.6-0.8c0.5-0.4,1.1-0.6,1.9-0.6c0.6,0,1.1,0.1,1.4,0.4S114.6,197,114.6,197.4z"/>
	<path class="st4" d="M119.5,200.7h-0.7v1.2h-1.2v-1.2h-2.4v-0.8l2.5-3.7h1.1v3.6h0.7V200.7z M117.7,199.7v-1c0-0.2,0-0.4,0-0.7
		s0-0.5,0-0.5h0c-0.1,0.2-0.2,0.4-0.3,0.6l-1,1.6H117.7z"/>
	<path class="st4" d="M119.9,199.4c0-1.1,0.2-2,0.7-2.5s1.2-0.8,2.1-0.8c0.3,0,0.6,0,0.8,0.1v1c-0.2-0.1-0.5-0.1-0.7-0.1
		c-0.4,0-0.8,0.1-1,0.2s-0.5,0.3-0.6,0.6s-0.2,0.6-0.2,1h0.1c0.3-0.4,0.7-0.7,1.2-0.7c0.5,0,0.9,0.2,1.2,0.5s0.4,0.8,0.4,1.3
		c0,0.6-0.2,1.1-0.5,1.4s-0.8,0.5-1.4,0.5c-0.4,0-0.8-0.1-1.1-0.3s-0.6-0.5-0.7-0.9S119.9,199.9,119.9,199.4z M122,201
		c0.3,0,0.5-0.1,0.6-0.3s0.2-0.4,0.2-0.7c0-0.3-0.1-0.5-0.2-0.7s-0.3-0.2-0.6-0.2c-0.2,0-0.5,0.1-0.6,0.2s-0.3,0.3-0.3,0.6
		c0,0.3,0.1,0.6,0.2,0.8S121.7,201,122,201z"/>
</g>
<g class="st1">
	<path class="st2" d="M8.4,7.8h1.8c0.8,0,1.4,0.1,1.8,0.3s0.5,0.6,0.5,1.1c0,0.3-0.1,0.6-0.2,0.8s-0.4,0.4-0.6,0.4v0
		c0.4,0.1,0.6,0.2,0.8,0.5s0.2,0.5,0.2,0.9c0,0.5-0.2,0.9-0.6,1.2s-0.9,0.4-1.5,0.4H8.4V7.8z M9.6,10.1h0.7c0.3,0,0.6-0.1,0.7-0.2
		s0.2-0.3,0.2-0.5c0-0.2-0.1-0.4-0.2-0.5s-0.4-0.1-0.8-0.1H9.6V10.1z M9.6,11v1.5h0.8c0.3,0,0.6-0.1,0.7-0.2s0.2-0.3,0.2-0.6
		c0-0.5-0.3-0.7-1-0.7H9.6z"/>
	<path class="st2" d="M16.1,9.1c0.2,0,0.3,0,0.4,0l-0.1,1.1c-0.1,0-0.2,0-0.4,0c-0.4,0-0.7,0.1-0.9,0.3s-0.3,0.5-0.3,0.8v2.2h-1.2
		V9.1h0.9l0.2,0.7h0.1c0.1-0.2,0.3-0.4,0.5-0.6S15.8,9.1,16.1,9.1z"/>
	<path class="st2" d="M20,13.5l-0.2-0.6h0c-0.2,0.3-0.4,0.4-0.6,0.5s-0.5,0.1-0.8,0.1c-0.4,0-0.7-0.1-1-0.4s-0.4-0.6-0.4-1
		c0-0.5,0.2-0.8,0.5-1s0.8-0.3,1.5-0.4l0.8,0v-0.2c0-0.4-0.2-0.7-0.7-0.7c-0.3,0-0.8,0.1-1.2,0.3l-0.4-0.8c0.5-0.3,1.1-0.4,1.7-0.4
		c0.6,0,1,0.1,1.3,0.4s0.5,0.6,0.5,1.2v2.9H20z M19.7,11.5l-0.5,0c-0.3,0-0.6,0.1-0.8,0.2s-0.3,0.3-0.3,0.5c0,0.3,0.2,0.5,0.6,0.5
		c0.3,0,0.5-0.1,0.7-0.2s0.2-0.4,0.2-0.6V11.5z"/>
	<path class="st2" d="M25.2,12.2c0,0.4-0.2,0.8-0.5,1s-0.8,0.4-1.4,0.4c-0.3,0-0.6,0-0.8-0.1s-0.4-0.1-0.6-0.2v-1
		c0.2,0.1,0.5,0.2,0.7,0.3s0.5,0.1,0.7,0.1c0.4,0,0.6-0.1,0.6-0.4c0-0.1,0-0.2-0.1-0.2s-0.2-0.1-0.3-0.2s-0.3-0.2-0.6-0.3
		c-0.3-0.1-0.6-0.3-0.7-0.4S22,11,21.9,10.9s-0.1-0.3-0.1-0.6c0-0.4,0.2-0.7,0.5-0.9s0.7-0.3,1.3-0.3c0.5,0,1,0.1,1.5,0.3l-0.4,0.9
		c-0.2-0.1-0.4-0.2-0.6-0.2s-0.4-0.1-0.6-0.1c-0.4,0-0.5,0.1-0.5,0.3c0,0.1,0.1,0.2,0.2,0.3s0.4,0.2,0.7,0.3
		c0.3,0.1,0.6,0.3,0.8,0.4s0.3,0.3,0.4,0.4S25.2,12,25.2,12.2z"/>
	<path class="st2" d="M26,8c0-0.4,0.2-0.6,0.6-0.6s0.6,0.2,0.6,0.6c0,0.2-0.1,0.3-0.2,0.4s-0.3,0.2-0.5,0.2C26.2,8.6,26,8.4,26,8z
		 M27.3,13.5h-1.2V9.1h1.2V13.5z"/>
	<path class="st2" d="M29.7,13.5h-1.2V7.4h1.2V13.5z"/>
	<path class="st2" d="M35,13.6c-0.7,0-1.3-0.2-1.6-0.6s-0.6-0.9-0.6-1.6c0-0.7,0.2-1.3,0.5-1.7s0.9-0.6,1.5-0.6
		c0.6,0,1.1,0.2,1.4,0.5s0.5,0.8,0.5,1.5v0.6H34c0,0.3,0.1,0.6,0.3,0.8s0.5,0.3,0.8,0.3c0.3,0,0.5,0,0.7-0.1s0.5-0.1,0.7-0.3v0.9
		c-0.2,0.1-0.4,0.2-0.7,0.2S35.4,13.6,35,13.6z M34.9,9.9c-0.3,0-0.5,0.1-0.6,0.2S34,10.5,34,10.8h1.7c0-0.3-0.1-0.5-0.2-0.7
		S35.1,9.9,34.9,9.9z"/>
	<path class="st2" d="M41.2,11.3v2.2h-1.2V7.8h1.7c0.8,0,1.4,0.1,1.7,0.4s0.6,0.7,0.6,1.3c0,0.3-0.1,0.6-0.3,0.9s-0.4,0.5-0.8,0.6
		c0.9,1.3,1.4,2.1,1.7,2.5h-1.3l-1.4-2.2H41.2z M41.2,10.3h0.4c0.4,0,0.7-0.1,0.8-0.2s0.3-0.3,0.3-0.6c0-0.3-0.1-0.5-0.3-0.6
		s-0.5-0.2-0.9-0.2h-0.4V10.3z"/>
	<path class="st2" d="M47.1,13.6c-0.7,0-1.3-0.2-1.6-0.6s-0.6-0.9-0.6-1.6c0-0.7,0.2-1.3,0.5-1.7s0.9-0.6,1.5-0.6
		c0.6,0,1.1,0.2,1.4,0.5s0.5,0.8,0.5,1.5v0.6h-2.8c0,0.3,0.1,0.6,0.3,0.8s0.5,0.3,0.8,0.3c0.3,0,0.5,0,0.7-0.1s0.5-0.1,0.7-0.3v0.9
		c-0.2,0.1-0.4,0.2-0.7,0.2S47.4,13.6,47.1,13.6z M46.9,9.9c-0.3,0-0.5,0.1-0.6,0.2s-0.2,0.4-0.2,0.7h1.7c0-0.3-0.1-0.5-0.2-0.7
		S47.2,9.9,46.9,9.9z"/>
	<path class="st2" d="M53.7,9.1v0.6L53,9.9c0.1,0.2,0.2,0.4,0.2,0.7c0,0.5-0.2,0.8-0.5,1.1s-0.8,0.4-1.4,0.4l-0.2,0l-0.2,0
		c-0.1,0.1-0.2,0.2-0.2,0.3c0,0.2,0.2,0.3,0.7,0.3h0.7c0.5,0,0.8,0.1,1.1,0.3s0.4,0.5,0.4,0.9c0,0.5-0.2,0.9-0.6,1.2s-1,0.4-1.8,0.4
		c-0.6,0-1.1-0.1-1.4-0.3s-0.5-0.5-0.5-0.9c0-0.3,0.1-0.5,0.2-0.7s0.4-0.3,0.7-0.4c-0.1-0.1-0.2-0.1-0.3-0.3s-0.1-0.2-0.1-0.4
		c0-0.2,0-0.3,0.1-0.4s0.2-0.2,0.4-0.3c-0.2-0.1-0.4-0.3-0.5-0.5s-0.2-0.5-0.2-0.8c0-0.5,0.2-0.8,0.5-1.1s0.8-0.4,1.3-0.4
		c0.1,0,0.3,0,0.4,0s0.3,0,0.3,0H53.7z M50.3,14.1c0,0.2,0.1,0.3,0.2,0.4s0.4,0.1,0.7,0.1c0.4,0,0.8-0.1,1-0.2s0.4-0.3,0.4-0.5
		c0-0.2-0.1-0.3-0.2-0.3s-0.4-0.1-0.7-0.1h-0.6c-0.2,0-0.4,0.1-0.5,0.2S50.3,14,50.3,14.1z M50.7,10.6c0,0.2,0.1,0.4,0.2,0.6
		s0.3,0.2,0.5,0.2c0.2,0,0.4-0.1,0.5-0.2s0.2-0.3,0.2-0.6c0-0.5-0.2-0.8-0.6-0.8C50.9,9.8,50.7,10,50.7,10.6z"/>
	<path class="st2" d="M54.3,8c0-0.4,0.2-0.6,0.6-0.6s0.6,0.2,0.6,0.6c0,0.2-0.1,0.3-0.2,0.4S55.2,8.6,55,8.6
		C54.5,8.6,54.3,8.4,54.3,8z M55.6,13.5h-1.2V9.1h1.2V13.5z"/>
	<path class="st2" d="M60.8,11.3c0,0.7-0.2,1.3-0.6,1.7s-0.9,0.6-1.6,0.6c-0.4,0-0.8-0.1-1.1-0.3s-0.6-0.4-0.7-0.8s-0.3-0.7-0.3-1.2
		c0-0.7,0.2-1.3,0.6-1.7s0.9-0.6,1.6-0.6c0.4,0,0.8,0.1,1.1,0.3s0.6,0.4,0.7,0.8S60.8,10.9,60.8,11.3z M58,8.3c-0.1,0-0.2,0-0.2,0.1
		s-0.1,0.2-0.2,0.3H57c0-0.4,0.1-0.7,0.3-0.9s0.4-0.3,0.7-0.3c0.1,0,0.2,0,0.3,0.1s0.2,0.1,0.3,0.1s0.2,0.1,0.3,0.1s0.2,0.1,0.3,0.1
		c0.1,0,0.2,0,0.2-0.1s0.1-0.2,0.2-0.3h0.6c0,0.4-0.1,0.7-0.3,0.9s-0.4,0.3-0.7,0.3c-0.1,0-0.2,0-0.3-0.1s-0.2-0.1-0.3-0.1
		s-0.2-0.1-0.3-0.1S58.1,8.3,58,8.3z M57.8,11.3c0,0.4,0.1,0.8,0.2,1s0.4,0.3,0.7,0.3c0.3,0,0.5-0.1,0.7-0.3s0.2-0.5,0.2-1
		c0-0.4-0.1-0.8-0.2-1S59,10,58.7,10c-0.3,0-0.5,0.1-0.7,0.3S57.8,10.9,57.8,11.3z"/>
	<path class="st2" d="M63.7,13.6c-0.7,0-1.3-0.2-1.6-0.6s-0.6-0.9-0.6-1.6c0-0.7,0.2-1.3,0.5-1.7s0.9-0.6,1.5-0.6
		c0.6,0,1.1,0.2,1.4,0.5s0.5,0.8,0.5,1.5v0.6h-2.8c0,0.3,0.1,0.6,0.3,0.8s0.5,0.3,0.8,0.3c0.3,0,0.5,0,0.7-0.1s0.5-0.1,0.7-0.3v0.9
		c-0.2,0.1-0.4,0.2-0.7,0.2S64.1,13.6,63.7,13.6z M63.6,9.9c-0.3,0-0.5,0.1-0.6,0.2s-0.2,0.4-0.2,0.7h1.7c0-0.3-0.1-0.5-0.2-0.7
		S63.8,9.9,63.6,9.9z"/>
	<path class="st2" d="M69.5,12.2c0,0.4-0.2,0.8-0.5,1s-0.8,0.4-1.4,0.4c-0.3,0-0.6,0-0.8-0.1s-0.4-0.1-0.6-0.2v-1
		c0.2,0.1,0.5,0.2,0.7,0.3s0.5,0.1,0.7,0.1c0.4,0,0.6-0.1,0.6-0.4c0-0.1,0-0.2-0.1-0.2S68.1,12,68,11.9s-0.3-0.2-0.6-0.3
		c-0.3-0.1-0.6-0.3-0.7-0.4s-0.3-0.3-0.3-0.4s-0.1-0.3-0.1-0.6c0-0.4,0.2-0.7,0.5-0.9s0.7-0.3,1.3-0.3c0.5,0,1,0.1,1.5,0.3l-0.4,0.9
		c-0.2-0.1-0.4-0.2-0.6-0.2s-0.4-0.1-0.6-0.1c-0.4,0-0.5,0.1-0.5,0.3c0,0.1,0.1,0.2,0.2,0.3s0.4,0.2,0.7,0.3
		c0.3,0.1,0.6,0.3,0.8,0.4s0.3,0.3,0.4,0.4S69.5,12,69.5,12.2z"/>
</g>
<rect x="0.2" y="188" class="st0" width="77.2" height="19.5"/>
<rect y="24.5" class="st3" width="77.5" height="161.8"/>
<g class="st1">
	<path class="st4" d="M32.9,46.1h-1.5l-2.5-4.3h0c0,0.8,0.1,1.3,0.1,1.6v2.7h-1.1v-5.7h1.5l2.5,4.3h0c0-0.7-0.1-1.3-0.1-1.6v-2.7
		h1.1V46.1z"/>
	<path class="st4" d="M38.2,43.9c0,0.7-0.2,1.3-0.6,1.7s-0.9,0.6-1.6,0.6c-0.4,0-0.8-0.1-1.1-0.3s-0.6-0.4-0.7-0.8S34,44.4,34,43.9
		c0-0.7,0.2-1.3,0.6-1.7s0.9-0.6,1.6-0.6c0.4,0,0.8,0.1,1.1,0.3s0.6,0.4,0.7,0.8S38.2,43.4,38.2,43.9z M35.2,43.9
		c0,0.4,0.1,0.8,0.2,1s0.4,0.3,0.7,0.3c0.3,0,0.5-0.1,0.7-0.3s0.2-0.5,0.2-1c0-0.4-0.1-0.8-0.2-1s-0.4-0.3-0.7-0.3
		c-0.3,0-0.5,0.1-0.7,0.3S35.2,43.5,35.2,43.9z"/>
	<path class="st4" d="M41.6,41.6c0.2,0,0.3,0,0.4,0l-0.1,1.1c-0.1,0-0.2,0-0.4,0c-0.4,0-0.7,0.1-0.9,0.3s-0.3,0.5-0.3,0.8v2.2h-1.2
		v-4.4h0.9l0.2,0.7h0.1c0.1-0.2,0.3-0.4,0.5-0.6S41.3,41.6,41.6,41.6z"/>
	<path class="st4" d="M44.7,45.2c0.2,0,0.5,0,0.8-0.1V46c-0.3,0.1-0.7,0.2-1.1,0.2c-0.5,0-0.8-0.1-1-0.4s-0.3-0.6-0.3-1.1v-2.1h-0.6
		v-0.5l0.7-0.4l0.3-0.9h0.8v0.9h1.2v0.9h-1.2v2.1c0,0.2,0,0.3,0.1,0.4S44.5,45.2,44.7,45.2z"/>
	<path class="st4" d="M48.3,46.2c-0.7,0-1.3-0.2-1.6-0.6S46,44.6,46,43.9c0-0.7,0.2-1.3,0.5-1.7s0.9-0.6,1.5-0.6
		c0.6,0,1.1,0.2,1.4,0.5S50,43,50,43.6v0.6h-2.8c0,0.3,0.1,0.6,0.3,0.8s0.5,0.3,0.8,0.3c0.3,0,0.5,0,0.7-0.1s0.5-0.1,0.7-0.3v0.9
		c-0.2,0.1-0.4,0.2-0.7,0.2S48.6,46.2,48.3,46.2z M48.1,42.5c-0.3,0-0.5,0.1-0.6,0.2s-0.2,0.4-0.2,0.7h1.7c0-0.3-0.1-0.5-0.2-0.7
		S48.3,42.5,48.1,42.5z"/>
</g>
<g class="st1">
	<path class="st4" d="M15.4,72.7c-0.5,0-0.8,0.2-1.1,0.5S14,74,14,74.6c0,1.3,0.5,1.9,1.4,1.9c0.4,0,0.9-0.1,1.5-0.3v1
		c-0.5,0.2-1,0.3-1.6,0.3c-0.8,0-1.5-0.3-1.9-0.8c-0.4-0.5-0.7-1.2-0.7-2.2c0-0.6,0.1-1.1,0.3-1.6c0.2-0.4,0.5-0.8,0.9-1
		c0.4-0.2,0.9-0.4,1.4-0.4c0.6,0,1.1,0.1,1.7,0.4l-0.4,1c-0.2-0.1-0.4-0.2-0.6-0.3C15.8,72.7,15.6,72.7,15.4,72.7z"/>
	<path class="st4" d="M20,77.5c-0.7,0-1.3-0.2-1.6-0.6c-0.4-0.4-0.6-0.9-0.6-1.6c0-0.7,0.2-1.3,0.5-1.7c0.4-0.4,0.9-0.6,1.5-0.6
		c0.6,0,1.1,0.2,1.4,0.5s0.5,0.8,0.5,1.5v0.6h-2.8c0,0.3,0.1,0.6,0.3,0.8s0.5,0.3,0.8,0.3c0.3,0,0.5,0,0.7-0.1s0.5-0.1,0.7-0.3v0.9
		c-0.2,0.1-0.4,0.2-0.7,0.2C20.6,77.5,20.3,77.5,20,77.5z M19.8,73.9c-0.3,0-0.5,0.1-0.6,0.2c-0.1,0.2-0.2,0.4-0.2,0.7h1.7
		c0-0.3-0.1-0.5-0.2-0.7S20,73.9,19.8,73.9z"/>
	<path class="st4" d="M26.7,77.5h-1.2v-2.6c0-0.3-0.1-0.6-0.2-0.7C25.3,74,25.1,74,24.8,74c-0.3,0-0.6,0.1-0.7,0.3s-0.2,0.6-0.2,1.1
		v2.1h-1.2v-4.4h0.9l0.2,0.6h0.1c0.1-0.2,0.3-0.4,0.5-0.5c0.2-0.1,0.5-0.2,0.8-0.2c0.5,0,0.9,0.1,1.2,0.4c0.3,0.3,0.4,0.7,0.4,1.2
		V77.5z"/>
	<path class="st4" d="M29.8,76.6c0.2,0,0.5,0,0.8-0.1v0.9c-0.3,0.1-0.7,0.2-1.1,0.2c-0.5,0-0.8-0.1-1-0.4c-0.2-0.2-0.3-0.6-0.3-1.1
		V74h-0.6v-0.5l0.7-0.4l0.3-0.9h0.8v0.9h1.2V74h-1.2v2.1c0,0.2,0,0.3,0.1,0.4C29.5,76.5,29.7,76.6,29.8,76.6z"/>
	<path class="st4" d="M33.9,73c0.2,0,0.3,0,0.4,0l-0.1,1.1c-0.1,0-0.2,0-0.4,0c-0.4,0-0.7,0.1-0.9,0.3c-0.2,0.2-0.3,0.5-0.3,0.8v2.2
		h-1.2v-4.4h0.9l0.2,0.7h0.1c0.1-0.2,0.3-0.4,0.5-0.6S33.6,73,33.9,73z"/>
	<path class="st4" d="M39,75.3c0,0.7-0.2,1.3-0.6,1.7s-0.9,0.6-1.6,0.6c-0.4,0-0.8-0.1-1.1-0.3s-0.6-0.4-0.7-0.8s-0.3-0.7-0.3-1.2
		c0-0.7,0.2-1.3,0.6-1.7c0.4-0.4,0.9-0.6,1.6-0.6c0.4,0,0.8,0.1,1.1,0.3s0.6,0.4,0.7,0.8S39,74.8,39,75.3z M36,75.3
		c0,0.4,0.1,0.8,0.2,1c0.1,0.2,0.4,0.3,0.7,0.3c0.3,0,0.5-0.1,0.7-0.3c0.1-0.2,0.2-0.5,0.2-1c0-0.4-0.1-0.8-0.2-1S37.2,74,36.9,74
		c-0.3,0-0.5,0.1-0.7,0.3S36,74.8,36,75.3z"/>
	<path class="st4" d="M39.6,75.8v-1h2.1v1H39.6z"/>
	<path class="st4" d="M47.9,74.6c0,0.9-0.2,1.7-0.7,2.2s-1.1,0.8-2,0.8s-1.5-0.3-2-0.8s-0.7-1.2-0.7-2.2s0.2-1.7,0.7-2.2
		c0.5-0.5,1.1-0.8,2-0.8c0.9,0,1.5,0.3,2,0.8S47.9,73.6,47.9,74.6z M43.7,74.6c0,0.6,0.1,1.1,0.4,1.4s0.6,0.5,1.1,0.5
		c1,0,1.4-0.6,1.4-1.9c0-1.3-0.5-1.9-1.4-1.9c-0.5,0-0.8,0.2-1.1,0.5C43.8,73.5,43.7,74,43.7,74.6z"/>
	<path class="st4" d="M50.9,77.5c-0.7,0-1.3-0.2-1.6-0.6c-0.4-0.4-0.6-0.9-0.6-1.6c0-0.7,0.2-1.3,0.5-1.7c0.4-0.4,0.9-0.6,1.5-0.6
		c0.6,0,1.1,0.2,1.4,0.5s0.5,0.8,0.5,1.5v0.6h-2.8c0,0.3,0.1,0.6,0.3,0.8s0.5,0.3,0.8,0.3c0.3,0,0.5,0,0.7-0.1s0.5-0.1,0.7-0.3v0.9
		c-0.2,0.1-0.4,0.2-0.7,0.2C51.6,77.5,51.3,77.5,50.9,77.5z M50.8,73.9c-0.3,0-0.5,0.1-0.6,0.2c-0.1,0.2-0.2,0.4-0.2,0.7h1.7
		c0-0.3-0.1-0.5-0.2-0.7S51,73.9,50.8,73.9z"/>
	<path class="st4" d="M56.7,76.2c0,0.4-0.2,0.8-0.5,1c-0.3,0.2-0.8,0.4-1.4,0.4c-0.3,0-0.6,0-0.8-0.1c-0.2,0-0.4-0.1-0.6-0.2v-1
		c0.2,0.1,0.5,0.2,0.7,0.3s0.5,0.1,0.7,0.1c0.4,0,0.6-0.1,0.6-0.4c0-0.1,0-0.2-0.1-0.2c-0.1-0.1-0.2-0.1-0.3-0.2s-0.3-0.2-0.6-0.3
		c-0.3-0.1-0.6-0.3-0.7-0.4c-0.2-0.1-0.3-0.3-0.3-0.4c-0.1-0.2-0.1-0.3-0.1-0.6c0-0.4,0.2-0.7,0.5-0.9s0.7-0.3,1.3-0.3
		c0.5,0,1,0.1,1.5,0.3l-0.4,0.9c-0.2-0.1-0.4-0.2-0.6-0.2c-0.2-0.1-0.4-0.1-0.6-0.1c-0.4,0-0.5,0.1-0.5,0.3c0,0.1,0.1,0.2,0.2,0.3
		s0.4,0.2,0.7,0.3c0.3,0.1,0.6,0.3,0.8,0.4c0.2,0.1,0.3,0.3,0.4,0.4C56.7,75.8,56.7,75.9,56.7,76.2z"/>
	<path class="st4" d="M59.5,76.6c0.2,0,0.5,0,0.8-0.1v0.9c-0.3,0.1-0.7,0.2-1.1,0.2c-0.5,0-0.8-0.1-1-0.4c-0.2-0.2-0.3-0.6-0.3-1.1
		V74h-0.6v-0.5l0.7-0.4l0.3-0.9H59v0.9h1.2V74H59v2.1c0,0.2,0,0.3,0.1,0.4C59.2,76.5,59.4,76.6,59.5,76.6z"/>
	<path class="st4" d="M63.1,77.5c-0.7,0-1.3-0.2-1.6-0.6c-0.4-0.4-0.6-0.9-0.6-1.6c0-0.7,0.2-1.3,0.5-1.7c0.4-0.4,0.9-0.6,1.5-0.6
		c0.6,0,1.1,0.2,1.4,0.5s0.5,0.8,0.5,1.5v0.6h-2.8c0,0.3,0.1,0.6,0.3,0.8s0.5,0.3,0.8,0.3c0.3,0,0.5,0,0.7-0.1s0.5-0.1,0.7-0.3v0.9
		c-0.2,0.1-0.4,0.2-0.7,0.2C63.8,77.5,63.5,77.5,63.1,77.5z M63,73.9c-0.3,0-0.5,0.1-0.6,0.2c-0.1,0.2-0.2,0.4-0.2,0.7h1.7
		c0-0.3-0.1-0.5-0.2-0.7S63.2,73.9,63,73.9z"/>
</g>
<g class="st1">
	<path class="st4" d="M26,108.8h-1.5l-2.5-4.3h0c0,0.8,0.1,1.3,0.1,1.6v2.7h-1.1v-5.7h1.5l2.5,4.3h0c0-0.7-0.1-1.3-0.1-1.6v-2.7H26
		V108.8z"/>
	<path class="st4" d="M31.3,106.6c0,0.7-0.2,1.3-0.6,1.7s-0.9,0.6-1.6,0.6c-0.4,0-0.8-0.1-1.1-0.3s-0.6-0.4-0.7-0.8
		s-0.3-0.7-0.3-1.2c0-0.7,0.2-1.3,0.6-1.7c0.4-0.4,0.9-0.6,1.6-0.6c0.4,0,0.8,0.1,1.1,0.3s0.6,0.4,0.7,0.8S31.3,106.2,31.3,106.6z
		 M28.3,106.6c0,0.4,0.1,0.8,0.2,1c0.1,0.2,0.4,0.3,0.7,0.3c0.3,0,0.5-0.1,0.7-0.3c0.1-0.2,0.2-0.5,0.2-1c0-0.4-0.1-0.8-0.2-1
		s-0.4-0.3-0.7-0.3c-0.3,0-0.5,0.1-0.7,0.3S28.3,106.2,28.3,106.6z"/>
	<path class="st4" d="M34.7,104.4c0.2,0,0.3,0,0.4,0l-0.1,1.1c-0.1,0-0.2,0-0.4,0c-0.4,0-0.7,0.1-0.9,0.3c-0.2,0.2-0.3,0.5-0.3,0.8
		v2.2h-1.2v-4.4h0.9l0.2,0.7h0.1c0.1-0.2,0.3-0.4,0.5-0.6S34.5,104.4,34.7,104.4z"/>
	<path class="st4" d="M37.3,108.9c-0.5,0-0.9-0.2-1.2-0.6s-0.4-1-0.4-1.7c0-0.7,0.1-1.3,0.4-1.7c0.3-0.4,0.7-0.6,1.2-0.6
		c0.5,0,1,0.2,1.3,0.6h0c-0.1-0.3-0.1-0.6-0.1-0.9v-1.4h1.2v6.1h-0.9l-0.2-0.6h-0.1C38.3,108.7,37.9,108.9,37.3,108.9z M37.7,108
		c0.3,0,0.5-0.1,0.7-0.3c0.1-0.2,0.2-0.5,0.2-0.9v-0.1c0-0.5-0.1-0.8-0.2-1s-0.4-0.3-0.7-0.3c-0.3,0-0.5,0.1-0.6,0.3
		c-0.1,0.2-0.2,0.6-0.2,1s0.1,0.8,0.2,1S37.5,108,37.7,108z"/>
	<path class="st4" d="M43,108.9c-0.7,0-1.3-0.2-1.6-0.6c-0.4-0.4-0.6-0.9-0.6-1.6c0-0.7,0.2-1.3,0.5-1.7c0.4-0.4,0.9-0.6,1.5-0.6
		c0.6,0,1.1,0.2,1.4,0.5s0.5,0.8,0.5,1.5v0.6h-2.8c0,0.3,0.1,0.6,0.3,0.8s0.5,0.3,0.8,0.3c0.3,0,0.5,0,0.7-0.1s0.5-0.1,0.7-0.3v0.9
		c-0.2,0.1-0.4,0.2-0.7,0.2C43.6,108.9,43.3,108.9,43,108.9z M42.8,105.2c-0.3,0-0.5,0.1-0.6,0.2c-0.1,0.2-0.2,0.4-0.2,0.7h1.7
		c0-0.3-0.1-0.5-0.2-0.7S43.1,105.2,42.8,105.2z"/>
	<path class="st4" d="M48.8,107.5c0,0.4-0.2,0.8-0.5,1c-0.3,0.2-0.8,0.4-1.4,0.4c-0.3,0-0.6,0-0.8-0.1c-0.2,0-0.4-0.1-0.6-0.2v-1
		c0.2,0.1,0.5,0.2,0.7,0.3s0.5,0.1,0.7,0.1c0.4,0,0.6-0.1,0.6-0.4c0-0.1,0-0.2-0.1-0.2c-0.1-0.1-0.2-0.1-0.3-0.2s-0.3-0.2-0.6-0.3
		c-0.3-0.1-0.6-0.3-0.7-0.4c-0.2-0.1-0.3-0.3-0.3-0.4c-0.1-0.2-0.1-0.3-0.1-0.6c0-0.4,0.2-0.7,0.5-0.9s0.7-0.3,1.3-0.3
		c0.5,0,1,0.1,1.5,0.3l-0.4,0.9c-0.2-0.1-0.4-0.2-0.6-0.2c-0.2-0.1-0.4-0.1-0.6-0.1c-0.4,0-0.5,0.1-0.5,0.3c0,0.1,0.1,0.2,0.2,0.3
		s0.4,0.2,0.7,0.3c0.3,0.1,0.6,0.3,0.8,0.4c0.2,0.1,0.3,0.3,0.4,0.4C48.7,107.1,48.8,107.3,48.8,107.5z"/>
	<path class="st4" d="M51.5,108c0.2,0,0.5,0,0.8-0.1v0.9c-0.3,0.1-0.7,0.2-1.1,0.2c-0.5,0-0.8-0.1-1-0.4c-0.2-0.2-0.3-0.6-0.3-1.1
		v-2.1h-0.6v-0.5l0.7-0.4l0.3-0.9H51v0.9h1.2v0.9H51v2.1c0,0.2,0,0.3,0.1,0.4C51.3,107.9,51.4,108,51.5,108z"/>
	<path class="st4" d="M55.1,108.9c-0.7,0-1.3-0.2-1.6-0.6c-0.4-0.4-0.6-0.9-0.6-1.6c0-0.7,0.2-1.3,0.5-1.7c0.4-0.4,0.9-0.6,1.5-0.6
		c0.6,0,1.1,0.2,1.4,0.5s0.5,0.8,0.5,1.5v0.6h-2.8c0,0.3,0.1,0.6,0.3,0.8s0.5,0.3,0.8,0.3c0.3,0,0.5,0,0.7-0.1s0.5-0.1,0.7-0.3v0.9
		c-0.2,0.1-0.4,0.2-0.7,0.2C55.8,108.9,55.5,108.9,55.1,108.9z M55,105.2c-0.3,0-0.5,0.1-0.6,0.2c-0.1,0.2-0.2,0.4-0.2,0.7h1.7
		c0-0.3-0.1-0.5-0.2-0.7S55.2,105.2,55,105.2z"/>
</g>
<g class="st1">
	<path class="st4" d="M27,138.6c0,0.5-0.2,0.9-0.6,1.2s-0.9,0.4-1.5,0.4c-0.6,0-1.1-0.1-1.6-0.3v-1.1c0.4,0.2,0.7,0.3,1,0.4
		s0.5,0.1,0.7,0.1c0.3,0,0.5-0.1,0.6-0.2s0.2-0.3,0.2-0.5c0-0.1,0-0.2-0.1-0.3s-0.2-0.2-0.3-0.3s-0.4-0.2-0.7-0.4
		c-0.3-0.2-0.6-0.3-0.8-0.5s-0.3-0.3-0.4-0.5s-0.2-0.4-0.2-0.7c0-0.5,0.2-0.9,0.5-1.2s0.8-0.4,1.4-0.4c0.3,0,0.6,0,0.8,0.1
		s0.6,0.2,0.8,0.3l-0.4,0.9c-0.3-0.1-0.6-0.2-0.8-0.3s-0.4-0.1-0.6-0.1c-0.2,0-0.4,0.1-0.5,0.2s-0.2,0.2-0.2,0.4
		c0,0.1,0,0.2,0.1,0.3s0.1,0.2,0.2,0.2s0.4,0.2,0.8,0.4c0.5,0.3,0.9,0.5,1.1,0.8S27,138.3,27,138.6z"/>
	<path class="st4" d="M31.1,140.2l-0.2-0.6h-0.1c-0.1,0.2-0.3,0.4-0.5,0.5s-0.5,0.2-0.8,0.2c-0.5,0-0.9-0.1-1.2-0.4
		s-0.4-0.7-0.4-1.2v-2.8h1.2v2.6c0,0.3,0.1,0.6,0.2,0.7s0.3,0.2,0.5,0.2c0.3,0,0.6-0.1,0.7-0.3s0.2-0.6,0.2-1.1v-2.1H32v4.4H31.1z"
		/>
	<path class="st4" d="M34.6,140.3c-0.5,0-0.9-0.2-1.2-0.6s-0.4-1-0.4-1.7c0-0.7,0.1-1.3,0.4-1.7s0.7-0.6,1.2-0.6
		c0.5,0,1,0.2,1.3,0.6h0c-0.1-0.3-0.1-0.6-0.1-0.9v-1.4H37v6.1h-0.9l-0.2-0.6h-0.1C35.6,140.1,35.2,140.3,34.6,140.3z M35,139.3
		c0.3,0,0.5-0.1,0.7-0.3s0.2-0.5,0.2-0.9V138c0-0.5-0.1-0.8-0.2-1s-0.4-0.3-0.7-0.3c-0.3,0-0.5,0.1-0.6,0.3s-0.2,0.6-0.2,1
		s0.1,0.8,0.2,1S34.7,139.3,35,139.3z"/>
	<path class="st4" d="M40.3,140.3c-0.7,0-1.3-0.2-1.6-0.6s-0.6-0.9-0.6-1.6c0-0.7,0.2-1.3,0.5-1.7s0.9-0.6,1.5-0.6
		c0.6,0,1.1,0.2,1.4,0.5s0.5,0.8,0.5,1.5v0.6h-2.8c0,0.3,0.1,0.6,0.3,0.8s0.5,0.3,0.8,0.3c0.3,0,0.5,0,0.7-0.1s0.5-0.1,0.7-0.3v0.9
		c-0.2,0.1-0.4,0.2-0.7,0.2S40.6,140.3,40.3,140.3z M40.1,136.6c-0.3,0-0.5,0.1-0.6,0.2s-0.2,0.4-0.2,0.7h1.7c0-0.3-0.1-0.5-0.2-0.7
		S40.3,136.6,40.1,136.6z"/>
	<path class="st4" d="M46.1,138.9c0,0.4-0.2,0.8-0.5,1s-0.8,0.4-1.4,0.4c-0.3,0-0.6,0-0.8-0.1s-0.4-0.1-0.6-0.2v-1
		c0.2,0.1,0.5,0.2,0.7,0.3s0.5,0.1,0.7,0.1c0.4,0,0.6-0.1,0.6-0.4c0-0.1,0-0.2-0.1-0.2s-0.2-0.1-0.3-0.2s-0.3-0.2-0.6-0.3
		c-0.3-0.1-0.6-0.3-0.7-0.4s-0.3-0.3-0.3-0.4s-0.1-0.3-0.1-0.6c0-0.4,0.2-0.7,0.5-0.9s0.7-0.3,1.3-0.3c0.5,0,1,0.1,1.5,0.3l-0.4,0.9
		c-0.2-0.1-0.4-0.2-0.6-0.2s-0.4-0.1-0.6-0.1c-0.4,0-0.5,0.1-0.5,0.3c0,0.1,0.1,0.2,0.2,0.3s0.4,0.2,0.7,0.3
		c0.3,0.1,0.6,0.3,0.8,0.4s0.3,0.3,0.4,0.4S46.1,138.7,46.1,138.9z"/>
	<path class="st4" d="M48.8,139.3c0.2,0,0.5,0,0.8-0.1v0.9c-0.3,0.1-0.7,0.2-1.1,0.2c-0.5,0-0.8-0.1-1-0.4s-0.3-0.6-0.3-1.1v-2.1
		h-0.6v-0.5l0.7-0.4l0.3-0.9h0.8v0.9h1.2v0.9h-1.2v2.1c0,0.2,0,0.3,0.1,0.4S48.7,139.3,48.8,139.3z"/>
	<path class="st4" d="M52.4,140.3c-0.7,0-1.3-0.2-1.6-0.6s-0.6-0.9-0.6-1.6c0-0.7,0.2-1.3,0.5-1.7s0.9-0.6,1.5-0.6
		c0.6,0,1.1,0.2,1.4,0.5s0.5,0.8,0.5,1.5v0.6h-2.8c0,0.3,0.1,0.6,0.3,0.8s0.5,0.3,0.8,0.3c0.3,0,0.5,0,0.7-0.1s0.5-0.1,0.7-0.3v0.9
		c-0.2,0.1-0.4,0.2-0.7,0.2S52.8,140.3,52.4,140.3z M52.3,136.6c-0.3,0-0.5,0.1-0.6,0.2s-0.2,0.4-0.2,0.7h1.7c0-0.3-0.1-0.5-0.2-0.7
		S52.5,136.6,52.3,136.6z"/>
</g>
<g class="st1">
	<path class="st4" d="M36.8,168.9c0,0.5-0.2,0.9-0.6,1.2s-0.9,0.4-1.5,0.4c-0.6,0-1.1-0.1-1.6-0.3v-1.1c0.4,0.2,0.7,0.3,1,0.4
		s0.5,0.1,0.7,0.1c0.3,0,0.5-0.1,0.6-0.2s0.2-0.3,0.2-0.5c0-0.1,0-0.2-0.1-0.3s-0.2-0.2-0.3-0.3s-0.4-0.2-0.7-0.4
		c-0.3-0.2-0.6-0.3-0.8-0.5s-0.3-0.3-0.4-0.5s-0.2-0.4-0.2-0.7c0-0.5,0.2-0.9,0.5-1.2s0.8-0.4,1.4-0.4c0.3,0,0.6,0,0.8,0.1
		s0.6,0.2,0.8,0.3l-0.4,0.9c-0.3-0.1-0.6-0.2-0.8-0.3s-0.4-0.1-0.6-0.1c-0.2,0-0.4,0.1-0.5,0.2s-0.2,0.2-0.2,0.4
		c0,0.1,0,0.2,0.1,0.3s0.1,0.2,0.2,0.2s0.4,0.2,0.8,0.4c0.5,0.3,0.9,0.5,1.1,0.8S36.8,168.5,36.8,168.9z"/>
	<path class="st4" d="M40.8,170.5l-0.2-0.6h-0.1c-0.1,0.2-0.3,0.4-0.5,0.5s-0.5,0.2-0.8,0.2c-0.5,0-0.9-0.1-1.2-0.4
		s-0.4-0.7-0.4-1.2v-2.8h1.2v2.6c0,0.3,0.1,0.6,0.2,0.7s0.3,0.2,0.5,0.2c0.3,0,0.6-0.1,0.7-0.3s0.2-0.6,0.2-1.1v-2.1h1.2v4.4H40.8z"
		/>
	<path class="st4" d="M44.2,170.5H43v-6.1h1.2V170.5z"/>
</g>
<g class="st1">
	<path class="st4" d="M28.1,196.1h1.8c0.8,0,1.4,0.1,1.8,0.3s0.5,0.6,0.5,1.1c0,0.3-0.1,0.6-0.2,0.8s-0.4,0.4-0.6,0.4v0
		c0.4,0.1,0.6,0.2,0.8,0.5s0.2,0.5,0.2,0.9c0,0.5-0.2,0.9-0.6,1.2s-0.9,0.4-1.5,0.4h-2.1V196.1z M29.3,198.4H30
		c0.3,0,0.6-0.1,0.7-0.2s0.2-0.3,0.2-0.5c0-0.2-0.1-0.4-0.2-0.5s-0.4-0.1-0.8-0.1h-0.6V198.4z M29.3,199.4v1.5h0.8
		c0.3,0,0.6-0.1,0.7-0.2s0.2-0.3,0.2-0.6c0-0.5-0.3-0.7-1-0.7H29.3z"/>
	<path class="st4" d="M35.8,197.4c0.2,0,0.3,0,0.4,0l-0.1,1.1c-0.1,0-0.2,0-0.4,0c-0.4,0-0.7,0.1-0.9,0.3s-0.3,0.5-0.3,0.8v2.2h-1.2
		v-4.4h0.9l0.2,0.7h0.1c0.1-0.2,0.3-0.4,0.5-0.6S35.6,197.4,35.8,197.4z"/>
	<path class="st4" d="M39.8,201.8l-0.2-0.6h0c-0.2,0.3-0.4,0.4-0.6,0.5s-0.5,0.1-0.8,0.1c-0.4,0-0.7-0.1-1-0.4s-0.4-0.6-0.4-1
		c0-0.5,0.2-0.8,0.5-1s0.8-0.3,1.5-0.4l0.8,0v-0.2c0-0.4-0.2-0.7-0.7-0.7c-0.3,0-0.8,0.1-1.2,0.3l-0.4-0.8c0.5-0.3,1.1-0.4,1.7-0.4
		c0.6,0,1,0.1,1.3,0.4s0.5,0.6,0.5,1.2v2.9H39.8z M39.5,199.8l-0.5,0c-0.3,0-0.6,0.1-0.8,0.2s-0.3,0.3-0.3,0.5
		c0,0.3,0.2,0.5,0.6,0.5c0.3,0,0.5-0.1,0.7-0.2s0.2-0.4,0.2-0.6V199.8z"/>
	<path class="st4" d="M44.9,200.5c0,0.4-0.2,0.8-0.5,1s-0.8,0.4-1.4,0.4c-0.3,0-0.6,0-0.8-0.1s-0.4-0.1-0.6-0.2v-1
		c0.2,0.1,0.5,0.2,0.7,0.3s0.5,0.1,0.7,0.1c0.4,0,0.6-0.1,0.6-0.4c0-0.1,0-0.2-0.1-0.2s-0.2-0.1-0.3-0.2s-0.3-0.2-0.6-0.3
		c-0.3-0.1-0.6-0.3-0.7-0.4s-0.3-0.3-0.3-0.4s-0.1-0.3-0.1-0.6c0-0.4,0.2-0.7,0.5-0.9s0.7-0.3,1.3-0.3c0.5,0,1,0.1,1.5,0.3l-0.4,0.9
		c-0.2-0.1-0.4-0.2-0.6-0.2s-0.4-0.1-0.6-0.1c-0.4,0-0.5,0.1-0.5,0.3c0,0.1,0.1,0.2,0.2,0.3s0.4,0.2,0.7,0.3
		c0.3,0.1,0.6,0.3,0.8,0.4s0.3,0.3,0.4,0.4S44.9,200.3,44.9,200.5z"/>
	<path class="st4" d="M45.8,196.3c0-0.4,0.2-0.6,0.6-0.6s0.6,0.2,0.6,0.6c0,0.2-0.1,0.3-0.2,0.4s-0.3,0.2-0.5,0.2
		C46,196.9,45.8,196.7,45.8,196.3z M47,201.8h-1.2v-4.4H47V201.8z"/>
	<path class="st4" d="M49.5,201.8h-1.2v-6.1h1.2V201.8z"/>
</g>
</svg>
